<svg width="240" height="265" viewBox="0 0 240 265" fill="none" xmlns="http://www.w3.org/2000/svg">
<rect width="239.458" height="265" rx="25.5422" fill="white"/>
<path d="M143.493 97.3795H86.3856C85.4042 97.3795 84.6084 96.5838 84.6084 95.6023C84.6084 94.6208 85.4042 93.8251 86.3856 93.8251H143.493C144.475 93.8251 145.271 94.6208 145.271 95.6023C145.271 96.5838 144.475 97.3795 143.493 97.3795Z" fill="url(#paint0_linear_1_5)"/>
<path d="M97.1674 97.3795H90.0586C89.0771 97.3795 88.2813 96.5838 88.2813 95.6023V82.5694C88.2813 80.9361 89.6101 79.6074 91.2434 79.6074H95.9826C97.6159 79.6074 98.9446 80.9361 98.9446 82.5694V95.6023C98.9446 96.5838 98.1489 97.3795 97.1674 97.3795ZM91.8358 93.8251H95.3902V83.1618H91.8358V93.8251Z" fill="url(#paint1_linear_1_5)"/>
<path d="M111.385 97.3795H104.276C103.295 97.3795 102.499 96.5838 102.499 95.6023V78.3041C102.499 76.6708 103.828 75.342 105.461 75.342H110.2C111.834 75.342 113.162 76.6708 113.162 78.3041V95.6023C113.162 96.5838 112.367 97.3795 111.385 97.3795ZM106.053 93.8251H109.608V78.8965H106.053V93.8251Z" fill="url(#paint2_linear_1_5)"/>
<path d="M125.603 97.3795H118.494C117.512 97.3795 116.717 96.5838 116.717 95.6023V71.7876C116.717 70.1544 118.046 68.8256 119.679 68.8256H124.418C126.051 68.8256 127.38 70.1544 127.38 71.7876V95.6023C127.38 96.5838 126.584 97.3795 125.603 97.3795ZM120.271 93.8251H123.826V72.38H120.271V93.8251Z" fill="url(#paint3_linear_1_5)"/>
<path d="M139.821 97.3795H132.712C131.73 97.3795 130.934 96.5838 130.934 95.6023V59.9395C130.934 58.3062 132.263 56.9775 133.896 56.9775H138.636C140.269 56.9775 141.598 58.3062 141.598 59.9395V95.6023C141.598 96.5838 140.802 97.3795 139.821 97.3795ZM134.489 93.8251H138.043V60.5319H134.489V93.8251Z" fill="url(#paint4_linear_1_5)"/>
<path d="M86.3856 74.9043C85.4042 74.9043 84.6084 74.1086 84.6084 73.1271C84.6084 72.1456 85.4042 71.3499 86.3856 71.3499C96.8364 71.3499 108.215 67.5442 118.425 60.6341C127.819 54.277 135.304 45.943 138.961 37.7691C139.362 36.8732 140.413 36.4718 141.309 36.8728C142.205 37.2736 142.606 38.3249 142.205 39.2209C138.285 47.9822 130.344 56.86 120.418 63.5777C109.625 70.8817 97.5391 74.9043 86.3856 74.9043Z" fill="url(#paint5_linear_1_5)"/>
<path d="M143.492 51.1333C142.708 51.1333 141.99 50.6096 141.777 49.8155L139.327 40.6711L130.182 43.1214C129.234 43.3756 128.26 42.8128 128.005 41.8648C127.751 40.9167 128.314 39.9422 129.262 39.6881L140.123 36.7779C141.072 36.5238 142.046 37.0865 142.3 38.0345L145.21 48.8957C145.464 49.8437 144.902 50.8183 143.953 51.0723C143.799 51.1135 143.645 51.1333 143.492 51.1333Z" fill="url(#paint6_linear_1_5)"/>
<path d="M75.1578 167.518L88.0247 141.369H73.456V136.596H93.96V141.369L81.3837 167.518H75.1578ZM106.871 168.016C105.238 168.016 103.675 167.712 102.181 167.103C100.714 166.494 99.4414 165.636 98.3622 164.53C97.3108 163.395 96.5913 162.053 96.2039 160.504L101.102 158.76C101.572 160.172 102.333 161.223 103.384 161.915C104.436 162.579 105.598 162.911 106.871 162.911C107.922 162.911 108.849 162.69 109.652 162.247C110.482 161.776 111.118 161.14 111.561 160.338C112.004 159.507 112.225 158.553 112.225 157.474C112.225 156.394 111.99 155.454 111.52 154.651C111.077 153.849 110.454 153.226 109.652 152.783C108.849 152.313 107.922 152.078 106.871 152.078C105.792 152.078 104.81 152.313 103.924 152.783C103.066 153.254 102.444 153.932 102.056 154.817L97.4491 153.78L99.898 136.596H116.749V141.369H102.139L104.256 138.92L102.513 151.87L100.894 150.542C101.669 149.408 102.61 148.577 103.717 148.052C104.851 147.526 106.221 147.263 107.826 147.263C109.873 147.263 111.644 147.706 113.138 148.591C114.66 149.477 115.836 150.68 116.666 152.202C117.497 153.724 117.912 155.481 117.912 157.474C117.912 159.466 117.427 161.265 116.459 162.869C115.49 164.474 114.176 165.733 112.516 166.646C110.856 167.56 108.974 168.016 106.871 168.016ZM134.773 168.016C132.31 168.016 130.152 167.352 128.298 166.024C126.444 164.696 124.991 162.828 123.94 160.421C122.916 158.013 122.404 155.218 122.404 152.036C122.404 148.827 122.916 146.032 123.94 143.652C124.964 141.272 126.402 139.419 128.256 138.09C130.11 136.762 132.269 136.098 134.731 136.098C137.249 136.098 139.421 136.762 141.248 138.09C143.102 139.419 144.554 141.286 145.606 143.694C146.657 146.073 147.183 148.854 147.183 152.036C147.183 155.218 146.657 158.013 145.606 160.421C144.582 162.8 143.143 164.668 141.289 166.024C139.435 167.352 137.263 168.016 134.773 168.016ZM134.814 162.869C136.225 162.869 137.429 162.441 138.425 161.583C139.421 160.697 140.182 159.452 140.708 157.847C141.262 156.215 141.538 154.278 141.538 152.036C141.538 149.795 141.262 147.872 140.708 146.267C140.182 144.634 139.408 143.389 138.384 142.531C137.388 141.674 136.17 141.245 134.731 141.245C133.348 141.245 132.158 141.674 131.162 142.531C130.166 143.389 129.391 144.634 128.837 146.267C128.312 147.872 128.049 149.795 128.049 152.036C128.049 154.25 128.312 156.173 128.837 157.806C129.391 159.411 130.166 160.656 131.162 161.541C132.186 162.427 133.403 162.869 134.814 162.869ZM160.839 167.518V159.466H152.787V154.776H160.839V146.765H165.529V154.776H173.54V159.466H165.529V167.518H160.839Z" fill="#03518F"/>
<path d="M27.081 208.449C25.904 208.449 24.8088 208.233 23.7957 207.801C22.7974 207.369 21.9183 206.773 21.1584 206.013C20.4135 205.238 19.8324 204.329 19.4152 203.286C18.998 202.243 18.7894 201.096 18.7894 199.844C18.7894 198.608 18.9905 197.468 19.3928 196.425C19.81 195.367 20.3911 194.458 21.1361 193.698C21.8811 192.924 22.7527 192.328 23.751 191.91C24.7492 191.478 25.8444 191.262 27.0363 191.262C28.2134 191.262 29.2638 191.463 30.1876 191.866C31.1263 192.268 31.9159 192.797 32.5566 193.452C33.1973 194.093 33.6592 194.793 33.9423 195.553L31.5956 196.693C31.2529 195.784 30.6867 195.054 29.897 194.503C29.1074 193.937 28.1538 193.654 27.0363 193.654C25.9338 193.654 24.9578 193.914 24.1086 194.436C23.2593 194.957 22.5962 195.68 22.1195 196.604C21.6576 197.528 21.4266 198.608 21.4266 199.844C21.4266 201.081 21.665 202.169 22.1418 203.107C22.6335 204.031 23.304 204.754 24.1533 205.275C25.0025 205.782 25.9785 206.035 27.081 206.035C28.0048 206.035 28.8466 205.849 29.6065 205.476C30.3813 205.089 30.9996 204.553 31.4615 203.867C31.9234 203.167 32.1543 202.355 32.1543 201.431V200.291L33.3389 201.364H27.0363V199.129H34.7692V200.694C34.7692 201.915 34.5606 203.011 34.1434 203.979C33.7262 204.933 33.1601 205.745 32.4449 206.415C31.7297 207.086 30.9102 207.592 29.9864 207.935C29.0627 208.278 28.0942 208.449 27.081 208.449ZM37.4618 208.181V191.53H43.5185C44.636 191.53 45.6193 191.739 46.4686 192.156C47.3179 192.558 47.9809 193.154 48.4577 193.944C48.9494 194.719 49.1952 195.65 49.1952 196.738C49.1952 197.885 48.9047 198.868 48.3236 199.688C47.7574 200.507 46.9901 201.103 46.0216 201.476L49.8657 208.181H46.8709L42.781 200.917L44.5019 201.923H40.099V208.181H37.4618ZM40.099 199.576H43.5632C44.1741 199.576 44.703 199.457 45.15 199.219C45.597 198.98 45.9397 198.652 46.1781 198.235C46.4314 197.803 46.558 197.297 46.558 196.715C46.558 196.134 46.4314 195.635 46.1781 195.218C45.9397 194.786 45.597 194.458 45.15 194.235C44.703 193.996 44.1741 193.877 43.5632 193.877H40.099V199.576ZM60.1754 208.449C58.9686 208.449 57.8436 208.233 56.8007 207.801C55.7726 207.369 54.8637 206.765 54.074 205.99C53.2993 205.216 52.6884 204.307 52.2414 203.264C51.8093 202.221 51.5932 201.081 51.5932 199.844C51.5932 198.608 51.8093 197.468 52.2414 196.425C52.6884 195.367 53.2993 194.458 54.074 193.698C54.8488 192.924 55.7577 192.328 56.8007 191.91C57.8436 191.478 58.9686 191.262 60.1754 191.262C61.3972 191.262 62.5221 191.478 63.5502 191.91C64.5931 192.328 65.502 192.924 66.2768 193.698C67.0665 194.473 67.6774 195.382 68.1095 196.425C68.5415 197.468 68.7576 198.608 68.7576 199.844C68.7576 201.081 68.5341 202.221 68.0871 203.264C67.655 204.307 67.0516 205.216 66.2768 205.99C65.502 206.765 64.5931 207.369 63.5502 207.801C62.5072 208.233 61.3823 208.449 60.1754 208.449ZM60.1754 206.035C61.0396 206.035 61.8293 205.879 62.5445 205.566C63.2745 205.253 63.9078 204.821 64.4442 204.27C64.9805 203.703 65.3977 203.048 65.6957 202.303C65.9937 201.543 66.1427 200.723 66.1427 199.844C66.1427 198.965 65.9937 198.153 65.6957 197.408C65.3977 196.663 64.9805 196.008 64.4442 195.442C63.9078 194.875 63.2745 194.436 62.5445 194.123C61.8293 193.81 61.0396 193.654 60.1754 193.654C59.3112 193.654 58.5141 193.81 57.784 194.123C57.0689 194.436 56.4431 194.875 55.9067 195.442C55.3703 196.008 54.9531 196.663 54.6551 197.408C54.372 198.153 54.2305 198.965 54.2305 199.844C54.2305 200.723 54.372 201.543 54.6551 202.303C54.9531 203.048 55.3703 203.703 55.9067 204.27C56.4431 204.821 57.0763 205.253 57.8064 205.566C58.5365 205.879 59.3261 206.035 60.1754 206.035ZM74.3762 208.181L69.7946 191.53H72.5882L76.2982 205.946H75.6054L79.4495 191.53H82.1985L86.0426 205.946H85.3274L89.0597 191.53H91.8311L87.2718 208.181H84.2993L80.4329 193.989H81.2151L77.3263 208.181H74.3762ZM96.7437 208.181V193.877H92.3186V191.53H103.717V193.877H99.3586V208.181H96.7437ZM105.689 208.181V191.53H108.326V198.861H116.036V191.53H118.651V208.181H116.036V201.208H108.326V208.181H105.689ZM126.008 208.181V191.53H136.982V193.877H128.645V198.66H136.535V201.007H128.645V205.834H136.982V208.181H126.008ZM137.956 208.181L143.387 199.755L138.045 191.53H141.04L145.51 198.414H144.236L148.661 191.53H151.656L146.337 199.755L151.768 208.181H148.773L144.236 201.118L145.51 201.141L140.928 208.181H137.956ZM153.727 208.181V191.53H159.783C160.901 191.53 161.884 191.739 162.733 192.156C163.598 192.558 164.268 193.154 164.745 193.944C165.222 194.719 165.46 195.65 165.46 196.738C165.46 197.811 165.214 198.734 164.723 199.509C164.246 200.284 163.583 200.88 162.733 201.297C161.884 201.714 160.901 201.923 159.783 201.923H156.364V208.181H153.727ZM156.364 199.576H159.85C160.446 199.576 160.968 199.457 161.415 199.219C161.862 198.98 162.212 198.652 162.465 198.235C162.719 197.803 162.845 197.297 162.845 196.715C162.845 196.134 162.719 195.635 162.465 195.218C162.212 194.786 161.862 194.458 161.415 194.235C160.968 193.996 160.446 193.877 159.85 193.877H156.364V199.576ZM168.175 208.181V191.53H179.149V193.877H170.812V198.66H178.702V201.007H170.812V205.834H179.149V208.181H168.175ZM181.598 208.181V191.53H187.655C188.772 191.53 189.755 191.739 190.605 192.156C191.454 192.558 192.117 193.154 192.594 193.944C193.086 194.719 193.331 195.65 193.331 196.738C193.331 197.885 193.041 198.868 192.46 199.688C191.894 200.507 191.126 201.103 190.158 201.476L194.002 208.181H191.007L186.917 200.917L188.638 201.923H184.235V208.181H181.598ZM184.235 199.576H187.699C188.31 199.576 188.839 199.457 189.286 199.219C189.733 198.98 190.076 198.652 190.314 198.235C190.568 197.803 190.694 197.297 190.694 196.715C190.694 196.134 190.568 195.635 190.314 195.218C190.076 194.786 189.733 194.458 189.286 194.235C188.839 193.996 188.31 193.877 187.699 193.877H184.235V199.576ZM198.735 208.181V193.877H194.31V191.53H205.708V193.877H201.35V208.181H198.735ZM213.513 208.449C212.47 208.449 211.501 208.255 210.607 207.868C209.713 207.466 208.953 206.922 208.328 206.236C207.702 205.551 207.24 204.761 206.942 203.867L209.177 202.929C209.579 203.957 210.168 204.746 210.943 205.298C211.717 205.849 212.611 206.125 213.624 206.125C214.22 206.125 214.742 206.035 215.189 205.856C215.636 205.663 215.979 205.395 216.217 205.052C216.47 204.709 216.597 204.314 216.597 203.867C216.597 203.256 216.426 202.772 216.083 202.415C215.74 202.057 215.234 201.774 214.563 201.565L211.434 200.582C210.183 200.195 209.229 199.606 208.573 198.816C207.918 198.012 207.59 197.073 207.59 196C207.59 195.062 207.821 194.242 208.283 193.542C208.745 192.827 209.378 192.268 210.183 191.866C211.002 191.463 211.933 191.262 212.976 191.262C213.975 191.262 214.883 191.441 215.703 191.799C216.522 192.141 217.223 192.618 217.804 193.229C218.4 193.84 218.832 194.548 219.1 195.352L216.91 196.313C216.582 195.434 216.068 194.756 215.368 194.279C214.682 193.803 213.885 193.564 212.976 193.564C212.425 193.564 211.941 193.661 211.524 193.855C211.106 194.034 210.779 194.302 210.54 194.659C210.317 195.002 210.205 195.404 210.205 195.866C210.205 196.403 210.376 196.879 210.719 197.297C211.062 197.714 211.583 198.027 212.283 198.235L215.189 199.152C216.515 199.554 217.513 200.135 218.184 200.895C218.854 201.64 219.189 202.571 219.189 203.688C219.189 204.612 218.944 205.432 218.452 206.147C217.975 206.862 217.312 207.428 216.463 207.845C215.614 208.248 214.63 208.449 213.513 208.449Z" fill="#242424"/>
<path d="M196.355 15.9639V17.55V24.3868H214.524V41.506H223.494V17.55V15.9639H196.355Z" fill="#EE4523"/>
<defs>
<linearGradient id="paint0_linear_1_5" x1="114.94" y1="36.7169" x2="124.707" y2="97.3093" gradientUnits="userSpaceOnUse">
<stop stop-color="#EE4523"/>
<stop offset="1" stop-color="#EE4523" stop-opacity="0.42"/>
</linearGradient>
<linearGradient id="paint1_linear_1_5" x1="114.94" y1="36.7169" x2="124.707" y2="97.3093" gradientUnits="userSpaceOnUse">
<stop stop-color="#EE4523"/>
<stop offset="1" stop-color="#EE4523" stop-opacity="0.42"/>
</linearGradient>
<linearGradient id="paint2_linear_1_5" x1="114.94" y1="36.7169" x2="124.707" y2="97.3093" gradientUnits="userSpaceOnUse">
<stop stop-color="#EE4523"/>
<stop offset="1" stop-color="#EE4523" stop-opacity="0.42"/>
</linearGradient>
<linearGradient id="paint3_linear_1_5" x1="114.94" y1="36.7169" x2="124.707" y2="97.3093" gradientUnits="userSpaceOnUse">
<stop stop-color="#EE4523"/>
<stop offset="1" stop-color="#EE4523" stop-opacity="0.42"/>
</linearGradient>
<linearGradient id="paint4_linear_1_5" x1="114.94" y1="36.7169" x2="124.707" y2="97.3093" gradientUnits="userSpaceOnUse">
<stop stop-color="#EE4523"/>
<stop offset="1" stop-color="#EE4523" stop-opacity="0.42"/>
</linearGradient>
<linearGradient id="paint5_linear_1_5" x1="114.94" y1="36.7169" x2="124.707" y2="97.3093" gradientUnits="userSpaceOnUse">
<stop stop-color="#EE4523"/>
<stop offset="1" stop-color="#EE4523" stop-opacity="0.42"/>
</linearGradient>
<linearGradient id="paint6_linear_1_5" x1="114.94" y1="36.7169" x2="124.707" y2="97.3093" gradientUnits="userSpaceOnUse">
<stop stop-color="#EE4523"/>
<stop offset="1" stop-color="#EE4523" stop-opacity="0.42"/>
</linearGradient>
</defs>
</svg>
