<svg width="240" height="265" viewBox="0 0 240 265" fill="none" xmlns="http://www.w3.org/2000/svg">
<rect width="239.458" height="265" rx="25.5422" fill="white"/>
<path d="M67.2522 167.518V160.711H53.0572V155.979L66.9202 136.596H72.814V155.979H77.3382V160.711H72.814V167.518H67.2522ZM57.2078 158.013L56.2116 155.979H67.2522V141.037L68.7049 141.494L57.2078 158.013ZM93.4133 168.016C90.9507 168.016 88.7923 167.352 86.9384 166.024C85.0845 164.696 83.6318 162.828 82.5803 160.421C81.5565 158.013 81.0445 155.218 81.0445 152.036C81.0445 148.827 81.5565 146.032 82.5803 143.652C83.6041 141.272 85.043 139.419 86.8969 138.09C88.7508 136.762 90.9091 136.098 93.3718 136.098C95.8899 136.098 98.062 136.762 99.8883 138.09C101.742 139.419 103.195 141.286 104.246 143.694C105.298 146.073 105.824 148.854 105.824 152.036C105.824 155.218 105.298 158.013 104.246 160.421C103.223 162.8 101.784 164.668 99.9298 166.024C98.0759 167.352 95.9037 168.016 93.4133 168.016ZM93.4548 162.869C94.8661 162.869 96.0697 162.441 97.0659 161.583C98.062 160.697 98.823 159.452 99.3487 157.847C99.9021 156.215 100.179 154.278 100.179 152.036C100.179 149.795 99.9021 147.872 99.3487 146.267C98.823 144.634 98.0482 143.389 97.0244 142.531C96.0282 141.674 94.8107 141.245 93.3718 141.245C91.9883 141.245 90.7985 141.674 89.8023 142.531C88.8062 143.389 88.0314 144.634 87.478 146.267C86.9522 147.872 86.6894 149.795 86.6894 152.036C86.6894 154.25 86.9522 156.173 87.478 157.806C88.0314 159.411 88.8062 160.656 89.8023 161.541C90.8261 162.427 92.0436 162.869 93.4548 162.869ZM122.8 168.016C120.337 168.016 118.179 167.352 116.325 166.024C114.471 164.696 113.018 162.828 111.967 160.421C110.943 158.013 110.431 155.218 110.431 152.036C110.431 148.827 110.943 146.032 111.967 143.652C112.991 141.272 114.43 139.419 116.283 138.09C118.137 136.762 120.296 136.098 122.758 136.098C125.276 136.098 127.449 136.762 129.275 138.09C131.129 139.419 132.582 141.286 133.633 143.694C134.684 146.073 135.21 148.854 135.21 152.036C135.21 155.218 134.684 158.013 133.633 160.421C132.609 162.8 131.17 164.668 129.316 166.024C127.462 167.352 125.29 168.016 122.8 168.016ZM122.841 162.869C124.253 162.869 125.456 162.441 126.452 161.583C127.449 160.697 128.21 159.452 128.735 157.847C129.289 156.215 129.565 154.278 129.565 152.036C129.565 149.795 129.289 147.872 128.735 146.267C128.21 144.634 127.435 143.389 126.411 142.531C125.415 141.674 124.197 141.245 122.758 141.245C121.375 141.245 120.185 141.674 119.189 142.531C118.193 143.389 117.418 144.634 116.865 146.267C116.339 147.872 116.076 149.795 116.076 152.036C116.076 154.25 116.339 156.173 116.865 157.806C117.418 159.411 118.193 160.656 119.189 161.541C120.213 162.427 121.43 162.869 122.841 162.869ZM152.187 168.016C149.724 168.016 147.566 167.352 145.712 166.024C143.858 164.696 142.405 162.828 141.353 160.421C140.33 158.013 139.818 155.218 139.818 152.036C139.818 148.827 140.33 146.032 141.353 143.652C142.377 141.272 143.816 139.419 145.67 138.09C147.524 136.762 149.682 136.098 152.145 136.098C154.663 136.098 156.835 136.762 158.661 138.09C160.515 139.419 161.968 141.286 163.02 143.694C164.071 146.073 164.597 148.854 164.597 152.036C164.597 155.218 164.071 158.013 163.02 160.421C161.996 162.8 160.557 164.668 158.703 166.024C156.849 167.352 154.677 168.016 152.187 168.016ZM152.228 162.869C153.639 162.869 154.843 162.441 155.839 161.583C156.835 160.697 157.596 159.452 158.122 157.847C158.675 156.215 158.952 154.278 158.952 152.036C158.952 149.795 158.675 147.872 158.122 146.267C157.596 144.634 156.821 143.389 155.798 142.531C154.801 141.674 153.584 141.245 152.145 141.245C150.761 141.245 149.572 141.674 148.576 142.531C147.579 143.389 146.805 144.634 146.251 146.267C145.725 147.872 145.463 149.795 145.463 152.036C145.463 154.25 145.725 156.173 146.251 157.806C146.805 159.411 147.579 160.656 148.576 161.541C149.599 162.427 150.817 162.869 152.228 162.869ZM178.253 167.518V159.466H170.2V154.776H178.253V146.765H182.943V154.776H190.953V159.466H182.943V167.518H178.253Z" fill="#03518F"/>
<path d="M75.4237 208.449C74.2467 208.449 73.1515 208.233 72.1384 207.801C71.1401 207.369 70.2685 206.773 69.5235 206.013C68.7934 205.238 68.2198 204.329 67.8026 203.286C67.3854 202.243 67.1768 201.096 67.1768 199.844C67.1768 198.608 67.3779 197.468 67.7802 196.425C68.1974 195.367 68.7785 194.458 69.5235 193.698C70.2685 192.924 71.1401 192.328 72.1384 191.91C73.1366 191.478 74.2318 191.262 75.4237 191.262C76.6008 191.262 77.6512 191.463 78.575 191.866C79.5137 192.268 80.3033 192.797 80.944 193.452C81.5847 194.093 82.0466 194.793 82.3297 195.553L79.9606 196.671C79.6031 195.777 79.0294 195.054 78.2397 194.503C77.465 193.937 76.5263 193.654 75.4237 193.654C74.3211 193.654 73.3452 193.914 72.4959 194.436C71.6467 194.957 70.9836 195.68 70.5069 196.604C70.045 197.528 69.814 198.608 69.814 199.844C69.814 201.081 70.045 202.169 70.5069 203.107C70.9836 204.031 71.6467 204.754 72.4959 205.275C73.3452 205.782 74.3211 206.035 75.4237 206.035C76.5263 206.035 77.465 205.76 78.2397 205.208C79.0294 204.657 79.6031 203.934 79.9606 203.04L82.3297 204.158C82.0466 204.903 81.5847 205.603 80.944 206.259C80.3033 206.914 79.5137 207.443 78.575 207.845C77.6512 208.248 76.6008 208.449 75.4237 208.449ZM91.2771 208.449C90.0405 208.449 88.9379 208.188 87.9694 207.667C87.0158 207.145 86.2634 206.43 85.7121 205.521C85.1757 204.612 84.9075 203.577 84.9075 202.415V191.53H87.5448V202.303C87.5448 203.033 87.7012 203.681 88.0141 204.247C88.3419 204.813 88.7814 205.253 89.3327 205.566C89.8989 205.879 90.547 206.035 91.2771 206.035C92.0221 206.035 92.6702 205.879 93.2215 205.566C93.7877 205.253 94.2272 204.813 94.5401 204.247C94.8679 203.681 95.0318 203.033 95.0318 202.303V191.53H97.6467V202.415C97.6467 203.577 97.3785 204.612 96.8421 205.521C96.3057 206.43 95.5533 207.145 94.5848 207.667C93.6313 208.188 92.5287 208.449 91.2771 208.449ZM100.952 208.181V191.53H107.009C108.127 191.53 109.11 191.739 109.959 192.156C110.809 192.558 111.472 193.154 111.948 193.944C112.44 194.719 112.686 195.65 112.686 196.738C112.686 197.885 112.395 198.868 111.814 199.688C111.248 200.507 110.481 201.103 109.512 201.476L113.356 208.181H110.362L106.272 200.917L107.993 201.923H103.59V208.181H100.952ZM103.59 199.576H107.054C107.665 199.576 108.194 199.457 108.641 199.219C109.088 198.98 109.43 198.652 109.669 198.235C109.922 197.803 110.049 197.297 110.049 196.715C110.049 196.134 109.922 195.635 109.669 195.218C109.43 194.786 109.088 194.458 108.641 194.235C108.194 193.996 107.665 193.877 107.054 193.877H103.59V199.576ZM115.576 208.181V191.53H121.632C122.75 191.53 123.733 191.739 124.582 192.156C125.432 192.558 126.095 193.154 126.572 193.944C127.063 194.719 127.309 195.65 127.309 196.738C127.309 197.885 127.019 198.868 126.437 199.688C125.871 200.507 125.104 201.103 124.135 201.476L127.98 208.181H124.985L120.895 200.917L122.616 201.923H118.213V208.181H115.576ZM118.213 199.576H121.677C122.288 199.576 122.817 199.457 123.264 199.219C123.711 198.98 124.054 198.652 124.292 198.235C124.545 197.803 124.672 197.297 124.672 196.715C124.672 196.134 124.545 195.635 124.292 195.218C124.054 194.786 123.711 194.458 123.264 194.235C122.817 193.996 122.288 193.877 121.677 193.877H118.213V199.576ZM130.199 208.181V191.53H141.172V193.877H132.836V198.66H140.725V201.007H132.836V205.834H141.172V208.181H130.199ZM143.622 208.181V191.53H145.745L155.087 204.426L154.081 204.582V191.53H156.696V208.181H154.573L145.298 195.196L146.259 195.017V208.181H143.622ZM163.094 208.181V193.877H158.668V191.53H170.067V193.877H165.708V208.181H163.094ZM62.5722 236.181V219.53H68.6289C69.7464 219.53 70.7297 219.739 71.579 220.156C72.4432 220.558 73.1137 221.154 73.5905 221.944C74.0672 222.719 74.3056 223.65 74.3056 224.738C74.3056 225.811 74.0598 226.734 73.5681 227.509C73.0913 228.284 72.4283 228.88 71.579 229.297C70.7297 229.714 69.7464 229.923 68.6289 229.923H65.2094V236.181H62.5722ZM65.2094 227.576H68.6959C69.2919 227.576 69.8134 227.457 70.2604 227.219C70.7074 226.98 71.0575 226.652 71.3108 226.235C71.5641 225.803 71.6908 225.297 71.6908 224.715C71.6908 224.134 71.5641 223.635 71.3108 223.218C71.0575 222.786 70.7074 222.458 70.2604 222.235C69.8134 221.996 69.2919 221.877 68.6959 221.877H65.2094V227.576ZM77.0207 236.181V219.53H83.0774C84.1949 219.53 85.1783 219.739 86.0275 220.156C86.8768 220.558 87.5399 221.154 88.0166 221.944C88.5083 222.719 88.7542 223.65 88.7542 224.738C88.7542 225.885 88.4636 226.868 87.8825 227.688C87.3164 228.507 86.549 229.103 85.5806 229.476L89.4247 236.181H86.4298L82.3399 228.917L84.0608 229.923H79.658V236.181H77.0207ZM79.658 227.576H83.1221C83.733 227.576 84.2619 227.457 84.7089 227.219C85.1559 226.98 85.4986 226.652 85.737 226.235C85.9903 225.803 86.1169 225.297 86.1169 224.715C86.1169 224.134 85.9903 223.635 85.737 223.218C85.4986 222.786 85.1559 222.458 84.7089 222.235C84.2619 221.996 83.733 221.877 83.1221 221.877H79.658V227.576ZM99.7344 236.449C98.5275 236.449 97.4026 236.233 96.3596 235.801C95.3315 235.369 94.4227 234.765 93.633 233.99C92.8582 233.216 92.2473 232.307 91.8003 231.264C91.3682 230.221 91.1522 229.081 91.1522 227.844C91.1522 226.608 91.3682 225.468 91.8003 224.425C92.2473 223.367 92.8582 222.458 93.633 221.698C94.4078 220.924 95.3166 220.328 96.3596 219.91C97.4026 219.478 98.5275 219.262 99.7344 219.262C100.956 219.262 102.081 219.478 103.109 219.91C104.152 220.328 105.061 220.924 105.836 221.698C106.625 222.473 107.236 223.382 107.668 224.425C108.1 225.468 108.317 226.608 108.317 227.844C108.317 229.081 108.093 230.221 107.646 231.264C107.214 232.307 106.611 233.216 105.836 233.99C105.061 234.765 104.152 235.369 103.109 235.801C102.066 236.233 100.941 236.449 99.7344 236.449ZM99.7344 234.035C100.599 234.035 101.388 233.879 102.103 233.566C102.833 233.253 103.467 232.821 104.003 232.27C104.539 231.703 104.957 231.048 105.255 230.303C105.553 229.543 105.702 228.723 105.702 227.844C105.702 226.965 105.553 226.153 105.255 225.408C104.957 224.663 104.539 224.008 104.003 223.442C103.467 222.875 102.833 222.436 102.103 222.123C101.388 221.81 100.599 221.654 99.7344 221.654C98.8702 221.654 98.0731 221.81 97.343 222.123C96.6278 222.436 96.002 222.875 95.4656 223.442C94.9292 224.008 94.5121 224.663 94.2141 225.408C93.931 226.153 93.7894 226.965 93.7894 227.844C93.7894 228.723 93.931 229.543 94.2141 230.303C94.5121 231.048 94.9292 231.703 95.4656 232.27C96.002 232.821 96.6352 233.253 97.3653 233.566C98.0954 233.879 98.8851 234.035 99.7344 234.035ZM110.528 236.181V233.722H111.489C112.234 233.722 112.83 233.506 113.277 233.074C113.724 232.627 113.947 232.031 113.947 231.286V219.53H116.562V231.197C116.562 232.21 116.353 233.089 115.936 233.834C115.534 234.579 114.945 235.16 114.17 235.577C113.411 235.98 112.517 236.181 111.489 236.181H110.528ZM119.973 236.181V219.53H130.947V221.877H122.611V226.66H130.5V229.007H122.611V233.834H130.947V236.181H119.973ZM141.151 236.449C139.974 236.449 138.879 236.233 137.866 235.801C136.868 235.369 135.996 234.773 135.251 234.013C134.521 233.238 133.948 232.329 133.53 231.286C133.113 230.243 132.905 229.096 132.905 227.844C132.905 226.608 133.106 225.468 133.508 224.425C133.925 223.367 134.506 222.458 135.251 221.698C135.996 220.924 136.868 220.328 137.866 219.91C138.864 219.478 139.96 219.262 141.151 219.262C142.329 219.262 143.379 219.463 144.303 219.866C145.241 220.268 146.031 220.797 146.672 221.452C147.312 222.093 147.774 222.793 148.057 223.553L145.688 224.671C145.331 223.777 144.757 223.054 143.967 222.503C143.193 221.937 142.254 221.654 141.151 221.654C140.049 221.654 139.073 221.914 138.224 222.436C137.374 222.957 136.711 223.68 136.235 224.604C135.773 225.528 135.542 226.608 135.542 227.844C135.542 229.081 135.773 230.169 136.235 231.107C136.711 232.031 137.374 232.754 138.224 233.275C139.073 233.782 140.049 234.035 141.151 234.035C142.254 234.035 143.193 233.76 143.967 233.208C144.757 232.657 145.331 231.934 145.688 231.04L148.057 232.158C147.774 232.903 147.312 233.603 146.672 234.259C146.031 234.914 145.241 235.443 144.303 235.845C143.379 236.248 142.329 236.449 141.151 236.449ZM153.72 236.181V221.877H149.294V219.53H160.693V221.877H156.334V236.181H153.72ZM168.498 236.449C167.455 236.449 166.486 236.255 165.592 235.868C164.698 235.466 163.938 234.922 163.312 234.236C162.687 233.551 162.225 232.761 161.927 231.867L164.162 230.929C164.564 231.957 165.153 232.746 165.927 233.298C166.702 233.849 167.596 234.125 168.609 234.125C169.205 234.125 169.727 234.035 170.174 233.856C170.621 233.663 170.963 233.395 171.202 233.052C171.455 232.709 171.582 232.314 171.582 231.867C171.582 231.256 171.41 230.772 171.068 230.415C170.725 230.057 170.218 229.774 169.548 229.565L166.419 228.582C165.167 228.195 164.214 227.606 163.558 226.816C162.903 226.012 162.575 225.073 162.575 224C162.575 223.062 162.806 222.242 163.268 221.542C163.73 220.827 164.363 220.268 165.167 219.866C165.987 219.463 166.918 219.262 167.961 219.262C168.959 219.262 169.868 219.441 170.688 219.799C171.507 220.141 172.208 220.618 172.789 221.229C173.385 221.84 173.817 222.548 174.085 223.352L171.895 224.313C171.567 223.434 171.053 222.756 170.353 222.279C169.667 221.803 168.87 221.564 167.961 221.564C167.41 221.564 166.926 221.661 166.508 221.855C166.091 222.034 165.763 222.302 165.525 222.659C165.302 223.002 165.19 223.404 165.19 223.866C165.19 224.403 165.361 224.879 165.704 225.297C166.047 225.714 166.568 226.027 167.268 226.235L170.174 227.152C171.5 227.554 172.498 228.135 173.169 228.895C173.839 229.64 174.174 230.571 174.174 231.688C174.174 232.612 173.928 233.432 173.437 234.147C172.96 234.862 172.297 235.428 171.448 235.845C170.598 236.248 169.615 236.449 168.498 236.449Z" fill="#242424"/>
<path d="M139.145 38.3133H108.709C105.331 38.3133 102.583 40.9317 102.583 44.15V46.0956H98.3729C96.0646 46.0956 94.1867 47.9909 94.1867 50.3206V96.3473C94.1867 98.677 96.0646 100.572 98.3729 100.572H132.689C134.997 100.572 136.875 98.677 136.875 96.3473V92.7899H139.145C142.523 92.7899 145.271 90.1715 145.271 86.9531V44.15C145.271 40.9317 142.523 38.3133 139.145 38.3133ZM133.019 96.3473C133.019 96.5314 132.871 96.6811 132.689 96.6811H98.3729C98.1905 96.6811 98.0422 96.5314 98.0422 96.3473V50.3206C98.0422 50.1365 98.1905 49.9868 98.3729 49.9868H132.689C132.871 49.9868 133.019 50.1365 133.019 50.3206V96.3473ZM141.416 86.9531C141.416 88.0259 140.397 88.8987 139.145 88.8987H136.875V50.3206C136.875 47.9909 134.997 46.0956 132.689 46.0956H106.438V44.15C106.438 43.0773 107.457 42.2044 108.709 42.2044H139.145C140.397 42.2044 141.416 43.0773 141.416 44.15V86.9531Z" fill="url(#paint0_linear_1_11)"/>
<path d="M125.03 64.5788H106.717C105.652 64.5788 104.789 63.7076 104.789 62.6332C104.789 61.5587 105.652 60.6876 106.717 60.6876H125.03C126.095 60.6876 126.958 61.5587 126.958 62.6332C126.958 63.7076 126.095 64.5788 125.03 64.5788Z" fill="url(#paint1_linear_1_11)"/>
<path d="M125.03 72.3612H106.717C105.652 72.3612 104.789 71.49 104.789 70.4156C104.789 69.3411 105.652 68.47 106.717 68.47H125.03C126.095 68.47 126.958 69.3411 126.958 70.4156C126.958 71.49 126.095 72.3612 125.03 72.3612Z" fill="url(#paint2_linear_1_11)"/>
<path d="M125.03 80.1435H106.717C105.652 80.1435 104.789 79.2724 104.789 78.1979C104.789 77.1235 105.652 76.2524 106.717 76.2524H125.03C126.095 76.2524 126.958 77.1235 126.958 78.1979C126.958 79.2724 126.095 80.1435 125.03 80.1435Z" fill="url(#paint3_linear_1_11)"/>
<path d="M196.355 15.9639V17.55V24.3868H214.524V41.506H223.494V17.55V15.9639H196.355Z" fill="#EE4523"/>
<defs>
<linearGradient id="paint0_linear_1_11" x1="119.729" y1="38.3133" x2="131.797" y2="99.7452" gradientUnits="userSpaceOnUse">
<stop stop-color="#EE4523"/>
<stop offset="1" stop-color="#EE4523" stop-opacity="0.42"/>
</linearGradient>
<linearGradient id="paint1_linear_1_11" x1="119.729" y1="38.3133" x2="131.797" y2="99.7452" gradientUnits="userSpaceOnUse">
<stop stop-color="#EE4523"/>
<stop offset="1" stop-color="#EE4523" stop-opacity="0.42"/>
</linearGradient>
<linearGradient id="paint2_linear_1_11" x1="119.729" y1="38.3133" x2="131.797" y2="99.7452" gradientUnits="userSpaceOnUse">
<stop stop-color="#EE4523"/>
<stop offset="1" stop-color="#EE4523" stop-opacity="0.42"/>
</linearGradient>
<linearGradient id="paint3_linear_1_11" x1="119.729" y1="38.3133" x2="131.797" y2="99.7452" gradientUnits="userSpaceOnUse">
<stop stop-color="#EE4523"/>
<stop offset="1" stop-color="#EE4523" stop-opacity="0.42"/>
</linearGradient>
</defs>
</svg>
