<svg width="240" height="265" viewBox="0 0 240 265" fill="none" xmlns="http://www.w3.org/2000/svg">
<rect width="239.458" height="265" rx="25.5422" fill="white"/>
<path d="M43.3633 165.518V140.415H37.6163V135.785H48.791V165.518H43.3633ZM66.6833 165.997C64.3153 165.997 62.24 165.358 60.4574 164.081C58.6747 162.804 57.2779 161.008 56.2669 158.694C55.2824 156.379 54.7902 153.692 54.7902 150.632C54.7902 147.545 55.2824 144.858 56.2669 142.57C57.2513 140.282 58.6348 138.499 60.4175 137.222C62.2001 135.945 64.2754 135.306 66.6434 135.306C69.0645 135.306 71.1531 135.945 72.9092 137.222C74.6918 138.499 76.0886 140.295 77.0997 142.61C78.1107 144.898 78.6163 147.572 78.6163 150.632C78.6163 153.692 78.1107 156.379 77.0997 158.694C76.1152 160.982 74.7317 162.778 72.9491 164.081C71.1665 165.358 69.0778 165.997 66.6833 165.997ZM66.7232 161.048C68.0801 161.048 69.2375 160.636 70.1953 159.811C71.1531 158.96 71.8848 157.762 72.3903 156.219C72.9225 154.649 73.1885 152.787 73.1885 150.632C73.1885 148.477 72.9225 146.628 72.3903 145.084C71.8848 143.515 71.1398 142.317 70.1554 141.492C69.1976 140.668 68.0269 140.255 66.6434 140.255C65.313 140.255 64.169 140.668 63.2111 141.492C62.2533 142.317 61.5083 143.515 60.9762 145.084C60.4707 146.628 60.2179 148.477 60.2179 150.632C60.2179 152.76 60.4707 154.609 60.9762 156.179C61.5083 157.722 62.2533 158.92 63.2111 159.771C64.1956 160.622 65.3662 161.048 66.7232 161.048ZM84.9223 171.744V169.15C85.8003 168.937 86.5054 168.525 87.0375 167.913C87.5962 167.327 87.9421 166.529 88.0751 165.518H85.7205V159.931H90.9886V163.363C90.9886 165.704 90.4697 167.58 89.4321 168.99C88.421 170.4 86.9178 171.318 84.9223 171.744ZM109.204 165.997C106.836 165.997 104.761 165.358 102.978 164.081C101.196 162.804 99.7988 161.008 98.7878 158.694C97.8033 156.379 97.3111 153.692 97.3111 150.632C97.3111 147.545 97.8033 144.858 98.7878 142.57C99.7722 140.282 101.156 138.499 102.938 137.222C104.721 135.945 106.796 135.306 109.164 135.306C111.585 135.306 113.674 135.945 115.43 137.222C117.213 138.499 118.61 140.295 119.621 142.61C120.632 144.898 121.137 147.572 121.137 150.632C121.137 153.692 120.632 156.379 119.621 158.694C118.636 160.982 117.253 162.778 115.47 164.081C113.687 165.358 111.599 165.997 109.204 165.997ZM109.244 161.048C110.601 161.048 111.758 160.636 112.716 159.811C113.674 158.96 114.406 157.762 114.911 156.219C115.443 154.649 115.709 152.787 115.709 150.632C115.709 148.477 115.443 146.628 114.911 145.084C114.406 143.515 113.661 142.317 112.676 141.492C111.718 140.668 110.548 140.255 109.164 140.255C107.834 140.255 106.69 140.668 105.732 141.492C104.774 142.317 104.029 143.515 103.497 145.084C102.992 146.628 102.739 148.477 102.739 150.632C102.739 152.76 102.992 154.609 103.497 156.179C104.029 157.722 104.774 158.92 105.732 159.771C106.716 160.622 107.887 161.048 109.244 161.048ZM137.461 165.997C135.093 165.997 133.017 165.358 131.235 164.081C129.452 162.804 128.055 161.008 127.044 158.694C126.06 156.379 125.567 153.692 125.567 150.632C125.567 147.545 126.06 144.858 127.044 142.57C128.029 140.282 129.412 138.499 131.195 137.222C132.977 135.945 135.053 135.306 137.421 135.306C139.842 135.306 141.93 135.945 143.686 137.222C145.469 138.499 146.866 140.295 147.877 142.61C148.888 144.898 149.394 147.572 149.394 150.632C149.394 153.692 148.888 156.379 147.877 158.694C146.893 160.982 145.509 162.778 143.726 164.081C141.944 165.358 139.855 165.997 137.461 165.997ZM137.5 161.048C138.857 161.048 140.015 160.636 140.973 159.811C141.93 158.96 142.662 157.762 143.168 156.219C143.7 154.649 143.966 152.787 143.966 150.632C143.966 148.477 143.7 146.628 143.168 145.084C142.662 143.515 141.917 142.317 140.933 141.492C139.975 140.668 138.804 140.255 137.421 140.255C136.09 140.255 134.946 140.668 133.988 141.492C133.031 142.317 132.286 143.515 131.753 145.084C131.248 146.628 130.995 148.477 130.995 150.632C130.995 152.76 131.248 154.609 131.753 156.179C132.286 157.722 133.031 158.92 133.988 159.771C134.973 160.622 136.144 161.048 137.5 161.048ZM165.717 165.997C163.349 165.997 161.274 165.358 159.491 164.081C157.708 162.804 156.311 161.008 155.3 158.694C154.316 156.379 153.824 153.692 153.824 150.632C153.824 147.545 154.316 144.858 155.3 142.57C156.285 140.282 157.668 138.499 159.451 137.222C161.234 135.945 163.309 135.306 165.677 135.306C168.098 135.306 170.187 135.945 171.943 137.222C173.725 138.499 175.122 140.295 176.133 142.61C177.144 144.898 177.65 147.572 177.65 150.632C177.65 153.692 177.144 156.379 176.133 158.694C175.149 160.982 173.765 162.778 171.983 164.081C170.2 165.358 168.111 165.997 165.717 165.997ZM165.757 161.048C167.114 161.048 168.271 160.636 169.229 159.811C170.187 158.96 170.918 157.762 171.424 156.219C171.956 154.649 172.222 152.787 172.222 150.632C172.222 148.477 171.956 146.628 171.424 145.084C170.918 143.515 170.173 142.317 169.189 141.492C168.231 140.668 167.06 140.255 165.677 140.255C164.347 140.255 163.203 140.668 162.245 141.492C161.287 142.317 160.542 143.515 160.01 145.084C159.504 146.628 159.251 148.477 159.251 150.632C159.251 152.76 159.504 154.609 160.01 156.179C160.542 157.722 161.287 158.92 162.245 159.771C163.229 160.622 164.4 161.048 165.757 161.048ZM190.78 165.518V157.776H183.038V153.266H190.78V145.563H195.29V153.266H202.993V157.776H195.29V165.518H190.78Z" fill="#03518F"/>
<path d="M32.5048 208.449C31.3277 208.449 30.2326 208.233 29.2194 207.801C28.2211 207.369 27.342 206.773 26.5822 206.013C25.8372 205.238 25.2561 204.329 24.8389 203.286C24.4217 202.243 24.2131 201.096 24.2131 199.844C24.2131 198.608 24.4143 197.468 24.8166 196.425C25.2337 195.367 25.8148 194.458 26.5598 193.698C27.3048 192.924 28.1764 192.328 29.1747 191.91C30.173 191.478 31.2681 191.262 32.4601 191.262C33.6371 191.262 34.6875 191.463 35.6113 191.866C36.55 192.268 37.3397 192.797 37.9804 193.452C38.621 194.093 39.0829 194.793 39.366 195.553L37.0193 196.693C36.6766 195.784 36.1105 195.054 35.3208 194.503C34.5311 193.937 33.5775 193.654 32.4601 193.654C31.3575 193.654 30.3816 193.914 29.5323 194.436C28.683 194.957 28.02 195.68 27.5432 196.604C27.0813 197.528 26.8504 198.608 26.8504 199.844C26.8504 201.081 27.0887 202.169 27.5655 203.107C28.0572 204.031 28.7277 204.754 29.577 205.275C30.4263 205.782 31.4022 206.035 32.5048 206.035C33.4285 206.035 34.2704 205.849 35.0302 205.476C35.805 205.089 36.4233 204.553 36.8852 203.867C37.3471 203.167 37.5781 202.355 37.5781 201.431V200.291L38.7626 201.364H32.4601V199.129H40.1929V200.694C40.1929 201.915 39.9844 203.011 39.5672 203.979C39.15 204.933 38.5838 205.745 37.8686 206.415C37.1534 207.086 36.334 207.592 35.4102 207.935C34.4864 208.278 33.5179 208.449 32.5048 208.449ZM50.976 208.449C49.7691 208.449 48.6442 208.233 47.6012 207.801C46.5732 207.369 45.6643 206.765 44.8746 205.99C44.0998 205.216 43.489 204.307 43.042 203.264C42.6099 202.221 42.3938 201.081 42.3938 199.844C42.3938 198.608 42.6099 197.468 43.042 196.425C43.489 195.367 44.0998 194.458 44.8746 193.698C45.6494 192.924 46.5583 192.328 47.6012 191.91C48.6442 191.478 49.7691 191.262 50.976 191.262C52.1978 191.262 53.3227 191.478 54.3508 191.91C55.3937 192.328 56.3026 192.924 57.0774 193.698C57.8671 194.473 58.478 195.382 58.91 196.425C59.3421 197.468 59.5582 198.608 59.5582 199.844C59.5582 201.081 59.3347 202.221 58.8877 203.264C58.4556 204.307 57.8522 205.216 57.0774 205.99C56.3026 206.765 55.3937 207.369 54.3508 207.801C53.3078 208.233 52.1829 208.449 50.976 208.449ZM50.976 206.035C51.8402 206.035 52.6299 205.879 53.345 205.566C54.0751 205.253 54.7084 204.821 55.2447 204.27C55.7811 203.703 56.1983 203.048 56.4963 202.303C56.7943 201.543 56.9433 200.723 56.9433 199.844C56.9433 198.965 56.7943 198.153 56.4963 197.408C56.1983 196.663 55.7811 196.008 55.2447 195.442C54.7084 194.875 54.0751 194.436 53.345 194.123C52.6299 193.81 51.8402 193.654 50.976 193.654C50.1118 193.654 49.3147 193.81 48.5846 194.123C47.8694 194.436 47.2437 194.875 46.7073 195.442C46.1709 196.008 45.7537 196.663 45.4557 197.408C45.1726 198.153 45.0311 198.965 45.0311 199.844C45.0311 200.723 45.1726 201.543 45.4557 202.303C45.7537 203.048 46.1709 203.703 46.7073 204.27C47.2437 204.821 47.8769 205.253 48.607 205.566C49.3371 205.879 50.1267 206.035 50.976 206.035ZM70.5972 208.449C69.3903 208.449 68.2654 208.233 67.2224 207.801C66.1944 207.369 65.2855 206.765 64.4958 205.99C63.721 205.216 63.1102 204.307 62.6632 203.264C62.2311 202.221 62.015 201.081 62.015 199.844C62.015 198.608 62.2311 197.468 62.6632 196.425C63.1102 195.367 63.721 194.458 64.4958 193.698C65.2706 192.924 66.1795 192.328 67.2224 191.91C68.2654 191.478 69.3903 191.262 70.5972 191.262C71.819 191.262 72.9439 191.478 73.972 191.91C75.0149 192.328 75.9238 192.924 76.6986 193.698C77.4883 194.473 78.0992 195.382 78.5312 196.425C78.9633 197.468 79.1794 198.608 79.1794 199.844C79.1794 201.081 78.9559 202.221 78.5089 203.264C78.0768 204.307 77.4734 205.216 76.6986 205.99C75.9238 206.765 75.0149 207.369 73.972 207.801C72.929 208.233 71.8041 208.449 70.5972 208.449ZM70.5972 206.035C71.4614 206.035 72.2511 205.879 72.9662 205.566C73.6963 205.253 74.3296 204.821 74.8659 204.27C75.4023 203.703 75.8195 203.048 76.1175 202.303C76.4155 201.543 76.5645 200.723 76.5645 199.844C76.5645 198.965 76.4155 198.153 76.1175 197.408C75.8195 196.663 75.4023 196.008 74.8659 195.442C74.3296 194.875 73.6963 194.436 72.9662 194.123C72.2511 193.81 71.4614 193.654 70.5972 193.654C69.733 193.654 68.9359 193.81 68.2058 194.123C67.4906 194.436 66.8649 194.875 66.3285 195.442C65.7921 196.008 65.3749 196.663 65.0769 197.408C64.7938 198.153 64.6523 198.965 64.6523 199.844C64.6523 200.723 64.7938 201.543 65.0769 202.303C65.3749 203.048 65.7921 203.703 66.3285 204.27C66.8649 204.821 67.4981 205.253 68.2282 205.566C68.9583 205.879 69.7479 206.035 70.5972 206.035ZM89.9279 208.449C88.7508 208.449 87.6557 208.233 86.6425 207.801C85.6442 207.369 84.7652 206.773 84.0053 206.013C83.2603 205.238 82.6792 204.329 82.262 203.286C81.8448 202.243 81.6362 201.096 81.6362 199.844C81.6362 198.608 81.8374 197.468 82.2397 196.425C82.6569 195.367 83.2379 194.458 83.9829 193.698C84.7279 192.924 85.5995 192.328 86.5978 191.91C87.5961 191.478 88.6912 191.262 89.8832 191.262C91.0602 191.262 92.1107 191.463 93.0344 191.866C93.9731 192.268 94.7628 192.797 95.4035 193.452C96.0441 194.093 96.506 194.793 96.7891 195.553L94.4424 196.693C94.0998 195.784 93.5336 195.054 92.7439 194.503C91.9542 193.937 91.0006 193.654 89.8832 193.654C88.7806 193.654 87.8047 193.914 86.9554 194.436C86.1061 194.957 85.4431 195.68 84.9663 196.604C84.5044 197.528 84.2735 198.608 84.2735 199.844C84.2735 201.081 84.5119 202.169 84.9886 203.107C85.4803 204.031 86.1508 204.754 87.0001 205.275C87.8494 205.782 88.8253 206.035 89.9279 206.035C90.8516 206.035 91.6935 205.849 92.4533 205.476C93.2281 205.089 93.8465 204.553 94.3083 203.867C94.7702 203.167 95.0012 202.355 95.0012 201.431V200.291L96.1857 201.364H89.8832V199.129H97.6161V200.694C97.6161 201.915 97.4075 203.011 96.9903 203.979C96.5731 204.933 96.0069 205.745 95.2917 206.415C94.5765 207.086 93.7571 207.592 92.8333 207.935C91.9095 208.278 90.941 208.449 89.9279 208.449ZM100.309 208.181V191.53H102.946V205.834H110.142V208.181H100.309ZM112.356 208.181V191.53H123.33V193.877H114.994V198.66H122.883V201.007H114.994V205.834H123.33V208.181H112.356ZM129.686 208.181V191.53H135.743C136.86 191.53 137.843 191.739 138.693 192.156C139.542 192.558 140.205 193.154 140.682 193.944C141.173 194.719 141.419 195.65 141.419 196.738C141.419 197.885 141.129 198.868 140.548 199.688C139.982 200.507 139.214 201.103 138.246 201.476L142.09 208.181H139.095L135.005 200.917L136.726 201.923H132.323V208.181H129.686ZM132.323 199.576H135.787C136.398 199.576 136.927 199.457 137.374 199.219C137.821 198.98 138.164 198.652 138.402 198.235C138.655 197.803 138.782 197.297 138.782 196.715C138.782 196.134 138.655 195.635 138.402 195.218C138.164 194.786 137.821 194.458 137.374 194.235C136.927 193.996 136.398 193.877 135.787 193.877H132.323V199.576ZM144.309 208.181V191.53H155.283V193.877H146.946V198.66H154.836V201.007H146.946V205.834H155.283V208.181H144.309ZM162.157 208.181L156.257 191.53H159.095L163.923 205.745H163.364L168.169 191.53H171.007L165.107 208.181H162.157ZM172.966 208.181V191.53H175.603V208.181H172.966ZM179.055 208.181V191.53H190.029V193.877H181.693V198.66H189.582V201.007H181.693V205.834H190.029V208.181H179.055ZM195.585 208.181L191.003 191.53H193.797L197.507 205.946H196.814L200.658 191.53H203.407L207.251 205.946H206.536L210.268 191.53H213.04L208.48 208.181H205.508L201.641 193.989H202.424L198.535 208.181H195.585Z" fill="#242424"/>
<path d="M196.355 15.9639V17.55V24.3868H214.524V41.506H223.494V17.55V15.9639H196.355Z" fill="#EE4523"/>
<path d="M151.113 63.6278C151.002 63.0463 150.494 62.6255 149.902 62.6255H121.184C120.504 62.6255 119.952 63.1771 119.952 63.8576V75.6851C119.952 76.3656 120.504 76.9171 121.184 76.9171H135.286C133.857 79.732 131.63 82.1094 128.881 83.7216C126.36 85.2012 123.472 85.9832 120.527 85.9832C113.667 85.9832 107.441 81.669 105.035 75.2465C104.339 73.3966 103.987 71.4439 103.987 69.4426C103.987 67.6024 104.287 65.7936 104.879 64.0672C107.174 57.3891 113.462 52.9022 120.527 52.9022C123.631 52.9022 126.656 53.7667 129.272 55.4024C129.72 55.6824 130.297 55.6457 130.706 55.3109L140.391 47.3815C140.676 47.1484 140.841 46.8003 140.843 46.4326C140.844 46.0646 140.681 45.7155 140.398 45.4805C134.831 40.8587 127.774 38.3133 120.527 38.3133C103.362 38.3133 89.3976 52.2779 89.3976 69.4428C89.3976 74.5919 90.6807 79.6935 93.1083 84.196C98.5549 94.2973 109.061 100.572 120.527 100.572C127.702 100.572 134.704 98.0727 140.243 93.5342C145.706 89.0585 149.517 82.8103 150.976 75.9415C151.427 73.8197 151.657 71.6331 151.657 69.4426C151.657 67.4857 151.474 65.5293 151.113 63.6278ZM120.527 40.7773C126.698 40.7773 132.718 42.7809 137.643 46.4473L129.812 52.8585C126.986 51.2725 123.795 50.4382 120.527 50.4382C112.996 50.4382 106.235 54.8779 103.192 61.6477L95.55 55.391C100.473 46.6753 109.824 40.7773 120.527 40.7773ZM91.8617 69.4428C91.8617 65.2372 92.7722 61.2405 94.406 57.639L102.288 64.0919C101.781 65.8248 101.523 67.6205 101.523 69.4428C101.523 71.4407 101.83 73.3976 102.435 75.2723L94.6023 81.6838C92.8074 77.8806 91.8617 73.6803 91.8617 69.4428ZM120.527 98.1082C110.307 98.1082 100.914 92.6931 95.7737 83.9092L103.395 77.6706C104.794 80.5873 106.908 83.0935 109.583 84.9814C112.797 87.2489 116.581 88.4475 120.527 88.4475C123.619 88.4475 126.657 87.6939 129.37 86.266L137.256 92.7221C132.406 96.2065 126.533 98.1082 120.527 98.1082ZM148.566 75.4291C147.273 81.5173 143.971 87.0753 139.237 91.1595L131.587 84.8961C134.641 82.7054 137.004 79.6421 138.325 76.1173C138.467 75.739 138.414 75.3151 138.184 74.9831C137.954 74.6511 137.575 74.453 137.171 74.453H122.416V65.0895H148.863C149.082 66.5219 149.193 67.9819 149.193 69.4426C149.193 71.4612 148.982 73.4751 148.566 75.4291Z" fill="url(#paint0_linear_1_23)"/>
<defs>
<linearGradient id="paint0_linear_1_23" x1="120.527" y1="38.3133" x2="130.551" y2="100.5" gradientUnits="userSpaceOnUse">
<stop stop-color="#EE4523"/>
<stop offset="1" stop-color="#EE4523" stop-opacity="0.42"/>
</linearGradient>
</defs>
</svg>
