<svg width="240" height="265" viewBox="0 0 240 265" fill="none" xmlns="http://www.w3.org/2000/svg">
<rect width="239.458" height="265" rx="25.5422" fill="white"/>
<path d="M44.6262 165.518L30.7776 154.543V149.754H41.9523C42.9367 149.754 43.7881 149.568 44.5065 149.195C45.2249 148.796 45.7836 148.251 46.1827 147.559C46.5818 146.867 46.7814 146.069 46.7814 145.164C46.7814 144.233 46.5818 143.435 46.1827 142.77C45.7836 142.078 45.2249 141.546 44.5065 141.173C43.7881 140.774 42.9367 140.575 41.9523 140.575H30.7776V135.785H54.6036V139.138H47.819L49.1759 138.06C50.1338 138.885 50.8787 139.896 51.4109 141.093C51.943 142.264 52.2091 143.621 52.2091 145.164C52.2091 147.133 51.7568 148.823 50.8521 150.233C49.9741 151.616 48.7635 152.68 47.2204 153.425C45.6772 154.17 43.8946 154.543 41.8725 154.543H36.5246L37.0434 153.026L52.6082 165.518H44.6262ZM30.7776 146.8V143.488H54.6036V146.8H30.7776ZM62.1684 165.518V140.415H56.4214V135.785H67.5961V165.518H62.1684ZM85.4884 165.997C83.1204 165.997 81.0451 165.358 79.2625 164.081C77.4799 162.804 76.083 161.008 75.072 158.694C74.0876 156.379 73.5953 153.692 73.5953 150.632C73.5953 147.545 74.0876 144.858 75.072 142.57C76.0564 140.282 77.44 138.499 79.2226 137.222C81.0052 135.945 83.0805 135.306 85.4485 135.306C87.8697 135.306 89.9583 135.945 91.7143 137.222C93.4969 138.499 94.8938 140.295 95.9048 142.61C96.9159 144.898 97.4214 147.572 97.4214 150.632C97.4214 153.692 96.9159 156.379 95.9048 158.694C94.9204 160.982 93.5369 162.778 91.7542 164.081C89.9716 165.358 87.883 165.997 85.4884 165.997ZM85.5283 161.048C86.8852 161.048 88.0426 160.636 89.0005 159.811C89.9583 158.96 90.69 157.762 91.1955 156.219C91.7276 154.649 91.9937 152.787 91.9937 150.632C91.9937 148.477 91.7276 146.628 91.1955 145.084C90.69 143.515 89.945 142.317 88.9605 141.492C88.0027 140.668 86.832 140.255 85.4485 140.255C84.1182 140.255 82.9741 140.668 82.0163 141.492C81.0584 142.317 80.3135 143.515 79.7813 145.084C79.2758 146.628 79.023 148.477 79.023 150.632C79.023 152.76 79.2758 154.609 79.7813 156.179C80.3135 157.722 81.0584 158.92 82.0163 159.771C83.0007 160.622 84.1714 161.048 85.5283 161.048ZM111.31 165.997C109.687 165.997 108.144 165.704 106.681 165.119C105.244 164.507 104.007 163.656 102.969 162.565C101.958 161.447 101.266 160.13 100.894 158.614L105.643 156.938C106.122 158.294 106.854 159.332 107.838 160.05C108.823 160.742 109.98 161.088 111.31 161.088C112.375 161.088 113.292 160.889 114.064 160.489C114.862 160.09 115.487 159.518 115.94 158.773C116.392 158.002 116.618 157.097 116.618 156.059C116.618 155.022 116.392 154.144 115.94 153.425C115.514 152.68 114.902 152.108 114.104 151.709C113.306 151.31 112.361 151.111 111.27 151.111C110.765 151.111 110.233 151.164 109.674 151.27C109.142 151.377 108.663 151.536 108.237 151.749L107 149.155L114.703 140.375H102.57V135.785H120.809V140.056L113.066 149.115L113.146 147.08C114.929 147.106 116.485 147.492 117.816 148.237C119.146 148.982 120.184 150.007 120.928 151.31C121.673 152.614 122.046 154.144 122.046 155.9C122.046 157.816 121.58 159.545 120.649 161.088C119.718 162.605 118.441 163.802 116.818 164.68C115.195 165.558 113.359 165.997 111.31 165.997ZM147.95 165.997C145.821 165.997 143.852 165.611 142.043 164.84C140.261 164.068 138.691 162.99 137.334 161.607C136.004 160.223 134.966 158.6 134.221 156.738C133.476 154.876 133.103 152.84 133.103 150.632C133.103 148.423 133.463 146.388 134.181 144.526C134.926 142.637 135.964 141.014 137.294 139.657C138.651 138.273 140.234 137.209 142.043 136.464C143.852 135.692 145.821 135.306 147.95 135.306C150.078 135.306 151.981 135.666 153.657 136.384C155.36 137.102 156.796 138.06 157.967 139.258C159.138 140.428 159.976 141.719 160.481 143.129L155.612 145.404C155.054 143.914 154.109 142.69 152.779 141.732C151.449 140.747 149.839 140.255 147.95 140.255C146.087 140.255 144.438 140.694 143.001 141.572C141.591 142.45 140.487 143.661 139.689 145.204C138.917 146.747 138.531 148.556 138.531 150.632C138.531 152.707 138.917 154.53 139.689 156.099C140.487 157.643 141.591 158.853 143.001 159.731C144.438 160.609 146.087 161.048 147.95 161.048C149.839 161.048 151.449 160.569 152.779 159.611C154.109 158.627 155.054 157.39 155.612 155.9L160.481 158.175C159.976 159.585 159.138 160.889 157.967 162.086C156.796 163.257 155.36 164.201 153.657 164.919C151.981 165.638 150.078 165.997 147.95 165.997ZM164.888 165.518V135.785H175.943C177.965 135.785 179.748 136.158 181.291 136.903C182.861 137.621 184.085 138.685 184.963 140.096C185.841 141.479 186.28 143.169 186.28 145.164C186.28 147.213 185.787 148.956 184.803 150.392C183.845 151.829 182.541 152.893 180.892 153.585L187.716 165.518H181.57L174.267 152.468L177.779 154.543H170.316V165.518H164.888ZM170.316 149.754H176.023C177.007 149.754 177.859 149.568 178.577 149.195C179.295 148.796 179.854 148.251 180.253 147.559C180.652 146.867 180.852 146.069 180.852 145.164C180.852 144.233 180.652 143.435 180.253 142.77C179.854 142.078 179.295 141.546 178.577 141.173C177.859 140.774 177.007 140.575 176.023 140.575H170.316V149.754ZM199.335 165.518V157.776H191.593V153.266H199.335V145.563H203.845V153.266H211.548V157.776H203.845V165.518H199.335Z" fill="#03518F"/>
<path d="M43.32 202.181V190.288H51.0625V191.964H45.2037V195.54H50.4239V197.216H45.2037V202.181H43.32ZM57.0966 202.372C56.2132 202.372 55.4257 202.186 54.7339 201.814C54.0528 201.441 53.5153 200.93 53.1216 200.281C52.7384 199.632 52.5469 198.892 52.5469 198.062V190.288H54.4306V197.982C54.4306 198.504 54.5423 198.967 54.7658 199.371C55 199.776 55.3139 200.089 55.7077 200.313C56.1121 200.536 56.5751 200.648 57.0966 200.648C57.6287 200.648 58.0916 200.536 58.4854 200.313C58.8898 200.089 59.2038 199.776 59.4273 199.371C59.6614 198.967 59.7785 198.504 59.7785 197.982V190.288H61.6463V198.062C61.6463 198.892 61.4547 199.632 61.0716 200.281C60.6884 200.93 60.151 201.441 59.4592 201.814C58.7781 202.186 57.9905 202.372 57.0966 202.372ZM64.0075 202.181V190.288H65.5241L72.197 199.499L71.4786 199.611V190.288H73.3464V202.181H71.8298L65.2048 192.906L65.8913 192.778V202.181H64.0075ZM75.8089 202.181V190.288H79.7041C80.9387 190.288 82.0082 190.538 82.9129 191.038C83.8281 191.528 84.5359 192.219 85.0361 193.113C85.5363 194.007 85.7864 195.045 85.7864 196.226C85.7864 197.397 85.5363 198.435 85.0361 199.339C84.5359 200.233 83.8281 200.93 82.9129 201.43C82.0082 201.931 80.9387 202.181 79.7041 202.181H75.8089ZM77.6927 200.505H79.7361C80.5768 200.505 81.3058 200.329 81.9231 199.978C82.551 199.627 83.0352 199.132 83.3758 198.493C83.7164 197.855 83.8867 197.099 83.8867 196.226C83.8867 195.354 83.7111 194.603 83.3598 193.975C83.0193 193.337 82.5404 192.842 81.9231 192.491C81.3058 192.139 80.5768 191.964 79.7361 191.964H77.6927V200.505ZM91.8081 202.372C91.0631 202.372 90.3714 202.234 89.7328 201.957C89.0942 201.67 88.5515 201.281 88.1045 200.792C87.6575 200.302 87.3276 199.738 87.1147 199.1L88.7111 198.429C88.9985 199.164 89.4188 199.728 89.9723 200.121C90.5257 200.515 91.1642 200.712 91.8879 200.712C92.3136 200.712 92.6861 200.648 93.0054 200.52C93.3247 200.382 93.5694 200.191 93.7397 199.946C93.9206 199.701 94.0111 199.419 94.0111 199.1C94.0111 198.663 93.8887 198.317 93.6439 198.062C93.3992 197.807 93.0373 197.604 92.5584 197.455L90.3235 196.753C89.4295 196.476 88.7484 196.056 88.2801 195.492C87.8118 194.917 87.5777 194.247 87.5777 193.48C87.5777 192.81 87.7426 192.225 88.0726 191.724C88.4025 191.214 88.8548 190.814 89.4295 190.527C90.0148 190.24 90.68 190.096 91.425 190.096C92.138 190.096 92.7872 190.224 93.3726 190.479C93.9579 190.724 94.4581 191.065 94.8732 191.501C95.2989 191.937 95.6075 192.443 95.7991 193.017L94.2346 193.704C94.0005 193.076 93.6333 192.592 93.1331 192.251C92.6435 191.911 92.0742 191.74 91.425 191.74C91.0312 191.74 90.6853 191.81 90.3873 191.948C90.0893 192.076 89.8552 192.267 89.6849 192.523C89.5253 192.767 89.4454 193.055 89.4454 193.385C89.4454 193.768 89.5678 194.108 89.8126 194.406C90.0574 194.704 90.4299 194.928 90.9301 195.077L93.0054 195.731C93.9526 196.019 94.6656 196.434 95.1445 196.977C95.6235 197.509 95.8629 198.174 95.8629 198.972C95.8629 199.632 95.6873 200.217 95.3361 200.728C94.9955 201.239 94.522 201.643 93.9153 201.941C93.3087 202.229 92.6063 202.372 91.8081 202.372ZM106.339 202.372C105.499 202.372 104.716 202.218 103.993 201.909C103.28 201.601 102.652 201.175 102.109 200.632C101.577 200.079 101.162 199.43 100.864 198.685C100.566 197.94 100.417 197.12 100.417 196.226C100.417 195.343 100.561 194.529 100.848 193.784C101.146 193.028 101.561 192.379 102.093 191.836C102.625 191.283 103.248 190.857 103.961 190.559C104.674 190.25 105.456 190.096 106.308 190.096C107.148 190.096 107.899 190.24 108.558 190.527C109.229 190.814 109.793 191.192 110.251 191.661C110.708 192.118 111.038 192.618 111.24 193.161L109.564 193.975C109.319 193.326 108.915 192.805 108.351 192.411C107.787 192.006 107.106 191.804 106.308 191.804C105.52 191.804 104.823 191.99 104.216 192.363C103.61 192.735 103.136 193.252 102.795 193.911C102.466 194.571 102.301 195.343 102.301 196.226C102.301 197.11 102.471 197.886 102.811 198.557C103.163 199.217 103.642 199.733 104.248 200.105C104.855 200.467 105.552 200.648 106.339 200.648C106.999 200.648 107.601 200.515 108.143 200.249C108.697 199.972 109.138 199.589 109.468 199.1C109.798 198.6 109.963 198.019 109.963 197.36V196.545L110.809 197.312H106.308V195.715H111.831V196.833C111.831 197.706 111.682 198.488 111.384 199.18C111.086 199.861 110.682 200.441 110.171 200.92C109.66 201.398 109.075 201.76 108.415 202.005C107.755 202.25 107.063 202.372 106.339 202.372ZM113.754 202.181V190.288H118.08C118.879 190.288 119.581 190.437 120.188 190.735C120.794 191.022 121.268 191.448 121.609 192.012C121.96 192.565 122.135 193.23 122.135 194.007C122.135 194.827 121.928 195.529 121.513 196.114C121.108 196.7 120.56 197.126 119.868 197.392L122.614 202.181H120.475L117.554 196.992L118.783 197.711H115.638V202.181H113.754ZM115.638 196.035H118.112C118.549 196.035 118.927 195.949 119.246 195.779C119.565 195.609 119.81 195.375 119.98 195.077C120.161 194.768 120.252 194.406 120.252 193.991C120.252 193.576 120.161 193.22 119.98 192.922C119.81 192.613 119.565 192.379 119.246 192.219C118.927 192.049 118.549 191.964 118.112 191.964H115.638V196.035ZM123.146 202.181L127.328 190.288H129.659L133.842 202.181H131.83L130.92 199.515H126.083L125.157 202.181H123.146ZM126.626 197.839H130.345L128.238 191.613H128.765L126.626 197.839ZM135.252 202.181V190.288H136.769L143.442 199.499L142.724 199.611V190.288H144.591V202.181H143.075L136.45 192.906L137.136 192.778V202.181H135.252ZM149.161 202.181V191.964H146V190.288H154.142V191.964H151.029V202.181H149.161ZM155.55 202.181V190.288H163.389V191.964H157.434V195.38H163.069V197.056H157.434V200.505H163.389V202.181H155.55ZM165.138 202.181V190.288H169.033C170.268 190.288 171.337 190.538 172.242 191.038C173.157 191.528 173.865 192.219 174.365 193.113C174.865 194.007 175.115 195.045 175.115 196.226C175.115 197.397 174.865 198.435 174.365 199.339C173.865 200.233 173.157 200.93 172.242 201.43C171.337 201.931 170.268 202.181 169.033 202.181H165.138ZM167.022 200.505H169.065C169.906 200.505 170.635 200.329 171.252 199.978C171.88 199.627 172.364 199.132 172.705 198.493C173.045 197.855 173.216 197.099 173.216 196.226C173.216 195.354 173.04 194.603 172.689 193.975C172.348 193.337 171.869 192.842 171.252 192.491C170.635 192.139 169.906 191.964 169.065 191.964H167.022V200.505ZM181.868 202.181V191.964H178.707V190.288H186.849V191.964H183.736V202.181H181.868ZM193.553 202.372C192.691 202.372 191.888 202.218 191.143 201.909C190.408 201.601 189.759 201.17 189.195 200.616C188.642 200.063 188.205 199.414 187.886 198.669C187.577 197.924 187.423 197.11 187.423 196.226C187.423 195.343 187.577 194.529 187.886 193.784C188.205 193.028 188.642 192.379 189.195 191.836C189.748 191.283 190.398 190.857 191.143 190.559C191.888 190.25 192.691 190.096 193.553 190.096C194.426 190.096 195.229 190.25 195.964 190.559C196.709 190.857 197.358 191.283 197.911 191.836C198.475 192.39 198.912 193.039 199.22 193.784C199.529 194.529 199.683 195.343 199.683 196.226C199.683 197.11 199.524 197.924 199.204 198.669C198.896 199.414 198.465 200.063 197.911 200.616C197.358 201.17 196.709 201.601 195.964 201.909C195.219 202.218 194.415 202.372 193.553 202.372ZM193.553 200.648C194.17 200.648 194.734 200.536 195.245 200.313C195.767 200.089 196.219 199.781 196.602 199.387C196.985 198.983 197.283 198.514 197.496 197.982C197.709 197.439 197.815 196.854 197.815 196.226C197.815 195.598 197.709 195.018 197.496 194.486C197.283 193.954 196.985 193.486 196.602 193.081C196.219 192.677 195.767 192.363 195.245 192.139C194.734 191.916 194.17 191.804 193.553 191.804C192.936 191.804 192.366 191.916 191.845 192.139C191.334 192.363 190.887 192.677 190.504 193.081C190.121 193.486 189.823 193.954 189.61 194.486C189.408 195.018 189.307 195.598 189.307 196.226C189.307 196.854 189.408 197.439 189.61 197.982C189.823 198.514 190.121 198.983 190.504 199.387C190.887 199.781 191.339 200.089 191.861 200.313C192.382 200.536 192.946 200.648 193.553 200.648ZM16.1225 222.181L20.305 210.288H22.6357L26.8182 222.181H24.8068L23.8969 219.515H19.0598L18.1339 222.181H16.1225ZM19.6026 217.839H23.3222L21.2149 211.613H21.7417L19.6026 217.839ZM33.3173 222.372C32.4765 222.372 31.6943 222.218 30.9706 221.909C30.2575 221.601 29.6296 221.175 29.0869 220.632C28.5547 220.079 28.1397 219.43 27.8417 218.685C27.5437 217.94 27.3947 217.12 27.3947 216.226C27.3947 215.343 27.5384 214.529 27.8257 213.784C28.1237 213.028 28.5388 212.379 29.0709 211.836C29.603 211.283 30.2256 210.857 30.9387 210.559C31.6517 210.25 32.4339 210.096 33.2854 210.096C34.1261 210.096 34.8764 210.24 35.5363 210.527C36.2067 210.814 36.7708 211.192 37.2284 211.661C37.6861 212.118 38.016 212.618 38.2182 213.161L36.542 213.975C36.2972 213.326 35.8928 212.805 35.3287 212.411C34.7647 212.006 34.0835 211.804 33.2854 211.804C32.4978 211.804 31.8007 211.99 31.1941 212.363C30.5875 212.735 30.1139 213.252 29.7733 213.911C29.4434 214.571 29.2784 215.343 29.2784 216.226C29.2784 217.11 29.4487 217.886 29.7893 218.557C30.1405 219.217 30.6194 219.733 31.226 220.105C31.8326 220.467 32.5297 220.648 33.3173 220.648C33.9771 220.648 34.5784 220.515 35.1212 220.249C35.6746 219.972 36.1163 219.589 36.4462 219.1C36.7761 218.6 36.9411 218.019 36.9411 217.36V216.545L37.7872 217.312H33.2854V215.715H38.8088V216.833C38.8088 217.706 38.6599 218.488 38.3619 219.18C38.0639 219.861 37.6595 220.441 37.1486 220.92C36.6378 221.398 36.0524 221.76 35.3926 222.005C34.7327 222.25 34.041 222.372 33.3173 222.372ZM40.7321 222.181V210.288H45.0583C45.8565 210.288 46.5589 210.437 47.1656 210.735C47.7722 211.022 48.2458 211.448 48.5863 212.012C48.9375 212.565 49.1131 213.23 49.1131 214.007C49.1131 214.827 48.9056 215.529 48.4906 216.114C48.0861 216.7 47.538 217.126 46.8463 217.392L49.5921 222.181H47.4529L44.5315 216.992L45.7607 217.711H42.6159V222.181H40.7321ZM42.6159 216.035H45.0903C45.5266 216.035 45.9044 215.949 46.2237 215.779C46.543 215.609 46.7877 215.375 46.958 215.077C47.1389 214.768 47.2294 214.406 47.2294 213.991C47.2294 213.576 47.1389 213.22 46.958 212.922C46.7877 212.613 46.543 212.379 46.2237 212.219C45.9044 212.049 45.5266 211.964 45.0903 211.964H42.6159V216.035ZM51.1772 222.181V210.288H53.061V222.181H51.1772ZM61.0662 222.372C60.2254 222.372 59.4432 222.218 58.7195 221.909C58.0065 221.601 57.3839 221.175 56.8517 220.632C56.3303 220.079 55.9205 219.43 55.6225 218.685C55.3245 217.94 55.1755 217.12 55.1755 216.226C55.1755 215.343 55.3192 214.529 55.6066 213.784C55.9046 213.028 56.3196 212.379 56.8517 211.836C57.3839 211.283 58.0065 210.857 58.7195 210.559C59.4326 210.25 60.2148 210.096 61.0662 210.096C61.907 210.096 62.6573 210.24 63.3171 210.527C63.9876 210.814 64.5516 211.192 65.0093 211.661C65.4669 212.118 65.7968 212.618 65.999 213.161L64.3069 213.959C64.0514 213.321 63.6417 212.805 63.0777 212.411C62.5242 212.006 61.8538 211.804 61.0662 211.804C60.2787 211.804 59.5816 211.99 58.9749 212.363C58.3683 212.735 57.8947 213.252 57.5542 213.911C57.2242 214.571 57.0593 215.343 57.0593 216.226C57.0593 217.11 57.2242 217.886 57.5542 218.557C57.8947 219.217 58.3683 219.733 58.9749 220.105C59.5816 220.467 60.2787 220.648 61.0662 220.648C61.8538 220.648 62.5242 220.451 63.0777 220.058C63.6417 219.664 64.0514 219.148 64.3069 218.509L65.999 219.307C65.7968 219.839 65.4669 220.34 65.0093 220.808C64.5516 221.276 63.9876 221.654 63.3171 221.941C62.6573 222.229 61.907 222.372 61.0662 222.372ZM72.3901 222.372C71.5067 222.372 70.7192 222.186 70.0274 221.814C69.3463 221.441 68.8088 220.93 68.4151 220.281C68.0319 219.632 67.8404 218.892 67.8404 218.062V210.288H69.7241V217.982C69.7241 218.504 69.8358 218.967 70.0593 219.371C70.2935 219.776 70.6074 220.089 71.0012 220.313C71.4056 220.536 71.8686 220.648 72.3901 220.648C72.9222 220.648 73.3851 220.536 73.7789 220.313C74.1833 220.089 74.4973 219.776 74.7208 219.371C74.9549 218.967 75.072 218.504 75.072 217.982V210.288H76.9398V218.062C76.9398 218.892 76.7482 219.632 76.3651 220.281C75.9819 220.93 75.4445 221.441 74.7527 221.814C74.0716 222.186 73.284 222.372 72.3901 222.372ZM79.301 222.181V210.288H81.1848V220.505H86.3251V222.181H79.301ZM89.0628 222.181V211.964H85.902V210.288H94.0435V211.964H90.9306V222.181H89.0628ZM99.9059 222.372C99.0226 222.372 98.235 222.186 97.5432 221.814C96.8621 221.441 96.3247 220.93 95.9309 220.281C95.5478 219.632 95.3562 218.892 95.3562 218.062V210.288H97.2399V217.982C97.2399 218.504 97.3517 218.967 97.5752 219.371C97.8093 219.776 98.1233 220.089 98.517 220.313C98.9215 220.536 99.3844 220.648 99.9059 220.648C100.438 220.648 100.901 220.536 101.295 220.313C101.699 220.089 102.013 219.776 102.237 219.371C102.471 218.967 102.588 218.504 102.588 217.982V210.288H104.456V218.062C104.456 218.892 104.264 219.632 103.881 220.281C103.498 220.93 102.96 221.441 102.269 221.814C101.587 222.186 100.8 222.372 99.9059 222.372ZM106.817 222.181V210.288H111.143C111.941 210.288 112.644 210.437 113.25 210.735C113.857 211.022 114.331 211.448 114.671 212.012C115.022 212.565 115.198 213.23 115.198 214.007C115.198 214.827 114.99 215.529 114.575 216.114C114.171 216.7 113.623 217.126 112.931 217.392L115.677 222.181H113.538L110.616 216.992L111.845 217.711H108.701V222.181H106.817ZM108.701 216.035H111.175C111.611 216.035 111.989 215.949 112.308 215.779C112.628 215.609 112.872 215.375 113.043 215.077C113.224 214.768 113.314 214.406 113.314 213.991C113.314 213.576 113.224 213.22 113.043 212.922C112.872 212.613 112.628 212.379 112.308 212.219C111.989 212.049 111.611 211.964 111.175 211.964H108.701V216.035ZM117.262 222.181V210.288H125.1V211.964H119.146V215.38H124.781V217.056H119.146V220.505H125.1V222.181H117.262ZM128.587 222.181L132.769 210.288H135.1L139.282 222.181H137.271L136.361 219.515H131.524L130.598 222.181H128.587ZM132.067 217.839H135.786L133.679 211.613H134.206L132.067 217.839ZM140.693 222.181V210.288H142.21L148.883 219.499L148.164 219.611V210.288H150.032V222.181H148.516L141.891 212.906L142.577 212.778V222.181H140.693ZM152.495 222.181V210.288H156.39C157.624 210.288 158.694 210.538 159.599 211.038C160.514 211.528 161.222 212.219 161.722 213.113C162.222 214.007 162.472 215.045 162.472 216.226C162.472 217.397 162.222 218.435 161.722 219.339C161.222 220.233 160.514 220.93 159.599 221.43C158.694 221.931 157.624 222.181 156.39 222.181H152.495ZM154.378 220.505H156.422C157.263 220.505 157.992 220.329 158.609 219.978C159.237 219.627 159.721 219.132 160.062 218.493C160.402 217.855 160.572 217.099 160.572 216.226C160.572 215.354 160.397 214.603 160.046 213.975C159.705 213.337 159.226 212.842 158.609 212.491C157.992 212.139 157.263 211.964 156.422 211.964H154.378V220.505ZM166.064 222.181L170.247 210.288H172.577L176.76 222.181H174.749L173.839 219.515H169.002L168.076 222.181H166.064ZM169.544 217.839H173.264L171.157 211.613H171.683L169.544 217.839ZM178.171 222.181V210.288H179.687L186.36 219.499L185.642 219.611V210.288H187.51V222.181H185.993L179.368 212.906L180.055 212.778V222.181H178.171ZM189.972 222.181V210.288H191.856V222.181H189.972ZM194.322 222.181V210.288H196.078L200.548 216.482H199.67L204.06 210.288H205.816V222.181H203.948V212.507L204.65 212.698L200.165 218.828H199.973L195.583 212.698L196.206 212.507V222.181H194.322ZM207.221 222.181L211.404 210.288H213.734L217.917 222.181H215.905L214.995 219.515H210.158L209.232 222.181H207.221ZM210.701 217.839H214.421L212.314 211.613H212.84L210.701 217.839ZM219.328 222.181V210.288H221.211V220.505H226.352V222.181H219.328ZM67.3671 242.181V230.288H69.2509V235.524H74.7584V230.288H76.6262V242.181H74.7584V237.2H69.2509V242.181H67.3671ZM83.5445 242.372C82.6612 242.372 81.8736 242.186 81.1818 241.814C80.5007 241.441 79.9633 240.93 79.5695 240.281C79.1864 239.632 78.9948 238.892 78.9948 238.062V230.288H80.8785V237.982C80.8785 238.504 80.9903 238.967 81.2138 239.371C81.4479 239.776 81.7619 240.089 82.1556 240.313C82.5601 240.536 83.023 240.648 83.5445 240.648C84.0766 240.648 84.5396 240.536 84.9334 240.313C85.3378 240.089 85.6517 239.776 85.8752 239.371C86.1094 238.967 86.2264 238.504 86.2264 237.982V230.288H88.0942V238.062C88.0942 238.892 87.9026 239.632 87.5195 240.281C87.1364 240.93 86.5989 241.441 85.9071 241.814C85.226 242.186 84.4385 242.372 83.5445 242.372ZM94.622 242.372C93.8771 242.372 93.1853 242.234 92.5467 241.957C91.9082 241.67 91.3654 241.281 90.9184 240.792C90.4714 240.302 90.1415 239.738 89.9287 239.1L91.5251 238.429C91.8124 239.164 92.2328 239.728 92.7862 240.121C93.3396 240.515 93.9782 240.712 94.7019 240.712C95.1276 240.712 95.5001 240.648 95.8193 240.52C96.1386 240.382 96.3834 240.191 96.5537 239.946C96.7346 239.701 96.8251 239.419 96.8251 239.1C96.8251 238.663 96.7027 238.317 96.4579 238.062C96.2131 237.807 95.8513 237.604 95.3723 237.455L93.1374 236.753C92.2434 236.476 91.5623 236.056 91.094 235.492C90.6258 234.917 90.3916 234.247 90.3916 233.48C90.3916 232.81 90.5566 232.225 90.8865 231.724C91.2164 231.214 91.6687 230.814 92.2434 230.527C92.8288 230.24 93.4939 230.096 94.2389 230.096C94.952 230.096 95.6012 230.224 96.1865 230.479C96.7718 230.724 97.272 231.065 97.6871 231.501C98.1128 231.937 98.4214 232.443 98.613 233.017L97.0485 233.704C96.8144 233.076 96.4472 232.592 95.947 232.251C95.4575 231.911 94.8881 231.74 94.2389 231.74C93.8451 231.74 93.4992 231.81 93.2013 231.948C92.9033 232.076 92.6691 232.267 92.4988 232.523C92.3392 232.767 92.2594 233.055 92.2594 233.385C92.2594 233.768 92.3818 234.108 92.6266 234.406C92.8713 234.704 93.2438 234.928 93.744 235.077L95.8193 235.731C96.7665 236.019 97.4796 236.434 97.9585 236.977C98.4374 237.509 98.6769 238.174 98.6769 238.972C98.6769 239.632 98.5013 240.217 98.1501 240.728C97.8095 241.239 97.3359 241.643 96.7293 241.941C96.1226 242.229 95.4202 242.372 94.622 242.372ZM100.791 242.181V230.288H105.804C106.549 230.288 107.193 230.421 107.736 230.687C108.278 230.942 108.694 231.315 108.981 231.804C109.268 232.283 109.412 232.853 109.412 233.512C109.412 234.087 109.263 234.614 108.965 235.093C108.678 235.561 108.225 235.934 107.608 236.21V235.412C108.151 235.625 108.592 235.896 108.933 236.226C109.274 236.545 109.518 236.907 109.667 237.312C109.827 237.716 109.907 238.142 109.907 238.589C109.907 239.706 109.54 240.584 108.805 241.223C108.082 241.861 107.087 242.181 105.82 242.181H100.791ZM102.675 240.505H105.964C106.592 240.505 107.092 240.334 107.464 239.994C107.837 239.642 108.023 239.18 108.023 238.605C108.023 238.019 107.837 237.557 107.464 237.216C107.092 236.865 106.592 236.689 105.964 236.689H102.675V240.505ZM102.675 235.029H105.852C106.363 235.029 106.773 234.885 107.081 234.598C107.39 234.3 107.544 233.911 107.544 233.433C107.544 232.954 107.39 232.581 107.081 232.315C106.773 232.049 106.363 231.916 105.852 231.916H102.675V235.029ZM110.791 242.181L114.973 230.288H117.304L121.487 242.181H119.475L118.565 239.515H113.728L112.802 242.181H110.791ZM114.271 237.839H117.991L115.883 231.613H116.41L114.271 237.839ZM122.898 242.181V230.288H124.414L131.087 239.499L130.369 239.611V230.288H132.236V242.181H130.72L124.095 232.906L124.781 232.778V242.181H122.898ZM134.699 242.181V230.288H138.594C139.829 230.288 140.898 230.538 141.803 231.038C142.718 231.528 143.426 232.219 143.926 233.113C144.426 234.007 144.676 235.045 144.676 236.226C144.676 237.397 144.426 238.435 143.926 239.339C143.426 240.233 142.718 240.93 141.803 241.43C140.898 241.931 139.829 242.181 138.594 242.181H134.699ZM136.583 240.505H138.626C139.467 240.505 140.196 240.329 140.813 239.978C141.441 239.627 141.925 239.132 142.266 238.493C142.606 237.855 142.777 237.099 142.777 236.226C142.777 235.354 142.601 234.603 142.25 233.975C141.909 233.337 141.43 232.842 140.813 232.491C140.196 232.139 139.467 231.964 138.626 231.964H136.583V240.505ZM144.995 242.181L149.177 230.288H151.508L155.691 242.181H153.679L152.769 239.515H147.932L147.006 242.181H144.995ZM148.475 237.839H152.194L150.087 231.613H150.614L148.475 237.839ZM157.101 242.181V230.288H161.428C162.226 230.288 162.928 230.437 163.535 230.735C164.142 231.022 164.615 231.448 164.956 232.012C165.307 232.565 165.482 233.23 165.482 234.007C165.482 234.827 165.275 235.529 164.86 236.114C164.455 236.7 163.907 237.126 163.216 237.392L165.961 242.181H163.822L160.901 236.992L162.13 237.711H158.985V242.181H157.101ZM158.985 236.035H161.46C161.896 236.035 162.274 235.949 162.593 235.779C162.912 235.609 163.157 235.375 163.327 235.077C163.508 234.768 163.599 234.406 163.599 233.991C163.599 233.576 163.508 233.22 163.327 232.922C163.157 232.613 162.912 232.379 162.593 232.219C162.274 232.049 161.896 231.964 161.46 231.964H158.985V236.035ZM170.408 242.181V236.817L166.337 230.288H168.46L171.717 235.572H170.967L174.207 230.288H176.33L172.276 236.817V242.181H170.408Z" fill="#242424"/>
<path d="M196.355 15.9639V17.55V24.3868H214.524V41.506H223.494V17.55V15.9639H196.355Z" fill="#EE4523"/>
<path d="M118.659 87.3016L101.789 71.7669C100.84 70.8935 100.511 69.4885 100.969 68.271C101.427 67.0536 102.594 66.2356 103.871 66.2356H119.505C123.141 66.2356 126.438 64.1773 128.108 60.8641C128.25 60.5813 128.238 60.2433 128.076 59.9719C127.914 59.7005 127.625 59.5349 127.313 59.5349H119.317C118.824 59.5349 118.424 59.9432 118.424 60.4469C118.424 60.9505 118.824 61.3589 119.317 61.3589H125.682C124.202 63.2721 121.947 64.4117 119.505 64.4117H103.871C101.86 64.4117 100.023 65.6998 99.3017 67.617C98.5802 69.5341 99.0991 71.7462 100.593 73.1216L117.463 88.6563C117.634 88.8135 117.848 88.891 118.061 88.891C118.305 88.891 118.548 88.7894 118.724 88.5898C119.055 88.2156 119.026 87.639 118.659 87.3016Z" fill="url(#paint0_linear_1_29)"/>
<path d="M98.976 56.3606C98.976 59.1167 101.172 61.3589 103.871 61.3589H115.349C115.842 61.3589 116.242 60.9505 116.242 60.4469C116.242 59.9432 115.842 59.5349 115.349 59.5349H103.871C102.157 59.5349 100.762 58.1109 100.762 56.3606C100.762 54.6103 102.157 53.1864 103.871 53.1864H127.314C127.625 53.1864 127.914 53.0208 128.076 52.7494C128.238 52.478 128.25 52.1399 128.108 51.8572C126.438 48.544 123.141 46.4858 119.505 46.4858H103.871C102.157 46.4858 100.762 45.0619 100.762 43.3116C100.762 41.5612 102.157 40.1372 103.871 40.1372H130.8C131.294 40.1372 131.693 39.7289 131.693 39.2252C131.693 38.7216 131.294 38.3133 130.8 38.3133H103.871C101.172 38.3133 98.976 40.5554 98.976 43.3115C98.976 46.0675 101.172 48.3097 103.871 48.3097H119.505C121.947 48.3097 124.202 49.4495 125.682 51.3624H103.871C101.172 51.3623 98.976 53.6045 98.976 56.3606Z" fill="url(#paint1_linear_1_29)"/>
<path d="M140.376 51.3623H136.489C136.192 50.3097 135.801 49.2889 135.321 48.3096H140.376C143.075 48.3096 145.271 46.0674 145.271 43.3113C145.271 40.5554 143.075 38.3133 140.376 38.3133H134.769C134.275 38.3133 133.876 38.7216 133.876 39.2252C133.876 39.7289 134.275 40.1372 134.769 40.1372H140.376C142.09 40.1372 143.485 41.5612 143.485 43.3115C143.485 45.0618 142.09 46.4857 140.376 46.4857H133.802C133.478 46.4857 133.18 46.6646 133.022 46.9531C132.865 47.2417 132.872 47.5948 133.042 47.8762C133.907 49.3092 134.544 50.8622 134.936 52.492C135.034 52.8998 135.392 53.1864 135.803 53.1864H140.376C142.09 53.1864 143.485 54.6103 143.485 56.3606C143.485 58.1109 142.09 59.5349 140.376 59.5349H135.803C135.392 59.5349 135.034 59.8216 134.936 60.2293C134.103 63.6904 132.129 66.8278 129.376 69.0634C126.54 71.3666 123.127 72.584 119.505 72.584H114.284C113.914 72.584 113.583 72.8165 113.45 73.1689C113.318 73.5213 113.411 73.9205 113.686 74.1733L134.367 93.2167C134.983 93.7845 135.347 94.5636 135.389 95.4104C135.432 96.2572 135.149 97.0701 134.593 97.6999C134.005 98.3661 133.163 98.7482 132.283 98.7482C131.514 98.7482 130.775 98.458 130.202 97.9312L121.606 90.0153C121.24 89.6782 120.675 89.7076 120.344 90.0818C120.014 90.4558 120.043 91.0325 120.41 91.3699L129.006 99.2858C129.907 100.115 131.071 100.572 132.283 100.572C133.668 100.572 134.993 99.9706 135.92 98.9215C136.796 97.9301 137.241 96.6497 137.173 95.3164C137.106 93.9832 136.534 92.7564 135.563 91.8624L116.608 74.4079H119.505C123.535 74.4079 127.333 73.0534 130.488 70.4908C133.364 68.1555 135.476 64.9336 136.489 61.3587H140.376C143.075 61.3587 145.271 59.1166 145.271 56.3605C145.271 53.6045 143.075 51.3623 140.376 51.3623Z" fill="url(#paint2_linear_1_29)"/>
<defs>
<linearGradient id="paint0_linear_1_29" x1="122.124" y1="38.3133" x2="135.334" y2="99.2524" gradientUnits="userSpaceOnUse">
<stop stop-color="#EE4523"/>
<stop offset="1" stop-color="#EE4523" stop-opacity="0.42"/>
</linearGradient>
<linearGradient id="paint1_linear_1_29" x1="122.124" y1="38.3133" x2="135.334" y2="99.2524" gradientUnits="userSpaceOnUse">
<stop stop-color="#EE4523"/>
<stop offset="1" stop-color="#EE4523" stop-opacity="0.42"/>
</linearGradient>
<linearGradient id="paint2_linear_1_29" x1="122.124" y1="38.3133" x2="135.334" y2="99.2524" gradientUnits="userSpaceOnUse">
<stop stop-color="#EE4523"/>
<stop offset="1" stop-color="#EE4523" stop-opacity="0.42"/>
</linearGradient>
</defs>
</svg>
