<svg width="240" height="265" viewBox="0 0 240 265" fill="none" xmlns="http://www.w3.org/2000/svg">
<rect width="239.458" height="265" rx="25.5422" fill="white"/>
<path d="M39.6393 165.518V161.407L47.701 152.986C49.2974 151.31 50.5213 149.98 51.3727 148.995C52.2507 147.984 52.8627 147.12 53.2086 146.401C53.5544 145.683 53.7274 144.951 53.7274 144.206C53.7274 142.956 53.3283 141.971 52.5301 141.253C51.7585 140.535 50.7608 140.175 49.5369 140.175C48.2598 140.175 47.1556 140.548 46.2244 141.293C45.2931 142.011 44.6147 143.076 44.189 144.486L39.4397 143.009C39.759 141.439 40.4109 140.082 41.3953 138.938C42.3797 137.768 43.577 136.876 44.9872 136.264C46.4239 135.626 47.9405 135.306 49.5369 135.306C51.4525 135.306 53.1287 135.652 54.5655 136.344C56.0288 137.036 57.1596 138.007 57.9578 139.258C58.7826 140.508 59.195 141.971 59.195 143.648C59.195 144.712 58.9955 145.763 58.5964 146.8C58.1973 147.838 57.5986 148.902 56.8004 149.993C56.0022 151.057 54.9646 152.255 53.6875 153.585L46.7033 160.928H59.5941V165.518H39.6393ZM63.4526 165.518V161.407L71.5143 152.986C73.1107 151.31 74.3346 149.98 75.186 148.995C76.064 147.984 76.6759 147.12 77.0218 146.401C77.3677 145.683 77.5407 144.951 77.5407 144.206C77.5407 142.956 77.1416 141.971 76.3434 141.253C75.5718 140.535 74.574 140.175 73.3501 140.175C72.073 140.175 70.9689 140.548 70.0376 141.293C69.1064 142.011 68.428 143.076 68.0022 144.486L63.253 143.009C63.5723 141.439 64.2241 140.082 65.2086 138.938C66.193 137.768 67.3903 136.876 68.8004 136.264C70.2372 135.626 71.7538 135.306 73.3501 135.306C75.2658 135.306 76.942 135.652 78.3788 136.344C79.8421 137.036 80.9729 138.007 81.7711 139.258C82.5959 140.508 83.0083 141.971 83.0083 143.648C83.0083 144.712 82.8087 145.763 82.4096 146.8C82.0105 147.838 81.4119 148.902 80.6137 149.993C79.8155 151.057 78.7779 152.255 77.5007 153.585L70.5166 160.928H83.4074V165.518H63.4526ZM89.5407 171.744V169.15C90.4187 168.937 91.1238 168.525 91.6559 167.913C92.2146 167.327 92.5605 166.529 92.6935 165.518H90.3389V159.931H95.6069V163.363C95.6069 165.704 95.0881 167.58 94.0505 168.99C93.0394 170.4 91.5362 171.318 89.5407 171.744ZM102.568 165.518L114.94 140.375H100.932V135.785H120.647V140.375L108.555 165.518H102.568ZM136.116 165.997C133.748 165.997 131.673 165.358 129.89 164.081C128.107 162.804 126.71 161.008 125.699 158.694C124.715 156.379 124.223 153.692 124.223 150.632C124.223 147.545 124.715 144.858 125.699 142.57C126.684 140.282 128.067 138.499 129.85 137.222C131.633 135.945 133.708 135.306 136.076 135.306C138.497 135.306 140.586 135.945 142.342 137.222C144.124 138.499 145.521 140.295 146.532 142.61C147.543 144.898 148.049 147.572 148.049 150.632C148.049 153.692 147.543 156.379 146.532 158.694C145.548 160.982 144.164 162.778 142.382 164.081C140.599 165.358 138.51 165.997 136.116 165.997ZM136.156 161.048C137.513 161.048 138.67 160.636 139.628 159.811C140.586 158.96 141.317 157.762 141.823 156.219C142.355 154.649 142.621 152.787 142.621 150.632C142.621 148.477 142.355 146.628 141.823 145.084C141.317 143.515 140.572 142.317 139.588 141.492C138.63 140.668 137.459 140.255 136.076 140.255C134.746 140.255 133.602 140.668 132.644 141.492C131.686 142.317 130.941 143.515 130.409 145.084C129.903 146.628 129.65 148.477 129.65 150.632C129.65 152.76 129.903 154.609 130.409 156.179C130.941 157.722 131.686 158.92 132.644 159.771C133.628 160.622 134.799 161.048 136.156 161.048ZM164.372 165.997C162.004 165.997 159.929 165.358 158.146 164.081C156.364 162.804 154.967 161.008 153.956 158.694C152.971 156.379 152.479 153.692 152.479 150.632C152.479 147.545 152.971 144.858 153.956 142.57C154.94 140.282 156.324 138.499 158.106 137.222C159.889 135.945 161.964 135.306 164.332 135.306C166.753 135.306 168.842 135.945 170.598 137.222C172.381 138.499 173.778 140.295 174.789 142.61C175.8 144.898 176.305 147.572 176.305 150.632C176.305 153.692 175.8 156.379 174.789 158.694C173.804 160.982 172.421 162.778 170.638 164.081C168.855 165.358 166.767 165.997 164.372 165.997ZM164.412 161.048C165.769 161.048 166.926 160.636 167.884 159.811C168.842 158.96 169.574 157.762 170.079 156.219C170.611 154.649 170.877 152.787 170.877 150.632C170.877 148.477 170.611 146.628 170.079 145.084C169.574 143.515 168.829 142.317 167.844 141.492C166.886 140.668 165.716 140.255 164.332 140.255C163.002 140.255 161.858 140.668 160.9 141.492C159.942 142.317 159.197 143.515 158.665 145.084C158.16 146.628 157.907 148.477 157.907 150.632C157.907 152.76 158.16 154.609 158.665 156.179C159.197 157.722 159.942 158.92 160.9 159.771C161.884 160.622 163.055 161.048 164.412 161.048ZM189.436 165.518V157.776H181.693V153.266H189.436V145.563H193.946V153.266H201.648V157.776H193.946V165.518H189.436Z" fill="#03518F"/>
<path d="M80.2102 203.391C79.3907 203.391 78.6298 203.239 77.9273 202.935C77.2249 202.619 76.6279 202.191 76.1362 201.653C75.6445 201.114 75.2816 200.494 75.0475 199.792L76.8035 199.054C77.1196 199.862 77.582 200.482 78.1907 200.915C78.7995 201.349 79.5019 201.565 80.298 201.565C80.7662 201.565 81.176 201.495 81.5272 201.354C81.8784 201.202 82.1477 200.992 82.335 200.722C82.534 200.453 82.6335 200.143 82.6335 199.792C82.6335 199.312 82.4989 198.931 82.2296 198.65C81.9603 198.369 81.5623 198.147 81.0355 197.983L78.5771 197.21C77.5937 196.906 76.8445 196.443 76.3294 195.823C75.8143 195.191 75.5567 194.453 75.5567 193.61C75.5567 192.873 75.7382 192.229 76.1011 191.679C76.464 191.117 76.9615 190.678 77.5937 190.362C78.2376 190.046 78.9692 189.888 79.7887 189.888C80.5731 189.888 81.2872 190.028 81.9311 190.309C82.575 190.578 83.1252 190.953 83.5817 191.433C84.05 191.913 84.3895 192.469 84.6002 193.101L82.8793 193.856C82.6218 193.166 82.2179 192.633 81.6677 192.258C81.1292 191.884 80.5028 191.696 79.7887 191.696C79.3556 191.696 78.9751 191.772 78.6473 191.925C78.3195 192.065 78.062 192.276 77.8747 192.557C77.6991 192.826 77.6113 193.142 77.6113 193.505C77.6113 193.926 77.7459 194.301 78.0151 194.629C78.2844 194.957 78.6941 195.203 79.2444 195.366L81.5272 196.086C82.5691 196.402 83.3535 196.859 83.8803 197.456C84.4071 198.041 84.6705 198.773 84.6705 199.651C84.6705 200.377 84.4773 201.021 84.091 201.583C83.7164 202.145 83.1954 202.59 82.5281 202.917C81.8608 203.233 81.0882 203.391 80.2102 203.391ZM89.3145 203.181V191.942H85.8375V190.098H94.7933V191.942H91.369V203.181H89.3145ZM94.309 203.181L98.9098 190.098H101.474L106.074 203.181H103.862L102.861 200.248H97.5401L96.5216 203.181H94.309ZM98.1371 198.404H102.229L99.9107 191.556H100.49L98.1371 198.404ZM107.626 203.181V190.098H112.385C113.263 190.098 114.036 190.262 114.703 190.59C115.37 190.906 115.891 191.374 116.266 191.995C116.652 192.604 116.845 193.335 116.845 194.19C116.845 195.091 116.617 195.864 116.161 196.508C115.716 197.152 115.113 197.62 114.352 197.913L117.372 203.181H115.019L111.806 197.474L113.158 198.264H109.698V203.181H107.626ZM109.698 196.42H112.42C112.9 196.42 113.316 196.326 113.667 196.139C114.018 195.952 114.288 195.694 114.475 195.366C114.674 195.027 114.773 194.629 114.773 194.172C114.773 193.716 114.674 193.324 114.475 192.996C114.288 192.656 114.018 192.399 113.667 192.223C113.316 192.036 112.9 191.942 112.42 191.942H109.698V196.42ZM121.091 203.181V191.942H117.614V190.098H126.57V191.942H123.146V203.181H121.091ZM133.018 203.391C132.047 203.391 131.18 203.187 130.419 202.777C129.67 202.367 129.079 201.805 128.646 201.091C128.224 200.377 128.014 199.563 128.014 198.65V190.098H130.086V198.562C130.086 199.136 130.209 199.645 130.455 200.09C130.712 200.535 131.057 200.88 131.491 201.126C131.935 201.372 132.445 201.495 133.018 201.495C133.604 201.495 134.113 201.372 134.546 201.126C134.991 200.88 135.336 200.535 135.582 200.09C135.84 199.645 135.968 199.136 135.968 198.562V190.098H138.023V198.65C138.023 199.563 137.812 200.377 137.391 201.091C136.969 201.805 136.378 202.367 135.617 202.777C134.868 203.187 134.002 203.391 133.018 203.391ZM140.62 203.181V190.098H145.379C146.257 190.098 147.03 190.262 147.697 190.59C148.376 190.906 148.903 191.374 149.278 191.995C149.652 192.604 149.84 193.335 149.84 194.19C149.84 195.033 149.646 195.759 149.26 196.367C148.885 196.976 148.364 197.444 147.697 197.772C147.03 198.1 146.257 198.264 145.379 198.264H142.693V203.181H140.62ZM142.693 196.42H145.432C145.9 196.42 146.31 196.326 146.661 196.139C147.012 195.952 147.287 195.694 147.486 195.366C147.685 195.027 147.785 194.629 147.785 194.172C147.785 193.716 147.685 193.324 147.486 192.996C147.287 192.656 147.012 192.399 146.661 192.223C146.31 192.036 145.9 191.942 145.432 191.942H142.693V196.42ZM156.556 203.391C155.737 203.391 154.976 203.239 154.273 202.935C153.571 202.619 152.974 202.191 152.482 201.653C151.99 201.114 151.627 200.494 151.393 199.792L153.149 199.054C153.465 199.862 153.928 200.482 154.537 200.915C155.145 201.349 155.848 201.565 156.644 201.565C157.112 201.565 157.522 201.495 157.873 201.354C158.224 201.202 158.494 200.992 158.681 200.722C158.88 200.453 158.979 200.143 158.979 199.792C158.979 199.312 158.845 198.931 158.575 198.65C158.306 198.369 157.908 198.147 157.381 197.983L154.923 197.21C153.94 196.906 153.19 196.443 152.675 195.823C152.16 195.191 151.903 194.453 151.903 193.61C151.903 192.873 152.084 192.229 152.447 191.679C152.81 191.117 153.307 190.678 153.94 190.362C154.583 190.046 155.315 189.888 156.135 189.888C156.919 189.888 157.633 190.028 158.277 190.309C158.921 190.578 159.471 190.953 159.928 191.433C160.396 191.913 160.735 192.469 160.946 193.101L159.225 193.856C158.968 193.166 158.564 192.633 158.014 192.258C157.475 191.884 156.849 191.696 156.135 191.696C155.701 191.696 155.321 191.772 154.993 191.925C154.665 192.065 154.408 192.276 154.221 192.557C154.045 192.826 153.957 193.142 153.957 193.505C153.957 193.926 154.092 194.301 154.361 194.629C154.63 194.957 155.04 195.203 155.59 195.366L157.873 196.086C158.915 196.402 159.699 196.859 160.226 197.456C160.753 198.041 161.016 198.773 161.016 199.651C161.016 200.377 160.823 201.021 160.437 201.583C160.062 202.145 159.541 202.59 158.874 202.917C158.207 203.233 157.434 203.391 156.556 203.391ZM48.1119 225.181V212.098H52.8707C53.7487 212.098 54.5214 212.262 55.1887 212.59C55.856 212.906 56.3769 213.374 56.7515 213.995C57.1379 214.604 57.331 215.335 57.331 216.19C57.331 217.091 57.1027 217.864 56.6462 218.508C56.2013 219.152 55.5984 219.62 54.8375 219.913L57.8578 225.181H55.5048L52.2912 219.474L53.6434 220.264H50.184V225.181H48.1119ZM50.184 218.42H52.9059C53.3858 218.42 53.8014 218.326 54.1526 218.139C54.5038 217.952 54.7731 217.694 54.9604 217.366C55.1594 217.027 55.2589 216.629 55.2589 216.172C55.2589 215.716 55.1594 215.324 54.9604 214.996C54.7731 214.656 54.5038 214.399 54.1526 214.223C53.8014 214.036 53.3858 213.942 52.9059 213.942H50.184V218.42ZM59.6015 225.181V212.098H68.2236V213.942H61.6736V217.7H67.8724V219.544H61.6736V223.337H68.2236V225.181H59.6015ZM76.2414 225.391C75.3165 225.391 74.4561 225.222 73.66 224.882C72.8756 224.543 72.1908 224.074 71.6054 223.477C71.0318 222.869 70.5811 222.155 70.2533 221.335C69.9255 220.516 69.7616 219.614 69.7616 218.631C69.7616 217.659 69.9197 216.764 70.2358 215.944C70.5635 215.113 71.0201 214.399 71.6054 213.802C72.1908 213.193 72.8756 212.725 73.66 212.397C74.4444 212.057 75.3048 211.888 76.2414 211.888C77.1662 211.888 77.9915 212.046 78.7173 212.362C79.4549 212.678 80.0753 213.093 80.5787 213.609C81.0821 214.112 81.445 214.662 81.6675 215.259L79.8061 216.137C79.5251 215.435 79.0744 214.867 78.4539 214.434C77.8452 213.989 77.1077 213.767 76.2414 213.767C75.375 213.767 74.6083 213.971 73.941 214.381C73.2737 214.791 72.7527 215.359 72.3781 216.085C72.0152 216.81 71.8337 217.659 71.8337 218.631C71.8337 219.602 72.0152 220.457 72.3781 221.195C72.7527 221.92 73.2737 222.488 73.941 222.898C74.6083 223.296 75.375 223.495 76.2414 223.495C77.1077 223.495 77.8452 223.278 78.4539 222.845C79.0744 222.412 79.5251 221.844 79.8061 221.142L81.6675 222.02C81.445 222.605 81.0821 223.155 80.5787 223.671C80.0753 224.186 79.4549 224.601 78.7173 224.917C77.9915 225.233 77.1662 225.391 76.2414 225.391ZM90.1551 225.391C89.2068 225.391 88.323 225.222 87.5035 224.882C86.6957 224.543 85.9816 224.069 85.3612 223.46C84.7524 222.851 84.2724 222.137 83.9212 221.317C83.5817 220.498 83.412 219.602 83.412 218.631C83.412 217.659 83.5817 216.764 83.9212 215.944C84.2724 215.113 84.7524 214.399 85.3612 213.802C85.9699 213.193 86.684 212.725 87.5035 212.397C88.323 212.057 89.2068 211.888 90.1551 211.888C91.1151 211.888 91.9989 212.057 92.8067 212.397C93.6262 212.725 94.3403 213.193 94.949 213.802C95.5695 214.41 96.0495 215.125 96.389 215.944C96.7285 216.764 96.8982 217.659 96.8982 218.631C96.8982 219.602 96.7226 220.498 96.3714 221.317C96.0319 222.137 95.5578 222.851 94.949 223.46C94.3403 224.069 93.6262 224.543 92.8067 224.882C91.9872 225.222 91.1034 225.391 90.1551 225.391ZM90.1551 223.495C90.8341 223.495 91.4546 223.372 92.0165 223.126C92.5901 222.88 93.0877 222.541 93.5091 222.108C93.9306 221.663 94.2583 221.148 94.4925 220.562C94.7266 219.965 94.8437 219.321 94.8437 218.631C94.8437 217.94 94.7266 217.302 94.4925 216.717C94.2583 216.131 93.9306 215.616 93.5091 215.171C93.0877 214.727 92.5901 214.381 92.0165 214.135C91.4546 213.889 90.8341 213.767 90.1551 213.767C89.4761 213.767 88.8498 213.889 88.2762 214.135C87.7142 214.381 87.2225 214.727 86.8011 215.171C86.3796 215.616 86.0519 216.131 85.8177 216.717C85.5953 217.302 85.4841 217.94 85.4841 218.631C85.4841 219.321 85.5953 219.965 85.8177 220.562C86.0519 221.148 86.3796 221.663 86.8011 222.108C87.2225 222.541 87.7201 222.88 88.2937 223.126C88.8673 223.372 89.4878 223.495 90.1551 223.495ZM105.343 225.391C104.419 225.391 103.558 225.222 102.762 224.882C101.978 224.543 101.287 224.074 100.69 223.477C100.105 222.869 99.6481 222.155 99.3203 221.335C98.9925 220.516 98.8286 219.614 98.8286 218.631C98.8286 217.659 98.9867 216.764 99.3027 215.944C99.6305 215.113 100.087 214.399 100.672 213.802C101.258 213.193 101.943 212.725 102.727 212.397C103.511 212.057 104.372 211.888 105.308 211.888C106.233 211.888 107.059 212.046 107.784 212.362C108.522 212.678 109.142 213.093 109.646 213.609C110.149 214.112 110.512 214.662 110.734 215.259L108.891 216.155C108.621 215.441 108.177 214.867 107.556 214.434C106.936 213.989 106.186 213.767 105.308 213.767C104.442 213.767 103.675 213.971 103.008 214.381C102.341 214.791 101.82 215.359 101.445 216.085C101.082 216.81 100.901 217.659 100.901 218.631C100.901 219.602 101.088 220.457 101.463 221.195C101.849 221.92 102.376 222.488 103.043 222.898C103.71 223.296 104.477 223.495 105.343 223.495C106.069 223.495 106.731 223.349 107.328 223.056C107.937 222.752 108.422 222.33 108.785 221.792C109.148 221.241 109.33 220.603 109.33 219.878V218.982L110.26 219.825H105.308V218.069H111.384V219.298C111.384 220.258 111.22 221.118 110.893 221.879C110.565 222.629 110.12 223.267 109.558 223.793C108.996 224.32 108.352 224.718 107.626 224.988C106.9 225.257 106.14 225.391 105.343 225.391ZM113.5 225.181V212.098H115.168L122.508 222.231L121.718 222.354V212.098H123.773V225.181H122.104L114.817 214.978L115.572 214.838V225.181H113.5ZM126.481 225.181V212.098H128.553V225.181H126.481ZM130.212 225.181V223.6L136.92 213.942H130.599V212.098H139.572V213.661L132.864 223.337H139.73V225.181H130.212ZM141.384 225.181V212.098H150.006V213.942H143.456V217.7H149.654V219.544H143.456V223.337H150.006V225.181H141.384ZM151.93 225.181V212.098H156.215C157.573 212.098 158.749 212.373 159.744 212.924C160.751 213.462 161.53 214.223 162.08 215.207C162.63 216.19 162.905 217.331 162.905 218.631C162.905 219.919 162.63 221.06 162.08 222.055C161.53 223.038 160.751 223.805 159.744 224.355C158.749 224.906 157.573 225.181 156.215 225.181H151.93ZM154.002 223.337H156.25C157.175 223.337 157.977 223.144 158.656 222.757C159.346 222.371 159.879 221.827 160.254 221.124C160.628 220.422 160.815 219.591 160.815 218.631C160.815 217.671 160.622 216.845 160.236 216.155C159.861 215.452 159.335 214.908 158.656 214.522C157.977 214.135 157.175 213.942 156.25 213.942H154.002V223.337ZM168.015 225.181V212.098H173.529C174.349 212.098 175.057 212.245 175.654 212.537C176.251 212.818 176.708 213.228 177.024 213.767C177.34 214.293 177.498 214.92 177.498 215.646C177.498 216.278 177.334 216.857 177.006 217.384C176.69 217.899 176.193 218.309 175.514 218.613V217.735C176.111 217.969 176.597 218.268 176.971 218.631C177.346 218.982 177.615 219.38 177.779 219.825C177.955 220.27 178.042 220.738 178.042 221.23C178.042 222.459 177.638 223.425 176.831 224.127C176.035 224.83 174.94 225.181 173.547 225.181H168.015ZM170.088 223.337H173.705C174.396 223.337 174.946 223.15 175.356 222.775C175.765 222.389 175.97 221.879 175.97 221.247C175.97 220.603 175.765 220.094 175.356 219.719C174.946 219.333 174.396 219.14 173.705 219.14H170.088V223.337ZM170.088 217.314H173.582C174.144 217.314 174.595 217.156 174.934 216.84C175.274 216.512 175.443 216.085 175.443 215.558C175.443 215.031 175.274 214.621 174.934 214.328C174.595 214.036 174.144 213.889 173.582 213.889H170.088V217.314ZM182.79 225.181V219.28L178.312 212.098H180.647L184.23 217.911H183.404L186.969 212.098H189.304L184.844 219.28V225.181H182.79ZM63.3292 247.391C62.4044 247.391 61.5439 247.222 60.7479 246.882C59.9635 246.543 59.2728 246.074 58.6758 245.477C58.0904 244.869 57.6339 244.155 57.3061 243.335C56.9783 242.516 56.8144 241.614 56.8144 240.631C56.8144 239.659 56.9724 238.764 57.2885 237.944C57.6163 237.113 58.0729 236.399 58.6582 235.802C59.2435 235.193 59.9284 234.725 60.7128 234.397C61.4971 234.057 62.3576 233.888 63.2941 233.888C64.2189 233.888 65.0443 234.046 65.7701 234.362C66.5076 234.678 67.1281 235.093 67.6315 235.609C68.1349 236.112 68.4978 236.662 68.7202 237.259L66.8764 238.155C66.6071 237.441 66.1623 236.867 65.5418 236.434C64.9214 235.989 64.1721 235.767 63.2941 235.767C62.4278 235.767 61.661 235.971 60.9937 236.381C60.3264 236.791 59.8055 237.359 59.4309 238.085C59.0679 238.81 58.8865 239.659 58.8865 240.631C58.8865 241.602 59.0738 242.457 59.4484 243.195C59.8347 243.92 60.3615 244.488 61.0288 244.898C61.6961 245.296 62.4629 245.495 63.3292 245.495C64.0551 245.495 64.7165 245.349 65.3135 245.056C65.9223 244.752 66.4081 244.33 66.771 243.792C67.1339 243.241 67.3154 242.603 67.3154 241.878V240.982L68.2461 241.825H63.2941V240.069H69.37V241.298C69.37 242.258 69.2061 243.118 68.8783 243.879C68.5505 244.629 68.1056 245.267 67.5437 245.793C66.9818 246.32 66.3379 246.718 65.6121 246.988C64.8862 247.257 64.1253 247.391 63.3292 247.391ZM77.8424 247.391C76.8941 247.391 76.0102 247.222 75.1908 246.882C74.383 246.543 73.6689 246.069 73.0484 245.46C72.4397 244.851 71.9597 244.137 71.6085 243.317C71.269 242.498 71.0992 241.602 71.0992 240.631C71.0992 239.659 71.269 238.764 71.6085 237.944C71.9597 237.113 72.4397 236.399 73.0484 235.802C73.6572 235.193 74.3713 234.725 75.1908 234.397C76.0102 234.057 76.8941 233.888 77.8424 233.888C78.8023 233.888 79.6862 234.057 80.494 234.397C81.3134 234.725 82.0275 235.193 82.6363 235.802C83.2568 236.41 83.7367 237.125 84.0762 237.944C84.4157 238.764 84.5855 239.659 84.5855 240.631C84.5855 241.602 84.4099 242.498 84.0587 243.317C83.7192 244.137 83.2451 244.851 82.6363 245.46C82.0275 246.069 81.3134 246.543 80.494 246.882C79.6745 247.222 78.7906 247.391 77.8424 247.391ZM77.8424 245.495C78.5213 245.495 79.1418 245.372 79.7037 245.126C80.2774 244.88 80.7749 244.541 81.1964 244.108C81.6178 243.663 81.9456 243.148 82.1797 242.562C82.4139 241.965 82.5309 241.321 82.5309 240.631C82.5309 239.94 82.4139 239.302 82.1797 238.717C81.9456 238.131 81.6178 237.616 81.1964 237.171C80.7749 236.727 80.2774 236.381 79.7037 236.135C79.1418 235.889 78.5213 235.767 77.8424 235.767C77.1634 235.767 76.537 235.889 75.9634 236.135C75.4015 236.381 74.9098 236.727 74.4883 237.171C74.0669 237.616 73.7391 238.131 73.505 238.717C73.2825 239.302 73.1713 239.94 73.1713 240.631C73.1713 241.321 73.2825 241.965 73.505 242.562C73.7391 243.148 74.0669 243.663 74.4883 244.108C74.9098 244.541 75.4073 244.88 75.981 245.126C76.5546 245.372 77.1751 245.495 77.8424 245.495ZM90.0362 247.181L85.4003 234.098H87.6304L91.4234 245.267H90.9844L94.7599 234.098H96.99L92.3541 247.181H90.0362ZM98.529 247.181V234.098H107.151V235.942H100.601V239.7H106.8V241.544H100.601V245.337H107.151V247.181H98.529ZM109.075 247.181V234.098H113.834C114.712 234.098 115.485 234.262 116.152 234.59C116.82 234.906 117.34 235.374 117.715 235.995C118.101 236.604 118.295 237.335 118.295 238.19C118.295 239.091 118.066 239.864 117.61 240.508C117.165 241.152 116.562 241.62 115.801 241.913L118.821 247.181H116.468L113.255 241.474L114.607 242.264H111.148V247.181H109.075ZM111.148 240.42H113.869C114.349 240.42 114.765 240.326 115.116 240.139C115.467 239.952 115.737 239.694 115.924 239.366C116.123 239.027 116.222 238.629 116.222 238.172C116.222 237.716 116.123 237.324 115.924 236.996C115.737 236.656 115.467 236.399 115.116 236.223C114.765 236.036 114.349 235.942 113.869 235.942H111.148V240.42ZM120.565 247.181V234.098H122.233L129.573 244.231L128.783 244.354V234.098H130.838V247.181H129.17L121.882 236.978L122.637 236.838V247.181H120.565ZM133.547 247.181V234.098H135.478L140.395 240.912H139.429L144.258 234.098H146.19V247.181H144.135V236.539L144.908 236.75L139.974 243.493H139.763L134.934 236.75L135.619 236.539V247.181H133.547ZM148.895 247.181V234.098H157.517V235.942H150.967V239.7H157.166V241.544H150.967V245.337H157.517V247.181H148.895ZM159.441 247.181V234.098H161.109L168.45 244.231L167.659 244.354V234.098H169.714V247.181H168.046L160.758 236.978L161.513 236.838V247.181H159.441ZM174.741 247.181V235.942H171.264V234.098H180.219V235.942H176.795V247.181H174.741Z" fill="#242424"/>
<path d="M196.355 15.9639V17.55V24.3868H214.524V41.506H223.494V17.55V15.9639H196.355Z" fill="#EE4523"/>
<path d="M121.325 60.9623C111.685 60.9623 103.869 68.7395 103.869 78.3333C103.87 87.9266 111.685 95.7038 121.326 95.7032C130.967 95.7032 138.782 87.926 138.781 78.3322C138.77 68.7435 130.961 60.9735 121.325 60.9623ZM121.325 93.9782C112.642 93.9782 105.603 86.9736 105.603 78.3328C105.603 69.6925 112.642 62.6873 121.325 62.6873C130.009 62.6873 137.048 69.6919 137.048 78.3322C137.038 86.9692 130.005 93.9687 121.325 93.9782Z" fill="url(#paint0_linear_1_35)"/>
<path d="M136.927 62.4251V54.7091H140.322C140.665 54.7091 140.976 54.508 141.115 54.1958C141.253 53.8836 141.194 53.5192 140.963 53.2665L135.022 46.7634C134.858 46.5837 134.625 46.4809 134.381 46.4809C134.137 46.4809 133.904 46.5837 133.74 46.7634L127.799 53.2665C127.568 53.5192 127.508 53.883 127.647 54.1953C127.786 54.5075 128.097 54.7091 128.439 54.7091H131.582V58.5769C129.498 57.5004 127.255 56.7603 124.937 56.3841V45.5089H130.699C131.042 45.5089 131.353 45.3079 131.491 44.9957C131.63 44.6834 131.571 44.319 131.34 44.0663L121.967 33.8065C121.802 33.6263 121.569 33.5241 121.325 33.5241C121.081 33.5241 120.848 33.6263 120.684 33.8065L111.31 44.0663C111.08 44.319 111.02 44.6834 111.159 44.9957C111.298 45.3079 111.609 45.5089 111.952 45.5089H117.425V56.4324C115.101 56.8412 112.858 57.6167 110.779 58.7291V54.7091H114.211C114.554 54.7091 114.865 54.508 115.004 54.1958C115.143 53.8836 115.083 53.5192 114.853 53.2665L108.912 46.7634C108.747 46.5837 108.514 46.4809 108.27 46.4809C108.026 46.4809 107.793 46.5837 107.629 46.7634L101.687 53.2665C101.457 53.5192 101.397 53.8836 101.536 54.1958C101.675 54.5075 101.986 54.7091 102.328 54.7091H105.434V62.7104C101.294 66.8651 98.9726 72.481 98.976 78.3322C98.976 90.5955 109.001 100.572 121.325 100.572C133.649 100.572 143.675 90.5955 143.675 78.3322C143.678 72.3406 141.244 66.6023 136.927 62.4251ZM132.449 52.984H130.399L134.381 48.626L138.362 52.984H136.06C135.582 52.984 135.193 53.3704 135.193 53.8466V60.905C134.591 60.4288 133.964 59.9841 133.315 59.5719V53.8466C133.315 53.3704 132.928 52.984 132.449 52.984ZM118.291 43.7839H113.911L121.325 35.6686L128.739 43.7839H124.07C123.591 43.7839 123.203 44.1702 123.203 44.6464V56.1719C122.584 56.1202 121.958 56.0927 121.325 56.0927C120.594 56.0927 119.872 56.1286 119.158 56.1971V44.6464C119.158 44.1702 118.77 43.7839 118.291 43.7839ZM104.288 52.984L108.27 48.626L112.252 52.984H109.913C109.434 52.984 109.046 53.3704 109.046 53.8466V59.7595C108.396 60.1863 107.77 60.6456 107.168 61.1364V53.8466C107.168 53.3704 106.78 52.984 106.301 52.984H104.288ZM121.325 98.8473C109.958 98.8473 100.709 89.6443 100.709 78.3322C100.709 67.0207 109.958 57.8177 121.325 57.8177C132.693 57.8177 141.941 67.0207 141.941 78.3322C141.941 89.6443 132.693 98.8473 121.325 98.8473Z" fill="url(#paint1_linear_1_35)"/>
<path d="M128.627 68.5093C128.627 68.0331 128.239 67.6468 127.76 67.6468H114.89C114.411 67.6468 114.023 68.0331 114.023 68.5093C114.023 68.986 114.411 69.3718 114.89 69.3718H118.573C120.804 69.3561 122.728 70.929 123.145 73.1094H114.89C114.411 73.1094 114.023 73.4957 114.023 73.9719C114.023 74.4486 114.411 74.8344 114.89 74.8344H123.145C122.738 76.9907 120.843 78.7157 118.572 78.7157H114.89C114.539 78.7034 114.218 78.91 114.085 79.2335C113.952 79.5569 114.036 79.9281 114.294 80.1639L123.5 88.8127C123.85 89.1372 124.397 89.1198 124.725 88.7734C124.883 88.6122 124.968 88.3943 124.961 88.1697C124.955 87.9445 124.857 87.7323 124.691 87.5801L117.069 80.4408H118.573C121.801 80.4408 124.477 77.997 124.902 74.8344H127.76C128.239 74.8344 128.627 74.4486 128.627 73.9719C128.627 73.4957 128.239 73.1094 127.76 73.1094H124.902C124.685 71.6808 123.996 70.3652 122.942 69.3718H127.76C128.239 69.3718 128.627 68.986 128.627 68.5093Z" fill="url(#paint2_linear_1_35)"/>
<defs>
<linearGradient id="paint0_linear_1_35" x1="121.325" y1="33.5241" x2="137.021" y2="98.4397" gradientUnits="userSpaceOnUse">
<stop stop-color="#EE4523"/>
<stop offset="1" stop-color="#EE4523" stop-opacity="0.42"/>
</linearGradient>
<linearGradient id="paint1_linear_1_35" x1="121.325" y1="33.5241" x2="137.021" y2="98.4397" gradientUnits="userSpaceOnUse">
<stop stop-color="#EE4523"/>
<stop offset="1" stop-color="#EE4523" stop-opacity="0.42"/>
</linearGradient>
<linearGradient id="paint2_linear_1_35" x1="121.325" y1="33.5241" x2="137.021" y2="98.4397" gradientUnits="userSpaceOnUse">
<stop stop-color="#EE4523"/>
<stop offset="1" stop-color="#EE4523" stop-opacity="0.42"/>
</linearGradient>
</defs>
</svg>
