<?xml version="1.0" encoding="UTF-8"?>
<svg id="Layer_1" data-name="Layer 1" xmlns="http://www.w3.org/2000/svg" xmlns:xlink="http://www.w3.org/1999/xlink" viewBox="0 0 500 500">
  <defs>
    <style>
      .cls-1 {
        fill: #ee4027;
      }

      .cls-2 {
        fill: url(#linear-gradient);
      }
    </style>
    <linearGradient id="linear-gradient" x1="151.29" y1="152.28" x2="279.01" y2="479.23" gradientUnits="userSpaceOnUse">
      <stop offset="0" stop-color="#df3314"/>
      <stop offset=".11" stop-color="#df3719"/>
      <stop offset=".24" stop-color="#e14328"/>
      <stop offset=".38" stop-color="#e35841"/>
      <stop offset=".53" stop-color="#e77563"/>
      <stop offset=".69" stop-color="#eb9b90"/>
      <stop offset=".85" stop-color="#f1c8c6"/>
      <stop offset="1" stop-color="#f7f6fd"/>
    </linearGradient>
  </defs>
  <g>
    <g>
      <path d="M416.04,213.68c1.19-60.37-52.14-113.57-112.43-112.38-99.43-.21-150.02,121.94-79.47,191.87,69.99,70.63,192.12,19.96,191.9-79.49ZM264.12,204.68c-9.22-.13-9.26-13.92,0-14.06,0,0,44.41,0,44.41,0-2.95-9-11.38-15.6-21.36-15.6h-23.05c-3.94,0-7.03-3.16-7.03-7.03s3.09-7.03,7.03-7.03h78.98c9.23.15,9.26,13.9,0,14.06h-27.33c3.58,4.5,6.18,9.77,7.31,15.6h20.03c9.22.14,9.26,13.91,0,14.06h-20.03c-3.39,18.61-21.15,31.34-40.26,29.66,0,0,38.58,33.81,38.58,33.81,6.94,5.96-2.3,16.65-9.21,10.54,0,0-52.7-46.1-52.7-46.1-4.96-3.95-1.64-12.51,4.64-12.3,0,0,23.05,0,23.05,0,9.98,0,18.41-6.61,21.36-15.6h-44.41Z"/>
      <path d="M87.53,305.04H29.56c-3.86,0-7.03,3.16-7.03,7.03v147.03c0,3.87,3.16,7.03,7.03,7.03h57.97c3.94,0,7.03-3.16,7.03-7.03v-147.03c0-3.87-3.09-7.03-7.03-7.03ZM58.58,357.33c-9.28-.14-9.21-13.92,0-14.06,9.21.21,9.21,13.92,0,14.06Z"/>
      <path d="M380.67,368.8l-59.72,17.36c-2.07,20.66-20.84,37.5-41.6,37.18,0,0-69.21,0-69.21,0-9.21-.18-9.25-13.87,0-14.06h69.21c38.62-2.38,36.02-55.59-3.23-55.73,0,0-51.08,0-51.08,0-4.22,0-8.36-1.19-11.87-3.44-17.18-10.76-38.7-27.56-60.22-26.14,0,0-44.34,0-44.34,0v123.41c1.97.21,3.86.84,5.62,1.9l54.24,31.62c15.88,9.28,33.66,13.92,51.43,13.92,14.9,0,29.79-3.23,43.7-9.84l136.59-64.66c30.29-14.93,12.99-60.38-19.53-51.51h0Z"/>
    </g>
    <g>
      <path class="cls-2" d="M416.04,213.68c1.19-60.37-52.14-113.57-112.43-112.38-99.43-.21-150.02,121.94-79.47,191.87,69.99,70.63,192.12,19.96,191.9-79.49ZM264.12,204.68c-9.22-.13-9.26-13.92,0-14.06,0,0,44.41,0,44.41,0-2.95-9-11.38-15.6-21.36-15.6h-23.05c-3.94,0-7.03-3.16-7.03-7.03s3.09-7.03,7.03-7.03h78.98c9.23.15,9.26,13.9,0,14.06h-27.33c3.58,4.5,6.18,9.77,7.31,15.6h20.03c9.22.14,9.26,13.91,0,14.06h-20.03c-3.39,18.61-21.15,31.34-40.26,29.66,0,0,38.58,33.81,38.58,33.81,6.94,5.96-2.3,16.65-9.21,10.54,0,0-52.7-46.1-52.7-46.1-4.96-3.95-1.64-12.51,4.64-12.3,0,0,23.05,0,23.05,0,9.98,0,18.41-6.61,21.36-15.6h-44.41Z"/>
      <path class="cls-2" d="M87.53,305.04H29.56c-3.86,0-7.03,3.16-7.03,7.03v147.03c0,3.87,3.16,7.03,7.03,7.03h57.97c3.94,0,7.03-3.16,7.03-7.03v-147.03c0-3.87-3.09-7.03-7.03-7.03ZM58.58,357.33c-9.28-.14-9.21-13.92,0-14.06,9.21.21,9.21,13.92,0,14.06Z"/>
      <path class="cls-2" d="M380.67,368.8l-59.72,17.36c-2.07,20.66-20.84,37.5-41.6,37.18,0,0-69.21,0-69.21,0-9.21-.18-9.25-13.87,0-14.06h69.21c38.62-2.38,36.02-55.59-3.23-55.73,0,0-51.08,0-51.08,0-4.22,0-8.36-1.19-11.87-3.44-17.18-10.76-38.7-27.56-60.22-26.14,0,0-44.34,0-44.34,0v123.41c1.97.21,3.86.84,5.62,1.9l54.24,31.62c15.88,9.28,33.66,13.92,51.43,13.92,14.9,0,29.79-3.23,43.7-9.84l136.59-64.66c30.29-14.93,12.99-60.38-19.53-51.51h0Z"/>
    </g>
  </g>
  <polygon class="cls-1" points="495.76 4.24 495.76 4.24 459.22 4.24 361.33 4.24 361.33 40.95 459.22 40.95 459.22 129.67 495.76 129.67 495.76 40.95 495.76 40.95 495.76 4.24"/>
</svg>