<svg width="55" height="54" viewBox="0 0 55 54" fill="none" xmlns="http://www.w3.org/2000/svg">
<path fill-rule="evenodd" clip-rule="evenodd" d="M51.0951 17.3311C44.0831 16.0912 38.5873 10.7125 37.3204 3.85007C24.8482 7.60931 15.2846 17.5833 12.2152 29.9452L12.0246 30.7572L23.6019 42.0876C36.5965 39.3049 47.1646 29.8223 51.0956 17.3312L51.0951 17.3311ZM12.5108 24.2305H2.31472C0.895283 24.2305 0.117227 23.2847 0.574681 22.0228C0.760797 21.5093 1.16216 20.9256 1.77431 20.3265L8.12264 14.1135C9.51963 12.7463 12.1477 11.265 14.0381 11.265H21.5346C25.7322 7.32363 30.6182 4.49024 35.8047 2.76326C41.4375 0.889148 47.4267 0.322908 53.2773 1.0669C53.6339 1.11079 53.9007 1.3895 53.9366 1.72528C54.6945 7.44666 54.116 13.3034 52.201 18.8119C50.3982 24.0042 47.4113 28.885 43.2408 33.0547V39.8446C43.2408 41.6925 41.7272 44.2666 40.3302 45.634L33.9819 51.847C33.1836 52.6282 32.114 53.3458 31.1453 53.1001C30.3313 52.8916 29.9928 52.1454 29.9928 51.3203V41.7213C28.6922 42.2305 27.3692 42.6672 26.0306 43.0314C26.6719 43.703 26.6585 44.7585 25.9902 45.4103L21.9158 49.3978C21.2342 50.065 20.1242 50.065 19.4447 49.3978L16.9266 46.9334C14.0003 52.1235 7.50657 54.2919 1.93894 51.8557C1.7618 51.7789 1.62725 51.6407 1.5555 51.4805C-0.924534 46.0556 1.27521 39.6759 6.58508 36.8079L4.46382 34.7319C3.78439 34.0669 3.78439 32.9762 4.46382 32.3135L8.5382 28.326C9.21988 27.6588 10.3298 27.6588 11.0093 28.326L11.0631 28.3786C11.46 26.9763 11.9444 25.5894 12.5116 24.231L12.5108 24.2305ZM20.0319 12.7574C17.1819 15.742 14.879 19.1125 13.175 22.7384H2.31529C2.15384 22.7384 2.03724 22.723 1.96549 22.6923C1.98791 22.3675 2.42068 21.8057 2.85347 21.3822L9.2018 15.1692C10.3185 14.0764 12.5609 12.7574 14.0386 12.7574L20.0319 12.7574ZM31.5197 41.0846C35.2195 39.4519 38.6636 37.2397 41.7181 34.4986V39.8423C41.7181 41.2885 40.3704 43.483 39.2537 44.5759L32.9054 50.7889C32.4726 51.2124 31.8986 51.6359 31.5667 51.6579C31.5376 51.5877 31.5197 51.4758 31.5197 51.3156L31.5197 41.0846ZM10.6257 30.0615C10.5696 30.3029 10.5158 30.5443 10.4642 30.7857C10.388 31.0403 10.4508 31.3256 10.6571 31.5274L22.8199 43.4264C22.9948 43.5976 23.2504 43.681 23.5083 43.6283C23.7774 43.5734 24.0464 43.5164 24.3133 43.4549L24.9142 44.0431C24.9994 44.1265 24.9994 44.2691 24.9142 44.3525L20.8398 48.34C20.7546 48.4234 20.6089 48.4234 20.5237 48.34L5.54003 33.6759C5.48846 33.553 5.42119 33.4827 5.54003 33.3664L9.61441 29.3789C9.69962 29.2955 9.84537 29.2955 9.93058 29.3789L10.6257 30.0615ZM51.5147 15.8934C45.0165 14.8071 39.8995 9.80123 38.7893 3.43939C43.2696 2.28506 47.9246 1.96247 52.5038 2.47157C53.0218 6.95284 52.6942 11.5085 51.5147 15.8934ZM38.6102 16.0668C42.3123 19.6899 42.3123 25.5623 38.6102 29.186C34.9081 32.8096 28.9078 32.8091 25.2052 29.186C21.5031 25.5628 21.5031 19.6904 25.2052 16.0668C28.9096 12.4458 34.91 12.4458 38.6102 16.0668ZM39.8615 22.6264C39.8615 26.9254 36.3006 30.4101 31.9081 30.4101C27.5156 30.4101 23.9548 26.9252 23.9548 22.6264C23.9548 18.3273 27.5156 14.8426 31.9081 14.8426C36.3031 14.8426 39.8615 18.3275 39.8615 22.6264ZM30.1366 20.9848C30.1366 18.9154 32.7019 17.8949 34.1818 19.3433L34.2558 19.4157L35.1394 18.5511C35.4376 18.2592 35.9197 18.2592 36.2179 18.5511C36.5162 18.8429 36.5162 19.3148 36.2179 19.6066L35.3344 20.4713L36.0789 21.1999C36.3771 21.4918 36.3771 21.9636 36.0789 22.2555C35.7807 22.5473 35.2985 22.5473 35.0003 22.2555L33.1055 20.4011C32.5853 19.8919 31.6637 20.2387 31.6637 20.987C31.6637 21.1999 31.7444 21.4128 31.9104 21.573L32.9912 22.6308C34.4711 24.0791 33.4329 26.5897 31.3139 26.5897C30.7376 26.5897 30.1613 26.3856 29.7083 25.9797L28.8248 26.8443C28.5266 27.1362 28.0445 27.1362 27.7463 26.8443C27.448 26.5524 27.448 26.0806 27.7463 25.7888L28.6298 24.9241L27.4705 23.7895C27.1723 23.4977 27.1723 23.0258 27.4705 22.734C27.7687 22.4421 28.2508 22.4421 28.5491 22.734L30.7174 24.856C31.2376 25.3652 32.1592 25.0184 32.1592 24.2701C32.1592 23.8948 31.9619 23.7324 31.7309 23.5042C30.9528 22.747 30.1366 22.1699 30.1366 20.9848ZM15.7988 45.8271C14.7875 47.8439 13.0631 49.4854 10.9867 50.4335L9.54937 49.6149L10.9755 48.1622C11.4397 47.7145 11.1908 46.953 10.5405 46.8783L7.5851 46.5404L7.17251 43.9333C7.09403 43.389 6.49531 43.1213 6.03338 43.3868L4.08704 44.506L2.80664 43.0708C3.73498 40.8411 5.49746 38.978 7.71291 37.9136L15.7988 45.8271ZM2.27953 44.743C1.85797 46.6918 2.0396 48.7437 2.82666 50.6071C4.8179 51.4125 7.02211 51.5705 9.09635 51.0811L7.94603 50.4271C7.51998 50.1857 7.43477 49.6152 7.78009 49.2662L8.84075 48.1865L6.83384 47.9561C6.49301 47.9188 6.22169 47.662 6.17014 47.3306L5.83603 45.2239L4.33141 46.0885C4.01972 46.2817 3.6049 46.229 3.35376 45.9481L2.27953 44.743Z" fill="url(#paint0_linear_402_11783)"/>
<defs>
<linearGradient id="paint0_linear_402_11783" x1="27.3513" y1="0.75" x2="35.5766" y2="53.1575" gradientUnits="userSpaceOnUse">
<stop stop-color="#EDA497"/>
<stop offset="1" stop-color="#B7D3E8"/>
</linearGradient>
</defs>
</svg>
