<svg width="54" height="52" viewBox="0 0 54 52" fill="none" xmlns="http://www.w3.org/2000/svg">
<path d="M3.73799 1.95C3.73799 1.43283 3.5411 0.936837 3.19064 0.571141C2.84019 0.205446 2.36486 0 1.86924 0C1.37362 0 0.898291 0.205446 0.547833 0.571141C0.197374 0.936837 0.000488289 1.43283 0.000488281 1.95V50.05C0.000488281 51.1264 0.837688 52 1.86924 52H47.3422C47.8378 52 48.3131 51.7946 48.6636 51.4289C49.014 51.0632 49.2109 50.5672 49.2109 50.05C49.2109 49.5328 49.014 49.0368 48.6636 48.6711C48.3131 48.3054 47.8378 48.1 47.3422 48.1H3.73799V1.95Z" fill="url(#paint0_linear_402_11958)"/>
<path d="M53.023 15.0283C53.3531 14.6586 53.5328 14.1697 53.5243 13.6645C53.5157 13.1593 53.3196 12.6773 52.9772 12.32C52.6348 11.9628 52.1729 11.7581 51.6888 11.7492C51.2046 11.7403 50.7361 11.9278 50.3818 12.2723L36.1295 27.1443L26.8605 17.4723C26.5101 17.1071 26.0351 16.902 25.5399 16.902C25.0447 16.902 24.5697 17.1071 24.2193 17.4723L9.26934 33.0723C9.08574 33.2508 8.93848 33.4661 8.83634 33.7053C8.7342 33.9445 8.67928 34.2027 8.67485 34.4645C8.67042 34.7263 8.71658 34.9864 8.81057 35.2292C8.90456 35.472 9.04445 35.6926 9.2219 35.8778C9.39936 36.0629 9.61074 36.2089 9.84343 36.307C10.0761 36.4051 10.3254 36.4532 10.5763 36.4486C10.8272 36.444 11.0747 36.3867 11.3039 36.2801C11.5331 36.1735 11.7394 36.0198 11.9105 35.8283L25.5399 21.6063L34.8089 31.2783C35.1593 31.6434 35.6343 31.8485 36.1295 31.8485C36.6247 31.8485 37.0997 31.6434 37.4501 31.2783L53.023 15.0283Z" fill="url(#paint1_linear_402_11958)"/>
<defs>
<linearGradient id="paint0_linear_402_11958" x1="24.6057" y1="-2.49803e-07" x2="33.4265" y2="51.7869" gradientUnits="userSpaceOnUse">
<stop stop-color="#EDA497"/>
<stop offset="1" stop-color="#B7D3E8"/>
</linearGradient>
<linearGradient id="paint1_linear_402_11958" x1="31.0996" y1="11.7489" x2="33.329" y2="36.8634" gradientUnits="userSpaceOnUse">
<stop stop-color="#EDA497"/>
<stop offset="1" stop-color="#B7D3E8"/>
</linearGradient>
</defs>
</svg>
