<svg width="58" height="52" viewBox="0 0 58 52" fill="none" xmlns="http://www.w3.org/2000/svg">
<path d="M44.7674 38.74L49.1815 41.664C49.6094 41.9478 50.1305 42.0578 50.6375 41.9715C51.1445 41.8852 51.599 41.6091 51.9076 41.2L57.9433 33.2L54.7243 30.8L49.8293 37.288L45.379 34.336C44.9445 34.0474 44.4141 33.9383 43.9 34.0316C43.386 34.1249 42.9286 34.4134 42.6247 34.836L36.2148 43.758V28H32.191V48C32.191 49.0609 32.6149 50.0783 33.3695 50.8284C34.1241 51.5786 35.1476 52 36.2148 52H56.3338V48H38.112L44.7674 38.74ZM0.000488281 38H28.1672V42H0.000488281V38ZM0.000488281 48H28.1672V52H0.000488281V48ZM18.1076 28V18H20.1195C22.2531 17.9974 24.2985 17.1536 25.8071 15.6539C27.3158 14.1542 28.1645 12.1209 28.1672 10V4H22.1314C20.0713 4.00377 18.0919 4.79673 16.6047 6.214C15.5634 4.33312 14.0335 2.7644 12.1746 1.67142C10.3157 0.578449 8.19591 0.00124436 6.0362 0H0.000488281V6C0.00421556 9.18146 1.27722 12.2316 3.54024 14.4812C5.80327 16.7308 8.87152 17.9963 12.0719 18H14.0838V28H0.000488281V32H28.1672V28H18.1076ZM22.1314 8H24.1433V10C24.1433 11.0609 23.7194 12.0783 22.9648 12.8284C22.2102 13.5786 21.1867 14 20.1195 14H18.1076V12C18.1076 10.9391 18.5316 9.92172 19.2862 9.17157C20.0408 8.42143 21.0643 8 22.1314 8ZM12.0719 14C9.93837 13.9974 7.89298 13.1536 6.38433 11.6539C4.87569 10.1542 4.02696 8.12092 4.0243 6V4H6.0362C8.16975 4.00265 10.2151 4.84635 11.7238 6.34607C13.2324 7.84579 14.0812 9.87908 14.0838 12V14H12.0719Z" fill="url(#paint0_linear_402_11972)"/>
<defs>
<linearGradient id="paint0_linear_402_11972" x1="28.9719" y1="-2.49803e-07" x2="36.5227" y2="52.1971" gradientUnits="userSpaceOnUse">
<stop stop-color="#EDA497"/>
<stop offset="1" stop-color="#B7D3E8"/>
</linearGradient>
</defs>
</svg>
