<svg width="43" height="54" viewBox="0 0 43 54" fill="none" xmlns="http://www.w3.org/2000/svg">
<path fill-rule="evenodd" clip-rule="evenodd" d="M27.4171 35.9592C31.4684 35.9508 35.307 34.1434 37.9141 31.0233C40.5191 27.9033 41.6257 23.7854 40.938 19.7676C40.2482 15.7522 37.835 12.2441 34.3403 10.1834C34.6383 9.47887 34.6195 8.67788 34.2861 7.98807C33.9547 7.30034 33.3421 6.78868 32.6064 6.58739L33.5067 1.77945C33.5775 1.46703 33.465 1.14202 33.2191 0.940732C32.9753 0.737341 32.6356 0.693309 32.3459 0.823311L28.4552 2.5511L28.5719 1.73546C28.6052 1.49433 28.5344 1.24901 28.3781 1.06449C28.2176 0.879969 27.9884 0.773031 27.7445 0.76674H22.1492C21.8992 0.76674 21.6616 0.87787 21.499 1.06868C21.3406 1.26578 21.276 1.51949 21.3198 1.76902L22.2325 6.56649C21.4886 6.76359 20.8696 7.2752 20.5341 7.97135C20.1986 8.6675 20.1819 9.47476 20.4862 10.1835C16.9914 12.2446 14.5783 15.7526 13.8906 19.7698C13.2029 23.7871 14.3095 27.9053 16.9165 31.0256C19.5235 34.1477 23.3643 35.951 27.4178 35.9593L27.4171 35.9592ZM26.7711 2.4566L26.5814 3.8153H26.5835C26.5377 4.11934 26.6627 4.42546 26.9065 4.61209C27.1504 4.79661 27.4755 4.83435 27.7547 4.70855L31.5621 3.03111L30.9182 6.46983H23.8995L23.1597 2.44398L26.7711 2.4566ZM22.9262 8.14754H31.9017C32.4081 8.18738 32.7999 8.61303 32.7999 9.12464C32.7999 9.63625 32.4081 10.0619 31.9017 10.0997H22.9262C22.4198 10.0619 22.028 9.63626 22.028 9.12464C22.028 8.61303 22.4198 8.18737 22.9262 8.14754ZM21.6758 11.4479C22.0634 11.668 22.5031 11.7855 22.9491 11.7876H31.9017C32.3476 11.7855 32.7852 11.668 33.1729 11.4479C36.3467 13.1778 38.583 16.2454 39.2729 19.8098C39.9627 23.3743 39.0332 27.0607 36.7367 29.8637C34.4422 32.6651 31.0224 34.288 27.4128 34.288C23.8054 34.288 20.3856 32.6651 18.0889 29.8637C15.7944 27.0603 14.865 23.3741 15.5548 19.8098C16.2446 16.2453 18.4807 13.1779 21.6526 11.4479H21.6758ZM25.1664 25.1293V25.2803C25.1664 26.205 25.7187 27.0395 26.5689 27.3939C27.4192 27.7461 28.3966 27.5511 29.0468 26.8969C29.6949 26.2427 29.8908 25.2593 29.5386 24.406C29.1864 23.5504 28.357 22.9927 27.4379 22.9927C25.4228 22.9864 23.7368 21.4558 23.5201 19.4407C23.3033 17.4236 24.6266 15.5658 26.5939 15.1255V14.0478C26.6606 13.6368 27.0128 13.3349 27.4275 13.3349C27.8422 13.3349 28.1944 13.6368 28.2611 14.0478V15.0982C30.0866 15.5008 31.3829 17.1322 31.3724 19.013V19.2583C31.3036 19.6881 30.9223 19.9943 30.4909 19.967C30.0595 19.9398 29.7199 19.5875 29.7052 19.1514V19.0109V19.013C29.7052 18.0883 29.153 17.2538 28.3027 16.8994C27.4525 16.5451 26.4751 16.7422 25.8249 17.3943C25.1768 18.0485 24.9809 19.0319 25.3331 19.8873C25.6853 20.7429 26.5147 21.2985 27.4337 21.2985C29.401 21.3719 31.0182 22.8878 31.2245 24.8588C31.4308 26.8298 30.1658 28.654 28.2548 29.1384V30.1889C28.1882 30.5999 27.836 30.9018 27.4213 30.9018C27.0086 30.9018 26.6544 30.5999 26.5877 30.1889V29.1384C24.7788 28.7442 23.4805 27.1444 23.4596 25.2803V25.0685C23.4471 24.8295 23.5367 24.5968 23.7055 24.429C23.8743 24.2592 24.1057 24.1711 24.3432 24.1837C24.5787 24.1963 24.7996 24.3095 24.9497 24.494C25.0997 24.6806 25.1643 24.9218 25.1268 25.1566L25.1664 25.1293ZM42.505 36.6197C41.5318 35.0093 39.4729 34.4474 37.8245 35.3448L26.8211 40.9644C26.8232 39.5113 25.85 38.2406 24.4537 37.8716L16.4743 35.7203C16.1596 35.6217 15.8553 35.4959 15.5636 35.345C14.5821 34.7809 13.44 34.5691 12.323 34.7411C10.956 34.9591 9.32213 35.7203 7.23819 37.1168C6.71303 36.1606 5.6106 35.6825 4.56031 35.9594L2.16999 36.6031C0.911258 36.9511 0.165219 38.2574 0.502815 39.5281L3.6475 51.392C4.00177 52.6564 5.29803 53.4028 6.56086 53.0694L8.94494 52.4257V52.4278C10.1328 52.1049 10.8768 50.9181 10.6559 49.6978C12.4627 49.0268 15.2573 49.7649 17.7577 50.4254C19.3686 50.9308 21.0316 51.2432 22.7155 51.3543C23.4928 51.3858 24.266 51.1908 24.937 50.7945L41.2209 41.3503C42.8651 40.3942 43.4299 38.2764 42.4817 36.62L42.505 36.6197ZM8.51127 50.8046L6.1147 51.4483C5.93756 51.4965 5.74792 51.4714 5.58746 51.377C5.42907 51.2827 5.31238 51.1296 5.26444 50.9514L2.11352 39.0918C2.01765 38.7185 2.23647 38.339 2.60325 38.2362L5.00397 37.582C5.37284 37.4814 5.75418 37.7015 5.85426 38.0727L9.01148 49.9382C9.0615 50.1206 9.03649 50.3156 8.94271 50.4771C8.84893 50.6406 8.69257 50.7585 8.51127 50.8046ZM40.3812 39.8844L24.0701 49.3617H24.0368C22.976 50.0495 20.5419 49.4058 18.1849 48.8019C15.407 48.0638 12.4935 47.3027 10.2385 48.0638L7.78145 38.8001C12.3266 35.6528 13.6104 36.2608 14.8439 36.8605H14.8459C15.2294 37.0639 15.6337 37.2274 16.0505 37.3512L24.0363 39.5046C24.426 39.6094 24.7595 39.8673 24.9596 40.2196C25.2617 40.7563 25.2138 41.421 24.8408 41.9096C24.4677 42.3981 23.8405 42.6141 23.2486 42.4568L16.5799 40.6619C16.1298 40.534 15.6609 40.7961 15.5338 41.249C15.4067 41.702 15.6693 42.1717 16.1173 42.2995L22.786 44.0944C23.0569 44.1678 23.3341 44.2055 23.6154 44.2076C24.1781 44.2076 24.7303 44.0567 25.2159 43.7715C25.4014 43.6667 25.5744 43.5429 25.7327 43.4025H25.7994L38.5804 36.8709C39.4285 36.3803 40.5101 36.6591 41.0207 37.4979C41.4854 38.3366 41.2023 39.3958 40.3812 39.8844ZM5.43727 39.7795C5.55814 40.2156 5.40392 40.6832 5.04757 40.9621C4.69121 41.241 4.20358 41.2745 3.81178 41.0481C3.41998 40.8216 3.20536 40.3792 3.2658 39.9284C3.32624 39.4797 3.64925 39.1107 4.0869 38.9953C4.6746 38.8422 5.27477 39.1903 5.43727 39.7795Z" fill="url(#paint0_linear_402_11785)"/>
<defs>
<linearGradient id="paint0_linear_402_11785" x1="21.6817" y1="0.749695" x2="31.9436" y2="52.4097" gradientUnits="userSpaceOnUse">
<stop stop-color="#EDA497"/>
<stop offset="1" stop-color="#B7D3E8"/>
</linearGradient>
</defs>
</svg>
