<svg width="32" height="56" viewBox="0 0 32 56" fill="none" xmlns="http://www.w3.org/2000/svg">
<path d="M0.912531 30.6163V30.7933L1.01864 30.9348L18.5794 54.3647L18.7388 54.5773H19.0044H29.7675H30.8321L30.1917 53.7268L13.1564 31.1023C14.7334 30.9641 16.3029 30.5095 17.8622 29.7459C19.7757 28.8089 21.3791 27.4547 22.6691 25.6913C23.9326 23.9863 24.7025 22.0335 24.9827 19.8442H29.2819H29.813V19.3131V12.9503V12.4193H29.2819H24.9484C24.6591 10.9918 24.1689 9.69737 23.4744 8.54092H29.2819H29.813V8.00985V1.64709V1.11602H29.2819H1.4436H0.912531V1.64709V8.00985V8.54092H1.4436H8.88873C11.1733 8.54092 12.7396 8.91363 13.6843 9.56904L13.6842 9.56915L13.6943 9.57578C14.5292 10.1274 15.0357 11.0385 15.1367 12.4193H1.4436H0.912531V12.9503V19.3131V19.8442H1.4436H15.1367C15.0357 21.225 14.5292 22.136 13.6943 22.6877L13.6942 22.6875L13.6843 22.6944C12.7396 23.3498 11.1733 23.7225 8.88873 23.7225H1.4436H0.912531V24.2536V30.6163Z" stroke="url(#paint0_linear_402_11788)" stroke-width="1.06214"/>
<defs>
<linearGradient id="paint0_linear_402_11788" x1="15.6055" y1="1.64709" x2="30.311" y2="50.9603" gradientUnits="userSpaceOnUse">
<stop stop-color="#EDA497"/>
<stop offset="1" stop-color="#B7D3E8"/>
</linearGradient>
</defs>
</svg>
