<svg width="53" height="53" viewBox="0 0 53 53" fill="none" xmlns="http://www.w3.org/2000/svg">
<path d="M22.55 23.3095H22.9594V22.9001V4.18616C22.9594 3.30127 23.3088 2.45312 23.9299 1.82818C24.551 1.20331 25.3927 0.852728 26.2699 0.852728H48.5893C49.4665 0.852728 50.3082 1.20331 50.9293 1.82818C51.5504 2.45312 51.8998 3.30127 51.8998 4.18616V52.4331H0.640081V26.6429C0.640081 25.758 0.989474 24.9099 1.6106 24.285C2.23164 23.6601 3.07341 23.3095 3.9506 23.3095H22.55ZM12.841 49.0997V49.5091H13.2503H20.6901H21.0995V49.0997V35.9999V35.5906H20.6901H13.2503H12.841V35.9999V49.0997ZM48.5893 49.5091H48.9986V49.0997V4.18616V3.77679H48.5893H26.2699H25.8606V4.18616V26.2336H3.9506H3.54123V26.6429V49.0997V49.5091H3.9506H9.53043H9.9398V49.0997V34.1285C9.9398 33.74 10.0932 33.3678 10.3656 33.0938C10.6378 32.8199 11.0065 32.6665 11.3904 32.6665H22.55C22.9339 32.6665 23.3026 32.8199 23.5749 33.0938C23.8472 33.3678 24.0006 33.74 24.0006 34.1285V49.0997V49.5091H24.41H48.5893Z" fill="url(#paint0_linear_402_11794)" stroke="#F4FAFE" stroke-width="0.818737"/>
<path d="M29.9895 11.673H33.7094V15.4158H29.9895V11.673ZM41.1492 11.673H44.8691V15.4158H41.1492V11.673ZM29.9895 22.9014H33.7094V26.6442H29.9895V22.9014ZM41.1492 22.9014H44.8691V26.6442H41.1492V22.9014ZM29.9895 34.1298H33.7094V37.8726H29.9895V34.1298ZM41.1492 34.1298H44.8691V37.8726H41.1492V34.1298Z" fill="url(#paint1_linear_402_11794)"/>
<defs>
<linearGradient id="paint0_linear_402_11794" x1="26.2699" y1="0.443359" x2="34.7558" y2="52.7655" gradientUnits="userSpaceOnUse">
<stop stop-color="#EDA497"/>
<stop offset="1" stop-color="#B7D3E8"/>
</linearGradient>
<linearGradient id="paint1_linear_402_11794" x1="37.4293" y1="11.673" x2="44.4816" y2="36.5206" gradientUnits="userSpaceOnUse">
<stop stop-color="#EDA497"/>
<stop offset="1" stop-color="#B7D3E8"/>
</linearGradient>
</defs>
</svg>
