<svg width="43" height="53" viewBox="0 0 43 53" fill="none" xmlns="http://www.w3.org/2000/svg">
<path fill-rule="evenodd" clip-rule="evenodd" d="M27.319 35.4499C31.3702 35.4415 35.2088 33.634 37.816 30.514C40.4209 27.394 41.5275 23.2761 40.8398 19.2583C40.15 15.2429 37.7368 11.7348 34.2421 9.67405C34.5401 8.96953 34.5214 8.16854 34.1879 7.47873C33.8566 6.791 33.2439 6.27935 32.5083 6.07805L33.4086 1.27011C33.4794 0.957691 33.3669 0.632686 33.121 0.431394C32.8771 0.228002 32.5374 0.18397 32.2478 0.313973L28.357 2.04176L28.4737 1.22612C28.5071 0.984991 28.4362 0.739667 28.2799 0.555148C28.1194 0.37063 27.8902 0.263693 27.6464 0.257402H22.0511C21.801 0.257402 21.5634 0.368531 21.4009 0.559341C21.2425 0.756441 21.1779 1.01015 21.2216 1.25968L22.1344 6.05715C21.3904 6.25425 20.7715 6.76586 20.436 7.46201C20.1005 8.15816 20.0838 8.96543 20.388 9.67414C16.8932 11.7353 14.4801 15.2432 13.7924 19.2605C13.1048 23.2778 14.2113 27.3959 16.8184 30.5162C19.4254 33.6384 23.2662 35.4416 27.3197 35.45L27.319 35.4499ZM26.6729 1.94726L26.4833 3.30596H26.4854C26.4395 3.61 26.5646 3.91612 26.8084 4.10276C27.0522 4.28727 27.3773 4.32502 27.6566 4.19921L31.4639 2.52177L30.82 5.96049H23.8014L23.0616 1.93464L26.6729 1.94726ZM22.828 7.63821H31.8036C32.31 7.67804 32.7018 8.1037 32.7018 8.61531C32.7018 9.12692 32.31 9.55258 31.8036 9.59031H22.828C22.3216 9.55257 21.9299 9.12692 21.9299 8.61531C21.9299 8.10369 22.3216 7.67803 22.828 7.63821ZM21.5776 10.9385C21.9653 11.1587 22.405 11.2761 22.8509 11.2782H31.8035C32.2495 11.2761 32.6871 11.1587 33.0747 10.9385C36.2486 12.6684 38.4849 15.736 39.1747 19.3005C39.8645 22.865 38.935 26.5513 36.6385 29.3544C34.3441 32.1557 30.9243 33.7787 27.3146 33.7787C23.7073 33.7787 20.2874 32.1557 17.9907 29.3544C15.6963 26.551 14.7668 22.8647 15.4566 19.3005C16.1465 15.736 18.3825 12.6686 21.5545 10.9385H21.5776ZM25.0683 24.62V24.771C25.0683 25.6957 25.6206 26.5302 26.4708 26.8845C27.3211 27.2368 28.2985 27.0418 28.9486 26.3876C29.5967 25.7334 29.7926 24.75 29.4404 23.8966C29.0882 23.0411 28.2589 22.4834 27.3398 22.4834C25.3246 22.4771 23.6387 20.9464 23.4219 18.9314C23.2052 16.9143 24.5285 15.0565 26.4958 14.6162V13.5384C26.5624 13.1275 26.9146 12.8255 27.3293 12.8255C27.7441 12.8255 28.0962 13.1275 28.1629 13.5384V14.5889C29.9885 14.9915 31.2847 16.6228 31.2743 18.5036V18.749C31.2055 19.1788 30.8241 19.4849 30.3928 19.4577C29.9614 19.4304 29.6217 19.0782 29.6071 18.642V18.5016V18.5036C29.6071 17.5789 29.0548 16.7445 28.2046 16.3901C27.3543 16.0357 26.377 16.2328 25.7268 16.8849C25.0787 17.5392 24.8828 18.5225 25.235 19.378C25.5872 20.2335 26.4165 20.7891 27.3356 20.7891C29.3029 20.8625 30.92 22.3785 31.1263 24.3495C31.3327 26.3205 30.0677 28.1447 28.1567 28.6291V29.6796C28.09 30.0905 27.7378 30.3925 27.3231 30.3925C26.9105 30.3925 26.5562 30.0905 26.4895 29.6796V28.6291C24.6807 28.2349 23.3823 26.6351 23.3615 24.771V24.5592C23.349 24.3202 23.4386 24.0874 23.6074 23.9197C23.7762 23.7498 24.0075 23.6618 24.2451 23.6744C24.4806 23.6869 24.7015 23.8002 24.8515 23.9847C25.0016 24.1713 25.0662 24.4124 25.0286 24.6473L25.0683 24.62ZM42.4069 36.1103C41.4337 34.5 39.3747 33.938 37.7263 34.8355L26.723 40.455C26.7251 39.002 25.7519 37.7313 24.3556 37.3623L16.3761 35.2109C16.0614 35.1124 15.7572 34.9866 15.4654 34.8356C14.4839 34.2716 13.3419 34.0598 12.2249 34.2317C10.8578 34.4498 9.22398 35.2109 7.14004 36.6074C6.61488 35.6513 5.51246 35.1732 4.46217 35.45L2.07184 36.0937C0.813114 36.4418 0.0670745 37.7481 0.40467 39.0187L3.54936 50.8827C3.90363 52.147 5.19988 52.8935 6.46272 52.5601L8.8468 51.9164V51.9185C10.0347 51.5956 10.7786 50.4088 10.5577 49.1885C12.3645 48.5175 15.1591 49.2556 17.6596 49.9161C19.2705 50.4214 20.9335 50.7338 22.6174 50.845C23.3947 50.8764 24.1678 50.6814 24.8389 50.2851L41.1228 40.841C42.767 39.8849 43.3317 37.7671 42.3836 36.1106L42.4069 36.1103ZM8.41312 50.2953L6.01656 50.939C5.83942 50.9872 5.64978 50.962 5.48931 50.8677C5.33093 50.7733 5.21423 50.6203 5.1663 50.442L2.01537 38.5824C1.91951 38.2092 2.13833 37.8297 2.5051 37.7269L4.90583 37.0727C5.27469 36.972 5.65603 37.1922 5.75611 37.5633L8.91334 49.4288C8.96335 49.6113 8.93834 49.8063 8.84457 49.9677C8.75079 50.1313 8.59443 50.2491 8.41312 50.2953ZM40.283 39.375L23.972 48.8524H23.9386C22.8779 49.5401 20.4438 48.8964 18.0867 48.2925C15.3088 47.5545 12.3954 46.7933 10.1403 47.5545L7.6833 38.2907C12.2284 35.1434 13.5123 35.7515 14.7457 36.3512H14.7478C15.1312 36.5546 15.5355 36.7181 15.9523 36.8418L23.9382 38.9952C24.3279 39.1001 24.6614 39.358 24.8614 39.7102C25.1636 40.247 25.1157 40.9117 24.7426 41.4002C24.3696 41.8888 23.7423 42.1047 23.1505 41.9475L16.4818 40.1526C16.0316 40.0247 15.5627 40.2868 15.4356 40.7397C15.3086 41.1926 15.5711 41.6623 16.0192 41.7902L22.6879 43.5851C22.9588 43.6585 23.2359 43.6962 23.5173 43.6983C24.08 43.6983 24.6322 43.5473 25.1178 43.2622C25.3033 43.1573 25.4762 43.0336 25.6346 42.8931H25.7013L38.4822 36.3616C39.3304 35.8709 40.412 36.1498 40.9225 36.9885C41.3873 37.8273 41.1041 38.8865 40.283 39.375ZM5.33912 39.2702C5.45999 39.7063 5.30578 40.1739 4.94942 40.4528C4.59306 40.7316 4.10543 40.7652 3.71364 40.5387C3.32184 40.3123 3.10721 39.8698 3.16766 39.4191C3.22809 38.9703 3.55111 38.6013 3.98876 38.486C4.57646 38.3329 5.17662 38.681 5.33912 39.2702Z" fill="url(#paint0_linear_402_11802)"/>
<defs>
<linearGradient id="paint0_linear_402_11802" x1="21.5835" y1="0.240356" x2="31.8454" y2="51.9003" gradientUnits="userSpaceOnUse">
<stop stop-color="#EDA497"/>
<stop offset="1" stop-color="#B7D3E8"/>
</linearGradient>
</defs>
</svg>
