<svg width="53" height="53" viewBox="0 0 53 53" fill="none" xmlns="http://www.w3.org/2000/svg">
<path d="M12.5433 52.5374C12.3709 52.5374 12.2016 52.4822 12.061 52.3778C11.8758 52.2407 11.7574 52.0316 11.7336 51.8013C11.6739 51.2069 11.1869 50.7587 10.602 50.7587C10.01 50.7587 9.51801 51.2069 9.45849 51.801C9.43541 52.0313 9.31627 52.2407 9.13108 52.3779C8.9459 52.515 8.71306 52.5654 8.48663 52.521C7.19217 52.256 5.97315 51.7474 4.86217 51.009C4.67068 50.882 4.54192 50.68 4.50612 50.4521C4.47118 50.2246 4.5323 49.9924 4.67613 49.8128C5.04959 49.3459 5.0186 48.681 4.60539 48.2669C4.18897 47.8467 3.5239 47.812 3.06131 48.1869C2.88094 48.3316 2.65205 48.394 2.42563 48.3576C2.1992 48.322 1.99809 48.1925 1.87254 48.0002C1.13672 46.8793 0.630437 45.6523 0.369066 44.353C0.323759 44.1267 0.37537 43.8913 0.512147 43.705C0.648068 43.5191 0.856224 43.3996 1.08511 43.376C1.67549 43.3161 2.12055 42.8263 2.12055 42.2375C2.12055 41.6418 1.67549 41.1468 1.08511 41.087C0.856224 41.0634 0.648068 40.9439 0.511399 40.7575C0.375477 40.5712 0.323865 40.3357 0.36992 40.1091C0.633001 38.8074 1.13833 37.5809 1.87264 36.4628C1.9982 36.2704 2.1992 36.1405 2.42573 36.1049C2.65376 36.0714 2.88265 36.1321 3.06142 36.276C3.5239 36.6501 4.18587 36.6206 4.59674 36.2048C5.01551 35.7842 5.04885 35.1167 4.67624 34.6501C4.53241 34.4705 4.47118 34.2383 4.50623 34.0108C4.54203 33.783 4.67068 33.581 4.86227 33.4538C5.97326 32.7154 7.19217 32.2069 8.48674 31.9419C8.71402 31.8967 8.94686 31.9479 9.13119 32.085C9.31637 32.2221 9.43552 32.4316 9.4586 32.6619C9.51822 33.2559 10.0101 33.7041 10.6021 33.7041C11.1869 33.7041 11.6733 33.2532 11.7337 32.6556C11.7575 32.4248 11.8768 32.215 12.0627 32.0779C12.2495 31.9404 12.4854 31.8896 12.7095 31.9367C14.0025 32.2078 15.2214 32.7179 16.3331 33.4527C16.5254 33.5798 16.655 33.7828 16.6908 34.0115C16.7257 34.2402 16.6637 34.4733 16.5183 34.6527C16.144 35.1173 16.1766 35.7837 16.593 36.2034C17.0054 36.622 17.6666 36.652 18.1299 36.2758C18.3087 36.1315 18.5383 36.0695 18.7656 36.1047C18.992 36.1403 19.1931 36.2702 19.3187 36.4625C20.0521 37.5799 20.5583 38.8065 20.8221 40.1081C20.8682 40.3348 20.8166 40.5707 20.6807 40.757C20.5447 40.9436 20.3357 41.0632 20.1077 41.0868C19.5165 41.1472 19.0707 41.6417 19.0707 42.2374C19.0707 42.8262 19.5188 43.3155 20.1125 43.3759C20.3421 43.3995 20.5512 43.5195 20.6871 43.707C20.8237 43.894 20.8746 44.1307 20.827 44.3578C20.5576 45.6578 20.0505 46.8848 19.3203 48.0045C19.194 48.1981 18.9921 48.3288 18.7648 48.3644C18.5384 48.3996 18.3056 48.3368 18.1275 48.1909C17.6674 47.8147 17.0038 47.8466 16.5867 48.266C16.1711 48.6806 16.1425 49.3434 16.5183 49.8099C16.6637 49.9895 16.7257 50.2225 16.6908 50.4511C16.655 50.6798 16.5254 50.8829 16.3331 51.01C15.2135 51.7504 13.992 52.2585 12.7047 52.5208C12.6514 52.5322 12.5973 52.5374 12.5433 52.5374ZM10.602 49.1213C11.7065 49.1213 12.6665 49.7725 13.1083 50.7344C13.6908 50.5613 14.255 50.3259 14.7953 50.03C14.4314 49.0322 14.6539 47.8884 15.4382 47.1056C16.2193 46.3197 17.3565 46.0957 18.345 46.4584C18.6382 45.9154 18.8734 45.3474 19.0482 44.7589C18.0914 44.3143 17.443 43.3488 17.443 42.2375C17.443 41.1205 18.0898 40.1506 19.0459 39.7044C18.8734 39.1163 18.639 38.5498 18.3457 38.0089C17.3548 38.3707 16.2168 38.1476 15.4397 37.3593C14.6593 36.5734 14.436 35.4292 14.796 34.4337C14.2572 34.1387 13.693 33.9021 13.1081 33.7261C12.6655 34.6895 11.7063 35.3416 10.6017 35.3416C9.49162 35.3416 8.52692 34.6904 8.08346 33.7284C7.49938 33.9023 6.93518 34.1379 6.39716 34.4332C6.75556 35.4303 6.52988 36.5756 5.74875 37.3616C4.97234 38.1463 3.83602 38.3702 2.84504 38.0084C2.55182 38.5497 2.31738 39.1162 2.14491 39.7039C3.10085 40.1501 3.74776 41.1203 3.74776 42.2373C3.74776 43.3491 3.10096 44.3149 2.14491 44.7594C2.31738 45.3464 2.55097 45.9132 2.84578 46.4553C3.83752 46.0951 4.97394 46.3222 5.75506 47.1073C6.53458 47.8889 6.75791 49.0327 6.39791 50.0297C6.93593 50.3247 7.49928 50.5602 8.08336 50.7341C8.52702 49.7725 9.49098 49.1213 10.602 49.1213ZM10.5988 46.0873C8.48257 46.0873 6.76133 44.3571 6.76133 42.2307C6.76133 40.1015 8.48257 38.3692 10.5988 38.3692C12.7149 38.3692 14.4362 40.1015 14.4362 42.2307C14.4362 44.3571 12.7149 46.0873 10.5988 46.0873ZM10.5988 40.0068C9.38059 40.0068 8.38875 41.0046 8.38875 42.2307C8.38875 43.4544 9.38049 44.4499 10.5988 44.4499C11.817 44.4499 12.8087 43.4544 12.8087 42.2307C12.8087 41.0046 11.8169 40.0068 10.5988 40.0068Z" fill="url(#paint0_linear_402_11805)"/>
<path d="M42.1784 20.7553C36.5252 20.7553 31.9258 16.1339 31.9258 10.453C31.9258 4.76496 36.5253 0.137535 42.1784 0.137535C47.8316 0.137535 52.4304 4.76496 52.4304 10.453C52.4304 16.1338 47.8317 20.7553 42.1784 20.7553ZM42.1784 1.77498C37.4224 1.77498 33.5532 5.66798 33.5532 10.4529C33.5532 15.2306 37.4224 19.1177 42.1784 19.1177C46.9337 19.1177 50.8029 15.2306 50.8029 10.4529C50.8028 5.66808 46.9337 1.77498 42.1784 1.77498Z" fill="url(#paint1_linear_402_11805)"/>
<path d="M42.1776 11.2647H39.5798C39.1301 11.2647 38.7661 10.8981 38.7661 10.446C38.7661 9.99392 39.1301 9.62729 39.5798 9.62729H41.3638V5.62506C41.3638 5.17296 41.7277 4.80634 42.1775 4.80634C42.6273 4.80634 42.9912 5.17296 42.9912 5.62506V10.446C42.9914 10.8981 42.6275 11.2647 42.1776 11.2647Z" fill="url(#paint2_linear_402_11805)"/>
<path d="M34.2834 43.0479H26.9439C26.4942 43.0479 26.1302 42.6813 26.1302 42.2292C26.1302 41.7771 26.4942 41.4105 26.9439 41.4105H34.2834C38.1867 41.4105 41.3631 38.2115 41.3631 34.2793C41.3631 30.3514 38.1867 27.156 34.2834 27.156H18.4975C13.6921 27.156 9.78247 23.2258 9.78247 18.3953C9.78247 13.5604 13.6922 9.62661 18.4975 9.62661H25.5279C25.9776 9.62661 26.3416 9.99323 26.3416 10.4453C26.3416 10.8974 25.9776 11.2641 25.5279 11.2641H18.4975C14.5893 11.2641 11.4099 14.463 11.4099 18.3953C11.4099 22.3231 14.5893 25.5185 18.4975 25.5185H34.2834C39.0848 25.5185 42.9905 29.4487 42.9905 34.2793C42.9905 39.1142 39.0848 43.0479 34.2834 43.0479Z" fill="url(#paint3_linear_402_11805)"/>
<defs>
<linearGradient id="paint0_linear_402_11805" x1="10.5987" y1="31.9196" x2="13.9377" y2="52.5071" gradientUnits="userSpaceOnUse">
<stop stop-color="#EDA497"/>
<stop offset="1" stop-color="#B7D3E8"/>
</linearGradient>
<linearGradient id="paint1_linear_402_11805" x1="42.1781" y1="0.137535" x2="45.515" y2="20.7257" gradientUnits="userSpaceOnUse">
<stop stop-color="#EDA497"/>
<stop offset="1" stop-color="#B7D3E8"/>
</linearGradient>
<linearGradient id="paint2_linear_402_11805" x1="40.8787" y1="4.80634" x2="42.4161" y2="11.0461" gradientUnits="userSpaceOnUse">
<stop stop-color="#EDA497"/>
<stop offset="1" stop-color="#B7D3E8"/>
</linearGradient>
<linearGradient id="paint3_linear_402_11805" x1="26.3865" y1="9.62661" x2="31.8003" y2="42.9984" gradientUnits="userSpaceOnUse">
<stop stop-color="#EDA497"/>
<stop offset="1" stop-color="#B7D3E8"/>
</linearGradient>
</defs>
</svg>
