<svg width="45" height="48" viewBox="0 0 45 48" fill="none" xmlns="http://www.w3.org/2000/svg">
<path fill-rule="evenodd" clip-rule="evenodd" d="M7.80695 3.49496C11.096 1.89349 16.492 0 22.3973 0C28.1792 0 33.4332 1.81482 36.7048 3.39495L36.8897 3.48429C37.8762 3.96966 38.6723 4.42837 39.2326 4.8004L34.2816 12.001C45.6954 23.61 54.5118 48 22.3973 48C-9.71724 48 -1.13809 24.0527 10.3749 12.001L5.4561 4.8004C5.8354 4.55371 6.31656 4.26702 6.8902 3.963C7.17434 3.81098 7.47992 3.65408 7.80695 3.49496ZM31.0997 11.9063L35.0629 6.14185C31.3772 6.40587 26.9918 7.26727 22.7699 8.48337C19.7542 9.35011 16.4035 9.2181 13.3008 8.64872C12.5189 8.50469 11.7423 8.33301 10.9727 8.13401L13.546 11.9037C19.0613 13.8572 25.5831 13.8572 31.0997 11.9063ZM11.998 14.1745C18.4515 16.6547 26.2077 16.6547 32.6612 14.1718C35.3542 16.9976 37.6076 20.208 39.3465 23.6966C41.1585 27.3743 42.145 31.0506 41.9842 34.2189C41.8287 37.2764 40.6198 39.8887 37.8588 41.8302C34.9812 43.853 30.1414 45.3331 22.3959 45.3331C14.6424 45.3331 9.77985 43.8783 6.87546 41.8782C4.09437 39.962 2.87337 37.3844 2.70048 34.3682C2.51954 31.2346 3.48454 27.577 5.2899 23.874C7.01216 20.343 9.41529 16.9441 11.998 14.1745ZM10.4567 5.22177C11.5289 5.53913 12.6494 5.81515 13.786 6.0245C16.6676 6.55255 19.5572 6.62989 22.0233 5.91916C24.8971 5.08589 27.8201 4.4308 30.7754 3.95766C28.3093 3.21894 25.425 2.66689 22.3959 2.66689C17.7787 2.66689 13.4723 3.94833 10.4567 5.22177Z" fill="url(#paint0_linear_2_2574)"/>
<path d="M29.8719 24.1052L29.2118 26.4915H16.874L17.5434 24.1052H29.8719ZM23.6705 38.2041L17.1622 30.5353L17.1529 28.5134H20.3698C21.1384 28.5134 21.78 28.3889 22.2944 28.14C22.8151 27.885 23.2087 27.5298 23.4752 27.0744C23.7479 26.6129 23.8843 26.0725 23.8843 25.4532C23.8843 24.5242 23.6054 23.7774 23.0475 23.2127C22.4897 22.648 21.5971 22.3657 20.3698 22.3657H16.874L17.5992 19.5514H20.3698C21.9318 19.5514 23.2242 19.7882 24.2469 20.2618C25.2758 20.7293 26.0444 21.3911 26.5527 22.2473C27.0672 23.1034 27.3244 24.1052 27.3244 25.2528C27.3244 26.2668 27.1353 27.1715 26.7572 27.9669C26.3791 28.7624 25.7841 29.4151 24.9721 29.9251C24.1601 30.4352 23.0971 30.7752 21.7831 30.9452L21.6715 30.9816L27.5475 38.0401V38.2041H23.6705ZM29.8905 19.5514L29.2118 21.974L19.2076 21.9376L19.8864 19.5514H29.8905Z" fill="url(#paint1_linear_2_2574)"/>
<defs>
<linearGradient id="paint0_linear_2_2574" x1="22.3415" y1="-2.30587e-07" x2="30.6112" y2="47.7582" gradientUnits="userSpaceOnUse">
<stop stop-color="#EDA497"/>
<stop offset="1" stop-color="#B7D3E8"/>
</linearGradient>
<linearGradient id="paint1_linear_2_2574" x1="22.3415" y1="-2.30587e-07" x2="30.6112" y2="47.7582" gradientUnits="userSpaceOnUse">
<stop stop-color="#EDA497"/>
<stop offset="1" stop-color="#B7D3E8"/>
</linearGradient>
</defs>
</svg>
