<svg width="52" height="52" viewBox="0 0 52 52" fill="none" xmlns="http://www.w3.org/2000/svg">
<g clip-path="url(#clip0_287_2)">
<path d="M30.0083 25.78V26.2202C30.0083 26.5772 29.7189 26.8668 29.3617 26.8668H25.3465C24.9895 26.8668 24.6999 26.5773 24.6999 26.2202V25.78C24.6999 25.4229 24.9894 25.1334 25.3465 25.1334H29.3617C29.7189 25.1334 30.0083 25.4228 30.0083 25.78Z" fill="#E94623"/>
<path d="M30.0083 7.84583V8.43733C30.0083 8.62193 29.9264 8.7944 29.7916 8.92039C27.8655 10.7201 28.4384 15.0504 25.7254 17.074C25.3025 17.3893 24.7001 17.0771 24.7001 16.5497V15.9582C24.7001 15.7736 24.782 15.6011 24.9169 15.4751C26.8429 13.6754 26.2701 9.34506 28.9831 7.3215C29.4058 7.00614 30.0083 7.31835 30.0083 7.84583Z" fill="#E94623"/>
<path d="M30.0083 43.5626V44.1542C30.0083 44.6817 29.4059 44.9939 28.9831 44.6785C26.2693 42.6548 26.8427 38.3244 24.9169 36.5248C24.782 36.3988 24.7001 36.2263 24.7001 36.0417V35.4501C24.7001 34.9227 25.3025 34.6104 25.7254 34.9258C28.4391 36.9495 27.8657 41.2798 29.7916 43.0794C29.9264 43.2055 30.0083 43.378 30.0083 43.5626Z" fill="#E94623"/>
<path d="M20.3667 11.375H2.6C1.16632 11.375 0 12.5413 0 13.975V38.025C0 39.4587 1.16632 40.625 2.6 40.625H20.3667C21.8004 40.625 22.9667 39.4587 22.9667 38.025V13.975C22.9667 12.5413 21.8004 11.375 20.3667 11.375ZM13.325 33.8H5.30833C4.82972 33.8 4.44167 33.412 4.44167 32.9333C4.44167 32.4547 4.82972 32.0667 5.30833 32.0667H13.325C13.8036 32.0667 14.1917 32.4547 14.1917 32.9333C14.1917 33.412 13.8036 33.8 13.325 33.8ZM4.44167 26C4.44167 25.5214 4.82972 25.1333 5.30833 25.1333H6.31486C6.79348 25.1333 7.18153 25.5214 7.18153 26C7.18153 26.4786 6.79348 26.8667 6.31486 26.8667H5.30833C4.82972 26.8667 4.44167 26.4786 4.44167 26ZM17.6583 26.8667H10.5363C10.0577 26.8667 9.66962 26.4786 9.66962 26C9.66962 25.5214 10.0577 25.1333 10.5363 25.1333H17.6583C18.1369 25.1333 18.525 25.5214 18.525 26C18.525 26.4786 18.1369 26.8667 17.6583 26.8667ZM17.6583 19.9333H5.30833C4.82972 19.9333 4.44167 19.5453 4.44167 19.0667C4.44167 18.588 4.82972 18.2 5.30833 18.2H17.6583C18.1369 18.2 18.525 18.588 18.525 19.0667C18.525 19.5453 18.1369 19.9333 17.6583 19.9333Z" fill="#E94623"/>
<path d="M49.4 18.85H34.3417C32.9081 18.85 31.7417 20.0164 31.7417 21.45V30.55C31.7417 31.9836 32.9081 33.15 34.3417 33.15H49.4C50.8336 33.15 52 31.9836 52 30.55V21.45C52 20.0164 50.8336 18.85 49.4 18.85ZM38.7833 27.3C38.0665 27.3 37.4833 26.7168 37.4833 26C37.4833 25.2831 38.0665 24.7 38.7833 24.7C39.5002 24.7 40.0833 25.2831 40.0833 26C40.0833 26.7168 39.5002 27.3 38.7833 27.3ZM44.9583 27.3C44.2415 27.3 43.6583 26.7168 43.6583 26C43.6583 25.2831 44.2415 24.7 44.9583 24.7C45.6752 24.7 46.2583 25.2831 46.2583 26C46.2583 26.7168 45.6752 27.3 44.9583 27.3Z" fill="#E94623"/>
<path d="M49.4 37.7H34.3417C32.9081 37.7 31.7417 38.8664 31.7417 40.3V49.4C31.7417 50.8336 32.9081 52 34.3417 52H49.4C50.8336 52 52 50.8336 52 49.4V40.3C52 38.8664 50.8336 37.7 49.4 37.7ZM38.7833 46.15C38.0665 46.15 37.4833 45.5669 37.4833 44.85C37.4833 44.1332 38.0665 43.55 38.7833 43.55C39.5002 43.55 40.0833 44.1332 40.0833 44.85C40.0833 45.5669 39.5002 46.15 38.7833 46.15ZM44.9583 46.15C44.2415 46.15 43.6583 45.5669 43.6583 44.85C43.6583 44.1332 44.2415 43.55 44.9583 43.55C45.6752 43.55 46.2583 44.1332 46.2583 44.85C46.2583 45.5669 45.6752 46.15 44.9583 46.15Z" fill="#E94623"/>
<path d="M49.4 0H34.3417C32.9081 0 31.7417 1.16642 31.7417 2.6V11.7C31.7417 13.1336 32.9081 14.3 34.3417 14.3H49.4C50.8336 14.3 52 13.1336 52 11.7V2.6C52 1.16642 50.8336 0 49.4 0ZM38.7833 8.45C38.0665 8.45 37.4833 7.86684 37.4833 7.15C37.4833 6.43316 38.0665 5.85 38.7833 5.85C39.5002 5.85 40.0833 6.43316 40.0833 7.15C40.0833 7.86684 39.5002 8.45 38.7833 8.45ZM44.9583 8.45C44.2415 8.45 43.6583 7.86684 43.6583 7.15C43.6583 6.43316 44.2415 5.85 44.9583 5.85C45.6752 5.85 46.2583 6.43316 46.2583 7.15C46.2583 7.86684 45.6752 8.45 44.9583 8.45Z" fill="#E94623"/>
</g>
<defs>
<clipPath id="clip0_287_2">
<rect width="52" height="52" fill="white"/>
</clipPath>
</defs>
</svg>
