<svg width="240" height="265" viewBox="0 0 240 265" fill="none" xmlns="http://www.w3.org/2000/svg">
<rect width="239.458" height="265" rx="25.5422" fill="white"/>
<path d="M30.9724 165.518L43.3444 140.375H29.3361V135.785H49.0515V140.375L36.9588 165.518H30.9724ZM61.3274 165.518V157.776H53.585V153.266H61.3274V145.563H65.8372V153.266H73.5398V157.776H65.8372V165.518H61.3274ZM94.2884 165.518V152.348L84.2711 135.785H90.4571L98.1198 148.716H95.9247L103.547 135.785H109.733L99.756 152.308V165.518H94.2884ZM113.052 165.518V135.785H132.807V140.575H118.48V148.197H132.009V152.986H118.48V160.729H132.807V165.518H113.052ZM134.353 165.518L144.61 135.785H151.634L161.891 165.518H155.984L153.869 159.133H142.375L140.22 165.518H134.353ZM143.931 154.343H152.312L147.364 139.537H148.88L143.931 154.343ZM165.2 165.518V135.785H176.255C178.277 135.785 180.059 136.158 181.603 136.903C183.172 137.621 184.396 138.685 185.274 140.096C186.152 141.479 186.591 143.169 186.591 145.164C186.591 147.213 186.099 148.956 185.115 150.392C184.157 151.829 182.853 152.893 181.204 153.585L188.028 165.518H181.882L174.579 152.468L178.091 154.543H170.627V165.518H165.2ZM170.627 149.754H176.335C177.319 149.754 178.17 149.568 178.889 149.195C179.607 148.796 180.166 148.251 180.565 147.559C180.964 146.867 181.164 146.069 181.164 145.164C181.164 144.233 180.964 143.435 180.565 142.77C180.166 142.078 179.607 141.546 178.889 141.173C178.17 140.774 177.319 140.575 176.335 140.575H170.627V149.754ZM202.201 165.997C200.312 165.997 198.556 165.651 196.933 164.959C195.337 164.268 193.953 163.31 192.783 162.086C191.639 160.835 190.8 159.385 190.268 157.736L194.778 155.78C195.496 157.483 196.534 158.827 197.891 159.811C199.248 160.769 200.778 161.248 202.481 161.248C203.438 161.248 204.263 161.101 204.955 160.809C205.673 160.489 206.219 160.064 206.591 159.532C206.99 159 207.19 158.361 207.19 157.616C207.19 156.738 206.924 156.02 206.392 155.461C205.886 154.876 205.115 154.423 204.077 154.104L198.37 152.268C196.055 151.55 194.312 150.472 193.142 149.035C191.971 147.599 191.386 145.909 191.386 143.967C191.386 142.264 191.798 140.761 192.623 139.457C193.474 138.153 194.645 137.142 196.135 136.424C197.652 135.679 199.381 135.306 201.323 135.306C203.106 135.306 204.742 135.626 206.232 136.264C207.722 136.876 208.999 137.741 210.063 138.858C211.154 139.949 211.966 141.24 212.498 142.73L208.028 144.725C207.443 143.235 206.565 142.091 205.394 141.293C204.223 140.468 202.866 140.056 201.323 140.056C200.419 140.056 199.62 140.215 198.929 140.535C198.237 140.827 197.691 141.253 197.292 141.812C196.92 142.344 196.734 142.982 196.734 143.727C196.734 144.552 197 145.284 197.532 145.922C198.064 146.534 198.875 147.013 199.966 147.359L205.434 149.075C207.802 149.847 209.571 150.911 210.742 152.268C211.939 153.625 212.538 155.301 212.538 157.297C212.538 159 212.099 160.503 211.221 161.806C210.343 163.11 209.132 164.135 207.589 164.88C206.046 165.625 204.25 165.997 202.201 165.997Z" fill="#03518F"/>
<path d="M58.0038 208.449C56.797 208.449 55.6721 208.233 54.6291 207.801C53.601 207.369 52.6921 206.765 51.9025 205.99C51.1277 205.216 50.5168 204.307 50.0698 203.264C49.6377 202.221 49.4217 201.081 49.4217 199.844C49.4217 198.608 49.6377 197.468 50.0698 196.425C50.5168 195.367 51.1277 194.458 51.9025 193.698C52.6772 192.924 53.5861 192.328 54.6291 191.91C55.6721 191.478 56.797 191.262 58.0038 191.262C59.2256 191.262 60.3505 191.478 61.3786 191.91C62.4216 192.328 63.3305 192.924 64.1052 193.698C64.8949 194.473 65.5058 195.382 65.9379 196.425C66.37 197.468 66.586 198.608 66.586 199.844C66.586 201.081 66.3625 202.221 65.9155 203.264C65.4834 204.307 64.88 205.216 64.1052 205.99C63.3305 206.765 62.4216 207.369 61.3786 207.801C60.3356 208.233 59.2107 208.449 58.0038 208.449ZM58.0038 206.035C58.868 206.035 59.6577 205.879 60.3729 205.566C61.103 205.253 61.7362 204.821 62.2726 204.27C62.809 203.703 63.2262 203.048 63.5241 202.303C63.8221 201.543 63.9711 200.723 63.9711 199.844C63.9711 198.965 63.8221 198.153 63.5241 197.408C63.2262 196.663 62.809 196.008 62.2726 195.442C61.7362 194.875 61.103 194.436 60.3729 194.123C59.6577 193.81 58.868 193.654 58.0038 193.654C57.1397 193.654 56.3425 193.81 55.6125 194.123C54.8973 194.436 54.2715 194.875 53.7351 195.442C53.1987 196.008 52.7815 196.663 52.4835 197.408C52.2005 198.153 52.0589 198.965 52.0589 199.844C52.0589 200.723 52.2005 201.543 52.4835 202.303C52.7815 203.048 53.1987 203.703 53.7351 204.27C54.2715 204.821 54.9047 205.253 55.6348 205.566C56.3649 205.879 57.1546 206.035 58.0038 206.035ZM69.5346 208.181V191.53H80.374V193.877H72.1718V198.883H79.48V201.23H72.1718V208.181H69.5346ZM85.7555 208.181V205.722H86.7165C87.4615 205.722 88.0575 205.506 88.5045 205.074C88.9515 204.627 89.175 204.031 89.175 203.286V191.53H91.7899V203.197C91.7899 204.21 91.5813 205.089 91.1641 205.834C90.7618 206.579 90.1732 207.16 89.3985 207.577C88.6386 207.98 87.7446 208.181 86.7165 208.181H85.7555ZM103.292 208.449C102.085 208.449 100.96 208.233 99.9172 207.801C98.8891 207.369 97.9802 206.765 97.1905 205.99C96.4158 205.216 95.8049 204.307 95.3579 203.264C94.9258 202.221 94.7098 201.081 94.7098 199.844C94.7098 198.608 94.9258 197.468 95.3579 196.425C95.8049 195.367 96.4158 194.458 97.1905 193.698C97.9653 192.924 98.8742 192.328 99.9172 191.91C100.96 191.478 102.085 191.262 103.292 191.262C104.514 191.262 105.639 191.478 106.667 191.91C107.71 192.328 108.619 192.924 109.393 193.698C110.183 194.473 110.794 195.382 111.226 196.425C111.658 197.468 111.874 198.608 111.874 199.844C111.874 201.081 111.651 202.221 111.204 203.264C110.772 204.307 110.168 205.216 109.393 205.99C108.619 206.765 107.71 207.369 106.667 207.801C105.624 208.233 104.499 208.449 103.292 208.449ZM103.292 206.035C104.156 206.035 104.946 205.879 105.661 205.566C106.391 205.253 107.024 204.821 107.561 204.27C108.097 203.703 108.514 203.048 108.812 202.303C109.11 201.543 109.259 200.723 109.259 199.844C109.259 198.965 109.11 198.153 108.812 197.408C108.514 196.663 108.097 196.008 107.561 195.442C107.024 194.875 106.391 194.436 105.661 194.123C104.946 193.81 104.156 193.654 103.292 193.654C102.428 193.654 101.631 193.81 100.901 194.123C100.185 194.436 99.5596 194.875 99.0232 195.442C98.4868 196.008 98.0696 196.663 97.7716 197.408C97.4885 198.153 97.347 198.965 97.347 199.844C97.347 200.723 97.4885 201.543 97.7716 202.303C98.0696 203.048 98.4868 203.703 99.0232 204.27C99.5596 204.821 100.193 205.253 100.923 205.566C101.653 205.879 102.443 206.035 103.292 206.035ZM121.058 208.449C119.821 208.449 118.719 208.188 117.75 207.667C116.797 207.145 116.044 206.43 115.493 205.521C114.957 204.612 114.689 203.577 114.689 202.415V191.53H117.326V202.303C117.326 203.033 117.482 203.681 117.795 204.247C118.123 204.813 118.562 205.253 119.114 205.566C119.68 205.879 120.328 206.035 121.058 206.035C121.803 206.035 122.451 205.879 123.003 205.566C123.569 205.253 124.008 204.813 124.321 204.247C124.649 203.681 124.813 203.033 124.813 202.303V191.53H127.428V202.415C127.428 203.577 127.16 204.612 126.623 205.521C126.087 206.43 125.334 207.145 124.366 207.667C123.412 208.188 122.31 208.449 121.058 208.449ZM130.733 208.181V191.53H136.79C137.908 191.53 138.891 191.739 139.74 192.156C140.59 192.558 141.253 193.154 141.729 193.944C142.221 194.719 142.467 195.65 142.467 196.738C142.467 197.885 142.176 198.868 141.595 199.688C141.029 200.507 140.262 201.103 139.293 201.476L143.137 208.181H140.143L136.053 200.917L137.774 201.923H133.371V208.181H130.733ZM133.371 199.576H136.835C137.446 199.576 137.975 199.457 138.422 199.219C138.869 198.98 139.211 198.652 139.45 198.235C139.703 197.803 139.83 197.297 139.83 196.715C139.83 196.134 139.703 195.635 139.45 195.218C139.211 194.786 138.869 194.458 138.422 194.235C137.975 193.996 137.446 193.877 136.835 193.877H133.371V199.576ZM145.357 208.181V191.53H147.48L156.822 204.426L155.816 204.582V191.53H158.431V208.181H156.308L147.033 195.196L147.994 195.017V208.181H145.357ZM161.879 208.181V191.53H172.852V193.877H164.516V198.66H172.405V201.007H164.516V205.834H172.852V208.181H161.879ZM179.525 208.181V200.671L173.826 191.53H176.799L181.358 198.928H180.308L184.845 191.53H187.817L182.14 200.671V208.181H179.525Z" fill="#242424"/>
<path d="M196.355 15.9639V17.55V24.3868H214.524V41.506H223.494V17.55V15.9639H196.355Z" fill="#EE4523"/>
<path d="M112.858 51.6038C112.858 48.408 110.272 45.8079 107.094 45.8079C103.915 45.8079 101.329 48.408 101.329 51.6038C101.329 54.7997 103.915 57.3998 107.093 57.3998C110.272 57.3998 112.858 54.7997 112.858 51.6038ZM107.093 53.7362C105.924 53.7362 104.972 52.7797 104.972 51.6038C104.972 50.428 105.924 49.4715 107.093 49.4715C108.263 49.4715 109.214 50.428 109.214 51.6038C109.214 52.7797 108.263 53.7362 107.093 53.7362Z" fill="url(#paint0_linear_1_17)"/>
<path d="M156.444 68.7452C156.416 68.0234 155.967 67.3861 155.3 67.1178L135.934 59.3292C135.372 59.1036 134.736 59.1724 134.235 59.5131C133.735 59.8537 133.435 60.422 133.435 61.0299V87.8963C131.208 88.558 129.482 90.3997 128.974 92.6988H103.203C101.26 92.6988 99.6797 91.1097 99.6797 89.1567C99.6797 87.2036 101.26 85.6146 103.203 85.6146H119.689C123.438 85.6146 126.487 82.5484 126.487 78.7797C126.487 75.011 123.438 71.9449 119.689 71.9449H110.306L118.145 58.7687C119.474 56.5357 120.176 53.9799 120.176 51.3778C120.176 44.174 114.347 38.3133 107.181 38.3133C100.016 38.3133 94.1868 44.1739 94.1868 51.3777V51.4244C94.1868 53.9915 94.8716 56.5177 96.1671 58.7298L105.523 74.7059C105.815 75.1777 106.353 75.6129 107.087 75.6083H119.689C121.429 75.6083 122.844 77.0309 122.844 78.7796C122.844 80.5283 121.429 81.9509 119.689 81.9509H103.203C99.2509 81.9509 96.0357 85.1835 96.0357 89.1567C96.0357 93.1299 99.2509 96.3624 103.203 96.3624H129.226C130.14 98.8187 132.498 100.572 135.256 100.572C138.805 100.572 141.692 97.6696 141.692 94.1017C141.692 91.1704 139.742 88.6896 137.079 87.8972V79.6196L155.434 70.4598C156.077 70.1384 156.473 69.4669 156.444 68.7452ZM99.3071 56.8709C98.3412 55.2216 97.8307 53.3382 97.8307 51.4243V51.3776C97.8307 46.1939 102.025 41.9766 107.181 41.9766C112.337 41.9766 116.532 46.1939 116.532 51.3776C116.532 53.3176 116.008 55.2229 115.018 56.8879L107.106 70.1873L99.3071 56.8709ZM138.048 94.1016C138.048 95.6494 136.795 96.9085 135.256 96.9085C133.717 96.9085 132.464 95.6492 132.464 94.1016C132.464 92.5557 133.714 91.2978 135.25 91.2948C135.253 91.2948 135.255 91.2952 135.257 91.2952C135.259 91.2952 135.261 91.295 135.263 91.295C136.799 91.2985 138.048 92.556 138.048 94.1016ZM137.079 75.5292V63.7356L150.165 68.9985L137.079 75.5292Z" fill="url(#paint1_linear_1_17)"/>
<defs>
<linearGradient id="paint0_linear_1_17" x1="125.316" y1="38.3133" x2="135.34" y2="100.5" gradientUnits="userSpaceOnUse">
<stop stop-color="#EE4523"/>
<stop offset="1" stop-color="#EE4523" stop-opacity="0.42"/>
</linearGradient>
<linearGradient id="paint1_linear_1_17" x1="125.316" y1="38.3133" x2="135.34" y2="100.5" gradientUnits="userSpaceOnUse">
<stop stop-color="#EE4523"/>
<stop offset="1" stop-color="#EE4523" stop-opacity="0.42"/>
</linearGradient>
</defs>
</svg>
