<svg width="240" height="265" viewBox="0 0 240 265" fill="none" xmlns="http://www.w3.org/2000/svg">
<rect width="239.458" height="265" rx="25.5422" fill="white"/>
<path d="M64.3889 165.997C62.8191 165.997 61.3158 165.704 59.8791 165.119C58.4689 164.534 57.245 163.709 56.2074 162.645C55.1963 161.554 54.5046 160.263 54.1321 158.773L58.8414 157.097C59.2937 158.454 60.0254 159.465 61.0365 160.13C62.0475 160.769 63.165 161.088 64.3889 161.088C65.3999 161.088 66.2912 160.875 67.0628 160.45C67.861 159.997 68.473 159.385 68.8987 158.614C69.3244 157.816 69.5372 156.898 69.5372 155.86C69.5372 154.822 69.3111 153.918 68.8587 153.146C68.433 152.375 67.8344 151.776 67.0628 151.35C66.2912 150.898 65.3999 150.672 64.3889 150.672C63.3512 150.672 62.4067 150.898 61.5553 151.35C60.7305 151.802 60.1318 152.454 59.7594 153.306L55.3294 152.308L57.684 135.785H73.8874V140.375H59.8392L61.8746 138.02L60.1984 150.472L58.6419 149.195C59.3869 148.104 60.2915 147.306 61.3557 146.8C62.4466 146.295 63.7636 146.042 65.3068 146.042C67.2757 146.042 68.9785 146.468 70.4152 147.319C71.8786 148.171 73.0094 149.328 73.8075 150.791C74.6057 152.255 75.0048 153.944 75.0048 155.86C75.0048 157.776 74.5392 159.505 73.608 161.048C72.6768 162.591 71.413 163.802 69.8166 164.68C68.2202 165.558 66.411 165.997 64.3889 165.997ZM79.963 165.518L92.335 140.375H78.3267V135.785H98.0421V140.375L85.9494 165.518H79.963ZM123.318 165.997C121.189 165.997 119.221 165.611 117.411 164.84C115.629 164.068 114.059 162.99 112.702 161.607C111.372 160.223 110.334 158.6 109.589 156.738C108.844 154.876 108.472 152.84 108.472 150.632C108.472 148.423 108.831 146.388 109.549 144.526C110.294 142.637 111.332 141.014 112.662 139.657C114.019 138.273 115.602 137.209 117.411 136.464C119.221 135.692 121.189 135.306 123.318 135.306C125.446 135.306 127.349 135.666 129.025 136.384C130.728 137.102 132.165 138.06 133.335 139.258C134.506 140.428 135.344 141.719 135.85 143.129L130.981 145.404C130.422 143.914 129.477 142.69 128.147 141.732C126.817 140.747 125.207 140.255 123.318 140.255C121.456 140.255 119.806 140.694 118.369 141.572C116.959 142.45 115.855 143.661 115.057 145.204C114.285 146.747 113.899 148.556 113.899 150.632C113.899 152.707 114.285 154.53 115.057 156.099C115.855 157.643 116.959 158.853 118.369 159.731C119.806 160.609 121.456 161.048 123.318 161.048C125.207 161.048 126.817 160.569 128.147 159.611C129.477 158.627 130.422 157.39 130.981 155.9L135.85 158.175C135.344 159.585 134.506 160.889 133.335 162.086C132.165 163.257 130.728 164.201 129.025 164.919C127.349 165.638 125.446 165.997 123.318 165.997ZM140.256 165.518V135.785H151.311C153.333 135.785 155.116 136.158 156.659 136.903C158.229 137.621 159.453 138.685 160.331 140.096C161.209 141.479 161.648 143.169 161.648 145.164C161.648 147.213 161.156 148.956 160.171 150.392C159.213 151.829 157.91 152.893 156.26 153.585L163.084 165.518H156.938L149.635 152.468L153.147 154.543H145.684V165.518H140.256ZM145.684 149.754H151.391C152.375 149.754 153.227 149.568 153.945 149.195C154.664 148.796 155.222 148.251 155.621 147.559C156.02 146.867 156.22 146.069 156.22 145.164C156.22 144.233 156.02 143.435 155.621 142.77C155.222 142.078 154.664 141.546 153.945 141.173C153.227 140.774 152.375 140.575 151.391 140.575H145.684V149.754ZM174.703 165.518V157.776H166.961V153.266H174.703V145.563H179.213V153.266H186.916V157.776H179.213V165.518H174.703Z" fill="#03518F"/>
<path d="M26.6377 203.391C25.8182 203.391 25.0573 203.239 24.3549 202.935C23.6525 202.619 23.0554 202.191 22.5637 201.653C22.0721 201.114 21.7091 200.494 21.475 199.792L23.231 199.054C23.5471 199.862 24.0095 200.482 24.6183 200.915C25.227 201.349 25.9295 201.565 26.7255 201.565C27.1938 201.565 27.6035 201.495 27.9547 201.354C28.3059 201.202 28.5752 200.992 28.7625 200.722C28.9615 200.453 29.061 200.143 29.061 199.792C29.061 199.312 28.9264 198.931 28.6571 198.65C28.3879 198.369 27.9899 198.147 27.463 197.983L25.0046 197.21C24.0212 196.906 23.272 196.443 22.7569 195.823C22.2418 195.191 21.9843 194.453 21.9843 193.61C21.9843 192.873 22.1657 192.229 22.5286 191.679C22.8915 191.117 23.3891 190.678 24.0212 190.362C24.6651 190.046 25.3968 189.888 26.2163 189.888C27.0006 189.888 27.7147 190.028 28.3586 190.309C29.0025 190.578 29.5527 190.953 30.0093 191.433C30.4776 191.913 30.8171 192.469 31.0278 193.101L29.3069 193.856C29.0493 193.166 28.6454 192.633 28.0952 192.258C27.5567 191.884 26.9304 191.696 26.2163 191.696C25.7831 191.696 25.4026 191.772 25.0749 191.925C24.7471 192.065 24.4895 192.276 24.3022 192.557C24.1266 192.826 24.0388 193.142 24.0388 193.505C24.0388 193.926 24.1734 194.301 24.4427 194.629C24.7119 194.957 25.1217 195.203 25.6719 195.366L27.9547 196.086C28.9966 196.402 29.781 196.859 30.3078 197.456C30.8346 198.041 31.098 198.773 31.098 199.651C31.098 200.377 30.9049 201.021 30.5185 201.583C30.1439 202.145 29.623 202.59 28.9557 202.917C28.2884 203.233 27.5157 203.391 26.6377 203.391ZM33.4241 203.181V190.098H42.0461V191.942H35.4962V195.7H41.6949V197.544H35.4962V201.337H42.0461V203.181H33.4241ZM43.9705 203.181V190.098H52.5926V191.942H46.0426V195.7H52.2414V197.544H46.0426V201.337H52.5926V203.181H43.9705ZM54.5169 203.181V190.098H58.8016C60.1596 190.098 61.3362 190.373 62.3312 190.924C63.338 191.462 64.1165 192.223 64.6668 193.207C65.217 194.19 65.4921 195.331 65.4921 196.631C65.4921 197.919 65.217 199.06 64.6668 200.055C64.1165 201.038 63.338 201.805 62.3312 202.355C61.3362 202.906 60.1596 203.181 58.8016 203.181H54.5169ZM56.589 201.337H58.8368C59.7616 201.337 60.5635 201.144 61.2425 200.757C61.9332 200.371 62.4659 199.827 62.8405 199.124C63.2151 198.422 63.4024 197.591 63.4024 196.631C63.4024 195.671 63.2093 194.845 62.8229 194.155C62.4483 193.452 61.9215 192.908 61.2425 192.522C60.5635 192.135 59.7616 191.942 58.8368 191.942H56.589V201.337ZM70.6024 203.181V190.098H79.1191V191.942H72.6745V195.876H78.4167V197.719H72.6745V203.181H70.6024ZM85.7566 203.391C84.7849 203.391 83.9186 203.187 83.1577 202.777C82.4085 202.367 81.8173 201.805 81.3841 201.091C80.9627 200.377 80.7519 199.563 80.7519 198.65V190.098H82.824V198.562C82.824 199.136 82.947 199.645 83.1928 200.09C83.4504 200.535 83.7957 200.88 84.2289 201.126C84.6737 201.372 85.183 201.495 85.7566 201.495C86.3419 201.495 86.8512 201.372 87.2843 201.126C87.7292 200.88 88.0746 200.535 88.3204 200.09C88.5779 199.645 88.7067 199.136 88.7067 198.562V190.098H90.7613V198.65C90.7613 199.563 90.5505 200.377 90.1291 201.091C89.7077 201.805 89.1165 202.367 88.3555 202.777C87.6063 203.187 86.74 203.391 85.7566 203.391ZM93.3587 203.181V190.098H95.0269L102.367 200.231L101.577 200.354V190.098H103.631V203.181H101.963L94.6757 192.978L95.4308 192.838V203.181H93.3587ZM106.34 203.181V190.098H110.625C111.983 190.098 113.159 190.373 114.155 190.924C115.161 191.462 115.94 192.223 116.49 193.207C117.04 194.19 117.315 195.331 117.315 196.631C117.315 197.919 117.04 199.06 116.49 200.055C115.94 201.038 115.161 201.805 114.155 202.355C113.159 202.906 111.983 203.181 110.625 203.181H106.34ZM108.412 201.337H110.66C111.585 201.337 112.387 201.144 113.066 200.757C113.756 200.371 114.289 199.827 114.664 199.124C115.038 198.422 115.226 197.591 115.226 196.631C115.226 195.671 115.033 194.845 114.646 194.155C114.272 193.452 113.745 192.908 113.066 192.522C112.387 192.135 111.585 191.942 110.66 191.942H108.412V201.337ZM123.939 203.391C123.12 203.391 122.359 203.239 121.656 202.935C120.954 202.619 120.357 202.191 119.865 201.653C119.374 201.114 119.011 200.494 118.777 199.792L120.533 199.054C120.849 199.862 121.311 200.482 121.92 200.915C122.529 201.349 123.231 201.565 124.027 201.565C124.495 201.565 124.905 201.495 125.256 201.354C125.608 201.202 125.877 200.992 126.064 200.722C126.263 200.453 126.363 200.143 126.363 199.792C126.363 199.312 126.228 198.931 125.959 198.65C125.689 198.369 125.291 198.147 124.765 197.983L122.306 197.21C121.323 196.906 120.574 196.443 120.058 195.823C119.543 195.191 119.286 194.453 119.286 193.61C119.286 192.873 119.467 192.229 119.83 191.679C120.193 191.117 120.691 190.678 121.323 190.362C121.967 190.046 122.698 189.888 123.518 189.888C124.302 189.888 125.016 190.028 125.66 190.309C126.304 190.578 126.854 190.953 127.311 191.433C127.779 191.913 128.119 192.469 128.329 193.101L126.608 193.856C126.351 193.166 125.947 192.633 125.397 192.258C124.858 191.884 124.232 191.696 123.518 191.696C123.085 191.696 122.704 191.772 122.376 191.925C122.049 192.065 121.791 192.276 121.604 192.557C121.428 192.826 121.34 193.142 121.34 193.505C121.34 193.926 121.475 194.301 121.744 194.629C122.014 194.957 122.423 195.203 122.973 195.366L125.256 196.086C126.298 196.402 127.083 196.859 127.609 197.456C128.136 198.041 128.4 198.773 128.4 199.651C128.4 200.377 128.206 201.021 127.82 201.583C127.445 202.145 126.925 202.59 126.257 202.917C125.59 203.233 124.817 203.391 123.939 203.391ZM138.378 203.391C137.559 203.391 136.798 203.239 136.096 202.935C135.393 202.619 134.796 202.191 134.304 201.653C133.813 201.114 133.45 200.494 133.216 199.792L134.972 199.054C135.288 199.862 135.75 200.482 136.359 200.915C136.968 201.349 137.67 201.565 138.466 201.565C138.935 201.565 139.344 201.495 139.695 201.354C140.047 201.202 140.316 200.992 140.503 200.722C140.702 200.453 140.802 200.143 140.802 199.792C140.802 199.312 140.667 198.931 140.398 198.65C140.129 198.369 139.731 198.147 139.204 197.983L136.745 197.21C135.762 196.906 135.013 196.443 134.498 195.823C133.983 195.191 133.725 194.453 133.725 193.61C133.725 192.873 133.906 192.229 134.269 191.679C134.632 191.117 135.13 190.678 135.762 190.362C136.406 190.046 137.138 189.888 137.957 189.888C138.741 189.888 139.455 190.028 140.099 190.309C140.743 190.578 141.293 190.953 141.75 191.433C142.218 191.913 142.558 192.469 142.769 193.101L141.048 193.856C140.79 193.166 140.386 192.633 139.836 192.258C139.297 191.884 138.671 191.696 137.957 191.696C137.524 191.696 137.143 191.772 136.816 191.925C136.488 192.065 136.23 192.276 136.043 192.557C135.867 192.826 135.78 193.142 135.78 193.505C135.78 193.926 135.914 194.301 136.183 194.629C136.453 194.957 136.862 195.203 137.413 195.366L139.695 196.086C140.737 196.402 141.522 196.859 142.049 197.456C142.575 198.041 142.839 198.773 142.839 199.651C142.839 200.377 142.646 201.021 142.259 201.583C141.885 202.145 141.364 202.59 140.696 202.917C140.029 203.233 139.256 203.391 138.378 203.391ZM145.165 203.181V190.098H153.787V191.942H147.237V195.7H153.436V197.544H147.237V201.337H153.787V203.181H145.165ZM161.805 203.391C160.88 203.391 160.019 203.222 159.223 202.882C158.439 202.543 157.754 202.074 157.169 201.477C156.595 200.869 156.144 200.155 155.817 199.335C155.489 198.516 155.325 197.614 155.325 196.631C155.325 195.659 155.483 194.764 155.799 193.944C156.127 193.113 156.583 192.399 157.169 191.802C157.754 191.193 158.439 190.725 159.223 190.397C160.008 190.057 160.868 189.888 161.805 189.888C162.73 189.888 163.555 190.046 164.281 190.362C165.018 190.678 165.639 191.093 166.142 191.609C166.645 192.112 167.008 192.662 167.231 193.259L165.369 194.137C165.088 193.435 164.638 192.867 164.017 192.434C163.409 191.989 162.671 191.767 161.805 191.767C160.938 191.767 160.172 191.971 159.504 192.381C158.837 192.791 158.316 193.359 157.941 194.085C157.579 194.81 157.397 195.659 157.397 196.631C157.397 197.602 157.579 198.457 157.941 199.195C158.316 199.92 158.837 200.488 159.504 200.898C160.172 201.296 160.938 201.495 161.805 201.495C162.671 201.495 163.409 201.278 164.017 200.845C164.638 200.412 165.088 199.844 165.369 199.142L167.231 200.02C167.008 200.605 166.645 201.155 166.142 201.671C165.639 202.186 165.018 202.601 164.281 202.917C163.555 203.233 162.73 203.391 161.805 203.391ZM174.261 203.391C173.289 203.391 172.423 203.187 171.662 202.777C170.913 202.367 170.322 201.805 169.888 201.091C169.467 200.377 169.256 199.563 169.256 198.65V190.098H171.328V198.562C171.328 199.136 171.451 199.645 171.697 200.09C171.955 200.535 172.3 200.88 172.733 201.126C173.178 201.372 173.687 201.495 174.261 201.495C174.846 201.495 175.355 201.372 175.789 201.126C176.234 200.88 176.579 200.535 176.825 200.09C177.082 199.645 177.211 199.136 177.211 198.562V190.098H179.266V198.65C179.266 199.563 179.055 200.377 178.633 201.091C178.212 201.805 177.621 202.367 176.86 202.777C176.111 203.187 175.244 203.391 174.261 203.391ZM181.863 203.181V190.098H186.622C187.5 190.098 188.272 190.262 188.94 190.59C189.607 190.906 190.128 191.374 190.503 191.995C190.889 192.604 191.082 193.335 191.082 194.19C191.082 195.091 190.854 195.864 190.397 196.508C189.952 197.152 189.349 197.62 188.589 197.913L191.609 203.181H189.256L186.042 197.474L187.394 198.264H183.935V203.181H181.863ZM183.935 196.42H186.657C187.137 196.42 187.552 196.326 187.904 196.139C188.255 195.952 188.524 195.694 188.711 195.366C188.91 195.027 189.01 194.629 189.01 194.172C189.01 193.716 188.91 193.324 188.711 192.996C188.524 192.656 188.255 192.399 187.904 192.223C187.552 192.036 187.137 191.942 186.657 191.942H183.935V196.42ZM193.353 203.181V190.098H201.975V191.942H195.425V195.7H201.623V197.544H195.425V201.337H201.975V203.181H193.353ZM203.899 203.181V190.098H208.184C209.542 190.098 210.718 190.373 211.713 190.924C212.72 191.462 213.499 192.223 214.049 193.207C214.599 194.19 214.874 195.331 214.874 196.631C214.874 197.919 214.599 199.06 214.049 200.055C213.499 201.038 212.72 201.805 211.713 202.355C210.718 202.906 209.542 203.181 208.184 203.181H203.899ZM205.971 201.337H208.219C209.144 201.337 209.946 201.144 210.625 200.757C211.315 200.371 211.848 199.827 212.223 199.124C212.597 198.422 212.784 197.591 212.784 196.631C212.784 195.671 212.591 194.845 212.205 194.155C211.83 193.452 211.304 192.908 210.625 192.522C209.946 192.135 209.144 191.942 208.219 191.942H205.971V201.337ZM27.9622 225.181V212.098H33.4761C34.2956 212.098 35.0039 212.245 35.6009 212.537C36.198 212.818 36.6545 213.228 36.9706 213.767C37.2867 214.293 37.4447 214.92 37.4447 215.646C37.4447 216.278 37.2809 216.857 36.9531 217.384C36.637 217.899 36.1394 218.309 35.4604 218.613V217.735C36.0575 217.969 36.5433 218.268 36.9179 218.631C37.2926 218.982 37.5618 219.38 37.7257 219.825C37.9013 220.27 37.9891 220.738 37.9891 221.23C37.9891 222.459 37.5852 223.425 36.7775 224.127C35.9814 224.83 34.8868 225.181 33.4937 225.181H27.9622ZM30.0343 223.337H33.6517C34.3424 223.337 34.8927 223.15 35.3024 222.775C35.7121 222.389 35.917 221.879 35.917 221.247C35.917 220.603 35.7121 220.094 35.3024 219.719C34.8927 219.333 34.3424 219.14 33.6517 219.14H30.0343V223.337ZM30.0343 217.314H33.5288C34.0907 217.314 34.5415 217.156 34.881 216.84C35.2204 216.512 35.3902 216.085 35.3902 215.558C35.3902 215.031 35.2204 214.621 34.881 214.328C34.5415 214.036 34.0907 213.889 33.5288 213.889H30.0343V217.314ZM42.7364 225.181V219.28L38.2586 212.098H40.5941L44.1764 217.911H43.351L46.9158 212.098H49.2513L44.791 219.28V225.181H42.7364ZM57.6669 225.391C56.9645 225.391 56.303 225.263 55.6826 225.005C55.0738 224.748 54.547 224.385 54.1021 223.916C53.669 223.448 53.3588 222.898 53.1714 222.266L54.9275 221.598C55.1616 222.219 55.5187 222.699 55.9986 223.038C56.4786 223.378 57.0347 223.548 57.6669 223.548C58.182 223.548 58.6268 223.448 59.0015 223.249C59.3878 223.05 59.6863 222.769 59.897 222.406C60.1195 222.043 60.2307 221.604 60.2307 221.089C60.2307 220.586 60.1195 220.153 59.897 219.79C59.6863 219.427 59.3878 219.152 59.0015 218.964C58.6268 218.777 58.182 218.683 57.6669 218.683C57.4561 218.683 57.2396 218.701 57.0171 218.736C56.8064 218.771 56.6191 218.818 56.4552 218.877L55.9986 217.911L59.4405 213.854H53.8739V212.098H61.7584V213.767L58.3868 217.805L58.3342 217.138C59.1185 217.15 59.8092 217.325 60.4063 217.665C61.0033 217.993 61.4657 218.449 61.7935 219.035C62.133 219.608 62.3028 220.276 62.3028 221.037C62.3028 221.856 62.1038 222.599 61.7057 223.267C61.3077 223.922 60.7575 224.443 60.0551 224.83C59.3644 225.204 58.5683 225.391 57.6669 225.391ZM64.1348 225.181V223.688L67.7171 219.86C68.4195 219.111 68.9697 218.508 69.3678 218.051C69.7775 217.583 70.0702 217.173 70.2458 216.822C70.4331 216.471 70.5267 216.102 70.5267 215.716C70.5267 215.084 70.3336 214.598 69.9472 214.258C69.5609 213.907 69.0634 213.731 68.4546 213.731C67.8225 213.731 67.2781 213.913 66.8215 214.276C66.365 214.627 66.0489 215.142 65.8733 215.821L64.047 215.294C64.1875 214.604 64.4684 214.007 64.8899 213.503C65.3113 212.988 65.8264 212.59 66.4352 212.309C67.0557 212.028 67.7229 211.888 68.4371 211.888C69.2682 211.888 69.9941 212.046 70.6145 212.362C71.235 212.666 71.715 213.093 72.0545 213.644C72.4057 214.194 72.5813 214.832 72.5813 215.558C72.5813 216.038 72.4876 216.506 72.3003 216.963C72.1247 217.407 71.8496 217.882 71.475 218.385C71.1004 218.877 70.6204 219.433 70.035 220.053L66.8742 223.425H72.8271V225.181H64.1348ZM80.0559 225.391C79.014 225.391 78.1009 225.11 77.3165 224.549C76.5321 223.975 75.9175 223.185 75.4727 222.178C75.0395 221.159 74.823 219.977 74.823 218.631C74.823 217.273 75.0395 216.09 75.4727 215.084C75.9175 214.077 76.5263 213.292 77.2989 212.731C78.0833 212.169 78.9964 211.888 80.0383 211.888C81.0803 211.888 81.9875 212.169 82.7602 212.731C83.5445 213.292 84.1533 214.083 84.5864 215.101C85.0313 216.108 85.2537 217.284 85.2537 218.631C85.2537 219.977 85.0372 221.159 84.604 222.178C84.1709 223.185 83.5621 223.975 82.7777 224.549C82.0051 225.11 81.0978 225.391 80.0559 225.391ZM80.0559 223.495C80.6998 223.495 81.2559 223.296 81.7241 222.898C82.1924 222.5 82.5553 221.938 82.8129 221.212C83.0704 220.486 83.1992 219.626 83.1992 218.631C83.1992 217.636 83.0704 216.775 82.8129 216.049C82.5553 215.324 82.1924 214.762 81.7241 214.364C81.2559 213.966 80.6939 213.767 80.0383 213.767C79.3945 213.767 78.8384 213.966 78.3701 214.364C77.9018 214.762 77.5389 215.324 77.2814 216.049C77.0238 216.775 76.8951 217.636 76.8951 218.631C76.8951 219.614 77.0238 220.475 77.2814 221.212C77.5389 221.938 77.9018 222.5 78.3701 222.898C78.8501 223.296 79.412 223.495 80.0559 223.495ZM91.0981 225.181V221.651H87.5685V219.895H91.0981V216.401H92.8542V219.895H96.3487V221.651H92.8542V225.181H91.0981ZM102.01 225.181V212.098H107.524C108.344 212.098 109.052 212.245 109.649 212.537C110.246 212.818 110.703 213.228 111.019 213.767C111.335 214.293 111.493 214.92 111.493 215.646C111.493 216.278 111.329 216.857 111.001 217.384C110.685 217.899 110.187 218.309 109.508 218.613V217.735C110.105 217.969 110.591 218.268 110.966 218.631C111.341 218.982 111.61 219.38 111.774 219.825C111.949 220.27 112.037 220.738 112.037 221.23C112.037 222.459 111.633 223.425 110.825 224.127C110.029 224.83 108.935 225.181 107.542 225.181H102.01ZM104.082 223.337H107.7C108.39 223.337 108.941 223.15 109.35 222.775C109.76 222.389 109.965 221.879 109.965 221.247C109.965 220.603 109.76 220.094 109.35 219.719C108.941 219.333 108.39 219.14 107.7 219.14H104.082V223.337ZM104.082 217.314H107.577C108.139 217.314 108.589 217.156 108.929 216.84C109.268 216.512 109.438 216.085 109.438 215.558C109.438 215.031 109.268 214.621 108.929 214.328C108.589 214.036 108.139 213.889 107.577 213.889H104.082V217.314ZM119.068 225.391C118.096 225.391 117.23 225.187 116.469 224.777C115.72 224.367 115.129 223.805 114.695 223.091C114.274 222.377 114.063 221.563 114.063 220.65V212.098H116.135V220.562C116.135 221.136 116.258 221.645 116.504 222.09C116.762 222.535 117.107 222.88 117.54 223.126C117.985 223.372 118.494 223.495 119.068 223.495C119.653 223.495 120.162 223.372 120.596 223.126C121.041 222.88 121.386 222.535 121.632 222.09C121.889 221.645 122.018 221.136 122.018 220.562V212.098H124.073V220.65C124.073 221.563 123.862 222.377 123.44 223.091C123.019 223.805 122.428 224.367 121.667 224.777C120.918 225.187 120.051 225.391 119.068 225.391ZM131.253 225.391C130.434 225.391 129.673 225.239 128.97 224.935C128.268 224.619 127.671 224.191 127.179 223.653C126.688 223.114 126.325 222.494 126.09 221.792L127.847 221.054C128.163 221.862 128.625 222.482 129.234 222.915C129.843 223.349 130.545 223.565 131.341 223.565C131.809 223.565 132.219 223.495 132.57 223.354C132.921 223.202 133.191 222.992 133.378 222.722C133.577 222.453 133.677 222.143 133.677 221.792C133.677 221.312 133.542 220.931 133.273 220.65C133.003 220.369 132.605 220.147 132.079 219.983L129.62 219.21C128.637 218.906 127.887 218.443 127.372 217.823C126.857 217.191 126.6 216.453 126.6 215.61C126.6 214.873 126.781 214.229 127.144 213.679C127.507 213.117 128.005 212.678 128.637 212.362C129.281 212.046 130.012 211.888 130.832 211.888C131.616 211.888 132.33 212.028 132.974 212.309C133.618 212.578 134.168 212.953 134.625 213.433C135.093 213.913 135.433 214.469 135.643 215.101L133.922 215.856C133.665 215.166 133.261 214.633 132.711 214.258C132.172 213.884 131.546 213.696 130.832 213.696C130.399 213.696 130.018 213.772 129.69 213.925C129.363 214.065 129.105 214.276 128.918 214.557C128.742 214.826 128.654 215.142 128.654 215.505C128.654 215.926 128.789 216.301 129.058 216.629C129.327 216.957 129.737 217.203 130.287 217.366L132.57 218.086C133.612 218.402 134.396 218.859 134.923 219.456C135.45 220.041 135.714 220.773 135.714 221.651C135.714 222.377 135.52 223.021 135.134 223.583C134.759 224.145 134.238 224.59 133.571 224.917C132.904 225.233 132.131 225.391 131.253 225.391ZM138.04 225.181V212.098H140.112V225.181H138.04ZM142.824 225.181V212.098H144.492L151.832 222.231L151.042 222.354V212.098H153.097V225.181H151.429L144.141 214.978L144.896 214.838V225.181H142.824ZM155.806 225.181V212.098H164.428V213.942H157.878V217.7H164.076V219.544H157.878V223.337H164.428V225.181H155.806ZM170.935 225.391C170.116 225.391 169.355 225.239 168.652 224.935C167.95 224.619 167.353 224.191 166.861 223.653C166.37 223.114 166.007 222.494 165.773 221.792L167.529 221.054C167.845 221.862 168.307 222.482 168.916 222.915C169.525 223.349 170.227 223.565 171.023 223.565C171.491 223.565 171.901 223.495 172.252 223.354C172.603 223.202 172.873 222.992 173.06 222.722C173.259 222.453 173.359 222.143 173.359 221.792C173.359 221.312 173.224 220.931 172.955 220.65C172.685 220.369 172.287 220.147 171.761 219.983L169.302 219.21C168.319 218.906 167.57 218.443 167.054 217.823C166.539 217.191 166.282 216.453 166.282 215.61C166.282 214.873 166.463 214.229 166.826 213.679C167.189 213.117 167.687 212.678 168.319 212.362C168.963 212.046 169.694 211.888 170.514 211.888C171.298 211.888 172.012 212.028 172.656 212.309C173.3 212.578 173.85 212.953 174.307 213.433C174.775 213.913 175.115 214.469 175.325 215.101L173.604 215.856C173.347 215.166 172.943 214.633 172.393 214.258C171.854 213.884 171.228 213.696 170.514 213.696C170.081 213.696 169.7 213.772 169.372 213.925C169.045 214.065 168.787 214.276 168.6 214.557C168.424 214.826 168.336 215.142 168.336 215.505C168.336 215.926 168.471 216.301 168.74 216.629C169.009 216.957 169.419 217.203 169.969 217.366L172.252 218.086C173.294 218.402 174.079 218.859 174.605 219.456C175.132 220.041 175.396 220.773 175.396 221.651C175.396 222.377 175.202 223.021 174.816 223.583C174.441 224.145 173.92 224.59 173.253 224.917C172.586 225.233 171.813 225.391 170.935 225.391ZM182.305 225.391C181.485 225.391 180.724 225.239 180.022 224.935C179.32 224.619 178.723 224.191 178.231 223.653C177.739 223.114 177.376 222.494 177.142 221.792L178.898 221.054C179.214 221.862 179.677 222.482 180.285 222.915C180.894 223.349 181.597 223.565 182.393 223.565C182.861 223.565 183.271 223.495 183.622 223.354C183.973 223.202 184.242 222.992 184.43 222.722C184.629 222.453 184.728 222.143 184.728 221.792C184.728 221.312 184.593 220.931 184.324 220.65C184.055 220.369 183.657 220.147 183.13 219.983L180.672 219.21C179.688 218.906 178.939 218.443 178.424 217.823C177.909 217.191 177.651 216.453 177.651 215.61C177.651 214.873 177.833 214.229 178.196 213.679C178.559 213.117 179.056 212.678 179.688 212.362C180.332 212.046 181.064 211.888 181.883 211.888C182.668 211.888 183.382 212.028 184.026 212.309C184.67 212.578 185.22 212.953 185.676 213.433C186.145 213.913 186.484 214.469 186.695 215.101L184.974 215.856C184.716 215.166 184.313 214.633 183.762 214.258C183.224 213.884 182.597 213.696 181.883 213.696C181.45 213.696 181.07 213.772 180.742 213.925C180.414 214.065 180.157 214.276 179.969 214.557C179.794 214.826 179.706 215.142 179.706 215.505C179.706 215.926 179.841 216.301 180.11 216.629C180.379 216.957 180.789 217.203 181.339 217.366L183.622 218.086C184.664 218.402 185.448 218.859 185.975 219.456C186.502 220.041 186.765 220.773 186.765 221.651C186.765 222.377 186.572 223.021 186.186 223.583C185.811 224.145 185.29 224.59 184.623 224.917C183.955 225.233 183.183 225.391 182.305 225.391ZM189.091 225.181V212.098H197.713V213.942H191.163V217.7H197.362V219.544H191.163V223.337H197.713V225.181H189.091ZM204.221 225.391C203.401 225.391 202.64 225.239 201.938 224.935C201.236 224.619 200.639 224.191 200.147 223.653C199.655 223.114 199.292 222.494 199.058 221.792L200.814 221.054C201.13 221.862 201.593 222.482 202.201 222.915C202.81 223.349 203.513 223.565 204.309 223.565C204.777 223.565 205.187 223.495 205.538 223.354C205.889 223.202 206.158 222.992 206.346 222.722C206.545 222.453 206.644 222.143 206.644 221.792C206.644 221.312 206.509 220.931 206.24 220.65C205.971 220.369 205.573 220.147 205.046 219.983L202.588 219.21C201.604 218.906 200.855 218.443 200.34 217.823C199.825 217.191 199.567 216.453 199.567 215.61C199.567 214.873 199.749 214.229 200.112 213.679C200.475 213.117 200.972 212.678 201.604 212.362C202.248 212.046 202.98 211.888 203.799 211.888C204.584 211.888 205.298 212.028 205.942 212.309C206.586 212.578 207.136 212.953 207.592 213.433C208.061 213.913 208.4 214.469 208.611 215.101L206.89 215.856C206.632 215.166 206.229 214.633 205.678 214.258C205.14 213.884 204.513 213.696 203.799 213.696C203.366 213.696 202.986 213.772 202.658 213.925C202.33 214.065 202.073 214.276 201.885 214.557C201.71 214.826 201.622 215.142 201.622 215.505C201.622 215.926 201.757 216.301 202.026 216.629C202.295 216.957 202.705 217.203 203.255 217.366L205.538 218.086C206.58 218.402 207.364 218.859 207.891 219.456C208.418 220.041 208.681 220.773 208.681 221.651C208.681 222.377 208.488 223.021 208.102 223.583C207.727 224.145 207.206 224.59 206.539 224.917C205.871 225.233 205.099 225.391 204.221 225.391Z" fill="#242424"/>
<path d="M196.355 15.9639V17.55V24.3868H214.524V41.506H223.494V17.55V15.9639H196.355Z" fill="#EE4523"/>
<path d="M147.354 76.1056C146.565 75.1495 145.426 74.541 144.185 74.413C142.944 74.2849 141.702 74.6477 140.73 75.4222C138.196 77.4622 134.495 80.4208 132.097 82.3335C130.405 83.6741 128.321 84.4412 126.155 84.5215L119.653 84.7316C119.524 84.7361 119.397 84.7067 119.284 84.6462C119.171 84.5857 119.077 84.4964 119.011 84.3876L118.285 83.1633C118.225 83.0662 118.19 82.956 118.184 82.8425C118.177 82.7289 118.199 82.6156 118.248 82.5124C118.295 82.4083 118.367 82.317 118.457 82.2463C118.548 82.1756 118.654 82.1277 118.768 82.1067L125.481 80.8554C127.848 80.4208 129.491 78.2052 129.222 75.8111C129.097 74.6986 128.56 73.6711 127.715 72.9256C126.871 72.1801 125.778 71.769 124.645 71.7712C124.581 71.7712 124.504 71.7712 124.416 71.7761L115.441 71.4115C111.858 71.2867 108.794 71.9663 105.197 73.6858L100.498 75.9389C100.181 75.2715 99.679 74.7072 99.0498 74.3122C98.4205 73.9172 97.6903 73.7078 96.9449 73.7087H91.7469C90.7065 73.7051 89.707 74.1094 88.9675 74.833C88.2279 75.5566 87.8086 76.5405 87.8013 77.5691V96.6906C87.8077 97.7215 88.2261 98.708 88.9653 99.4352C89.7044 100.162 90.7043 100.571 91.7469 100.572H96.9449C97.9863 100.571 98.9847 100.161 99.7218 99.434C100.459 98.7066 100.875 97.7203 100.879 96.6906V95.4004L105.87 94.4942C107.489 94.2572 108.502 94.1646 110.209 94.2406L123.862 94.8635C128.773 95.0773 133.588 93.4716 137.364 90.3606L146.818 82.6058C146.824 82.6008 146.831 82.5958 146.836 82.5906C147.748 81.8222 148.324 80.7342 148.441 79.5552C148.559 78.3762 148.211 77.1979 147.468 76.2678C147.435 76.2108 147.397 76.1566 147.354 76.1056ZM98.3392 96.6949C98.3392 97.0574 98.1936 97.405 97.9344 97.6614C97.6751 97.9177 97.3235 98.0617 96.9569 98.0617H91.7229C91.3563 98.0617 91.0047 97.9177 90.7454 97.6614C90.4862 97.405 90.3405 97.0574 90.3405 96.6949V77.5861C90.3405 77.2236 90.4862 76.8759 90.7454 76.6196C91.0047 76.3633 91.3563 76.2193 91.7229 76.2193H96.9569C97.3235 76.2193 97.6751 76.3633 97.9344 76.6196C98.1936 76.8759 98.3392 77.2236 98.3392 77.5861V96.6949ZM145.186 80.6819L135.74 88.4294C132.449 91.1404 128.253 92.5404 123.974 92.3557L110.321 91.7328C108.407 91.6475 107.232 91.7556 105.47 92.014C105.456 92.0161 105.447 92.0184 105.433 92.021L100.879 92.8481V78.5426L106.308 75.946C109.509 74.4162 112.21 73.811 115.347 73.9201L124.382 74.287C124.437 74.2893 124.492 74.288 124.547 74.2831C124.564 74.2816 124.605 74.2816 124.645 74.2816C125.151 74.2855 125.638 74.4709 126.016 74.8033C126.393 75.1357 126.636 75.5925 126.698 76.0886C126.761 76.6111 126.623 77.1378 126.31 77.5638C125.998 77.9898 125.535 78.2838 125.013 78.3873L118.294 79.6399C117.781 79.7363 117.298 79.9534 116.888 80.2727C116.478 80.5921 116.151 81.0044 115.935 81.4749C115.72 81.9454 115.622 82.4601 115.651 82.9758C115.679 83.4915 115.832 83.9929 116.097 84.4377L116.822 85.6598C117.119 86.1589 117.547 86.5692 118.061 86.8475C118.575 87.1258 119.155 87.2617 119.741 87.2409L126.241 87.031C128.957 86.9308 131.569 85.9693 133.69 84.2887C136.091 82.3733 139.795 79.4122 142.333 77.3697C142.773 77.0297 143.328 76.8675 143.884 76.9157C144.441 76.9639 144.958 77.2189 145.332 77.6293C145.363 77.6799 145.397 77.7284 145.435 77.7743C145.613 77.9811 145.747 78.2206 145.83 78.4788C145.914 78.7371 145.945 79.0091 145.921 79.2792C145.898 79.5494 145.821 79.8123 145.695 80.053C145.569 80.2937 145.396 80.5075 145.186 80.6819Z" fill="url(#paint0_linear_1_41)"/>
<path d="M128.212 71.1614C137.372 71.1614 144.824 63.7936 144.824 54.7373C144.824 45.681 137.372 38.3133 128.212 38.3133C119.056 38.3133 111.607 45.6812 111.607 54.7373C111.607 63.7935 119.056 71.1614 128.212 71.1614ZM128.212 40.8239C130.996 40.8226 133.717 41.6375 136.032 43.1656C138.347 44.6937 140.152 46.8662 141.218 49.4084C142.284 51.9507 142.563 54.7484 142.021 57.4478C141.479 60.1472 140.139 62.6269 138.171 64.5734C136.204 66.5198 133.696 67.8456 130.966 68.383C128.236 68.9204 125.406 68.6452 122.835 67.5923C120.263 66.5394 118.065 64.7561 116.518 62.4679C114.972 60.1797 114.146 57.4894 114.146 54.7373C114.15 51.0496 115.634 47.5141 118.27 44.9059C120.907 42.2977 124.482 40.8297 128.212 40.8239Z" fill="url(#paint1_linear_1_41)"/>
<path d="M126.09 55.0046H123.253C122.998 55.0074 122.749 55.0853 122.539 55.2283C122.329 55.3714 122.167 55.5731 122.073 55.8077C121.98 56.0423 121.959 56.2992 122.014 56.5456C122.068 56.7919 122.196 57.0165 122.381 57.1907L129.482 63.8275C129.726 64.0562 130.052 64.1795 130.389 64.1703C130.725 64.1611 131.044 64.0202 131.275 63.7786C131.506 63.5369 131.631 63.2144 131.622 62.8818C131.612 62.5493 131.47 62.234 131.225 62.0053L126.434 57.5293C127.778 57.4558 129.049 56.8975 130.005 55.9601C130.712 55.2369 131.219 54.3458 131.477 53.3727H133.178C133.515 53.3727 133.838 53.2404 134.076 53.005C134.314 52.7696 134.448 52.4503 134.448 52.1174C134.448 51.7844 134.314 51.4652 134.076 51.2297C133.838 50.9943 133.515 50.8621 133.178 50.8621H131.474C131.335 50.2386 131.087 49.6439 130.742 49.1046H133.178C133.515 49.1046 133.838 48.9724 134.076 48.737C134.314 48.5015 134.448 48.1823 134.448 47.8493C134.448 47.5164 134.314 47.1971 134.076 46.9617C133.838 46.7263 133.515 46.594 133.178 46.594H123.253C122.916 46.594 122.593 46.7263 122.355 46.9617C122.117 47.1971 121.983 47.5164 121.983 47.8493C121.983 48.1823 122.117 48.5015 122.355 48.737C122.593 48.9724 122.916 49.1046 123.253 49.1046H126.09C127.286 49.1046 128.32 49.8578 128.799 50.8621H123.253C122.916 50.8621 122.593 50.9943 122.355 51.2297C122.117 51.4652 121.983 51.7844 121.983 52.1174C121.983 52.4503 122.117 52.7696 122.355 53.005C122.593 53.2404 122.916 53.3727 123.253 53.3727H128.803C128.642 53.6624 128.444 53.9301 128.213 54.1692C127.933 54.4402 127.601 54.6536 127.236 54.797C126.872 54.9404 126.483 55.0109 126.09 55.0046Z" fill="url(#paint2_linear_1_41)"/>
<defs>
<linearGradient id="paint0_linear_1_41" x1="118.133" y1="38.3133" x2="128.407" y2="100.416" gradientUnits="userSpaceOnUse">
<stop stop-color="#EE4523"/>
<stop offset="1" stop-color="#EE4523" stop-opacity="0.42"/>
</linearGradient>
<linearGradient id="paint1_linear_1_41" x1="118.133" y1="38.3133" x2="128.407" y2="100.416" gradientUnits="userSpaceOnUse">
<stop stop-color="#EE4523"/>
<stop offset="1" stop-color="#EE4523" stop-opacity="0.42"/>
</linearGradient>
<linearGradient id="paint2_linear_1_41" x1="118.133" y1="38.3133" x2="128.407" y2="100.416" gradientUnits="userSpaceOnUse">
<stop stop-color="#EE4523"/>
<stop offset="1" stop-color="#EE4523" stop-opacity="0.42"/>
</linearGradient>
</defs>
</svg>
