<svg width="240" height="265" viewBox="0 0 240 265" fill="none" xmlns="http://www.w3.org/2000/svg">
<rect width="239.458" height="265" rx="25.5422" fill="white"/>
<path d="M44.0833 165.997C42.5135 165.997 41.0102 165.704 39.5735 165.119C38.1634 164.534 36.9395 163.709 35.9018 162.645C34.8908 161.554 34.199 160.263 33.8265 158.773L38.5358 157.097C38.9882 158.454 39.7198 159.465 40.7309 160.13C41.7419 160.769 42.8594 161.088 44.0833 161.088C45.0943 161.088 45.9856 160.875 46.7572 160.45C47.5554 159.997 48.1674 159.385 48.5931 158.614C49.0188 157.816 49.2316 156.898 49.2316 155.86C49.2316 154.822 49.0055 153.918 48.5532 153.146C48.1275 152.375 47.5288 151.776 46.7572 151.35C45.9856 150.898 45.0943 150.672 44.0833 150.672C43.0456 150.672 42.1011 150.898 41.2497 151.35C40.4249 151.802 39.8263 152.454 39.4538 153.306L35.0238 152.308L37.3785 135.785H53.5818V140.375H39.5336L41.569 138.02L39.8928 150.472L38.3363 149.195C39.0813 148.104 39.9859 147.306 41.0501 146.8C42.141 146.295 43.458 146.042 45.0012 146.042C46.9701 146.042 48.6729 146.468 50.1096 147.319C51.573 148.171 52.7038 149.328 53.502 150.791C54.3002 152.255 54.6992 153.944 54.6992 155.86C54.6992 157.776 54.2336 159.505 53.3024 161.048C52.3712 162.591 51.1074 163.802 49.511 164.68C47.9146 165.558 46.1054 165.997 44.0833 165.997ZM70.9119 165.997C68.5439 165.997 66.4686 165.358 64.686 164.081C62.9034 162.804 61.5065 161.008 60.4955 158.694C59.5111 156.379 59.0188 153.692 59.0188 150.632C59.0188 147.545 59.5111 144.858 60.4955 142.57C61.4799 140.282 62.8635 138.499 64.6461 137.222C66.4287 135.945 68.504 135.306 70.872 135.306C73.2932 135.306 75.3818 135.945 77.1378 137.222C78.9205 138.499 80.3173 140.295 81.3283 142.61C82.3394 144.898 82.8449 147.572 82.8449 150.632C82.8449 153.692 82.3394 156.379 81.3283 158.694C80.3439 160.982 78.9604 162.778 77.1777 164.081C75.3951 165.358 73.3065 165.997 70.9119 165.997ZM70.9518 161.048C72.3088 161.048 73.4661 160.636 74.424 159.811C75.3818 158.96 76.1135 157.762 76.619 156.219C77.1511 154.649 77.4172 152.787 77.4172 150.632C77.4172 148.477 77.1511 146.628 76.619 145.084C76.1135 143.515 75.3685 142.317 74.3841 141.492C73.4262 140.668 72.2555 140.255 70.872 140.255C69.5417 140.255 68.3976 140.668 67.4398 141.492C66.4819 142.317 65.737 143.515 65.2048 145.084C64.6993 146.628 64.4466 148.477 64.4466 150.632C64.4466 152.76 64.6993 154.609 65.2048 156.179C65.737 157.722 66.4819 158.92 67.4398 159.771C68.4242 160.622 69.5949 161.048 70.9518 161.048ZM89.1509 171.744V169.15C90.0289 168.937 90.734 168.525 91.2661 167.913C91.8249 167.327 92.1708 166.529 92.3038 165.518H89.9491V159.931H95.2172V163.363C95.2172 165.704 94.6984 167.58 93.6607 168.99C92.6497 170.4 91.1464 171.318 89.1509 171.744ZM113.433 165.997C111.065 165.997 108.99 165.358 107.207 164.081C105.424 162.804 104.027 161.008 103.016 158.694C102.032 156.379 101.54 153.692 101.54 150.632C101.54 147.545 102.032 144.858 103.016 142.57C104.001 140.282 105.384 138.499 107.167 137.222C108.95 135.945 111.025 135.306 113.393 135.306C115.814 135.306 117.903 135.945 119.659 137.222C121.441 138.499 122.838 140.295 123.849 142.61C124.86 144.898 125.366 147.572 125.366 150.632C125.366 153.692 124.86 156.379 123.849 158.694C122.865 160.982 121.481 162.778 119.699 164.081C117.916 165.358 115.827 165.997 113.433 165.997ZM113.473 161.048C114.83 161.048 115.987 160.636 116.945 159.811C117.903 158.96 118.634 157.762 119.14 156.219C119.672 154.649 119.938 152.787 119.938 150.632C119.938 148.477 119.672 146.628 119.14 145.084C118.634 143.515 117.889 142.317 116.905 141.492C115.947 140.668 114.776 140.255 113.393 140.255C112.063 140.255 110.919 140.668 109.961 141.492C109.003 142.317 108.258 143.515 107.726 145.084C107.22 146.628 106.967 148.477 106.967 150.632C106.967 152.76 107.22 154.609 107.726 156.179C108.258 157.722 109.003 158.92 109.961 159.771C110.945 160.622 112.116 161.048 113.473 161.048ZM141.689 165.997C139.321 165.997 137.246 165.358 135.463 164.081C133.681 162.804 132.284 161.008 131.273 158.694C130.288 156.379 129.796 153.692 129.796 150.632C129.796 147.545 130.288 144.858 131.273 142.57C132.257 140.282 133.641 138.499 135.423 137.222C137.206 135.945 139.281 135.306 141.649 135.306C144.07 135.306 146.159 135.945 147.915 137.222C149.698 138.499 151.095 140.295 152.106 142.61C153.117 144.898 153.622 147.572 153.622 150.632C153.622 153.692 153.117 156.379 152.106 158.694C151.121 160.982 149.738 162.778 147.955 164.081C146.172 165.358 144.084 165.997 141.689 165.997ZM141.729 161.048C143.086 161.048 144.243 160.636 145.201 159.811C146.159 158.96 146.891 157.762 147.396 156.219C147.928 154.649 148.194 152.787 148.194 150.632C148.194 148.477 147.928 146.628 147.396 145.084C146.891 143.515 146.146 142.317 145.161 141.492C144.203 140.668 143.033 140.255 141.649 140.255C140.319 140.255 139.175 140.668 138.217 141.492C137.259 142.317 136.514 143.515 135.982 145.084C135.477 146.628 135.224 148.477 135.224 150.632C135.224 152.76 135.477 154.609 135.982 156.179C136.514 157.722 137.259 158.92 138.217 159.771C139.201 160.622 140.372 161.048 141.729 161.048ZM169.946 165.997C167.578 165.997 165.502 165.358 163.72 164.081C161.937 162.804 160.54 161.008 159.529 158.694C158.545 156.379 158.052 153.692 158.052 150.632C158.052 147.545 158.545 144.858 159.529 142.57C160.514 140.282 161.897 138.499 163.68 137.222C165.462 135.945 167.538 135.306 169.906 135.306C172.327 135.306 174.415 135.945 176.171 137.222C177.954 138.499 179.351 140.295 180.362 142.61C181.373 144.898 181.879 147.572 181.879 150.632C181.879 153.692 181.373 156.379 180.362 158.694C179.377 160.982 177.994 162.778 176.211 164.081C174.429 165.358 172.34 165.997 169.946 165.997ZM169.985 161.048C171.342 161.048 172.5 160.636 173.458 159.811C174.415 158.96 175.147 157.762 175.653 156.219C176.185 154.649 176.451 152.787 176.451 150.632C176.451 148.477 176.185 146.628 175.653 145.084C175.147 143.515 174.402 142.317 173.418 141.492C172.46 140.668 171.289 140.255 169.906 140.255C168.575 140.255 167.431 140.668 166.473 141.492C165.516 142.317 164.771 143.515 164.238 145.084C163.733 146.628 163.48 148.477 163.48 150.632C163.48 152.76 163.733 154.609 164.238 156.179C164.771 157.722 165.516 158.92 166.473 159.771C167.458 160.622 168.629 161.048 169.985 161.048ZM195.009 165.518V157.776H187.267V153.266H195.009V145.563H199.519V153.266H207.221V157.776H199.519V165.518H195.009Z" fill="#03518F"/>
<path d="M25.1994 202.382C24.3166 202.382 23.4952 202.22 22.7353 201.896C21.9866 201.572 21.3329 201.125 20.7742 200.555C20.2266 199.974 19.7964 199.292 19.4835 198.51C19.1706 197.728 19.0142 196.867 19.0142 195.928C19.0142 195.001 19.165 194.146 19.4667 193.364C19.7796 192.57 20.2154 191.889 20.7742 191.319C21.3329 190.738 21.9866 190.291 22.7353 189.978C23.484 189.654 24.3054 189.492 25.1994 189.492C26.0822 189.492 26.87 189.643 27.5628 189.944C28.2668 190.246 28.8591 190.643 29.3396 191.135C29.8201 191.615 30.1665 192.14 30.3788 192.71L28.6021 193.548C28.3339 192.878 27.9036 192.336 27.3114 191.922C26.7303 191.498 26.0263 191.285 25.1994 191.285C24.3724 191.285 23.6405 191.481 23.0035 191.872C22.3666 192.263 21.8693 192.805 21.5117 193.498C21.1653 194.191 20.9921 195.001 20.9921 195.928C20.9921 196.856 21.1653 197.672 21.5117 198.376C21.8693 199.069 22.3666 199.611 23.0035 200.002C23.6405 200.382 24.3724 200.572 25.1994 200.572C26.0263 200.572 26.7303 200.365 27.3114 199.951C27.9036 199.538 28.3339 198.996 28.6021 198.325L30.3788 199.164C30.1665 199.722 29.8201 200.248 29.3396 200.739C28.8591 201.231 28.2668 201.628 27.5628 201.929C26.87 202.231 26.0822 202.382 25.1994 202.382ZM32.4128 202.181V189.693H34.3907V200.421H39.7881V202.181H32.4128ZM41.4486 202.181V189.693H43.4265V202.181H41.4486ZM46.0156 202.181V189.693H54.2458V191.453H47.9935V195.04H53.9105V196.8H47.9935V200.421H54.2458V202.181H46.0156ZM56.0827 202.181V189.693H57.675L64.6816 199.365L63.9273 199.482V189.693H65.8885V202.181H64.2961L57.3398 192.442L58.0606 192.308V202.181H56.0827ZM70.6867 202.181V191.453H67.3678V189.693H75.9165V191.453H72.6479V202.181H70.6867ZM81.7702 202.382C80.988 202.382 80.2616 202.237 79.5912 201.946C78.9207 201.644 78.3508 201.236 77.8814 200.722C77.4121 200.208 77.0657 199.616 76.8422 198.946L78.5184 198.242C78.8201 199.013 79.2615 199.605 79.8426 200.018C80.4237 200.432 81.0942 200.639 81.854 200.639C82.301 200.639 82.6921 200.572 83.0274 200.437C83.3626 200.292 83.6196 200.091 83.7984 199.834C83.9884 199.577 84.0834 199.281 84.0834 198.946C84.0834 198.487 83.9549 198.124 83.6979 197.856C83.4409 197.588 83.0609 197.376 82.558 197.219L80.2114 196.482C79.2727 196.191 78.5575 195.75 78.0658 195.157C77.5741 194.554 77.3283 193.85 77.3283 193.045C77.3283 192.341 77.5015 191.727 77.8479 191.202C78.1943 190.665 78.6693 190.246 79.2727 189.944C79.8873 189.643 80.5857 189.492 81.3679 189.492C82.1166 189.492 82.7983 189.626 83.4129 189.894C84.0275 190.151 84.5527 190.509 84.9885 190.967C85.4355 191.425 85.7596 191.956 85.9607 192.559L84.3181 193.28C84.0722 192.621 83.6867 192.112 83.1615 191.755C82.6474 191.397 82.0496 191.218 81.3679 191.218C80.9545 191.218 80.5913 191.291 80.2784 191.436C79.9655 191.57 79.7197 191.771 79.5409 192.04C79.3733 192.297 79.2894 192.598 79.2894 192.945C79.2894 193.347 79.418 193.705 79.675 194.018C79.932 194.33 80.3231 194.565 80.8483 194.722L83.0274 195.409C84.0219 195.711 84.7706 196.146 85.2735 196.716C85.7764 197.275 86.0278 197.973 86.0278 198.812C86.0278 199.504 85.8434 200.119 85.4746 200.655C85.1171 201.192 84.6198 201.616 83.9828 201.929C83.3459 202.231 82.6083 202.382 81.7702 202.382ZM91.1782 202.181V189.693H99.3078V191.453H93.1561V195.208H98.6373V196.968H93.1561V202.181H91.1782ZM100.967 202.181V189.693H105.509C106.348 189.693 107.085 189.849 107.722 190.162C108.359 190.464 108.856 190.911 109.214 191.503C109.583 192.084 109.767 192.783 109.767 193.599C109.767 194.459 109.549 195.197 109.113 195.811C108.689 196.426 108.113 196.873 107.387 197.152L110.27 202.181H108.024L104.956 196.733L106.247 197.487H102.945V202.181H100.967ZM102.945 195.727H105.543C106.001 195.727 106.398 195.638 106.733 195.459C107.068 195.28 107.325 195.035 107.504 194.722C107.694 194.398 107.789 194.018 107.789 193.582C107.789 193.146 107.694 192.772 107.504 192.459C107.325 192.135 107.068 191.889 106.733 191.721C106.398 191.542 106.001 191.453 105.543 191.453H102.945V195.727ZM118.002 202.382C117.097 202.382 116.253 202.22 115.471 201.896C114.7 201.572 114.018 201.119 113.426 200.538C112.845 199.957 112.387 199.275 112.052 198.493C111.728 197.711 111.566 196.856 111.566 195.928C111.566 195.001 111.728 194.146 112.052 193.364C112.387 192.57 112.845 191.889 113.426 191.319C114.007 190.738 114.689 190.291 115.471 189.978C116.253 189.654 117.097 189.492 118.002 189.492C118.919 189.492 119.762 189.654 120.533 189.978C121.315 190.291 121.997 190.738 122.578 191.319C123.17 191.9 123.629 192.582 123.953 193.364C124.277 194.146 124.439 195.001 124.439 195.928C124.439 196.856 124.271 197.711 123.936 198.493C123.612 199.275 123.159 199.957 122.578 200.538C121.997 201.119 121.315 201.572 120.533 201.896C119.751 202.22 118.907 202.382 118.002 202.382ZM118.002 200.572C118.65 200.572 119.243 200.454 119.779 200.22C120.327 199.985 120.801 199.661 121.204 199.247C121.606 198.823 121.919 198.331 122.142 197.772C122.366 197.202 122.478 196.588 122.478 195.928C122.478 195.269 122.366 194.66 122.142 194.101C121.919 193.543 121.606 193.051 121.204 192.626C120.801 192.202 120.327 191.872 119.779 191.637C119.243 191.403 118.65 191.285 118.002 191.285C117.354 191.285 116.756 191.403 116.209 191.637C115.672 191.872 115.203 192.202 114.801 192.626C114.398 193.051 114.085 193.543 113.862 194.101C113.65 194.66 113.543 195.269 113.543 195.928C113.543 196.588 113.65 197.202 113.862 197.772C114.085 198.331 114.398 198.823 114.801 199.247C115.203 199.661 115.678 199.985 116.225 200.22C116.773 200.454 117.365 200.572 118.002 200.572ZM126.65 202.181V189.693H128.494L133.187 196.197H132.266L136.875 189.693H138.719V202.181H136.758V192.023L137.495 192.224L132.785 198.661H132.584L127.974 192.224L128.628 192.023V202.181H126.65ZM147.55 202.181L143.124 189.693H145.253L148.874 200.354H148.455L152.059 189.693H154.187L149.762 202.181H147.55ZM153.715 202.181L158.107 189.693H160.554L164.946 202.181H162.834L161.878 199.381H156.8L155.827 202.181H153.715ZM157.369 197.621H161.275L159.062 191.084H159.616L157.369 197.621ZM166.427 202.181V189.693H170.97C171.808 189.693 172.545 189.849 173.182 190.162C173.819 190.464 174.317 190.911 174.674 191.503C175.043 192.084 175.227 192.783 175.227 193.599C175.227 194.459 175.01 195.197 174.574 195.811C174.149 196.426 173.574 196.873 172.847 197.152L175.73 202.181H173.484L170.417 196.733L171.707 197.487H168.405V202.181H166.427ZM168.405 195.727H171.003C171.462 195.727 171.858 195.638 172.193 195.459C172.529 195.28 172.786 195.035 172.965 194.722C173.155 194.398 173.25 194.018 173.25 193.582C173.25 193.146 173.155 192.772 172.965 192.459C172.786 192.135 172.529 191.889 172.193 191.721C171.858 191.542 171.462 191.453 171.003 191.453H168.405V195.727ZM177.395 202.181V189.693H179.373V202.181H177.395ZM188.03 202.382C187.124 202.382 186.281 202.22 185.499 201.896C184.727 201.572 184.046 201.119 183.454 200.538C182.872 199.957 182.414 199.275 182.079 198.493C181.755 197.711 181.593 196.856 181.593 195.928C181.593 195.001 181.755 194.146 182.079 193.364C182.414 192.57 182.872 191.889 183.454 191.319C184.035 190.738 184.716 190.291 185.499 189.978C186.281 189.654 187.124 189.492 188.03 189.492C188.946 189.492 189.79 189.654 190.561 189.978C191.343 190.291 192.025 190.738 192.606 191.319C193.198 191.9 193.656 192.582 193.98 193.364C194.304 194.146 194.466 195.001 194.466 195.928C194.466 196.856 194.299 197.711 193.963 198.493C193.639 199.275 193.187 199.957 192.606 200.538C192.025 201.119 191.343 201.572 190.561 201.896C189.778 202.22 188.935 202.382 188.03 202.382ZM188.03 200.572C188.678 200.572 189.27 200.454 189.806 200.22C190.354 199.985 190.829 199.661 191.231 199.247C191.633 198.823 191.946 198.331 192.17 197.772C192.393 197.202 192.505 196.588 192.505 195.928C192.505 195.269 192.393 194.66 192.17 194.101C191.946 193.543 191.633 193.051 191.231 192.626C190.829 192.202 190.354 191.872 189.806 191.637C189.27 191.403 188.678 191.285 188.03 191.285C187.381 191.285 186.784 191.403 186.236 191.637C185.7 191.872 185.23 192.202 184.828 192.626C184.426 193.051 184.113 193.543 183.889 194.101C183.677 194.66 183.571 195.269 183.571 195.928C183.571 196.588 183.677 197.202 183.889 197.772C184.113 198.331 184.426 198.823 184.828 199.247C185.23 199.661 185.705 199.985 186.253 200.22C186.8 200.454 187.393 200.572 188.03 200.572ZM201.354 202.382C200.427 202.382 199.6 202.186 198.873 201.795C198.158 201.404 197.594 200.868 197.18 200.186C196.778 199.504 196.577 198.728 196.577 197.856V189.693H198.555V197.772C198.555 198.32 198.672 198.806 198.907 199.231C199.153 199.655 199.482 199.985 199.896 200.22C200.321 200.454 200.807 200.572 201.354 200.572C201.913 200.572 202.399 200.454 202.813 200.22C203.237 199.985 203.567 199.655 203.801 199.231C204.047 198.806 204.17 198.32 204.17 197.772V189.693H206.131V197.856C206.131 198.728 205.93 199.504 205.528 200.186C205.126 200.868 204.561 201.404 203.835 201.795C203.12 202.186 202.293 202.382 201.354 202.382ZM212.986 202.382C212.203 202.382 211.477 202.237 210.807 201.946C210.136 201.644 209.566 201.236 209.097 200.722C208.628 200.208 208.281 199.616 208.058 198.946L209.734 198.242C210.036 199.013 210.477 199.605 211.058 200.018C211.639 200.432 212.31 200.639 213.069 200.639C213.516 200.639 213.908 200.572 214.243 200.437C214.578 200.292 214.835 200.091 215.014 199.834C215.204 199.577 215.299 199.281 215.299 198.946C215.299 198.487 215.17 198.124 214.913 197.856C214.656 197.588 214.276 197.376 213.773 197.219L211.427 196.482C210.488 196.191 209.773 195.75 209.281 195.157C208.79 194.554 208.544 193.85 208.544 193.045C208.544 192.341 208.717 191.727 209.063 191.202C209.41 190.665 209.885 190.246 210.488 189.944C211.103 189.643 211.801 189.492 212.583 189.492C213.332 189.492 214.014 189.626 214.628 189.894C215.243 190.151 215.768 190.509 216.204 190.967C216.651 191.425 216.975 191.956 217.176 192.559L215.533 193.28C215.288 192.621 214.902 192.112 214.377 191.755C213.863 191.397 213.265 191.218 212.583 191.218C212.17 191.218 211.807 191.291 211.494 191.436C211.181 191.57 210.935 191.771 210.756 192.04C210.589 192.297 210.505 192.598 210.505 192.945C210.505 193.347 210.633 193.705 210.89 194.018C211.147 194.33 211.539 194.565 212.064 194.722L214.243 195.409C215.237 195.711 215.986 196.146 216.489 196.716C216.992 197.275 217.243 197.973 217.243 198.812C217.243 199.504 217.059 200.119 216.69 200.655C216.332 201.192 215.835 201.616 215.198 201.929C214.561 202.231 213.824 202.382 212.986 202.382ZM70.6512 223.181V210.693H72.6291V223.181H70.6512ZM75.2182 223.181V210.693H76.8106L83.8172 220.365L83.0629 220.482V210.693H85.024V223.181H83.4316L76.4754 213.442L77.1962 213.308V223.181H75.2182ZM87.6097 223.181V210.693H91.6996C92.9959 210.693 94.119 210.956 95.0688 211.481C96.0298 211.995 96.773 212.721 97.2982 213.66C97.8234 214.599 98.086 215.688 98.086 216.928C98.086 218.158 97.8234 219.247 97.2982 220.197C96.773 221.136 96.0298 221.868 95.0688 222.393C94.119 222.918 92.9959 223.181 91.6996 223.181H87.6097ZM89.5876 221.421H91.7332C92.616 221.421 93.3814 221.236 94.0296 220.868C94.6889 220.499 95.1973 219.979 95.5549 219.309C95.9125 218.638 96.0913 217.845 96.0913 216.928C96.0913 216.012 95.9069 215.224 95.5382 214.565C95.1806 213.895 94.6777 213.375 94.0296 213.006C93.3814 212.637 92.616 212.453 91.7332 212.453H89.5876V221.421ZM104.711 223.382C103.783 223.382 102.956 223.186 102.23 222.795C101.515 222.404 100.95 221.868 100.537 221.186C100.134 220.504 99.9333 219.728 99.9333 218.856V210.693H101.911V218.772C101.911 219.32 102.029 219.806 102.263 220.231C102.509 220.655 102.839 220.985 103.252 221.22C103.677 221.454 104.163 221.572 104.711 221.572C105.269 221.572 105.755 221.454 106.169 221.22C106.593 220.985 106.923 220.655 107.158 220.231C107.404 219.806 107.527 219.32 107.527 218.772V210.693H109.488V218.856C109.488 219.728 109.287 220.504 108.884 221.186C108.482 221.868 107.918 222.404 107.191 222.795C106.476 223.186 105.649 223.382 104.711 223.382ZM116.342 223.382C115.56 223.382 114.833 223.237 114.163 222.946C113.492 222.644 112.922 222.236 112.453 221.722C111.984 221.208 111.637 220.616 111.414 219.946L113.09 219.242C113.392 220.013 113.833 220.605 114.414 221.018C114.995 221.432 115.666 221.639 116.426 221.639C116.873 221.639 117.264 221.572 117.599 221.437C117.934 221.292 118.191 221.091 118.37 220.834C118.56 220.577 118.655 220.281 118.655 219.946C118.655 219.487 118.527 219.124 118.27 218.856C118.013 218.588 117.633 218.376 117.13 218.219L114.783 217.482C113.844 217.191 113.129 216.75 112.638 216.157C112.146 215.554 111.9 214.85 111.9 214.045C111.9 213.341 112.073 212.727 112.42 212.202C112.766 211.665 113.241 211.246 113.844 210.944C114.459 210.643 115.157 210.492 115.94 210.492C116.688 210.492 117.37 210.626 117.985 210.894C118.599 211.151 119.124 211.509 119.56 211.967C120.007 212.425 120.331 212.956 120.532 213.559L118.89 214.28C118.644 213.621 118.258 213.112 117.733 212.755C117.219 212.397 116.621 212.218 115.94 212.218C115.526 212.218 115.163 212.291 114.85 212.436C114.537 212.57 114.291 212.771 114.113 213.04C113.945 213.297 113.861 213.598 113.861 213.945C113.861 214.347 113.99 214.705 114.247 215.018C114.504 215.33 114.895 215.565 115.42 215.722L117.599 216.409C118.594 216.711 119.342 217.146 119.845 217.716C120.348 218.275 120.6 218.973 120.6 219.812C120.6 220.504 120.415 221.119 120.046 221.655C119.689 222.192 119.191 222.616 118.555 222.929C117.918 223.231 117.18 223.382 116.342 223.382ZM125.032 223.181V212.453H121.714V210.693H130.262V212.453H126.994V223.181H125.032ZM131.741 223.181V210.693H136.284C137.122 210.693 137.859 210.849 138.496 211.162C139.133 211.464 139.63 211.911 139.988 212.503C140.357 213.084 140.541 213.783 140.541 214.599C140.541 215.459 140.323 216.197 139.887 216.811C139.463 217.426 138.887 217.873 138.161 218.152L141.044 223.181H138.798L135.73 217.733L137.021 218.487H133.719V223.181H131.741ZM133.719 216.727H136.317C136.775 216.727 137.172 216.638 137.507 216.459C137.842 216.28 138.099 216.035 138.278 215.722C138.468 215.398 138.563 215.018 138.563 214.582C138.563 214.146 138.468 213.772 138.278 213.459C138.099 213.135 137.842 212.889 137.507 212.721C137.172 212.542 136.775 212.453 136.317 212.453H133.719V216.727ZM142.708 223.181V210.693H144.686V223.181H142.708ZM147.275 223.181V210.693H155.506V212.453H149.253V216.04H155.17V217.8H149.253V221.421H155.506V223.181H147.275ZM161.717 223.382C160.935 223.382 160.209 223.237 159.538 222.946C158.868 222.644 158.298 222.236 157.829 221.722C157.359 221.208 157.013 220.616 156.789 219.946L158.466 219.242C158.767 220.013 159.209 220.605 159.79 221.018C160.371 221.432 161.041 221.639 161.801 221.639C162.248 221.639 162.639 221.572 162.974 221.437C163.31 221.292 163.567 221.091 163.746 220.834C163.936 220.577 164.031 220.281 164.031 219.946C164.031 219.487 163.902 219.124 163.645 218.856C163.388 218.588 163.008 218.376 162.505 218.219L160.158 217.482C159.22 217.191 158.505 216.75 158.013 216.157C157.521 215.554 157.275 214.85 157.275 214.045C157.275 213.341 157.449 212.727 157.795 212.202C158.141 211.665 158.616 211.246 159.22 210.944C159.834 210.643 160.533 210.492 161.315 210.492C162.064 210.492 162.745 210.626 163.36 210.894C163.975 211.151 164.5 211.509 164.936 211.967C165.383 212.425 165.707 212.956 165.908 213.559L164.265 214.28C164.019 213.621 163.634 213.112 163.109 212.755C162.595 212.397 161.997 212.218 161.315 212.218C160.902 212.218 160.538 212.291 160.226 212.436C159.913 212.57 159.667 212.771 159.488 213.04C159.32 213.297 159.237 213.598 159.237 213.945C159.237 214.347 159.365 214.705 159.622 215.018C159.879 215.33 160.27 215.565 160.795 215.722L162.974 216.409C163.969 216.711 164.718 217.146 165.221 217.716C165.723 218.275 165.975 218.973 165.975 219.812C165.975 220.504 165.791 221.119 165.422 221.655C165.064 222.192 164.567 222.616 163.93 222.929C163.293 223.231 162.555 223.382 161.717 223.382Z" fill="#242424"/>
<path d="M196.355 15.9639V17.55V24.3868H214.524V41.506H223.494V17.55V15.9639H196.355Z" fill="#EE4523"/>
<path d="M94.9942 69.932C90.6028 69.932 87.0304 66.336 87.0304 61.9172C87.0304 57.498 90.6028 53.9019 94.9942 53.9019C99.385 53.9019 102.957 57.4974 102.957 61.9172C102.957 66.3365 99.385 69.932 94.9942 69.932ZM94.9942 56.1514C91.8235 56.1514 89.2448 58.738 89.2448 61.9172C89.2448 65.0959 91.8235 67.6826 94.9942 67.6826C98.1638 67.6826 100.742 65.0959 100.742 61.9172C100.742 58.738 98.1638 56.1514 94.9942 56.1514Z" fill="url(#paint0_linear_1_47)"/>
<path d="M98.1978 92.1234H84.3095C82.7137 92.1234 81.4156 90.813 81.4156 89.2023V85.5233C81.4156 77.9918 87.5067 71.864 94.9942 71.864C97.9389 71.864 100.742 72.7976 103.098 74.5633C103.59 74.9323 103.695 75.6364 103.331 76.1367C102.968 76.6359 102.276 76.7424 101.783 76.3739C99.8105 74.8955 97.4631 74.1135 94.9942 74.1135C88.7279 74.1135 83.63 79.2324 83.63 85.5233V89.2023C83.63 89.5724 83.9349 89.8739 84.3095 89.8739H98.1984C98.8093 89.8739 99.3055 90.3775 99.3055 90.9987C99.3055 91.6192 98.8093 92.1234 98.1978 92.1234Z" fill="url(#paint1_linear_1_47)"/>
<path d="M147.166 91.2722H133.278C132.667 91.2722 132.171 90.7685 132.171 90.1474C132.171 89.5268 132.667 89.0227 133.278 89.0227H147.167C147.542 89.0227 147.846 88.7217 147.846 88.3516V84.6726C147.846 78.3806 142.748 73.2628 136.482 73.2628C133.865 73.2628 131.31 74.1783 129.288 75.8412C128.813 76.2317 128.116 76.1575 127.731 75.6748C127.346 75.1921 127.419 74.4836 127.895 74.0926C130.31 72.1073 133.36 71.0133 136.482 71.0133C143.969 71.0133 150.06 77.1406 150.06 84.6726V88.3516C150.06 89.9618 148.762 91.2722 147.166 91.2722Z" fill="url(#paint2_linear_1_47)"/>
<path d="M136.482 69.3762C132.091 69.3762 128.519 65.7807 128.519 61.3615C128.519 56.9422 132.091 53.3461 136.482 53.3461C140.873 53.3461 144.445 56.9416 144.445 61.3615C144.445 65.7813 140.873 69.3762 136.482 69.3762ZM136.482 55.5956C133.312 55.5956 130.733 58.1822 130.733 61.3615C130.733 64.5407 133.312 67.1268 136.482 67.1268C139.652 67.1268 142.231 64.5407 142.231 61.3615C142.231 58.1822 139.652 55.5956 136.482 55.5956Z" fill="url(#paint3_linear_1_47)"/>
<path d="M130.765 95.7831H100.711C98.7147 95.7831 97.0907 94.1455 97.0907 92.1322V86.9578C97.0907 76.6167 105.455 68.2037 115.738 68.2037C126.021 68.2037 134.385 76.6167 134.385 86.9578V92.1322C134.385 94.1455 132.761 95.7831 130.765 95.7831ZM115.738 70.4537C106.677 70.4537 99.305 77.8578 99.305 86.9583V92.1327C99.305 92.9054 99.9359 93.5342 100.711 93.5342H130.764C131.539 93.5342 132.17 92.9054 132.17 92.1327V86.9583C132.171 77.8578 124.799 70.4537 115.738 70.4537Z" fill="url(#paint4_linear_1_47)"/>
<path d="M115.353 66.8895C109.711 66.8895 105.12 62.2704 105.12 56.5918C105.12 50.9138 109.711 46.2952 115.353 46.2952C120.996 46.2952 125.586 50.9144 125.586 56.5924C125.586 62.2709 120.995 66.8895 115.353 66.8895ZM115.353 48.5446C110.932 48.5446 107.335 52.155 107.335 56.5924C107.335 61.0303 110.932 64.6406 115.353 64.6406C119.775 64.6406 123.372 61.0303 123.372 56.5924C123.372 52.155 119.775 48.5446 115.353 48.5446Z" fill="url(#paint5_linear_1_47)"/>
<defs>
<linearGradient id="paint0_linear_1_47" x1="115.738" y1="46.2952" x2="121.553" y2="96.3345" gradientUnits="userSpaceOnUse">
<stop stop-color="#EE4523"/>
<stop offset="1" stop-color="#EE4523" stop-opacity="0.42"/>
</linearGradient>
<linearGradient id="paint1_linear_1_47" x1="115.738" y1="46.2952" x2="121.553" y2="96.3345" gradientUnits="userSpaceOnUse">
<stop stop-color="#EE4523"/>
<stop offset="1" stop-color="#EE4523" stop-opacity="0.42"/>
</linearGradient>
<linearGradient id="paint2_linear_1_47" x1="115.738" y1="46.2952" x2="121.553" y2="96.3345" gradientUnits="userSpaceOnUse">
<stop stop-color="#EE4523"/>
<stop offset="1" stop-color="#EE4523" stop-opacity="0.42"/>
</linearGradient>
<linearGradient id="paint3_linear_1_47" x1="115.738" y1="46.2952" x2="121.553" y2="96.3345" gradientUnits="userSpaceOnUse">
<stop stop-color="#EE4523"/>
<stop offset="1" stop-color="#EE4523" stop-opacity="0.42"/>
</linearGradient>
<linearGradient id="paint4_linear_1_47" x1="115.738" y1="46.2952" x2="121.553" y2="96.3345" gradientUnits="userSpaceOnUse">
<stop stop-color="#EE4523"/>
<stop offset="1" stop-color="#EE4523" stop-opacity="0.42"/>
</linearGradient>
<linearGradient id="paint5_linear_1_47" x1="115.738" y1="46.2952" x2="121.553" y2="96.3345" gradientUnits="userSpaceOnUse">
<stop stop-color="#EE4523"/>
<stop offset="1" stop-color="#EE4523" stop-opacity="0.42"/>
</linearGradient>
</defs>
</svg>
