<svg width="240" height="265" viewBox="0 0 240 265" fill="none" xmlns="http://www.w3.org/2000/svg">
<rect width="239.458" height="265" rx="25.5422" fill="white"/>
<path d="M66.4749 165.518V140.415H60.7279V135.785H71.9026V165.518H66.4749ZM87.5201 165.997C85.9503 165.997 84.447 165.704 83.0103 165.119C81.6002 164.534 80.3763 163.709 79.3386 162.645C78.3276 161.554 77.6358 160.263 77.2633 158.773L81.9726 157.097C82.425 158.454 83.1566 159.465 84.1677 160.13C85.1787 160.769 86.2962 161.088 87.5201 161.088C88.5311 161.088 89.4224 160.875 90.194 160.45C90.9922 159.997 91.6042 159.385 92.0299 158.614C92.4556 157.816 92.6684 156.898 92.6684 155.86C92.6684 154.822 92.4423 153.918 91.99 153.146C91.5643 152.375 90.9656 151.776 90.194 151.35C89.4224 150.898 88.5311 150.672 87.5201 150.672C86.4824 150.672 85.5379 150.898 84.6865 151.35C83.8617 151.802 83.2631 152.454 82.8906 153.306L78.4606 152.308L80.8153 135.785H97.0186V140.375H82.9704L85.0058 138.02L83.3296 150.472L81.7731 149.195C82.5181 148.104 83.4227 147.306 84.487 146.8C85.5778 146.295 86.8948 146.042 88.438 146.042C90.4069 146.042 92.1097 146.468 93.5464 147.319C95.0098 148.171 96.1406 149.328 96.9388 150.791C97.737 152.255 98.1361 153.944 98.1361 155.86C98.1361 157.776 97.6704 159.505 96.7392 161.048C95.808 162.591 94.5442 163.802 92.9478 164.68C91.3514 165.558 89.5422 165.997 87.5201 165.997ZM114.349 165.997C111.981 165.997 109.905 165.358 108.123 164.081C106.34 162.804 104.943 161.008 103.932 158.694C102.948 156.379 102.456 153.692 102.456 150.632C102.456 147.545 102.948 144.858 103.932 142.57C104.917 140.282 106.3 138.499 108.083 137.222C109.866 135.945 111.941 135.306 114.309 135.306C116.73 135.306 118.819 135.945 120.575 137.222C122.357 138.499 123.754 140.295 124.765 142.61C125.776 144.898 126.282 147.572 126.282 150.632C126.282 153.692 125.776 156.379 124.765 158.694C123.781 160.982 122.397 162.778 120.615 164.081C118.832 165.358 116.743 165.997 114.349 165.997ZM114.389 161.048C115.746 161.048 116.903 160.636 117.861 159.811C118.819 158.96 119.55 157.762 120.056 156.219C120.588 154.649 120.854 152.787 120.854 150.632C120.854 148.477 120.588 146.628 120.056 145.084C119.55 143.515 118.805 142.317 117.821 141.492C116.863 140.668 115.692 140.255 114.309 140.255C112.978 140.255 111.834 140.668 110.877 141.492C109.919 142.317 109.174 143.515 108.642 145.084C108.136 146.628 107.883 148.477 107.883 150.632C107.883 152.76 108.136 154.609 108.642 156.179C109.174 157.722 109.919 158.92 110.877 159.771C111.861 160.622 113.032 161.048 114.389 161.048ZM142.605 165.997C140.237 165.997 138.162 165.358 136.379 164.081C134.597 162.804 133.2 161.008 132.189 158.694C131.204 156.379 130.712 153.692 130.712 150.632C130.712 147.545 131.204 144.858 132.189 142.57C133.173 140.282 134.557 138.499 136.339 137.222C138.122 135.945 140.197 135.306 142.565 135.306C144.986 135.306 147.075 135.945 148.831 137.222C150.614 138.499 152.01 140.295 153.021 142.61C154.033 144.898 154.538 147.572 154.538 150.632C154.538 153.692 154.033 156.379 153.021 158.694C152.037 160.982 150.654 162.778 148.871 164.081C147.088 165.358 145 165.997 142.605 165.997ZM142.645 161.048C144.002 161.048 145.159 160.636 146.117 159.811C147.075 158.96 147.807 157.762 148.312 156.219C148.844 154.649 149.11 152.787 149.11 150.632C149.11 148.477 148.844 146.628 148.312 145.084C147.807 143.515 147.062 142.317 146.077 141.492C145.119 140.668 143.949 140.255 142.565 140.255C141.235 140.255 140.091 140.668 139.133 141.492C138.175 142.317 137.43 143.515 136.898 145.084C136.392 146.628 136.14 148.477 136.14 150.632C136.14 152.76 136.392 154.609 136.898 156.179C137.43 157.722 138.175 158.92 139.133 159.771C140.117 160.622 141.288 161.048 142.645 161.048ZM167.669 165.518V157.776H159.926V153.266H167.669V145.563H172.178V153.266H179.881V157.776H172.178V165.518H167.669Z" fill="#03518F"/>
<path d="M43.4648 202.181V191.453H40.1459V189.693H48.6945V191.453H45.4259V202.181H43.4648ZM48.2322 202.181L52.6239 189.693H55.0712L59.4628 202.181H57.3508L56.3954 199.381H51.3165L50.3443 202.181H48.2322ZM51.8864 197.621H55.7919L53.5793 191.084H54.1325L51.8864 197.621ZM59.838 202.181L63.9112 195.861L59.9051 189.693H62.1512L65.5036 194.856H64.5481L67.867 189.693H70.1131L66.1238 195.861L70.197 202.181H67.9508L64.5481 196.884L65.5036 196.901L62.0674 202.181H59.838ZM74.5962 202.181V189.693H82.8264V191.453H76.5741V195.04H82.4911V196.8H76.5741V200.421H82.8264V202.181H74.5962ZM83.557 202.181L87.6301 195.861L83.624 189.693H85.8701L89.2225 194.856H88.2671L91.586 189.693H93.8321L89.8427 195.861L93.9159 202.181H91.6698L88.2671 196.884L89.2225 196.901L85.7863 202.181H83.557ZM95.3851 202.181V189.693H103.615V191.453H97.363V195.04H103.28V196.8H97.363V200.421H103.615V202.181H95.3851ZM105.452 202.181V189.693H107.296L111.989 196.197H111.067L115.677 189.693H117.521V202.181H115.56V192.023L116.297 192.224L111.587 198.661H111.386L106.776 192.224L107.43 192.023V202.181H105.452ZM120.103 202.181V189.693H124.645C125.483 189.693 126.221 189.849 126.858 190.162C127.506 190.464 128.009 190.911 128.366 191.503C128.724 192.084 128.903 192.783 128.903 193.599C128.903 194.403 128.718 195.096 128.349 195.677C127.992 196.258 127.495 196.705 126.858 197.018C126.221 197.331 125.483 197.487 124.645 197.487H122.08V202.181H120.103ZM122.08 195.727H124.695C125.142 195.727 125.533 195.638 125.869 195.459C126.204 195.28 126.467 195.035 126.657 194.722C126.846 194.398 126.941 194.018 126.941 193.582C126.941 193.146 126.846 192.772 126.657 192.459C126.467 192.135 126.204 191.889 125.869 191.721C125.533 191.542 125.142 191.453 124.695 191.453H122.08V195.727ZM133.152 202.181V191.453H129.833V189.693H138.381V191.453H135.113V202.181H133.152ZM139.86 202.181V189.693H141.838V202.181H139.86ZM150.495 202.382C149.59 202.382 148.746 202.22 147.964 201.896C147.193 201.572 146.511 201.119 145.919 200.538C145.338 199.957 144.88 199.275 144.544 198.493C144.22 197.711 144.058 196.856 144.058 195.928C144.058 195.001 144.22 194.146 144.544 193.364C144.88 192.57 145.338 191.889 145.919 191.319C146.5 190.738 147.182 190.291 147.964 189.978C148.746 189.654 149.59 189.492 150.495 189.492C151.411 189.492 152.255 189.654 153.026 189.978C153.808 190.291 154.49 190.738 155.071 191.319C155.663 191.9 156.121 192.582 156.446 193.364C156.77 194.146 156.932 195.001 156.932 195.928C156.932 196.856 156.764 197.711 156.429 198.493C156.105 199.275 155.652 199.957 155.071 200.538C154.49 201.119 153.808 201.572 153.026 201.896C152.244 202.22 151.4 202.382 150.495 202.382ZM150.495 200.572C151.143 200.572 151.735 200.454 152.272 200.22C152.819 199.985 153.294 199.661 153.697 199.247C154.099 198.823 154.412 198.331 154.635 197.772C154.859 197.202 154.97 196.588 154.97 195.928C154.97 195.269 154.859 194.66 154.635 194.101C154.412 193.543 154.099 193.051 153.697 192.626C153.294 192.202 152.819 191.872 152.272 191.637C151.735 191.403 151.143 191.285 150.495 191.285C149.847 191.285 149.249 191.403 148.701 191.637C148.165 191.872 147.696 192.202 147.293 192.626C146.891 193.051 146.578 193.543 146.355 194.101C146.142 194.66 146.036 195.269 146.036 195.928C146.036 196.588 146.142 197.202 146.355 197.772C146.578 198.331 146.891 198.823 147.293 199.247C147.696 199.661 148.171 199.985 148.718 200.22C149.266 200.454 149.858 200.572 150.495 200.572ZM159.143 202.181V189.693H160.735L167.742 199.365L166.988 199.482V189.693H168.949V202.181H167.356L160.4 192.442L161.121 192.308V202.181H159.143ZM176.677 202.181V191.453H173.358V189.693H181.907V191.453H178.638V202.181H176.677ZM188.946 202.382C188.041 202.382 187.197 202.22 186.415 201.896C185.644 201.572 184.962 201.119 184.37 200.538C183.789 199.957 183.331 199.275 182.996 198.493C182.672 197.711 182.51 196.856 182.51 195.928C182.51 195.001 182.672 194.146 182.996 193.364C183.331 192.57 183.789 191.889 184.37 191.319C184.951 190.738 185.633 190.291 186.415 189.978C187.197 189.654 188.041 189.492 188.946 189.492C189.863 189.492 190.706 189.654 191.477 189.978C192.26 190.291 192.941 190.738 193.522 191.319C194.115 191.9 194.573 192.582 194.897 193.364C195.221 194.146 195.383 195.001 195.383 195.928C195.383 196.856 195.215 197.711 194.88 198.493C194.556 199.275 194.103 199.957 193.522 200.538C192.941 201.119 192.26 201.572 191.477 201.896C190.695 202.22 189.851 202.382 188.946 202.382ZM188.946 200.572C189.594 200.572 190.187 200.454 190.723 200.22C191.271 199.985 191.746 199.661 192.148 199.247C192.55 198.823 192.863 198.331 193.086 197.772C193.31 197.202 193.422 196.588 193.422 195.928C193.422 195.269 193.31 194.66 193.086 194.101C192.863 193.543 192.55 193.051 192.148 192.626C191.746 192.202 191.271 191.872 190.723 191.637C190.187 191.403 189.594 191.285 188.946 191.285C188.298 191.285 187.7 191.403 187.153 191.637C186.616 191.872 186.147 192.202 185.745 192.626C185.342 193.051 185.03 193.543 184.806 194.101C184.594 194.66 184.488 195.269 184.488 195.928C184.488 196.588 184.594 197.202 184.806 197.772C185.03 198.331 185.342 198.823 185.745 199.247C186.147 199.661 186.622 199.985 187.169 200.22C187.717 200.454 188.309 200.572 188.946 200.572ZM90.8071 223.382C89.9243 223.382 89.1029 223.22 88.343 222.896C87.5943 222.572 86.9406 222.125 86.3819 221.555C85.8343 220.974 85.4041 220.292 85.0912 219.51C84.7783 218.728 84.6219 217.867 84.6219 216.928C84.6219 216.001 84.7727 215.146 85.0744 214.364C85.3873 213.57 85.8232 212.889 86.3819 212.319C86.9406 211.738 87.5943 211.291 88.343 210.978C89.0918 210.654 89.9131 210.492 90.8071 210.492C91.6899 210.492 92.4777 210.643 93.1705 210.944C93.8745 211.246 94.4668 211.643 94.9473 212.135C95.4278 212.615 95.7742 213.14 95.9865 213.71L94.2098 214.548C93.9416 213.878 93.5113 213.336 92.9191 212.922C92.338 212.498 91.634 212.285 90.8071 212.285C89.9801 212.285 89.2482 212.481 88.6112 212.872C87.9743 213.263 87.477 213.805 87.1194 214.498C86.773 215.191 86.5998 216.001 86.5998 216.928C86.5998 217.856 86.773 218.672 87.1194 219.376C87.477 220.069 87.9743 220.611 88.6112 221.002C89.2482 221.382 89.9801 221.572 90.8071 221.572C91.634 221.572 92.338 221.365 92.9191 220.951C93.5113 220.538 93.9416 219.996 94.2098 219.325L95.9865 220.164C95.7742 220.722 95.4278 221.248 94.9473 221.739C94.4668 222.231 93.8745 222.628 93.1705 222.929C92.4777 223.231 91.6899 223.382 90.8071 223.382ZM98.0205 223.181V210.693H99.9984V221.421H105.396V223.181H98.0205ZM107.056 223.181V210.693H109.034V223.181H107.056ZM111.623 223.181V210.693H119.853V212.453H113.601V216.04H119.518V217.8H113.601V221.421H119.853V223.181H111.623ZM121.69 223.181V210.693H123.283L130.289 220.365L129.535 220.482V210.693H131.496V223.181H129.904L122.948 213.442L123.668 213.308V223.181H121.69ZM136.294 223.181V212.453H132.976V210.693H141.524V212.453H138.256V223.181H136.294ZM147.378 223.382C146.596 223.382 145.869 223.237 145.199 222.946C144.528 222.644 143.958 222.236 143.489 221.722C143.02 221.208 142.673 220.616 142.45 219.946L144.126 219.242C144.428 220.013 144.869 220.605 145.45 221.018C146.031 221.432 146.702 221.639 147.462 221.639C147.909 221.639 148.3 221.572 148.635 221.437C148.97 221.292 149.227 221.091 149.406 220.834C149.596 220.577 149.691 220.281 149.691 219.946C149.691 219.487 149.563 219.124 149.306 218.856C149.049 218.588 148.669 218.376 148.166 218.219L145.819 217.482C144.88 217.191 144.165 216.75 143.674 216.157C143.182 215.554 142.936 214.85 142.936 214.045C142.936 213.341 143.109 212.727 143.456 212.202C143.802 211.665 144.277 211.246 144.88 210.944C145.495 210.643 146.193 210.492 146.976 210.492C147.724 210.492 148.406 210.626 149.021 210.894C149.635 211.151 150.16 211.509 150.596 211.967C151.043 212.425 151.367 212.956 151.568 213.559L149.926 214.28C149.68 213.621 149.294 213.112 148.769 212.755C148.255 212.397 147.657 212.218 146.976 212.218C146.562 212.218 146.199 212.291 145.886 212.436C145.573 212.57 145.327 212.771 145.149 213.04C144.981 213.297 144.897 213.598 144.897 213.945C144.897 214.347 145.026 214.705 145.283 215.018C145.54 215.33 145.931 215.565 146.456 215.722L148.635 216.409C149.63 216.711 150.378 217.146 150.881 217.716C151.384 218.275 151.635 218.973 151.635 219.812C151.635 220.504 151.451 221.119 151.082 221.655C150.725 222.192 150.227 222.616 149.591 222.929C148.954 223.231 148.216 223.382 147.378 223.382Z" fill="#242424"/>
<path d="M196.355 15.9639V17.55V24.3868H214.524V41.506H223.494V17.55V15.9639H196.355Z" fill="#EE4523"/>
<path d="M108.966 57.415C109.05 57.4469 109.137 57.4616 109.223 57.4616C109.521 57.4616 109.802 57.279 109.912 56.9824L110.763 54.6982H113.447L114.299 56.9824C114.441 57.3623 114.864 57.556 115.245 57.415C115.625 57.2729 115.818 56.8501 115.678 56.469L112.795 48.7387C112.687 48.4507 112.413 48.2608 112.107 48.2608C111.799 48.2608 111.524 48.452 111.418 48.7387L108.536 56.469C108.392 56.8501 108.586 57.2729 108.966 57.415ZM112.105 51.1002L112.898 53.2276H111.311L112.105 51.1002ZM101.308 48.9961C101.308 48.5904 101.638 48.2608 102.043 48.2608H107.94C108.346 48.2608 108.675 48.5904 108.675 48.9961C108.675 49.4017 108.346 49.7314 107.94 49.7314H105.727V56.7263C105.727 57.1319 105.397 57.4616 104.992 57.4616C104.586 57.4616 104.256 57.1319 104.256 56.7263V49.7314H102.043C101.636 49.7314 101.308 49.4017 101.308 48.9961ZM117.068 56.3587L119.088 52.8612L117.068 49.3637C116.865 49.012 116.986 48.5623 117.338 48.3588C117.69 48.1554 118.139 48.2767 118.343 48.6284L119.937 51.3906L121.531 48.6284C121.735 48.2767 122.185 48.1566 122.536 48.3588C122.888 48.5623 123.008 49.012 122.806 49.3637L120.786 52.8612L122.806 56.3587C123.009 56.7104 122.888 57.1601 122.536 57.3636C122.421 57.431 122.294 57.4616 122.17 57.4616C121.916 57.4616 121.669 57.3292 121.533 57.094L119.938 54.3318L118.342 57.094C118.206 57.3292 117.958 57.4616 117.704 57.4616C117.579 57.4616 117.453 57.4297 117.338 57.3636C116.986 57.1601 116.865 56.7104 117.068 56.3587ZM144.165 66.9504H139.21V52.7043H139.209C139.209 52.5132 139.135 52.3244 138.995 52.1847L128.532 41.7217C128.392 41.5808 128.204 41.5085 128.013 41.5085V41.506H96.1991C95.7935 41.506 95.4638 41.8357 95.4638 42.2413V60.4309L94.5398 58.8304C93.5448 57.1062 91.3316 56.5131 89.6062 57.5082C87.882 58.5045 87.2889 60.7177 88.284 62.4419L95.4626 74.8767V94.13C95.4626 94.5356 95.7922 94.8653 96.1979 94.8653H119.438V97.8677C119.438 99.3591 120.652 100.572 122.143 100.572H144.163C145.654 100.572 146.868 99.3591 146.868 97.8677V69.6562C146.87 68.1648 145.657 66.9504 144.165 66.9504ZM128.747 44.017L136.699 51.9691H128.747V44.017ZM96.9344 42.9766H127.275V52.7043C127.275 53.11 127.605 53.4396 128.01 53.4396H137.738V66.9516H122.145C121.031 66.9516 120.073 67.6281 119.659 68.5925H102.043C101.638 68.5925 101.308 68.9222 101.308 69.3278C101.308 69.7334 101.638 70.0631 102.043 70.0631H119.441V74.6941H103.699L96.9356 62.9799V42.9766H96.9344ZM101.687 82.7123L93.6882 68.8597L97.3964 66.7188L105.395 80.5727L101.687 82.7123ZM96.6611 65.4443L92.9529 67.5852L91.9297 65.8132L95.6378 63.6723L96.6611 65.4443ZM119.441 80.7945H107.133L107.131 80.7761C107.121 80.667 107.087 80.5653 107.034 80.4734L107.036 80.4722L104.548 76.1622H119.441V80.7945ZM105.767 82.0543L106.126 86.1216L102.783 83.7773L105.767 82.0543ZM107.67 86.8961L107.262 82.265H119.441V86.8961H107.67ZM90.3427 58.7827C91.3647 58.1932 92.6772 58.5437 93.2678 59.567L94.9038 62.4002L91.1956 64.5411L89.5596 61.7078C88.969 60.6846 89.3195 59.3733 90.3427 58.7827ZM96.9344 93.396V77.4244L100.78 84.0849L100.781 84.0836C100.834 84.1755 100.905 84.2564 100.994 84.3189L104.668 86.8949H102.043C101.638 86.8949 101.308 87.2245 101.308 87.6301C101.308 88.0358 101.638 88.3654 102.043 88.3654H119.441V93.3947H96.9344V93.396ZM145.399 97.8689C145.399 98.549 144.846 99.103 144.165 99.103H122.145C121.465 99.103 120.911 98.549 120.911 97.8689V69.6562C120.911 68.9761 121.465 68.4222 122.145 68.4222H144.165C144.846 68.4222 145.399 68.9761 145.399 69.6562V97.8689ZM142.849 70.2359H123.462C123.056 70.2359 122.726 70.5655 122.726 70.9711V75.9845C122.726 76.3902 123.056 76.7198 123.462 76.7198H142.851C143.256 76.7198 143.586 76.3902 143.586 75.9845V70.9711C143.585 70.5655 143.255 70.2359 142.849 70.2359ZM124.197 75.2492V71.7064H142.115V75.2492H124.197ZM127.863 79.2075H123.462C123.056 79.2075 122.726 79.5372 122.726 79.9428V83.2307C122.726 83.6363 123.056 83.966 123.462 83.966H127.863C128.269 83.966 128.599 83.6363 128.599 83.2307V79.9428C128.599 79.5372 128.269 79.2075 127.863 79.2075ZM127.128 82.4954H124.197V80.6781H127.128V82.4954ZM127.863 85.5321H123.462C123.056 85.5321 122.726 85.8618 122.726 86.2674V89.5553C122.726 89.961 123.056 90.2906 123.462 90.2906H127.863C128.269 90.2906 128.599 89.961 128.599 89.5553V86.2674C128.599 85.8618 128.269 85.5321 127.863 85.5321ZM127.128 88.8201H124.197V87.0027H127.128V88.8201ZM127.863 91.8568H123.462C123.056 91.8568 122.726 92.1864 122.726 92.592V95.88C122.726 96.2856 123.056 96.6153 123.462 96.6153H127.863C128.269 96.6153 128.599 96.2856 128.599 95.88V92.592C128.599 92.1852 128.269 91.8568 127.863 91.8568ZM127.128 95.1447H124.197V93.3273H127.128V95.1447ZM135.356 79.2075H130.954C130.548 79.2075 130.219 79.5372 130.219 79.9428V83.2307C130.219 83.6363 130.548 83.966 130.954 83.966H135.356C135.761 83.966 136.091 83.6363 136.091 83.2307V79.9428C136.091 79.5372 135.763 79.2075 135.356 79.2075ZM134.62 82.4954H131.689V80.6781H134.62V82.4954ZM135.356 85.5321H130.954C130.548 85.5321 130.219 85.8618 130.219 86.2674V89.5553C130.219 89.961 130.548 90.2906 130.954 90.2906H135.356C135.761 90.2906 136.091 89.961 136.091 89.5553V86.2674C136.091 85.8618 135.763 85.5321 135.356 85.5321ZM134.62 88.8201H131.689V87.0027H134.62V88.8201ZM135.356 91.8568H130.954C130.548 91.8568 130.219 92.1864 130.219 92.592V95.88C130.219 96.2856 130.548 96.6153 130.954 96.6153H135.356C135.761 96.6153 136.091 96.2856 136.091 95.88V92.592C136.091 92.1852 135.763 91.8568 135.356 91.8568ZM134.62 95.1447H131.689V93.3273H134.62V95.1447ZM142.849 79.2075H138.448C138.042 79.2075 137.712 79.5372 137.712 79.9428V83.2307C137.712 83.6363 138.042 83.966 138.448 83.966H142.849C143.255 83.966 143.585 83.6363 143.585 83.2307V79.9428C143.585 79.5372 143.255 79.2075 142.849 79.2075ZM142.114 82.4954H139.183V80.6781H142.114V82.4954ZM142.849 85.5321H138.448C138.042 85.5321 137.712 85.8618 137.712 86.2674V89.5553C137.712 89.961 138.042 90.2906 138.448 90.2906H142.849C143.255 90.2906 143.585 89.961 143.585 89.5553V86.2674C143.585 85.8618 143.255 85.5321 142.849 85.5321ZM142.114 88.8201H139.183V87.0027H142.114V88.8201ZM142.849 91.8568H138.448C138.042 91.8568 137.712 92.1864 137.712 92.592V95.88C137.712 96.2856 138.042 96.6153 138.448 96.6153H142.849C143.255 96.6153 143.585 96.2856 143.585 95.88V92.592C143.585 92.1852 143.255 91.8568 142.849 91.8568ZM142.114 95.1447H139.183V93.3273H142.114V95.1447ZM101.308 63.2262C101.308 62.8206 101.638 62.4909 102.043 62.4909H132.63C133.036 62.4909 133.366 62.8206 133.366 63.2262C133.366 63.6318 133.036 63.9615 132.63 63.9615H102.043C101.636 63.9615 101.308 63.6318 101.308 63.2262Z" fill="url(#paint0_linear_1_53)"/>
<defs>
<linearGradient id="paint0_linear_1_53" x1="117.334" y1="41.506" x2="126.844" y2="100.504" gradientUnits="userSpaceOnUse">
<stop stop-color="#EE4523"/>
<stop offset="1" stop-color="#EE4523" stop-opacity="0.42"/>
</linearGradient>
</defs>
</svg>
