<svg width="412" height="406" viewBox="0 0 412 406" fill="none" xmlns="http://www.w3.org/2000/svg">
<path d="M115.35 309.882C115.99 311.622 117.132 312.432 118.379 313.145C120.311 314.25 122.432 314.79 124.6 315.113C128.455 315.688 132.328 316.073 136.225 316.313C138.47 316.452 140.709 316.523 142.954 316.573C143.856 316.593 144.72 316.47 145.563 316.163C150.119 314.507 154.725 312.976 159.22 311.169C167.226 307.95 175.148 304.522 183.178 301.355C187.688 299.577 192.232 297.888 196.871 296.478C200.051 295.513 203.353 295.145 206.656 294.993C210.319 294.824 213.989 294.871 217.639 295.312C218.225 295.383 218.819 295.463 219.378 295.635C223.124 296.799 226.695 298.335 229.867 300.688C231.086 301.59 231.881 302.817 232.594 304.132C233.027 304.932 232.879 305.383 232.118 305.86C229.112 307.741 226.163 309.712 223.148 311.581C218.024 314.757 212.966 318.044 207.704 320.998C202.026 324.183 196.24 327.156 190.391 330.006C182.15 334.025 173.907 338.041 165.611 341.942C159.62 344.759 153.531 347.366 147.504 350.111C145.731 350.918 144.024 351.872 142.286 352.757C139.443 354.206 139.444 354.194 136.407 353.699C125.094 351.855 113.889 349.528 102.79 346.645C97.5621 345.288 92.6343 343.118 87.4759 341.602C80.4475 339.537 73.6135 336.834 66.4517 335.203C64.7244 334.81 62.9986 334.404 61.2917 333.936C59.715 333.503 59.7385 333.444 59.6068 331.902C59.169 326.793 58.6356 321.69 58.2811 316.576C57.8261 310.032 57.6818 303.47 57.9516 296.918C57.9971 295.831 57.688 293.075 58.1932 289.489C58.2779 288.884 58.3626 288.397 58.4176 288.099C65.7222 289.481 71.6634 289.848 75.6248 289.94C84.1688 290.136 86.7778 289.276 98.414 289.114C100.284 289.089 105.985 289.047 113.254 289.672C119.896 290.244 120.806 290.767 133.268 292.755C146.41 294.852 155.011 295.803 156.148 299.447C156.31 299.969 156.73 302.026 156.258 304.362C155.895 306.153 154.987 307.356 153.321 308.055C152.108 308.565 150.817 308.772 149.542 308.976C146.859 309.407 144.148 309.711 141.434 309.731C133.916 309.786 126.398 309.73 118.88 309.734C117.772 309.736 116.666 309.824 115.35 309.882ZM50.0038 285.274C50.0038 280.903 50.0148 276.53 49.9975 272.159C49.9928 270.83 49.8516 270.744 48.5463 270.931C47.1453 271.131 45.7443 271.325 44.3418 271.513C40.3067 272.057 36.2731 272.593 32.2396 273.137C27.737 273.741 23.2391 274.381 18.7082 274.738C17.0782 274.866 17.0154 274.876 17.0091 276.497C16.9668 285.942 17.0468 295.378 17.5974 304.818C18.0085 311.881 18.1779 318.958 18.727 326.016C19.0565 330.248 19.24 334.492 19.5585 338.724C19.6464 339.897 19.797 341.068 19.855 342.247C19.9052 343.285 20.15 343.471 21.187 343.415C21.893 343.377 22.5927 343.228 23.2987 343.201C28.9183 342.99 34.5301 343.358 40.1404 343.571C42.8514 343.676 45.5514 344.018 48.2561 344.267C49.0766 344.342 49.8924 344.482 50.7145 344.568C51.4016 344.638 51.6087 344.373 51.5381 343.635C51.2338 340.408 50.9592 337.176 50.7631 333.94C50.4854 329.348 50.2344 324.753 50.0665 320.156C49.8861 315.201 49.7998 310.242 49.7057 305.285C49.6571 302.69 49.7967 300.096 49.8751 297.501C49.9975 293.429 49.9081 289.349 49.9081 285.274C49.9394 285.274 49.9724 285.274 50.0038 285.274Z" fill="url(#paint0_linear_362_12230)"/>
<path d="M165.927 226.077C160.024 226.077 154.972 223.968 150.768 219.75C146.565 215.532 144.463 210.462 144.463 204.538C144.463 198.615 146.565 193.545 150.768 189.327C154.972 185.109 160.024 183 165.927 183C171.829 183 176.882 185.109 181.085 189.327C185.289 193.545 187.39 198.615 187.39 204.538C187.39 210.462 185.289 215.532 181.085 219.75C176.882 223.968 171.829 226.077 165.927 226.077ZM225.488 288L208.317 270.769C206.439 271.846 204.427 272.744 202.28 273.462C200.134 274.179 197.854 274.538 195.439 274.538C188.732 274.538 183.031 272.184 178.338 267.474C173.645 262.764 171.296 257.042 171.293 250.308C171.289 243.573 173.638 237.853 178.338 233.147C183.039 228.441 188.739 226.084 195.439 226.077C202.139 226.07 207.841 228.426 212.545 233.147C217.249 237.867 219.596 243.588 219.585 250.308C219.585 252.731 219.228 255.019 218.512 257.173C217.797 259.327 216.902 261.346 215.829 263.231L233 280.462L225.488 288ZM195.439 263.769C199.195 263.769 202.37 262.468 204.963 259.865C207.557 257.263 208.854 254.077 208.854 250.308C208.854 246.538 207.557 243.353 204.963 240.75C202.37 238.147 199.195 236.846 195.439 236.846C191.683 236.846 188.508 238.147 185.915 240.75C183.321 243.353 182.024 246.538 182.024 250.308C182.024 254.077 183.321 257.263 185.915 259.865C188.508 262.468 191.683 263.769 195.439 263.769ZM166.061 231.462C162.305 237.026 160.427 243.308 160.427 250.308C160.427 257.308 162.305 263.59 166.061 269.154H123V254.212C123 251.16 123.76 248.333 125.28 245.731C126.801 243.128 128.902 241.154 131.585 239.808C136.146 237.474 141.289 235.5 147.012 233.885C152.736 232.269 159.085 231.462 166.061 231.462Z" fill="url(#paint1_linear_362_12230)"/>
<g filter="url(#filter0_d_362_12230)">
<path d="M64.1971 42V60.5773V140.652H269.214V341.159H370.433V60.5773V42H64.1971Z" fill="url(#paint2_linear_362_12230)" shape-rendering="crispEdges"/>
<path d="M64.1971 41.2877H63.4848V42V60.5773V140.652V141.364H64.1971H268.502V341.159V341.871H269.214H370.433H371.145V341.159V60.5773V42V41.2877H370.433H64.1971Z" stroke="#FE7E65" stroke-opacity="0.5" stroke-width="1.42457" shape-rendering="crispEdges"/>
</g>
<defs>
<filter id="filter0_d_362_12230" x="0.0916262" y="0.687594" width="411.654" height="404.577" filterUnits="userSpaceOnUse" color-interpolation-filters="sRGB">
<feFlood flood-opacity="0" result="BackgroundImageFix"/>
<feColorMatrix in="SourceAlpha" type="matrix" values="0 0 0 0 0 0 0 0 0 0 0 0 0 0 0 0 0 0 127 0" result="hardAlpha"/>
<feOffset dx="-11.3965" dy="11.3965"/>
<feGaussianBlur stdDeviation="25.6422"/>
<feComposite in2="hardAlpha" operator="out"/>
<feColorMatrix type="matrix" values="0 0 0 0 0.179861 0 0 0 0 0.194444 0 0 0 0 0.233333 0 0 0 1 0"/>
<feBlend mode="normal" in2="BackgroundImageFix" result="effect1_dropShadow_362_12230"/>
<feBlend mode="normal" in="SourceGraphic" in2="effect1_dropShadow_362_12230" result="shape"/>
</filter>
<linearGradient id="paint0_linear_362_12230" x1="124.917" y1="270.857" x2="130.187" y2="355.735" gradientUnits="userSpaceOnUse">
<stop stop-color="#EE4523"/>
<stop offset="1" stop-color="#EE4523" stop-opacity="0.42"/>
</linearGradient>
<linearGradient id="paint1_linear_362_12230" x1="178" y1="183" x2="194.173" y2="288.115" gradientUnits="userSpaceOnUse">
<stop stop-color="#EE4523"/>
<stop offset="1" stop-color="#EE4523" stop-opacity="0.42"/>
</linearGradient>
<linearGradient id="paint2_linear_362_12230" x1="217.315" y1="42" x2="264.423" y2="341.159" gradientUnits="userSpaceOnUse">
<stop stop-color="#EE4523"/>
<stop offset="1" stop-color="#EE4523" stop-opacity="0.42"/>
</linearGradient>
</defs>
</svg>
