<svg width="176" height="156" viewBox="0 0 176 156" fill="none" xmlns="http://www.w3.org/2000/svg">
<path d="M48.4192 133.882C48.7343 134.739 49.2966 135.137 49.9106 135.488C50.8614 136.032 51.9057 136.298 52.9731 136.457C54.8708 136.74 56.7778 136.93 58.6963 137.048C59.8016 137.117 60.9038 137.151 62.009 137.176C62.4531 137.186 62.8787 137.125 63.2935 136.974C65.5364 136.159 67.8041 135.405 70.0169 134.516C73.9583 132.931 77.8588 131.243 81.8118 129.684C84.0324 128.809 86.2691 127.977 88.553 127.283C90.1186 126.808 91.7445 126.627 93.3703 126.552C95.1738 126.469 96.9804 126.492 98.7777 126.709C99.0658 126.744 99.3585 126.783 99.6334 126.868C101.478 127.441 103.236 128.197 104.798 129.356C105.398 129.8 105.789 130.404 106.14 131.051C106.353 131.445 106.28 131.667 105.906 131.902C104.426 132.828 102.974 133.798 101.489 134.719C98.9669 136.282 96.4768 137.9 93.8862 139.354C91.091 140.922 88.2425 142.386 85.3632 143.789C81.3059 145.768 77.2479 147.745 73.1636 149.665C70.2139 151.052 67.2163 152.336 64.2489 153.687C63.3761 154.084 62.5358 154.554 61.68 154.99C60.2805 155.703 60.2812 155.697 58.7859 155.454C53.2164 154.546 47.7001 153.4 42.2356 151.981C39.6621 151.313 37.236 150.245 34.6965 149.498C31.2363 148.481 27.8718 147.151 24.346 146.348C23.4956 146.154 22.646 145.955 21.8056 145.724C21.0294 145.511 21.041 145.482 20.9761 144.723C20.7606 142.207 20.498 139.695 20.3235 137.178C20.0995 133.956 20.0284 130.725 20.1613 127.5C20.1837 126.964 20.0315 125.608 20.2802 123.842C20.3219 123.544 20.3636 123.305 20.3907 123.158C23.9868 123.838 26.9118 124.019 28.862 124.064C33.0683 124.161 34.3528 123.737 40.0815 123.658C41.0021 123.645 43.8089 123.625 47.3873 123.932C50.6575 124.214 51.1055 124.472 57.2404 125.45C63.7105 126.482 67.9447 126.951 68.5046 128.745C68.5842 129.002 68.7912 130.014 68.5587 131.164C68.3803 132.046 67.9331 132.638 67.1128 132.982C66.5158 133.234 65.8801 133.336 65.2522 133.436C63.9314 133.648 62.5968 133.798 61.2606 133.808C57.5594 133.835 53.8582 133.807 50.157 133.809C49.6117 133.81 49.0672 133.853 48.4192 133.882ZM16.2484 121.767C16.2484 119.615 16.2539 117.462 16.2454 115.31C16.243 114.656 16.1735 114.614 15.5309 114.706C14.8412 114.804 14.1515 114.9 13.461 114.993C11.4744 115.26 9.48867 115.524 7.50291 115.792C5.28621 116.089 3.07183 116.404 0.841225 116.58C0.0387336 116.643 0.00783887 116.648 0.00474919 117.446C-0.0161046 122.096 0.023286 126.742 0.294388 131.389C0.496749 134.866 0.580164 138.35 0.850494 141.825C1.01269 143.908 1.10306 145.998 1.25985 148.081C1.3031 148.659 1.37725 149.235 1.40583 149.816C1.43054 150.326 1.55103 150.418 2.06157 150.391C2.40914 150.372 2.75361 150.299 3.10118 150.286C5.86781 150.181 8.63057 150.363 11.3926 150.468C12.7272 150.519 14.0565 150.687 15.388 150.81C15.792 150.847 16.1936 150.916 16.5983 150.958C16.9366 150.993 17.0386 150.863 17.0038 150.499C16.854 148.91 16.7188 147.319 16.6223 145.726C16.4856 143.466 16.362 141.203 16.2793 138.94C16.1905 136.5 16.148 134.059 16.1017 131.619C16.0778 130.341 16.1465 129.064 16.1851 127.787C16.2454 125.782 16.2013 123.773 16.2013 121.767C16.2168 121.767 16.233 121.767 16.2484 121.767Z" fill="url(#paint0_linear_1101_65)"/>
<path d="M23.2358 2V11.1458V50.5676H124.168V149.28H174V11.1458V2H23.2358Z" fill="url(#paint1_linear_1101_65)"/>
<path d="M23.2358 1.28772H22.5236V2V11.1458V50.5676V51.2799H23.2358H123.456V149.28V149.992H124.168H174H174.712V149.28V11.1458V2V1.28772H174H23.2358Z" stroke="#FE7E65" stroke-opacity="0.5" stroke-width="1.42457"/>
<path d="M92.1396 104.791L91.5411 106.166L91.5366 106.164C91.8036 106.284 92.0331 106.591 92.0323 107.005V107.007V116.839C92.0323 117.413 91.6149 117.725 91.2831 117.725H78.2173V119.225H91.2831C92.5254 119.225 93.5323 118.157 93.5323 116.839V107.007C93.5341 106.032 92.9834 105.163 92.1396 104.791ZM92.1396 104.791L91.5339 106.163L82.042 102.032L82.042 102.032L78.0252 100.284C77.5055 100.058 77.1576 99.5581 77.1261 98.9921C77.0947 98.4262 77.3849 97.8908 77.8763 97.6083C79.3567 96.7574 80.5825 95.4298 81.3922 93.8019L81.3926 93.801C82.0692 92.443 82.4158 90.9753 82.415 89.4956V89.4948C82.415 88.6576 82.2695 87.8338 82.044 86.9811M92.1396 104.791L82.6406 100.657L80.2777 99.6286C79.9855 99.8361 79.6832 100.03 79.3713 100.209L78.6238 98.9088L79.2224 97.5334L80.0627 97.8991C81.1629 96.9713 82.0732 95.8008 82.7352 94.4699C83.5136 92.9075 83.9159 91.211 83.915 89.4948C83.915 88.4837 83.7391 87.5236 83.494 86.5972C82.2991 82.1079 78.4564 78.8008 73.8434 78.8008C69.3177 78.8008 65.5332 81.9901 64.2643 86.3515C63.9713 87.352 63.7699 88.3924 63.7699 89.4948C63.7699 91.409 64.26 93.1938 65.0929 94.7461C65.7656 96.0046 66.6654 97.1088 67.7393 97.9856L68.6335 97.6057L69.22 98.9863L68.4976 100.301C68.1647 100.118 67.8423 99.9185 67.531 99.7038L65.3731 100.62M65.3731 100.62L55.5659 104.788M65.3731 100.62L65.9596 102.001L56.1556 106.167L55.5659 104.788M65.3731 100.62L65.9597 102.001L69.8065 100.367C70.3352 100.142 70.6892 99.6355 70.7181 99.0618C70.747 98.4881 70.4458 97.9483 69.9424 97.6717C68.4768 96.8663 67.2506 95.6008 66.4157 94.0389L66.4146 94.0369C65.6929 92.6917 65.2699 91.1494 65.2699 89.4948C65.2699 88.5767 65.4373 87.6834 65.7038 86.773L65.7046 86.7705C66.8108 82.9683 70.0658 80.3008 73.8434 80.3008C77.694 80.3008 81.0013 83.0671 82.044 86.9811M55.5659 104.788C54.7143 105.152 54.1544 106.028 54.1544 107.007V116.839C54.1544 118.156 55.1607 119.224 56.403 119.224H69.4688V117.724M55.5659 104.788L56.1525 106.168L56.1544 106.167C55.8911 106.281 55.6544 106.59 55.6544 107.007V116.839C55.6544 117.413 56.0717 117.724 56.403 117.724H69.4688M69.4688 117.724H70.9688V111.697C70.9705 111.646 70.9819 111.596 71.0022 111.548L70.9216 111.695L70.9208 111.697L70.3195 112.793L70.3134 112.79C69.9504 112.59 69.6859 112.25 69.5824 111.849C69.5694 111.799 69.5591 111.748 69.5515 111.697C69.5491 111.681 69.547 111.665 69.5451 111.649C69.5153 111.395 69.5511 111.138 69.6487 110.901M69.4688 117.724V111.697C69.4688 111.68 69.4691 111.663 69.4696 111.647C69.4784 111.384 69.5412 111.131 69.6487 110.901M69.6487 110.901C69.6851 110.823 69.7267 110.748 69.7731 110.676C69.7815 110.663 69.7901 110.65 69.7989 110.637L71.0352 111.474L71.7564 110.159L71.7624 110.163C71.7879 110.177 71.8128 110.191 71.8373 110.207L73.4119 107.718C73.2305 107.678 73.0534 107.613 72.8865 107.522L72.8864 107.522C72.6537 107.396 72.4423 107.221 72.2721 107.002C72.2587 106.986 72.2455 106.97 72.2326 106.953C72.2285 106.948 72.2245 106.942 72.2205 106.937L72.1629 106.9C72.1679 106.892 72.1729 106.884 72.1781 106.877C72.1767 106.875 72.1753 106.872 72.174 106.87M69.6487 110.901C69.6813 110.822 69.721 110.746 69.7674 110.672L72.1531 106.903C72.1599 106.892 72.1669 106.881 72.174 106.87M72.174 106.87C72.1746 106.869 72.1753 106.868 72.1759 106.867C72.1709 106.86 72.166 106.852 72.1611 106.844C72.1572 106.838 72.1533 106.832 72.1495 106.826L72.1467 106.828L72.1402 106.818L72.1582 106.846C72.1634 106.854 72.1686 106.862 72.174 106.87ZM82.044 86.9811C82.0442 86.9817 82.0443 86.9824 82.0445 86.983L83.4938 86.5972L82.0439 86.9808C82.044 86.9809 82.044 86.981 82.044 86.9811ZM73.4 106.003L73.3312 106.047C73.3187 106.05 73.3062 106.054 73.2938 106.057C73.2914 106.058 73.289 106.059 73.2867 106.059C72.9155 106.167 72.5936 106.378 72.3507 106.652C72.3469 106.656 72.3431 106.66 72.3393 106.665C72.3295 106.675 72.3197 106.685 72.3101 106.696L72.1339 106.808L72.1394 106.817L72.1251 106.794L69.771 103.074C69.743 103.03 69.7177 102.985 69.6949 102.939M73.4 106.003L73.3351 106.046C73.3615 106.039 73.3881 106.033 73.4149 106.027L73.4 106.003ZM73.4 106.003L73.3927 105.992L71.5654 103.104H71.4577C71.4913 103.104 71.526 103.102 71.5613 103.098L71.4577 102.934L71.0386 102.272L71.0381 102.272L69.7988 103.111C69.7902 103.098 69.7817 103.085 69.7733 103.072C69.7454 103.029 69.7192 102.984 69.6949 102.939M69.6949 102.939C69.5616 102.671 69.5154 102.378 69.5489 102.096C69.5507 102.081 69.5527 102.066 69.555 102.05C69.6146 101.652 69.8337 101.279 70.1913 101.034L70.1937 101.032L70.8906 102.05L70.8923 102.053L71.041 102.27C70.9962 102.204 70.9713 102.128 70.9688 102.05C70.9688 101.804 71.1878 101.604 71.4577 101.604H72.0245H72.0933L72.3061 101.47L72.3395 101.523C72.3222 101.49 72.3034 101.459 72.2831 101.429C72.3099 101.469 72.3345 101.509 72.3571 101.55L72.3913 101.604H75.3013L75.3085 101.593C75.3391 101.533 75.3739 101.474 75.4128 101.418C75.3822 101.462 75.3546 101.509 75.3305 101.558L75.3856 101.471L75.5961 101.604H75.6833H76.229C76.499 101.604 76.7179 101.804 76.7179 102.05C76.7174 102.1 76.7071 102.149 76.6879 102.195L76.7668 102.051L76.7672 102.05L77.3668 100.954L77.3729 100.958C77.7365 101.156 78.0016 101.497 78.1053 101.898C78.1184 101.949 78.1287 101.999 78.1364 102.05C78.1372 102.056 78.138 102.062 78.1388 102.067C78.1759 102.334 78.1402 102.606 78.0363 102.854M69.6949 102.939C69.5588 102.684 69.4792 102.398 69.4696 102.099C69.469 102.083 69.4688 102.066 69.4688 102.05C69.4688 100.849 70.4918 100.104 71.4577 100.104H76.229C77.1949 100.104 78.2179 100.849 78.2179 102.05L78.2178 102.068C78.2146 102.346 78.1504 102.613 78.0363 102.854M78.0363 102.854C78.0006 102.929 77.96 103.002 77.9149 103.072C77.9039 103.089 77.8926 103.106 77.8811 103.123L76.6527 102.274L76.229 103.049L76.1988 103.104C76.209 103.104 76.2191 103.104 76.229 103.104H76.1985L75.9332 103.589L75.9271 103.586C75.9011 103.572 75.8756 103.557 75.8505 103.541L74.2765 106.028C74.741 106.13 75.1388 106.393 75.4145 106.746C75.416 106.747 75.4176 106.749 75.4191 106.751L75.539 106.825C75.5355 106.83 75.532 106.836 75.5284 106.842C75.522 106.852 75.5156 106.862 75.5091 106.872C75.5104 106.874 75.5118 106.876 75.5131 106.878M78.0363 102.854C78.0041 102.93 77.9655 103.005 77.9205 103.076L75.5342 106.846C75.5273 106.857 75.5202 106.867 75.5131 106.878M75.5131 106.878C75.5125 106.879 75.5119 106.88 75.5113 106.881C75.5161 106.888 75.5207 106.895 75.5254 106.902L75.4721 106.936C75.4662 106.944 75.4601 106.952 75.454 106.96C75.4266 106.996 75.3978 107.03 75.3677 107.062L75.5555 106.945L75.5338 106.91C75.5271 106.899 75.5201 106.889 75.5131 106.878ZM74.2961 107.755L74.4103 107.684C74.5448 107.644 74.676 107.59 74.8015 107.522L74.8015 107.522C74.9943 107.417 75.1725 107.279 75.3248 107.111L75.5652 106.96L75.8459 110.208M74.2961 107.755L74.4081 107.684C74.3883 107.69 74.3685 107.696 74.3486 107.701L74.2858 107.74M74.2961 107.755L74.2858 107.74M74.2961 107.755L74.2941 107.757L74.2961 107.755ZM74.2961 107.755L75.1098 108.944L75.1074 108.946C75.0932 108.955 75.079 108.965 75.0645 108.974L75.8459 110.208M74.2858 107.74L74.3485 107.701C74.3229 107.708 74.2973 107.714 74.2715 107.719L74.2858 107.74ZM75.8459 110.208L76.619 111.43L76.648 111.476M75.8459 110.208C75.8716 110.192 75.8979 110.177 75.9248 110.162L75.9278 110.16L76.648 111.476M76.648 111.476L76.6482 111.476L76.6453 111.478M76.648 111.476L76.6452 111.478M76.6453 111.478L76.6452 111.478M76.6453 111.478C76.6606 111.501 76.6736 111.524 76.6841 111.549L76.6452 111.478M76.6453 111.478C76.6452 111.478 76.6452 111.478 76.6452 111.478M73.4267 107.708L73.4206 107.705L73.1107 107.509C73.1127 107.509 73.1147 107.509 73.1167 107.51L73.4208 107.704L73.4267 107.708ZM73.4267 107.708C73.4756 107.631 73.5466 107.568 73.6326 107.527C73.5948 107.533 73.557 107.537 73.5191 107.539L73.4267 107.708ZM74.168 106.209C74.1426 106.211 74.1173 106.213 74.092 106.216M74.092 106.216L74.0856 106.204M74.092 106.216L74.0856 106.204M74.092 106.216C74.0782 106.218 74.0644 106.219 74.0505 106.221C74.0624 106.216 74.0741 106.21 74.0856 106.204M75.3669 107.063L75.5557 106.945L75.5615 106.954L75.3383 107.096C75.346 107.087 75.3535 107.078 75.361 107.07C75.363 107.068 75.3649 107.065 75.3669 107.063ZM74.0579 107.529C74.1321 107.564 74.1949 107.617 74.2418 107.681L74.1442 107.539C74.1154 107.536 74.0866 107.533 74.0579 107.529Z" fill="url(#paint2_linear_1101_65)" stroke="url(#paint3_linear_1101_65)" stroke-width="3" stroke-linejoin="round"/>
<path d="M98.5053 113.836H104.52C104.577 113.836 104.644 113.814 104.709 113.745C104.776 113.674 104.83 113.561 104.83 113.417V105.472C104.83 105.246 104.707 105.108 104.605 105.061C104.604 105.061 104.604 105.061 104.603 105.06L93.6894 100.312C93.1667 100.084 92.817 99.5817 92.7855 99.0125C92.7541 98.4434 93.0463 97.9051 93.5407 97.6215C95.6111 96.4338 97.0601 94.0788 97.0601 91.3236C97.0601 87.2962 94.0094 84.1913 90.4311 84.1913C89.6187 84.1913 88.8399 84.3586 88.1113 84.6624C88.6267 86.2259 88.8895 87.8552 88.8874 89.4977M98.5053 113.836L87.3796 89.4957M98.5053 113.836V107.008C98.5053 104.263 96.8515 101.789 94.3321 100.676L94.3242 100.672L87.4032 97.6618M98.5053 113.836L85.5155 98.0458M88.8874 89.4977L87.3796 89.4957M88.8874 89.4977C88.8874 89.4971 88.8874 89.4964 88.8874 89.4957H87.3796M88.8874 89.4977C88.887 92.2907 88.1155 94.9533 86.7705 97.2582M87.3796 89.4957C87.3796 92.4398 86.4275 95.2317 84.7985 97.5398M86.7705 97.2582C86.4486 97.0269 86.1516 96.7704 85.883 96.4923L84.7985 97.5398M86.7705 97.2582C86.648 97.468 86.5209 97.6748 86.3891 97.8786M86.7705 97.2582C86.9719 97.4029 87.1831 97.5377 87.4032 97.6618M84.7985 97.5398L85.5155 98.0458M84.7985 97.5398L85.5155 98.0458M85.5155 98.0458C85.491 98.076 85.4678 98.1071 85.4457 98.1391C85.8285 98.4563 86.2435 98.7406 86.6855 98.988C86.6867 98.9887 86.688 98.9894 86.6893 98.9901L86.6917 98.9844M85.5155 98.0458L86.0303 98.4092C86.1516 98.2374 86.2695 98.0631 86.384 97.8864C86.3857 97.8838 86.3874 97.8812 86.3891 97.8786M85.5155 98.0458C85.7097 97.806 85.9772 97.6257 86.2892 97.5403L86.296 97.5385L86.3891 97.8786M86.6917 98.9844L86.694 98.9927L86.6919 98.9966L86.6955 98.9982L88.0749 99.5982C88.1331 99.4656 88.1727 99.3233 88.1908 99.1747C88.2646 98.5668 87.9636 97.9746 87.4289 97.6762C87.4203 97.6714 87.4118 97.6666 87.4032 97.6618M86.6917 98.9844L86.3891 97.8786M86.6917 98.9844L86.3891 97.8786M87.4032 97.6618L86.3891 97.8786M49.4481 113.835H43.6646C43.6097 113.835 43.5427 113.814 43.4762 113.744C43.4084 113.672 43.3544 113.559 43.3544 113.416V105.472C43.3544 105.246 43.4816 105.107 43.5805 105.064C43.5809 105.064 43.5812 105.064 43.5816 105.064L52.6011 101.233C50.6627 102.5 49.4481 104.648 49.4481 107.007V113.835ZM60.9702 97.5577L55.0895 100.056C55.347 99.7965 55.5067 99.4474 55.5259 99.0693C55.5552 98.4929 55.2529 97.9503 54.7472 97.6719C52.6223 96.5021 51.1254 94.122 51.1254 91.3236C51.1254 87.2964 54.1753 84.1913 57.7572 84.1913C58.49 84.1913 59.1973 84.3319 59.8683 84.5877C59.3509 86.1262 59.064 87.7758 59.064 89.4957C59.064 92.3425 59.855 95.0498 61.2473 97.3807C61.1567 97.4416 61.0644 97.5007 60.9702 97.5577Z" fill="url(#paint4_linear_1101_65)" stroke="url(#paint5_linear_1101_65)" stroke-width="3.01549" stroke-linejoin="round"/>
<defs>
<linearGradient id="paint0_linear_1101_65" x1="53.1292" y1="114.669" x2="55.7239" y2="156.456" gradientUnits="userSpaceOnUse">
<stop stop-color="#EE4523"/>
<stop offset="1" stop-color="#EE4523" stop-opacity="0.42"/>
</linearGradient>
<linearGradient id="paint1_linear_1101_65" x1="98.6178" y1="2" x2="121.81" y2="149.28" gradientUnits="userSpaceOnUse">
<stop stop-color="#EE4523"/>
<stop offset="1" stop-color="#EE4523" stop-opacity="0.42"/>
</linearGradient>
<linearGradient id="paint2_linear_1101_65" x1="73.8434" y1="78.8008" x2="80.5157" y2="119.123" gradientUnits="userSpaceOnUse">
<stop stop-color="#EE4523"/>
<stop offset="1" stop-color="#EE4523" stop-opacity="0.42"/>
</linearGradient>
<linearGradient id="paint3_linear_1101_65" x1="73.8434" y1="78.8008" x2="80.5157" y2="119.123" gradientUnits="userSpaceOnUse">
<stop stop-color="#EE4523"/>
<stop offset="1" stop-color="#EE4523" stop-opacity="0.42"/>
</linearGradient>
<linearGradient id="paint4_linear_1101_65" x1="74.0924" y1="82.6836" x2="76.8066" y2="115.932" gradientUnits="userSpaceOnUse">
<stop stop-color="#EE4523"/>
<stop offset="1" stop-color="#EE4523" stop-opacity="0.42"/>
</linearGradient>
<linearGradient id="paint5_linear_1101_65" x1="74.0924" y1="82.6836" x2="76.8066" y2="115.932" gradientUnits="userSpaceOnUse">
<stop stop-color="#EE4523"/>
<stop offset="1" stop-color="#EE4523" stop-opacity="0.42"/>
</linearGradient>
</defs>
</svg>
