<svg width="57" height="52" viewBox="0 0 57 52" fill="none" xmlns="http://www.w3.org/2000/svg">
<g clip-path="url(#clip0_402_11963)">
<path d="M2.70456 35.0184L2.70458 35.0184C3.25619 33.3885 4.78488 32.3537 6.45173 32.2985C7.03061 30.7745 8.54033 29.7174 10.2909 29.7174C12.0416 29.7174 13.5517 30.7743 14.1304 32.2985C15.7996 32.3535 17.3262 33.3884 17.8775 35.0184C18.428 36.6456 17.8308 38.3561 16.516 39.3494C16.9733 40.9086 16.397 42.6228 14.9731 43.616L2.70456 35.0184ZM2.70456 35.0184C2.15405 36.6456 2.75129 38.3561 4.0661 39.3494C3.60872 40.9087 4.18475 42.6229 5.60902 43.6167L5.60923 43.6168M2.70456 35.0184L5.60923 43.6168M5.60923 43.6168C6.33505 44.1227 7.17459 44.3667 8.00473 44.3667C8.38242 44.3667 8.7551 44.3128 9.11378 44.212V50.2H3.67873C3.04827 50.2 2.50165 50.6954 2.50165 51.35C2.50165 52.0046 3.04827 52.5 3.67873 52.5H56.4913C57.1217 52.5 57.6683 52.0046 57.6683 51.35V18.5014C57.6683 17.847 57.1218 17.3514 56.4913 17.3514H53.2957M5.60923 43.6168L53.2957 17.3514M7.06877 34.6607L7.06823 34.6606C6.90635 34.6172 6.74521 34.5964 6.58774 34.5964C5.8408 34.5964 5.17276 35.0523 4.93984 35.7402C4.66028 36.5661 5.09831 37.4704 5.98524 37.7864C6.31802 37.9049 6.5849 38.1665 6.6995 38.5063C6.81424 38.8457 6.76041 39.2175 6.5563 39.5116C6.04936 40.2428 6.22456 41.2194 6.97674 41.7445L7.06877 34.6607ZM7.06877 34.6607C7.40711 34.751 7.77324 34.6914 8.06487 34.4873C8.35494 34.2847 8.5413 33.9601 8.55651 33.5999C8.59387 32.7287 9.33807 32.0174 10.2909 32.0174C11.2438 32.0174 11.9879 32.7284 12.0255 33.5993L12.5251 33.5785L12.0256 33.5999C12.0256 33.5997 12.0255 33.5996 12.0255 33.5994M7.06877 34.6607L12.0255 33.5994M15.6422 35.7402L15.6422 35.7401C15.3603 34.907 14.4337 34.4147 13.5135 34.6607L13.3844 34.1777L13.5152 34.6602C13.1751 34.7524 12.8078 34.6907 12.5172 34.4873C12.227 34.2846 12.0406 33.9598 12.0255 33.5994M15.6422 35.7402L12.0255 33.5994M15.6422 35.7402C15.9218 36.5661 15.4838 37.4704 14.5968 37.7864M15.6422 35.7402L14.5968 37.7864M13.6052 41.744L13.6052 41.744C14.3574 41.2196 14.5328 40.243 14.0258 39.5116C13.8216 39.2175 13.7679 38.8457 13.8826 38.5062L13.6052 41.744ZM13.6052 41.744C12.8422 42.2761 11.788 42.1319 11.2081 41.4304M13.6052 41.744L11.2081 41.4304M53.2957 17.3514V0.65C53.2957 -0.00461363 52.7491 -0.5 52.1187 -0.5H27.8501C27.2197 -0.5 26.673 -0.00461542 26.673 0.65V17.3514H23.4775C22.847 17.3514 22.3004 17.847 22.3004 18.5014V50.2H11.4679V44.2092C12.6267 44.5281 13.9166 44.3533 14.973 43.6161L53.2957 17.3514ZM14.5968 37.7864C14.2642 37.9048 13.9974 38.1663 13.8827 38.5058L14.5968 37.7864ZM11.2081 41.4304C10.9676 41.1377 10.6123 41.0136 10.2909 41.0136C9.96965 41.0136 9.61465 41.1375 9.37416 41.4298L11.2081 41.4304ZM9.37355 41.4305C8.79433 42.1321 7.73945 42.2758 6.97705 41.7448L9.37355 41.4305ZM29.0272 1.8H50.9416V17.3514H29.0272V1.8ZM24.6546 50.2V19.6514H55.3142V50.2H24.6546Z" fill="url(#paint0_linear_402_11963)" stroke="url(#paint1_linear_402_11963)"/>
<path d="M33.3015 22.7839C30.9955 22.7839 29.1196 24.5848 29.1196 26.7988V32.4654C29.1196 32.8246 29.4228 33.1154 29.7967 33.1154H36.8062C37.1801 33.1154 37.4833 32.8246 37.4833 32.4654V26.7988C37.4833 24.5848 35.6074 22.7839 33.3015 22.7839ZM36.1291 31.8154H30.4738V26.7988C30.4738 25.302 31.7423 24.0839 33.3015 24.0839C34.8606 24.0839 36.1291 25.302 36.1291 26.7988V31.8154Z" fill="#DBB5B3" stroke="#D9B6B6"/>
<path d="M46.6657 22.7839C44.3597 22.7839 42.4839 24.5848 42.4839 26.7988V32.4654C42.4839 32.8246 42.7871 33.1154 43.161 33.1154H50.1705C50.5444 33.1154 50.8476 32.8246 50.8476 32.4654V26.7988C50.8476 24.5848 48.9717 22.7839 46.6657 22.7839ZM49.4934 31.8154H43.8381V26.7988C43.8381 25.302 45.1066 24.0839 46.6657 24.0839C48.2249 24.0839 49.4934 25.302 49.4934 26.7988V31.8154Z" fill="#DBB5B3" stroke="#D9B6B6"/>
<path d="M39.9835 4.25726C36.9482 4.25726 34.479 6.62812 34.479 9.5417C34.479 12.4553 36.9482 14.8261 39.9835 14.8261C43.0189 14.8261 45.4882 12.4553 45.4882 9.5417C45.4882 6.62812 43.0189 4.25726 39.9835 4.25726ZM39.9835 13.5261C37.6951 13.5261 35.8332 11.7386 35.8332 9.5417C35.8332 7.34476 37.6951 5.55726 39.9835 5.55726C42.2721 5.55726 44.134 7.34476 44.134 9.5417C44.134 11.7386 42.2721 13.5261 39.9835 13.5261Z" fill="#DBB5B3" stroke="#D9B6B6"/>
<path d="M33.3015 36.0844C30.9955 36.0844 29.1196 37.8852 29.1196 40.0993V45.7658C29.1196 46.1251 29.4228 46.4158 29.7967 46.4158H36.8062C37.1801 46.4158 37.4833 46.1251 37.4833 45.7658V40.0993C37.4833 37.8852 35.6074 36.0844 33.3015 36.0844ZM36.1291 45.1158H30.4738V40.0993C30.4738 38.6025 31.7423 37.3844 33.3015 37.3844C34.8606 37.3844 36.1291 38.6025 36.1291 40.0993V45.1158Z" fill="#DBB5B3" stroke="#D9B6B6"/>
<path d="M46.6657 36.0844C44.3597 36.0844 42.4839 37.8852 42.4839 40.0993V45.7658C42.4839 46.1251 42.7871 46.4158 43.161 46.4158H50.1705C50.5444 46.4158 50.8476 46.1251 50.8476 45.7658V40.0993C50.8476 37.8852 48.9717 36.0844 46.6657 36.0844ZM49.4934 45.1158H43.8381V40.0993C43.8381 38.6025 45.1066 37.3844 46.6657 37.3844C48.2249 37.3844 49.4934 38.6025 49.4934 40.0993V45.1158Z" fill="#DBB5B3" stroke="#D9B6B6"/>
</g>
<defs>
<linearGradient id="paint0_linear_402_11963" x1="30.0844" y1="-2.49803e-07" x2="38.1376" y2="52.0432" gradientUnits="userSpaceOnUse">
<stop stop-color="#EDA497"/>
<stop offset="1" stop-color="#B7D3E8"/>
</linearGradient>
<linearGradient id="paint1_linear_402_11963" x1="30.0844" y1="-2.49803e-07" x2="38.1376" y2="52.0432" gradientUnits="userSpaceOnUse">
<stop stop-color="#EDA497"/>
<stop offset="1" stop-color="#B7D3E8"/>
</linearGradient>
<clipPath id="clip0_402_11963">
<rect width="57" height="52" fill="white" transform="translate(0.000488281)"/>
</clipPath>
</defs>
</svg>
