<svg width="46" height="55" viewBox="0 0 46 55" fill="none" xmlns="http://www.w3.org/2000/svg">
<path d="M23.9666 34.2956V34.8267H24.4977H27.7526H28.2837V34.2956V31.0207V30.4896H27.7526H24.4977H23.9666V31.0207V34.2956ZM23.9666 40.8455V41.3766H24.4977H27.7526H28.2837V40.8455V37.5706V37.0395H27.7526H24.4977H23.9666V37.5706V40.8455ZM33.7313 47.3954V47.9265H34.2624H37.5173H38.0484V47.3954V44.1204V43.5894H37.5173H34.2624H33.7313V44.1204V47.3954ZM33.7313 40.8455V41.3766H34.2624H37.5173H38.0484V40.8455V37.5706V37.0395H37.5173H34.2624H33.7313V37.5706V40.8455ZM23.9666 47.3954V47.9265H24.4977H27.7526H28.2837V47.3954V44.1204V43.5894H27.7526H24.4977H23.9666V44.1204V47.3954ZM38.0484 1.54614V1.01507H37.5173H1.71338H1.18231V1.54614V47.3954V47.9265H1.71338H4.96828H5.49935V47.3954V5.35216H37.5173H38.0484V4.82109V1.54614ZM18.519 31.0207V30.4896H17.9879H14.733H14.2019V31.0207V34.2956V34.8267H14.733H17.9879H18.519V34.2956V31.0207ZM18.519 37.5706V37.0395H17.9879H14.733H14.2019V37.5706V40.8455V41.3766H14.733H17.9879H18.519V40.8455V37.5706ZM18.519 44.1204V43.5894H17.9879H14.733H14.2019V44.1204V47.3954V47.9265H14.733H17.9879H18.519V47.3954V44.1204ZM8.22318 7.56496H7.69211V8.09604V53.9453V54.4764H8.22318H44.0271H44.5582V53.9453V8.09604V7.56496H44.0271H8.22318ZM38.0484 14.6459V14.1149H37.5173H14.733H14.2019V14.6459V24.4708V25.0018H14.733H37.5173H38.0484V24.4708V14.6459ZM33.7313 34.2956V34.8267H34.2624H37.5173H38.0484V34.2956V31.0207V30.4896H37.5173H34.2624H33.7313V31.0207V34.2956ZM12.0092 11.9021H40.2411V50.1393H12.0092V11.9021ZM33.7313 18.4519V20.6648H18.519V18.4519H33.7313Z" stroke="url(#paint0_linear_402_11791)" stroke-width="1.06214"/>
<defs>
<linearGradient id="paint0_linear_402_11791" x1="22.8702" y1="1.54614" x2="33.1784" y2="53.1869" gradientUnits="userSpaceOnUse">
<stop stop-color="#EDA497"/>
<stop offset="1" stop-color="#B7D3E8"/>
</linearGradient>
</defs>
</svg>
