<svg width="33" height="55" viewBox="0 0 33 55" fill="none" xmlns="http://www.w3.org/2000/svg">
<path d="M1.48065 30.3096V30.4865L1.58676 30.6281L19.1476 54.058L19.3069 54.2705H19.5725H30.3356H31.4002L30.7598 53.42L13.7245 30.7955C15.3016 30.6574 16.871 30.2027 18.4303 29.4391C20.3438 28.5021 21.9472 27.148 23.2372 25.3845C24.5007 23.6795 25.2706 21.7267 25.5508 19.5374H29.85H30.3811V19.0063V12.6436V12.1125H29.85H25.5165C25.2272 10.685 24.737 9.39061 24.0425 8.23416H29.85H30.3811V7.70309V1.34033V0.80926H29.85H2.01172H1.48065V1.34033V7.70309V8.23416H2.01172H9.45685C11.7415 8.23416 13.3077 8.60687 14.2524 9.26227L14.2523 9.26239L14.2624 9.26902C15.0973 9.82065 15.6039 10.7317 15.7048 12.1125H2.01172H1.48065V12.6436V19.0063V19.5374H2.01172H15.7048C15.6039 20.9182 15.0973 21.8293 14.2624 22.3809L14.2623 22.3808L14.2524 22.3876C13.3077 23.043 11.7415 23.4157 9.45685 23.4157H2.01172H1.48065V23.9468V30.3096Z" stroke="url(#paint0_linear_402_11799)" stroke-width="1.06214"/>
<defs>
<linearGradient id="paint0_linear_402_11799" x1="16.1737" y1="1.34033" x2="30.8791" y2="50.6535" gradientUnits="userSpaceOnUse">
<stop stop-color="#EDA497"/>
<stop offset="1" stop-color="#B7D3E8"/>
</linearGradient>
</defs>
</svg>
