<svg width="49" height="52" viewBox="0 0 49 52" fill="none" xmlns="http://www.w3.org/2000/svg">
<path fill-rule="evenodd" clip-rule="evenodd" d="M8.5962 3.7862C12.1593 2.05128 18.005 0 24.4024 0C30.6662 0 36.3579 1.96605 39.9022 3.67786L40.1026 3.77465C41.1712 4.30047 42.0337 4.7974 42.6406 5.20043L37.277 13.0011C49.642 25.5775 59.1931 52 24.4024 52C-10.3883 52 -1.09426 26.0571 11.3782 13.0011L6.04944 5.20043C6.46035 4.93319 6.98161 4.62261 7.60305 4.29325C7.91087 4.12857 8.24192 3.95859 8.5962 3.7862ZM33.83 12.8985L38.1235 6.65367C34.1306 6.93969 29.3797 7.87288 24.806 9.19032C21.5391 10.1293 17.9092 9.98628 14.5478 9.36945C13.7008 9.21341 12.8595 9.02743 12.0258 8.81185L14.8135 12.8956C20.7884 15.0119 27.8537 15.0119 33.83 12.8985ZM13.1365 15.3557C20.1278 18.0426 28.5303 18.0426 35.5216 15.3528C38.4391 18.414 40.8802 21.892 42.764 25.6714C44.7271 29.6555 45.7957 33.6381 45.6215 37.0704C45.4531 40.3828 44.1434 43.2127 41.1523 45.316C38.035 47.5074 32.7919 49.1109 24.4009 49.1109C16.0013 49.1109 10.7335 47.5348 7.58708 45.368C4.57424 43.2922 3.25149 40.4998 3.06419 37.2322C2.86817 33.8375 3.91359 29.875 5.8694 25.8635C7.73518 22.0383 10.3386 18.3561 13.1365 15.3557ZM11.4668 5.65692C12.6283 6.00072 13.8422 6.29975 15.0735 6.52654C18.1952 7.09859 21.3257 7.18238 23.9973 6.41242C27.1105 5.50972 30.2771 4.80004 33.4787 4.28747C30.807 3.48718 27.6824 2.88913 24.4009 2.88913C19.3989 2.88913 14.7337 4.27736 11.4668 5.65692Z" fill="url(#paint0_linear_402_11955)"/>
<path d="M32.4999 26.114L31.7848 28.6991H18.4188L19.144 26.114H32.4999ZM25.7817 41.3878L18.731 33.0799L18.721 30.8895H22.206C23.0386 30.8895 23.7336 30.7547 24.291 30.485C24.855 30.2087 25.2814 29.8239 25.5701 29.3306C25.8656 28.8307 26.0133 28.2452 26.0133 27.5743C26.0133 26.5679 25.7112 25.7588 25.1068 25.1471C24.5025 24.5353 23.5355 24.2295 22.206 24.2295H18.4188L19.2044 21.1806H22.206C23.8981 21.1806 25.2982 21.4372 26.4061 21.9502C27.5208 22.4567 28.3535 23.1737 28.9041 24.1012C29.4614 25.0287 29.7401 26.114 29.7401 27.3572C29.7401 28.4557 29.5353 29.4358 29.1257 30.2975C28.7161 31.1592 28.0714 31.8663 27.1918 32.4189C26.3121 32.9714 25.1605 33.3398 23.737 33.5239L23.6161 33.5634L29.9818 41.2102V41.3878H25.7817ZM32.52 21.1806L31.7848 23.8052L20.947 23.7657L21.6822 21.1806H32.52Z" fill="url(#paint1_linear_402_11955)"/>
<defs>
<linearGradient id="paint0_linear_402_11955" x1="24.342" y1="-2.49803e-07" x2="33.3008" y2="51.7381" gradientUnits="userSpaceOnUse">
<stop stop-color="#EDA497"/>
<stop offset="1" stop-color="#B7D3E8"/>
</linearGradient>
<linearGradient id="paint1_linear_402_11955" x1="24.342" y1="-2.49803e-07" x2="33.3008" y2="51.7381" gradientUnits="userSpaceOnUse">
<stop stop-color="#EDA497"/>
<stop offset="1" stop-color="#B7D3E8"/>
</linearGradient>
</defs>
</svg>
