<svg width="175" height="98" viewBox="0 0 175 98" fill="none" xmlns="http://www.w3.org/2000/svg">
<path d="M2.59636 49.5839L2 41.3564H54.5651L55.1231 49.5839H2.59636ZM28.8597 51.9288C29.4426 53.5417 29.734 55.4664 29.734 57.6984V58.2947C29.734 62.788 28.5435 66.1675 26.1602 68.4401C23.7769 70.7104 19.8191 71.9823 14.2845 72.2556L11.2688 72.4409L5.75899 63.8407H8.92388C12.4728 63.8407 14.9352 63.2759 16.3132 62.1464C17.6912 61.0169 18.3802 59.1622 18.3802 56.5801V56.0967C18.3802 54.1855 18.0639 52.5658 17.4314 51.2397C16.7989 49.9114 15.6874 48.739 14.0993 47.7225H25.9366C27.301 48.913 28.2746 50.3158 28.8597 51.9288ZM18.4547 89.0832L9.78005 73.2993L5.75899 72.9265V63.8429L17.4472 66.0387V70.5794C18.8116 71.4491 20.0021 72.3415 21.0209 73.2587C22.0375 74.1781 22.9931 75.2082 23.8876 76.349C24.7822 77.4898 25.7107 78.843 26.6798 80.4062L31.7807 88.6698V89.0787H18.4525L18.4547 89.0832ZM43.5841 63.9921V72.8158H27.5766L25.9388 63.9921H43.5841ZM38.3341 41.3564H58.3626L58.9205 49.5839H38.8921L38.3341 41.3564ZM52.2564 89.0832H41.2008V46.794H52.2564V89.0832Z" stroke="#262262" stroke-width="3.38855" stroke-linecap="round" stroke-linejoin="round"/>
<path d="M41.9995 34.8966C40.9694 33.8416 40.4543 32.4207 40.4543 30.6338V30.2994C40.4543 28.5125 40.9762 27.0916 42.0176 26.0367C43.059 24.9817 44.6358 24.4553 46.7457 24.4553C48.8557 24.4553 50.4618 24.9703 51.4919 26.0005C52.5221 27.0306 53.0371 28.4628 53.0371 30.2994V30.6338C53.0371 32.4207 52.5356 33.8416 51.5303 34.8966C50.5251 35.9516 48.9302 36.4779 46.7457 36.4779C44.5613 36.4779 43.0296 35.9516 41.9995 34.8966Z" stroke="#262262" stroke-width="3.38855" stroke-linecap="round" stroke-linejoin="round"/>
<path d="M55.46 41.3566H101.323L101.919 49.584H56.018L55.46 41.3566ZM60.1497 69.3529C60.1497 64.3401 61.4826 60.5991 64.1505 58.1277C66.8184 55.6586 70.7332 54.4229 75.8951 54.4229C77.359 54.4229 78.7053 54.4974 79.9342 54.6465C81.1631 54.7956 82.322 55.0057 83.4153 55.2791L84.1608 63.9538C83.3905 63.7798 82.5795 63.6556 81.7233 63.581C80.8672 63.5065 79.9432 63.4681 78.9493 63.4681C76.4417 63.4681 74.5803 63.947 73.365 64.9003C72.1496 65.8559 71.542 67.3626 71.542 69.4229V69.7573C71.542 71.8921 72.1677 73.4305 73.4214 74.3725C74.6752 75.3168 76.6406 75.7866 79.322 75.7866C82.0035 75.7866 83.8762 75.3461 85.3152 74.4651C86.7542 73.5841 87.6849 72.3122 88.1073 70.6496L88.6653 77.7972H87.4749C87.0524 79.3107 86.3453 80.6029 85.3536 81.6692C84.3596 82.7377 83.0449 83.5487 81.4071 84.1066C79.7693 84.6646 77.7452 84.9448 75.3393 84.9448C70.5254 84.9448 66.789 83.7227 64.1346 81.2784C61.478 78.8341 60.152 75.118 60.152 70.1277V69.3461L60.1497 69.3529ZM85.0554 41.3566H105.084L105.642 49.584H85.6134L85.0554 41.3566ZM98.9778 89.0833H87.9221V46.7941H98.9778V89.0833Z" stroke="#262262" stroke-width="3.38855" stroke-linecap="round" stroke-linejoin="round"/>
<path d="M102.739 49.5839L102.143 41.3564H125.968L126.565 49.5839H102.739ZM108.807 89.0832V46.794H119.901V89.0832H108.807Z" stroke="#262262" stroke-width="3.38855" stroke-linecap="round" stroke-linejoin="round"/>
<path d="M123.212 41.3566H169.262L169.82 49.584H123.844L123.212 41.3566ZM150.239 77.8039C151.305 77.5058 152.236 77.0833 153.031 76.5389L154.484 83.7972C153.49 84.8906 152.121 85.74 150.37 86.3477C148.619 86.9553 146.516 87.2603 144.06 87.2603C140.735 87.2603 137.855 86.6888 135.424 85.5479C132.991 84.4071 131.112 82.688 129.783 80.3928C128.455 78.0976 127.791 75.1993 127.791 71.7V70.8054C127.791 65.2956 129.368 61.2565 132.519 58.688C135.67 56.1194 140.448 54.834 146.85 54.834C149.383 54.834 151.969 54.9515 154.612 55.1865C157.255 55.4237 160.005 55.7512 162.858 56.1736V63.7686C160.648 63.5698 158.484 63.4274 156.361 63.3393C154.24 63.2535 152.186 63.2083 150.2 63.2083C146.155 63.2083 143.281 63.816 141.582 65.0313C139.881 66.2467 139.032 68.1963 139.032 70.8755V71.4335C139.032 73.7174 139.678 75.4229 140.968 76.5524C142.258 77.682 144.094 78.2467 146.478 78.2467C147.917 78.2467 149.17 78.0976 150.237 77.7994L150.239 77.8039ZM148.637 41.3566H168.666L169.224 49.584H149.234L148.637 41.3566ZM151.951 46.6428H162.858V63.4703L151.951 60.9018V46.6428ZM162.858 54.2761H152.136V46.7941H162.858V54.2761ZM163.529 80.6684L165.688 94.4418H154.967L153.365 81.5608L152.509 80.1827V69.7595H163.529V80.6661V80.6684Z" stroke="#262262" stroke-width="3.38855" stroke-linecap="round" stroke-linejoin="round"/>
<path d="M6.79069 52.5839L6.19434 44.3564H58.7595L59.3174 52.5839H6.79069ZM33.0563 54.9288C33.6392 56.5417 33.9306 58.4664 33.9306 60.6984V61.2947C33.9306 65.788 32.7401 69.1675 30.3568 71.4401C27.9735 73.7104 24.0157 74.9823 18.4811 75.2556L15.4654 75.4409L9.95558 66.8407H13.1205C16.6694 66.8407 19.1317 66.2759 20.5097 65.1464C21.8877 64.0169 22.5768 62.1622 22.5768 59.5802V59.0967C22.5768 57.1855 22.2605 55.5658 21.6279 54.2397C20.9954 52.9114 19.884 51.739 18.2959 50.7225H30.1332C31.4976 51.913 32.4712 53.3158 33.0563 54.9288ZM22.6513 92.0809L13.9767 76.2971L9.95558 75.9243V66.8407L21.6438 69.0365V73.5772C23.0082 74.4469 24.1987 75.3392 25.2175 76.2563C26.2341 77.1758 27.1897 78.2059 28.0842 79.3468C28.9788 80.4876 29.9073 81.8407 30.8764 83.404L35.9772 91.6676V92.0764H22.649L22.6513 92.0809ZM47.7784 66.9898V75.8136H22.701L30.1332 66.9898H47.7784ZM42.5284 44.3564H62.5569L63.1149 52.5839H43.0864L42.5284 44.3564ZM56.453 92.0809H45.3974V49.7917H56.453V92.0809Z" fill="#262262"/>
<path d="M46.1972 37.8964C45.1671 36.8414 44.6521 35.4204 44.6521 33.6335V33.2992C44.6521 31.5123 45.1739 30.0914 46.2153 29.0364C47.2567 27.9814 48.8335 27.4551 50.9434 27.4551C53.0534 27.4551 54.6595 27.9701 55.6896 29.0002C56.7198 30.0303 57.2348 31.4626 57.2348 33.2992V33.6335C57.2348 35.4204 56.7311 36.8414 55.7281 37.8964C54.7228 38.9513 53.1279 39.4777 50.9434 39.4777C48.759 39.4777 47.2273 38.9513 46.1972 37.8964Z" fill="#262262"/>
<path d="M59.6543 44.3564H105.517L106.113 52.5839H60.2123L59.6543 44.3564ZM64.344 72.3505C64.344 67.3377 65.6768 63.5967 68.347 61.1253C71.0149 58.6562 74.9298 57.4205 80.0917 57.4205C81.5555 57.4205 82.9019 57.495 84.1308 57.6441C85.3597 57.7932 86.5186 58.0033 87.6119 58.2767L88.3574 66.9514C87.5871 66.7774 86.7761 66.6532 85.9199 66.5787C85.0638 66.5041 84.1398 66.4657 83.1459 66.4657C80.6383 66.4657 78.7769 66.9446 77.5616 67.8979C76.3462 68.8535 75.7385 70.3603 75.7385 72.4205V72.7548C75.7385 74.8896 76.3643 76.4281 77.618 77.3701C78.8718 78.3144 80.8394 78.7843 83.5186 78.7843C86.1978 78.7843 88.0728 78.3437 89.5118 77.4627C90.9508 76.5817 91.8815 75.3099 92.3039 73.6472L92.8619 80.7948H91.6714C91.249 82.3083 90.5419 83.6005 89.5502 84.6668C88.5562 85.7353 87.2415 86.5463 85.6037 87.1043C83.9659 87.6623 81.9418 87.9424 79.5359 87.9424C74.722 87.9424 70.9855 86.7202 68.3312 84.2759C65.6746 81.8317 64.3485 78.1156 64.3485 73.1253V72.3437L64.344 72.3505ZM89.2497 44.3564H109.278L109.836 52.5839H89.8077L89.2497 44.3564ZM103.172 92.0809H92.1164V49.7917H103.172V92.0809Z" fill="#262262"/>
<path d="M106.933 52.5839L106.337 44.3564H130.163L130.759 52.5839H106.933ZM113.001 92.0809V49.7917H124.095V92.0809H113.001Z" fill="#262262"/>
<path d="M127.406 44.3564H173.456L174.014 52.5839H128.039L127.406 44.3564ZM154.433 80.8016C155.499 80.5034 156.43 80.0809 157.225 79.5365L158.678 86.7948C157.684 87.8882 156.315 88.7376 154.564 89.3453C152.814 89.953 150.71 90.2579 148.255 90.2579C144.929 90.2579 142.049 89.6864 139.619 88.5456C137.186 87.4047 135.306 85.6856 133.978 83.3904C132.649 81.0952 131.985 78.1969 131.985 74.6976V73.8031C131.985 68.2933 133.562 64.2541 136.713 61.6855C139.865 59.117 144.643 57.8317 151.045 57.8317C153.577 57.8317 156.164 57.9491 158.807 58.184C161.45 58.4212 164.199 58.7488 167.052 59.1713V66.7661C164.843 66.5673 162.679 66.425 160.555 66.3369C158.434 66.2511 156.38 66.2059 154.395 66.2059C150.349 66.2059 147.475 66.8136 145.777 68.0289C144.076 69.2443 143.226 71.1939 143.226 73.8731V74.4311C143.226 76.715 143.872 78.4205 145.162 79.55C146.452 80.6796 148.289 81.2443 150.672 81.2443C152.111 81.2443 153.365 81.0952 154.431 80.797L154.433 80.8016ZM152.834 44.3564H172.862L173.42 52.5839H153.43L152.834 44.3564ZM156.146 49.6426H167.052V66.4702L156.146 63.9017V49.6426ZM167.054 57.2737H156.333V49.7917H167.054V57.2737ZM167.723 83.6683L169.883 97.4416H159.161L157.56 84.5606L156.704 83.1826V72.7594H167.723V83.666V83.6683Z" fill="#262262"/>
<path d="M2.59636 49.5839L2 41.3564H54.5651L55.1231 49.5839H2.59636ZM28.8597 51.9288C29.4426 53.5417 29.734 55.4664 29.734 57.6984V58.2947C29.734 62.788 28.5435 66.1675 26.1602 68.4401C23.7769 70.7104 19.8191 71.9823 14.2845 72.2556L11.2688 72.4409L5.75899 63.8407H8.92388C12.4728 63.8407 14.9352 63.2759 16.3132 62.1464C17.6912 61.0169 18.3802 59.1622 18.3802 56.5801V56.0967C18.3802 54.1855 18.0639 52.5658 17.4314 51.2397C16.7989 49.9114 15.6874 48.739 14.0993 47.7225H25.9366C27.301 48.913 28.2746 50.3158 28.8597 51.9288ZM18.4547 89.0832L9.78005 73.2993L5.75899 72.9265V63.8429L17.4472 66.0387V70.5794C18.8116 71.4491 20.0021 72.3415 21.0209 73.2587C22.0375 74.1781 22.9931 75.2082 23.8876 76.349C24.7822 77.4898 25.7107 78.843 26.6798 80.4062L31.7807 88.6698V89.0787H18.4525L18.4547 89.0832ZM43.5841 63.9921V72.8158H27.5766L25.9388 63.9921H43.5841ZM38.3341 41.3564H58.3626L58.9205 49.5839H38.8921L38.3341 41.3564ZM52.2564 89.0832H41.2008V46.794H52.2564V89.0832Z" fill="#EC136E"/>
<path d="M41.9995 34.8966C40.9694 33.8416 40.4543 32.4207 40.4543 30.6338V30.2994C40.4543 28.5125 40.9762 27.0916 42.0176 26.0367C43.059 24.9817 44.6358 24.4553 46.7457 24.4553C48.8557 24.4553 50.4618 24.9703 51.4919 26.0005C52.5221 27.0306 53.0371 28.4628 53.0371 30.2994V30.6338C53.0371 32.4207 52.5356 33.8416 51.5303 34.8966C50.5251 35.9516 48.9302 36.4779 46.7457 36.4779C44.5613 36.4779 43.0296 35.9516 41.9995 34.8966Z" fill="#EC136E"/>
<path d="M55.46 41.3566H101.323L101.919 49.584H56.018L55.46 41.3566ZM60.1497 69.3529C60.1497 64.3401 61.4826 60.5991 64.1505 58.1277C66.8184 55.6586 70.7332 54.4229 75.8951 54.4229C77.359 54.4229 78.7053 54.4974 79.9342 54.6465C81.1631 54.7956 82.322 55.0057 83.4153 55.2791L84.1608 63.9538C83.3905 63.7798 82.5795 63.6556 81.7233 63.581C80.8672 63.5065 79.9432 63.4681 78.9493 63.4681C76.4417 63.4681 74.5803 63.947 73.365 64.9003C72.1496 65.8559 71.542 67.3626 71.542 69.4229V69.7573C71.542 71.8921 72.1677 73.4305 73.4214 74.3725C74.6752 75.3168 76.6406 75.7866 79.322 75.7866C82.0035 75.7866 83.8762 75.3461 85.3152 74.4651C86.7542 73.5841 87.6849 72.3122 88.1073 70.6496L88.6653 77.7972H87.4748C87.0524 79.3107 86.3453 80.6029 85.3536 81.6692C84.3596 82.7377 83.0449 83.5487 81.4071 84.1066C79.7693 84.6646 77.7452 84.9448 75.3393 84.9448C70.5254 84.9448 66.789 83.7227 64.1346 81.2784C61.478 78.8341 60.152 75.118 60.152 70.1277V69.3461L60.1497 69.3529ZM85.0554 41.3566H105.084L105.642 49.584H85.6134L85.0554 41.3566ZM98.9778 89.0833H87.9221V46.7941H98.9778V89.0833Z" fill="#EC136E"/>
<path d="M102.739 49.5839L102.143 41.3564H125.968L126.565 49.5839H102.739ZM108.807 89.0832V46.794H119.901V89.0832H108.807Z" fill="#EC136E"/>
<path d="M123.212 41.3566H169.262L169.82 49.584H123.844L123.212 41.3566ZM150.239 77.8039C151.305 77.5058 152.236 77.0833 153.031 76.5389L154.484 83.7972C153.49 84.8906 152.121 85.74 150.37 86.3477C148.619 86.9553 146.516 87.2603 144.06 87.2603C140.735 87.2603 137.855 86.6888 135.424 85.5479C132.991 84.4071 131.112 82.688 129.783 80.3928C128.455 78.0976 127.791 75.1993 127.791 71.7V70.8054C127.791 65.2956 129.368 61.2565 132.519 58.688C135.67 56.1194 140.448 54.834 146.85 54.834C149.383 54.834 151.969 54.9515 154.612 55.1865C157.255 55.4237 160.005 55.7512 162.858 56.1736V63.7686C160.648 63.5698 158.484 63.4274 156.361 63.3393C154.24 63.2535 152.186 63.2083 150.2 63.2083C146.155 63.2083 143.281 63.816 141.582 65.0313C139.881 66.2467 139.032 68.1963 139.032 70.8755V71.4335C139.032 73.7174 139.678 75.4229 140.968 76.5524C142.258 77.682 144.094 78.2467 146.478 78.2467C147.917 78.2467 149.17 78.0976 150.237 77.7994L150.239 77.8039ZM148.637 41.3566H168.666L169.224 49.584H149.234L148.637 41.3566ZM151.951 46.6428H162.858V63.4703L151.951 60.9018V46.6428ZM162.858 54.2761H152.136V46.7941H162.858V54.2761ZM163.529 80.6684L165.688 94.4418H154.967L153.365 81.5608L152.509 80.1827V69.7595H163.529V80.6661V80.6684Z" fill="#EC136E"/>
<path d="M6.57257 44.9613C8.01383 44.7987 9.59742 44.6586 11.05 44.566C12.5725 44.3763 14.0612 44.3491 15.5273 44.9613V45.0743C14.4181 45.508 13.318 45.6662 12.1682 45.5781C11.5221 45.499 10.5891 45.4357 9.9295 45.3951C8.84291 45.3047 7.64787 45.2008 6.57031 45.0765V44.9636L6.57257 44.9613Z" fill="white"/>
<path d="M16.5823 44.9613C18.0236 44.7987 19.6071 44.6586 21.0597 44.566C22.5823 44.3763 24.071 44.3491 25.5371 44.9613V45.0743C24.4279 45.508 23.3278 45.6662 22.1779 45.5781C21.5319 45.499 20.5988 45.4357 19.9392 45.3951C18.8526 45.3047 17.6576 45.2008 16.5801 45.0765V44.9636L16.5823 44.9613Z" fill="white"/>
<path d="M26.5892 44.9613C28.0304 44.7987 29.614 44.6586 31.0665 44.566C32.5891 44.3763 34.0778 44.3491 35.5439 44.9613V45.0743C34.4347 45.508 33.3346 45.6662 32.1847 45.5781C31.5386 45.499 30.6057 45.4357 29.946 45.3951C28.8595 45.3047 27.6645 45.2008 26.5869 45.0765V44.9636L26.5892 44.9613Z" fill="white"/>
<path d="M36.595 44.9613C38.0363 44.7987 39.6199 44.6586 41.0724 44.566C42.595 44.3763 44.0837 44.3491 45.5498 44.9613V45.0743C44.4406 45.508 43.3405 45.6662 42.1906 45.5781C41.5446 45.499 40.6116 45.4357 39.952 45.3951C38.8654 45.3047 37.6703 45.2008 36.5928 45.0765V44.9636L36.595 44.9613Z" fill="white"/>
<path d="M46.6085 44.9613C48.0497 44.7987 49.6333 44.6586 51.0859 44.566C52.6084 44.3763 54.0971 44.3491 55.5633 44.9613V45.0743C54.4541 45.508 53.3539 45.6662 52.2041 45.5781C51.558 45.499 50.625 45.4357 49.9654 45.3951C48.8788 45.3047 47.6838 45.2008 46.6062 45.0765V44.9636L46.6085 44.9613Z" fill="white"/>
<path d="M56.6146 44.9613C58.0558 44.7987 59.6394 44.6586 61.092 44.566C62.6145 44.3763 64.1032 44.3491 65.5693 44.9613V45.0743C64.4601 45.508 63.36 45.6662 62.2102 45.5781C61.5641 45.499 60.6311 45.4357 59.9714 45.3951C58.8849 45.3047 57.6899 45.2008 56.6123 45.0765V44.9636L56.6146 44.9613Z" fill="white"/>
<path d="M66.6243 44.9613C68.0656 44.7987 69.6491 44.6586 71.1017 44.566C72.6243 44.3763 74.113 44.3491 75.5791 44.9613V45.0743C74.4699 45.508 73.3698 45.6662 72.2199 45.5781C71.5739 45.499 70.6408 45.4357 69.9812 45.3951C68.8946 45.3047 67.6996 45.2008 66.6221 45.0765V44.9636L66.6243 44.9613Z" fill="white"/>
<path d="M76.6312 44.9613C78.0724 44.7987 79.656 44.6586 81.1086 44.566C82.6311 44.3763 84.1199 44.3491 85.586 44.9613V45.0743C84.4768 45.508 83.3766 45.6662 82.2268 45.5781C81.5807 45.499 80.6477 45.4357 79.9881 45.3951C78.9015 45.3047 77.7065 45.2008 76.6289 45.0765V44.9636L76.6312 44.9613Z" fill="white"/>
<path d="M86.638 44.9613C88.0793 44.7987 89.6628 44.6586 91.1154 44.566C92.638 44.3763 94.1267 44.3491 95.5928 44.9613V45.0743C94.4836 45.508 93.3834 45.6662 92.2336 45.5781C91.5875 45.499 90.6546 45.4357 89.9949 45.3951C88.9083 45.3047 87.7133 45.2008 86.6357 45.0765V44.9636L86.638 44.9613Z" fill="white"/>
<path d="M96.647 44.9613C98.0883 44.7987 99.6719 44.6586 101.124 44.566C102.647 44.3763 104.136 44.3491 105.602 44.9613V45.0743C104.493 45.508 103.392 45.6662 102.243 45.5781C101.597 45.499 100.664 45.4357 100.004 45.3951C98.9174 45.3047 97.7223 45.2008 96.6448 45.0765V44.9636L96.647 44.9613Z" fill="white"/>
<path d="M106.653 44.9613C108.094 44.7987 109.678 44.6586 111.13 44.566C112.653 44.3763 114.142 44.3491 115.608 44.9613V45.0743C114.498 45.508 113.398 45.6662 112.248 45.5781C111.602 45.499 110.669 45.4357 110.01 45.3951C108.923 45.3047 107.728 45.2008 106.651 45.0765V44.9636L106.653 44.9613Z" fill="white"/>
<path d="M116.666 44.9613C118.108 44.7987 119.691 44.6586 121.144 44.566C122.666 44.3763 124.155 44.3491 125.621 44.9613V45.0743C124.512 45.508 123.412 45.6662 122.262 45.5781C121.616 45.499 120.683 45.4357 120.023 45.3951C118.937 45.3047 117.742 45.2008 116.664 45.0765V44.9636L116.666 44.9613Z" fill="white"/>
<path d="M126.672 44.9613C128.113 44.7987 129.697 44.6586 131.15 44.566C132.672 44.3763 134.161 44.3491 135.627 44.9613V45.0743C134.518 45.508 133.418 45.6662 132.268 45.5781C131.622 45.499 130.689 45.4357 130.029 45.3951C128.943 45.3047 127.747 45.2008 126.67 45.0765V44.9636L126.672 44.9613Z" fill="white"/>
<path d="M136.683 44.9613C138.124 44.7987 139.708 44.6586 141.16 44.566C142.683 44.3763 144.172 44.3491 145.638 44.9613V45.0743C144.529 45.508 143.428 45.6662 142.279 45.5781C141.632 45.499 140.699 45.4357 140.04 45.3951C138.953 45.3047 137.758 45.2008 136.681 45.0765V44.9636L136.683 44.9613Z" fill="white"/>
<path d="M146.689 44.9613C148.13 44.7987 149.714 44.6586 151.166 44.566C152.689 44.3763 154.177 44.3491 155.644 44.9613V45.0743C154.534 45.508 153.434 45.6662 152.284 45.5781C151.638 45.499 150.705 45.4357 150.046 45.3951C148.959 45.3047 147.764 45.2008 146.687 45.0765V44.9636L146.689 44.9613Z" fill="white"/>
<path d="M156.699 44.9613C158.14 44.7987 159.723 44.6586 161.176 44.566C162.698 44.3763 164.187 44.3491 165.653 44.9613V45.0743C164.544 45.508 163.444 45.6662 162.294 45.5781C161.648 45.499 160.715 45.4357 160.055 45.3951C158.969 45.3047 157.774 45.2008 156.696 45.0765V44.9636L156.699 44.9613Z" fill="white"/>
<path d="M6.79104 47.1671C7.90641 47.1671 8.81059 46.2629 8.81059 45.1475C8.81059 44.0321 7.90641 43.1279 6.79104 43.1279C5.67566 43.1279 4.77148 44.0321 4.77148 45.1475C4.77148 46.2629 5.67566 47.1671 6.79104 47.1671Z" fill="#FFDE17"/>
<path d="M164.817 47.1671C165.933 47.1671 166.837 46.2629 166.837 45.1475C166.837 44.0321 165.933 43.1279 164.817 43.1279C163.702 43.1279 162.798 44.0321 162.798 45.1475C162.798 46.2629 163.702 47.1671 164.817 47.1671Z" fill="#FFDE17"/>
<path d="M95.1364 70.2514C94.6011 68.0353 94.339 65.7582 94.3209 63.4765C94.2373 61.1904 94.5716 58.7845 95.8322 56.8214L95.9158 56.853C95.6854 58.4185 95.4888 59.8869 95.2878 61.423C95.2019 62.0646 95.089 62.8485 95.0438 63.4991C94.9128 65.7378 94.958 68.0014 95.2245 70.2356L95.1364 70.2537V70.2514Z" fill="white"/>
<path d="M94.4515 70.7439C93.6021 69.1467 93.0013 67.4231 92.6488 65.6452C92.2219 63.8674 92.2196 61.8885 93.1571 60.262L93.2452 60.2868C93.2701 61.4412 93.2497 62.4758 93.3039 63.5827C93.3039 64.2108 93.3039 64.911 93.3627 65.5413C93.5592 67.2921 93.9433 69.0383 94.5329 70.7078L94.4515 70.7462V70.7439Z" fill="white"/>
<path d="M93.7264 71.2453C92.9403 70.5699 92.2693 69.7679 91.7317 68.8756C91.2912 68.2159 90.9207 67.4501 91.0043 66.6256C91.0065 66.3568 91.0788 66.0789 91.1782 65.8191L91.2686 65.8146C91.6142 66.4223 91.822 66.9215 92.0547 67.5111C92.1631 67.8477 92.2445 68.2227 92.3801 68.5526C92.7596 69.4675 93.2317 70.3575 93.7942 71.1843L93.7287 71.2453H93.7264Z" fill="white"/>
<path d="M69.5424 65.551C68.684 67.069 68.2638 68.865 68.4671 70.5932C68.7202 72.3326 69.5108 73.8439 70.3783 75.38L70.3286 75.4252C67.9837 73.6903 67.4528 70.5999 68.2819 67.9252C68.5598 67.0645 68.9483 66.2377 69.4905 65.5126L69.5447 65.551H69.5424Z" fill="white"/>
<path d="M69.2827 65.3786C66.7278 67.5721 66.4363 69.7002 67.1502 72.8606L67.0892 72.8899C65.4785 71.0217 66.0772 68.4509 67.5862 66.725C68.0741 66.1783 68.623 65.6926 69.2465 65.3221L69.2827 65.3786Z" fill="white"/>
<path d="M68.8889 65.0438C68.9069 65.0732 68.8889 65.1116 68.8776 65.1252C68.7985 65.2065 68.6901 65.2404 68.5907 65.2901C67.8633 65.5996 67.111 65.9791 66.5508 66.5303C66.0944 67.0228 65.8166 67.5762 65.5003 68.1523C65.4009 68.3533 65.3038 68.5657 65.1886 68.7916L65.1208 68.7871C64.5605 66.8759 66.5756 65.5657 68.1976 65.2381C68.3986 65.1862 68.7149 65.1387 68.8866 65.0461L68.8889 65.0438Z" fill="white"/>
<path d="M136.68 74.0018C137.009 75.7142 137.857 77.3543 139.131 78.538C140.45 79.6969 142.033 80.3339 143.689 80.9416L143.68 81.0094C140.771 81.2104 138.363 79.2022 137.258 76.6291C136.912 75.7933 136.67 74.9122 136.614 74.0109L136.682 74.0041L136.68 74.0018Z" fill="white"/>
<path d="M136.365 74.0385C135.846 77.3683 137 79.171 139.594 81.116L139.566 81.1793C137.122 80.7975 135.92 78.4662 135.947 76.1665C135.963 75.4323 136.065 74.7071 136.3 74.0204L136.365 74.0385Z" fill="white"/>
<path d="M135.853 74.0409C135.887 74.0522 135.898 74.0928 135.896 74.1109C135.887 74.2238 135.828 74.321 135.785 74.4227C135.433 75.1297 135.105 75.9069 135.037 76.6885C135.01 77.3572 135.155 77.9603 135.288 78.6041C135.342 78.8233 135.408 79.0469 135.467 79.2932L135.412 79.3338C133.745 78.2427 134.43 75.9385 135.453 74.635C135.57 74.4656 135.781 74.2239 135.853 74.0409Z" fill="white"/>
<path d="M21.3945 53.4923C23.4524 56.1783 23.8568 60.6354 21.1076 63.0006C20.9314 63.1497 20.7461 63.2921 20.5541 63.4186L20.4863 63.3598C20.719 62.8538 20.9788 62.3658 21.2115 61.8621C21.661 60.7958 22.1444 59.7273 22.3184 58.5729C22.5285 56.8629 22.1535 55.0714 21.3222 53.5443L21.3967 53.4923H21.3945Z" fill="white"/>
<path d="M21.6327 53.296C24.1696 54.6898 26.1779 58.4625 23.7923 60.8774L23.711 60.8367C23.7449 60.4572 23.8081 60.1115 23.8443 59.7659C23.9301 58.7674 24.0296 57.796 23.8195 56.8021C23.4648 55.4602 22.6289 54.2832 21.583 53.3706L21.6327 53.296Z" fill="white"/>
<path d="M22.0529 53.0653C22.0574 53.0382 22.0596 53.054 22.0867 53.0608C22.2336 53.106 22.5273 53.1557 22.6831 53.1896C24.3254 53.4674 26.5347 54.8228 25.7599 56.7724L25.6696 56.7792C25.5205 56.5578 25.4052 56.3522 25.2923 56.1579C24.9308 55.6248 24.6778 55.0713 24.2599 54.5856C23.7245 54.0322 22.9813 53.6278 22.272 53.3003C22.1726 53.246 22.0641 53.2054 21.9851 53.1195C21.9715 53.106 21.9489 53.0585 21.9715 53.0247L22.0529 53.0653Z" fill="white"/>
<path d="M14.6569 74.0584L9.77734 73.2971L12.6237 78.5155L14.6569 74.0584Z" fill="#FFDE17"/>
<path d="M17.5844 79.3422L12.6123 78.5042L15.5513 83.8016L17.5844 79.3422Z" fill="#FFDE17"/>
<path d="M20.4836 84.6218L15.5566 83.7882L18.4505 89.0811L20.4836 84.6218Z" fill="#FFDE17"/>
<path d="M48.7979 78.7608L52.2677 81.4129V76.1064L48.7979 78.7608Z" fill="#FFDE17"/>
<path d="M48.7979 73.4552L52.2677 76.1073V70.8008L48.7979 73.4552Z" fill="#FFDE17"/>
<path d="M48.7979 68.1495L52.2677 70.8016V65.4951L48.7979 68.1495Z" fill="#FFDE17"/>
<path d="M48.7979 62.8428L52.2677 65.495V60.1885L48.7979 62.8428Z" fill="#FFDE17"/>
<path d="M48.7979 57.5361L52.2677 60.1882V54.8817L48.7979 57.5361Z" fill="#FFDE17"/>
<path d="M48.7979 52.2296L52.2677 54.8817V49.5752L48.7979 52.2296Z" fill="#FFDE17"/>
<path d="M116.413 78.7618L119.885 81.4139V76.1074L116.413 78.7618Z" fill="#FFDE17"/>
<path d="M116.413 73.4552L119.885 76.1073V70.8008L116.413 73.4552Z" fill="#FFDE17"/>
<path d="M116.413 68.1495L119.885 70.8016V65.4951L116.413 68.1495Z" fill="#FFDE17"/>
<path d="M116.413 62.8428L119.885 65.495V60.1885L116.413 62.8428Z" fill="#FFDE17"/>
<path d="M116.413 57.5361L119.885 60.1882V54.8817L116.413 57.5361Z" fill="#FFDE17"/>
<path d="M116.413 52.2296L119.885 54.8817V49.5752L116.413 52.2296Z" fill="#FFDE17"/>
<path d="M159.767 61.4121L162.864 63.7774V59.0447L159.767 61.4121Z" fill="#FFDE17"/>
<path d="M159.767 56.6786L162.864 59.0438V54.3134L159.767 56.6786Z" fill="#FFDE17"/>
<path d="M159.767 51.9461L162.864 54.3136V49.5809L159.767 51.9461Z" fill="#FFDE17"/>
<path d="M90.6773 86.1936L89.2939 84.8103L87.9106 86.1936L89.2939 87.5769L90.6773 86.1936Z" fill="#FFDE17"/>
<path d="M93.4439 86.1917L92.0605 84.8083L90.6772 86.1917L92.0605 87.575L93.4439 86.1917Z" fill="#FFDE17"/>
<path d="M96.2124 86.1917L94.8291 84.8083L93.4458 86.1917L94.8291 87.575L96.2124 86.1917Z" fill="#FFDE17"/>
<path d="M98.978 86.1907L97.5947 84.8074L96.2114 86.1907L97.5947 87.574L98.978 86.1907Z" fill="#FFDE17"/>
<path d="M98.9655 83.1436H87.9121V83.9884H98.9655V83.1436Z" fill="#00AEEF"/>
<path d="M98.9655 81.4131H87.9121V82.258H98.9655V81.4131Z" fill="#00AEEF"/>
<path d="M43.9546 86.1939L42.5713 84.8105L41.188 86.1939L42.5713 87.5772L43.9546 86.1939Z" fill="#FFDE17"/>
<path d="M46.7202 86.1948L45.3369 84.8115L43.9536 86.1948L45.3369 87.5782L46.7202 86.1948Z" fill="#FFDE17"/>
<path d="M49.4849 86.1948L48.1016 84.8115L46.7183 86.1948L48.1016 87.5782L49.4849 86.1948Z" fill="#FFDE17"/>
<path d="M52.2515 86.1939L50.8682 84.8105L49.4849 86.1939L50.8682 87.5772L52.2515 86.1939Z" fill="#FFDE17"/>
<path d="M52.2379 83.1436H41.1846V83.9884H52.2379V83.1436Z" fill="#00AEEF"/>
<path d="M52.2379 81.4131H41.1846V82.258H52.2379V81.4131Z" fill="#00AEEF"/>
<path d="M111.596 86.1949L110.213 84.8115L108.83 86.1948L110.213 87.5782L111.596 86.1949Z" fill="#FFDE17"/>
<path d="M114.362 86.1939L112.979 84.8105L111.595 86.1939L112.979 87.5772L114.362 86.1939Z" fill="#FFDE17"/>
<path d="M117.13 86.1949L115.747 84.8115L114.364 86.1948L115.747 87.5782L117.13 86.1949Z" fill="#FFDE17"/>
<path d="M119.893 86.1939L118.51 84.8105L117.126 86.1939L118.51 87.5772L119.893 86.1939Z" fill="#FFDE17"/>
<path d="M119.884 83.1445H108.831V83.9894H119.884V83.1445Z" fill="#00AEEF"/>
<path d="M119.884 81.415H108.831V82.2599H119.884V81.415Z" fill="#00AEEF"/>
<path d="M157.182 90.6413L155.856 89.3154L154.531 90.6413L155.856 91.9671L157.182 90.6413Z" fill="#FFDE17"/>
<path d="M159.835 90.6413L158.509 89.3154L157.183 90.6413L158.509 91.9671L159.835 90.6413Z" fill="#FFDE17"/>
<path d="M162.484 90.6422L161.158 89.3164L159.832 90.6422L161.158 91.9681L162.484 90.6422Z" fill="#FFDE17"/>
<path d="M165.136 90.6413L163.811 89.3154L162.485 90.6413L163.811 91.9671L165.136 90.6413Z" fill="#FFDE17"/>
<path d="M164.771 88.6076H154.231L154.129 87.7627H164.64L164.771 88.6076Z" fill="#00AEEF"/>
<path d="M164.572 87.3019H154.072L153.968 86.457H164.432L164.572 87.3019Z" fill="#00AEEF"/>
<path d="M67.146 56.1113L67.0196 60.2205L62.75 59.71C62.75 59.71 64.1619 57.5074 67.146 56.1113Z" fill="#FFDE17"/>
<path d="M62.7475 59.707L64.6609 63.3464L60.5449 64.9864C60.5449 64.9864 61.0419 61.9435 62.7497 59.707H62.7475Z" fill="#FFDE17"/>
<path d="M60.5462 64.9873L63.3949 67.9082L60.1509 70.6936C60.1509 70.6936 59.9815 67.7004 60.544 64.9873H60.5462Z" fill="#FFDE17"/>
<path d="M60.1521 70.6932L63.8569 72.8393L61.0987 76.5464C61.0987 76.5464 60.1792 74.1925 60.1521 70.6955V70.6932Z" fill="#FFDE17"/>
<path d="M61.0918 76.5352L65.341 77.188L64.3809 81.5141C64.3809 81.5141 62.1084 79.7453 61.0918 76.5352Z" fill="#FFDE17"/>
<path d="M64.3721 81.5038L68.6936 80.2998L69.8253 84.3028C69.8253 84.3028 66.5249 83.537 64.3721 81.5038Z" fill="#FFDE17"/>
<path d="M134.797 57.1963L134.354 61.0367L130.283 61.1338C130.283 61.1338 131.761 58.685 134.797 57.1986V57.1963Z" fill="#FFDE17"/>
<path d="M130.286 61.1309L131.79 64.594L128.155 66.53C128.155 66.53 128.6 63.5187 130.288 61.1309H130.286Z" fill="#FFDE17"/>
<path d="M128.151 66.5312L130.704 69.2827L127.785 72.2082C127.785 72.2082 127.634 69.2398 128.151 66.5312Z" fill="#FFDE17"/>
<path d="M127.786 72.209L131.132 74.5268L128.73 78.0734C128.73 78.0734 127.82 75.7534 127.786 72.209Z" fill="#FFDE17"/>
<path d="M128.727 78.0732L132.675 79.013L131.946 83.1832C131.946 83.1832 129.77 81.2449 128.727 78.0732Z" fill="#FFDE17"/>
<path d="M131.936 83.1676L136.115 82.4922L137.441 86.3258C137.441 86.3258 134.17 85.4402 131.934 83.1676H131.936Z" fill="#FFDE17"/>
<path d="M12.7532 37.0605C12.7668 37.0854 12.7803 37.1125 12.7961 37.1374C13.2253 37.7722 13.6252 38.4318 13.9663 39.1366C14.1312 39.4778 14.278 39.8279 14.3729 40.2052C14.4362 40.4514 14.4452 40.6976 14.4158 40.9484C14.3797 41.2398 14.3007 41.5131 14.1674 41.7661C13.9257 42.2247 13.5845 42.5387 13.1305 42.672C12.7577 42.7827 12.394 42.7398 12.0506 42.5432C11.5356 42.2496 11.2306 41.7617 11.0973 41.1224C11.016 40.7315 11.0522 40.352 11.1742 39.9793C11.3594 39.419 11.6215 38.9062 11.9038 38.4047C12.1546 37.9552 12.4256 37.5237 12.7125 37.1035C12.7216 37.0922 12.7261 37.0764 12.7329 37.0628C12.7397 37.0628 12.7464 37.0628 12.751 37.0628L12.7532 37.0605Z" fill="white"/>
<path d="M17.7164 37.0603C17.7299 37.0852 17.7435 37.1123 17.7593 37.1371C18.1885 37.7719 18.5883 38.4316 18.9294 39.1364C19.0943 39.4775 19.2412 39.8277 19.3361 40.2049C19.3993 40.4512 19.4083 40.6974 19.379 40.9482C19.3428 41.2396 19.2638 41.5129 19.1305 41.7659C18.8888 42.2245 18.5477 42.5385 18.0936 42.6718C17.7209 42.7825 17.3572 42.7395 17.0138 42.543C16.4987 42.2493 16.1938 41.7614 16.0605 41.1221C15.9792 40.7313 16.0153 40.3518 16.1373 39.979C16.3225 39.4188 16.5846 38.906 16.867 38.4045C17.1177 37.9549 17.3888 37.5234 17.6757 37.1033C17.6847 37.092 17.6892 37.0761 17.696 37.0626C17.7028 37.0626 17.7096 37.0626 17.7141 37.0626L17.7164 37.0603Z" fill="white"/>
<path d="M22.6829 37.0605C22.6965 37.0854 22.71 37.1125 22.7258 37.1374C23.155 37.7722 23.5549 38.4318 23.896 39.1366C24.0609 39.4778 24.2077 39.8279 24.3026 40.2052C24.3659 40.4514 24.3749 40.6976 24.3455 40.9484C24.3094 41.2398 24.2303 41.5131 24.0971 41.7661C23.8553 42.2247 23.5142 42.5387 23.0602 42.672C22.6874 42.7827 22.3237 42.7398 21.9803 42.5432C21.4653 42.2496 21.1603 41.7617 21.027 41.1224C20.9457 40.7315 20.9819 40.352 21.1039 39.9793C21.2891 39.419 21.5511 38.9062 21.8335 38.4047C22.0843 37.9552 22.3554 37.5237 22.6423 37.1035C22.6513 37.0922 22.6558 37.0764 22.6626 37.0628C22.6693 37.0628 22.6761 37.0628 22.6807 37.0628L22.6829 37.0605Z" fill="white"/>
<path d="M27.6419 37.0605C27.6554 37.0854 27.669 37.1125 27.6848 37.1374C28.114 37.7722 28.5138 38.4318 28.855 39.1366C29.0199 39.4778 29.1667 39.8279 29.2616 40.2052C29.3248 40.4514 29.3339 40.6976 29.3045 40.9484C29.2684 41.2398 29.1893 41.5131 29.056 41.7661C28.8143 42.2247 28.4732 42.5387 28.0191 42.672C27.6464 42.7827 27.2827 42.7398 26.9393 42.5432C26.4243 42.2496 26.1193 41.7617 25.986 41.1224C25.9047 40.7315 25.9409 40.352 26.0628 39.9793C26.2481 39.419 26.5101 38.9062 26.7925 38.4047C27.0433 37.9552 27.3144 37.5237 27.6012 37.1035C27.6103 37.0922 27.6148 37.0764 27.6215 37.0628C27.6283 37.0628 27.6351 37.0628 27.6396 37.0628L27.6419 37.0605Z" fill="white"/>
<path d="M32.605 37.0603C32.6186 37.0852 32.6321 37.1123 32.6479 37.1371C33.0772 37.7719 33.477 38.4316 33.8182 39.1364C33.9831 39.4775 34.1299 39.8277 34.2247 40.2049C34.288 40.4512 34.2971 40.6974 34.2677 40.9482C34.2315 41.2396 34.1525 41.5129 34.0192 41.7659C33.7775 42.2245 33.4363 42.5385 32.9823 42.6718C32.6095 42.7825 32.2458 42.7395 31.9025 42.543C31.3874 42.2493 31.0824 41.7614 30.9492 41.1221C30.8678 40.7313 30.904 40.3518 31.026 39.979C31.2112 39.4188 31.4733 38.906 31.7556 38.4045C32.0064 37.9549 32.2775 37.5234 32.5644 37.1033C32.5734 37.092 32.5779 37.0761 32.5847 37.0626C32.5915 37.0626 32.5983 37.0626 32.6028 37.0626L32.605 37.0603Z" fill="white"/>
<path d="M37.5684 37.0603C37.582 37.0852 37.5955 37.1123 37.6113 37.1371C38.0405 37.7719 38.4404 38.4316 38.7815 39.1364C38.9464 39.4775 39.0932 39.8277 39.1881 40.2049C39.2514 40.4512 39.2604 40.6974 39.2311 40.9482C39.1949 41.2396 39.1158 41.5129 38.9826 41.7659C38.7408 42.2245 38.3997 42.5385 37.9456 42.6718C37.5729 42.7825 37.2093 42.7395 36.8659 42.543C36.3508 42.2493 36.0458 41.7614 35.9125 41.1221C35.8312 40.7313 35.8674 40.3518 35.9894 39.979C36.1746 39.4188 36.4366 38.906 36.719 38.4045C36.9698 37.9549 37.2409 37.5234 37.5278 37.1033C37.5368 37.092 37.5413 37.0761 37.5481 37.0626C37.5549 37.0626 37.5616 37.0626 37.5661 37.0626L37.5684 37.0603Z" fill="white"/>
<path d="M46.8804 37.4349C51.9133 37.4349 55.9933 33.3549 55.9933 28.3219C55.9933 23.289 51.9133 19.209 46.8804 19.209C41.8475 19.209 37.7676 23.289 37.7676 28.3219C37.7676 33.3549 41.8475 37.4349 46.8804 37.4349Z" fill="#EC136E" stroke="#262262" stroke-width="1.58132" stroke-miterlimit="10"/>
<path d="M42.3293 29.7519L43.8699 28.2112L45.4083 29.7496L46.9467 28.2112L48.4851 29.7496L50.0235 28.2112L51.5573 29.7451L53.0912 28.2112L53.107 28.2271C53.1274 28.026 53.1364 27.8227 53.1364 27.6171C53.1364 24.1924 50.3601 21.416 46.9354 21.416C43.5107 21.416 40.7344 24.1924 40.7344 27.6171C40.7344 27.8227 40.7457 28.026 40.7638 28.2271L40.7795 28.2112L42.3202 29.7519" fill="#231F20"/>
<path d="M52.825 25.6693C52.825 25.6693 52.825 25.6896 52.825 25.6987C52.825 26.0691 52.7142 26.3718 52.5787 26.3718C52.4432 26.3718 52.3325 26.0714 52.3325 25.6987C52.3325 25.3259 52.4386 25.0367 52.5719 25.0277C52.3799 24.6097 52.1427 24.2167 51.8671 23.8575C51.8784 23.9366 51.8852 24.0247 51.8852 24.1151C51.8852 24.4855 51.7745 24.7883 51.639 24.7883C51.5034 24.7883 51.3927 24.4878 51.3927 24.1151C51.3927 23.8236 51.4605 23.5751 51.5576 23.4825C51.3588 23.2611 51.1443 23.0533 50.9138 22.8613C50.8709 23.0623 50.7919 23.2001 50.6992 23.2001C50.5637 23.2001 50.453 22.8997 50.453 22.5269C50.453 22.5224 50.453 22.5179 50.453 22.5111C49.4545 21.8221 48.2436 21.4177 46.9402 21.4177C45.6367 21.4177 44.4259 21.8221 43.4274 22.5111C43.4274 22.5156 43.4274 22.5202 43.4274 22.5269C43.4274 22.8974 43.3167 23.2001 43.1812 23.2001C43.0908 23.2001 43.0095 23.0646 42.9666 22.8613C42.7385 23.0533 42.5216 23.2611 42.3228 23.4825C42.4176 23.5751 42.4877 23.8236 42.4877 24.1151C42.4877 24.4855 42.377 24.7883 42.2414 24.7883C42.1059 24.7883 41.9952 24.4878 41.9952 24.1151C41.9952 24.0247 42.002 23.9366 42.0133 23.8575C41.7377 24.2189 41.5005 24.612 41.3085 25.0277C41.4418 25.039 41.5479 25.3349 41.5479 25.6987C41.5479 26.0624 41.4372 26.3718 41.3017 26.3718C41.1661 26.3718 41.0554 26.0714 41.0554 25.6987C41.0554 25.6896 41.0554 25.6783 41.0554 25.6693C40.8521 26.2815 40.7415 26.9366 40.7415 27.6188C40.7415 27.8244 40.7527 28.0277 40.7708 28.2288L40.7866 28.2129L42.3273 29.7536L43.868 28.2129L45.4063 29.7514L46.9447 28.2129L48.4831 29.7514L50.0215 28.2129L51.5554 29.7468L53.0892 28.2129L53.1051 28.2288C53.1254 28.0277 53.1344 27.8244 53.1344 27.6188C53.1344 26.9366 53.0237 26.2837 52.8204 25.6693H52.825ZM42.2392 27.96C42.1036 27.96 41.993 27.6594 41.993 27.2867C41.993 26.914 42.1036 26.6135 42.2392 26.6135C42.3747 26.6135 42.4854 26.914 42.4854 27.2867C42.4854 27.6594 42.3747 27.96 42.2392 27.96ZM43.1789 26.3718C43.0434 26.3718 42.9327 26.0714 42.9327 25.6987C42.9327 25.3259 43.0434 25.0255 43.1789 25.0255C43.3145 25.0255 43.4251 25.3259 43.4251 25.6987C43.4251 26.0714 43.3145 26.3718 43.1789 26.3718ZM44.1187 27.96C43.9831 27.96 43.8724 27.6594 43.8724 27.2867C43.8724 26.914 43.9831 26.6135 44.1187 26.6135C44.2542 26.6135 44.3649 26.914 44.3649 27.2867C44.3649 27.6594 44.2542 27.96 44.1187 27.96ZM44.1187 24.786C43.9831 24.786 43.8724 24.4855 43.8724 24.1128C43.8724 23.7401 43.9831 23.4396 44.1187 23.4396C44.2542 23.4396 44.3649 23.7401 44.3649 24.1128C44.3649 24.4855 44.2542 24.786 44.1187 24.786ZM45.0584 26.3718C44.9229 26.3718 44.8122 26.0714 44.8122 25.6987C44.8122 25.3259 44.9229 25.0255 45.0584 25.0255C45.194 25.0255 45.3047 25.3259 45.3047 25.6987C45.3047 26.0714 45.194 26.3718 45.0584 26.3718ZM45.0584 23.1979C44.9229 23.1979 44.8122 22.8974 44.8122 22.5247C44.8122 22.1519 44.9229 21.8515 45.0584 21.8515C45.194 21.8515 45.3047 22.1519 45.3047 22.5247C45.3047 22.8974 45.194 23.1979 45.0584 23.1979ZM45.9982 27.96C45.8627 27.96 45.7519 27.6594 45.7519 27.2867C45.7519 26.914 45.8627 26.6135 45.9982 26.6135C46.1337 26.6135 46.2444 26.914 46.2444 27.2867C46.2444 27.6594 46.1337 27.96 45.9982 27.96ZM45.9982 24.786C45.8627 24.786 45.7519 24.4855 45.7519 24.1128C45.7519 23.7401 45.8627 23.4396 45.9982 23.4396C46.1337 23.4396 46.2444 23.7401 46.2444 24.1128C46.2444 24.4855 46.1337 24.786 45.9982 24.786ZM46.9379 26.3718C46.8024 26.3718 46.6917 26.0714 46.6917 25.6987C46.6917 25.3259 46.8024 25.0255 46.9379 25.0255C47.0735 25.0255 47.1842 25.3259 47.1842 25.6987C47.1842 26.0714 47.0735 26.3718 46.9379 26.3718ZM46.9379 23.1979C46.8024 23.1979 46.6917 22.8974 46.6917 22.5247C46.6917 22.1519 46.8024 21.8515 46.9379 21.8515C47.0735 21.8515 47.1842 22.1519 47.1842 22.5247C47.1842 22.8974 47.0735 23.1979 46.9379 23.1979ZM47.8777 27.96C47.7422 27.96 47.6315 27.6594 47.6315 27.2867C47.6315 26.914 47.7422 26.6135 47.8777 26.6135C48.0133 26.6135 48.1239 26.914 48.1239 27.2867C48.1239 27.6594 48.0133 27.96 47.8777 27.96ZM47.8777 24.786C47.7422 24.786 47.6315 24.4855 47.6315 24.1128C47.6315 23.7401 47.7422 23.4396 47.8777 23.4396C48.0133 23.4396 48.1239 23.7401 48.1239 24.1128C48.1239 24.4855 48.0133 24.786 47.8777 24.786ZM48.8175 26.3718C48.6819 26.3718 48.5712 26.0714 48.5712 25.6987C48.5712 25.3259 48.6819 25.0255 48.8175 25.0255C48.953 25.0255 49.0637 25.3259 49.0637 25.6987C49.0637 26.0714 48.953 26.3718 48.8175 26.3718ZM48.8175 23.1979C48.6819 23.1979 48.5712 22.8974 48.5712 22.5247C48.5712 22.1519 48.6819 21.8515 48.8175 21.8515C48.953 21.8515 49.0637 22.1519 49.0637 22.5247C49.0637 22.8974 48.953 23.1979 48.8175 23.1979ZM49.7594 27.96C49.6239 27.96 49.5132 27.6594 49.5132 27.2867C49.5132 26.914 49.6239 26.6135 49.7594 26.6135C49.895 26.6135 50.0057 26.914 50.0057 27.2867C50.0057 27.6594 49.895 27.96 49.7594 27.96ZM49.7594 24.786C49.6239 24.786 49.5132 24.4855 49.5132 24.1128C49.5132 23.7401 49.6239 23.4396 49.7594 23.4396C49.895 23.4396 50.0057 23.7401 50.0057 24.1128C50.0057 24.4855 49.895 24.786 49.7594 24.786ZM50.6992 26.3718C50.5637 26.3718 50.453 26.0714 50.453 25.6987C50.453 25.3259 50.5637 25.0255 50.6992 25.0255C50.8348 25.0255 50.9454 25.3259 50.9454 25.6987C50.9454 26.0714 50.8348 26.3718 50.6992 26.3718ZM51.639 27.96C51.5034 27.96 51.3927 27.6594 51.3927 27.2867C51.3927 26.914 51.5034 26.6135 51.639 26.6135C51.7745 26.6135 51.8852 26.914 51.8852 27.2867C51.8852 27.6594 51.7745 27.96 51.639 27.96Z" fill="#FFDE17"/>
<path d="M43.8564 29.7207L42.2977 31.2795L40.7706 29.7524C40.7502 29.9534 40.7412 30.1567 40.7412 30.3623C40.7412 30.5679 40.7525 30.7373 40.7706 30.9384L40.7864 30.9542L42.327 32.4948L43.8677 30.9542L45.4061 32.4926L46.9445 30.9542L48.4829 32.4926L50.0213 30.9542L51.5551 32.488L53.089 30.9542L53.1048 30.9361C53.1252 30.735 53.1342 30.5679 53.1342 30.3623C53.1342 30.1748 53.1252 29.9918 53.1094 29.8088L51.6387 31.2795L50.0823 29.723L48.5258 31.2795L46.9693 29.723L45.4129 31.2795L43.8541 29.7207" fill="#00AEEF"/>
<path d="M43.8567 30.8206L42.2979 32.3793L40.7708 30.8522C40.7505 31.0533 40.7415 31.2566 40.7415 31.4622C40.7415 31.6678 40.7527 32.411 40.7708 32.6098L40.7866 32.6256L42.3273 34.1663L43.868 32.6256L45.4063 34.164L46.9447 32.6256L48.4831 34.164L50.0215 32.6256L51.5554 34.1595L53.0892 32.6256L53.1051 32.6075C53.1254 32.4064 53.1345 31.6655 53.1345 31.4599C53.1345 31.2724 53.1254 31.0894 53.1096 30.9064L51.639 32.3771L50.0825 30.8206L48.526 32.3771L46.9696 30.8206L45.4131 32.3771L43.8544 30.8184" fill="#FFDE17"/>
<path d="M30.9101 66.8398H18.167V72.8037H30.9101V66.8398Z" fill="#EC136E"/>
<path d="M70.9391 34.8243H64.9414V2.71204H75.9451L79.1032 25.5329H79.1936L82.3517 2.71204H93.1317V34.8243H86.366V7.40181H86.2756L81.9451 34.8243H75.36L71.0295 7.40181H70.9391V34.8243Z" fill="#262262" stroke="#262262" stroke-width="0.451806" stroke-miterlimit="10"/>
<path d="M106.523 14.2128V9.70372C106.523 8.12465 106.026 7.2233 104.537 7.2233C102.913 7.2233 102.554 8.12465 102.554 9.70372C102.554 15.1164 114.01 16.6954 114.01 26.6171C114.01 32.6601 110.763 35.4568 104.492 35.4568C99.7122 35.4568 95.0654 33.8325 95.0654 28.2866V22.334H102.552V27.8822C102.552 29.7775 103.139 30.3175 104.535 30.3175C105.753 30.3175 106.521 29.7753 106.521 27.8822C106.521 20.6217 95.0654 20.4861 95.0654 10.1126C95.0654 4.29559 98.899 2.08398 104.671 2.08398C109.722 2.08398 114.007 3.79856 114.007 9.16378V14.215H106.521L106.523 14.2128Z" fill="#262262" stroke="#262262" stroke-width="0.451806" stroke-miterlimit="10"/>
<path d="M121.947 34.8243H115.949V2.71204H126.953L130.111 25.5329H130.201L133.36 2.71204H144.14V34.8243H137.374V7.40181H137.283L132.953 34.8243H126.368L122.037 7.40181H121.947V34.8243Z" fill="#262262" stroke="#262262" stroke-width="0.451806" stroke-miterlimit="10"/>
<path d="M145.986 34.8243V2.71204H161.501V7.58249H153.473V14.6194H161.23V19.4899H153.473V29.9538H161.501V34.8243H145.986Z" fill="#262262" stroke="#262262" stroke-width="0.451806" stroke-miterlimit="10"/>
<path d="M69.673 32.8626H63.7295V1.05078H74.6315L77.758 23.6593H77.8484L80.9749 1.05078H91.6532V32.8626H84.9507V5.69764H84.8604L80.5705 32.8626H74.0464L69.7565 5.69764H69.6685V32.8626H69.673Z" fill="#FFDE17" stroke="#262262" stroke-width="0.451806" stroke-miterlimit="10"/>
<path d="M104.923 12.4441V7.97566C104.923 6.41241 104.43 5.51785 102.957 5.51785C101.349 5.51785 100.992 6.41241 100.992 7.97566C100.992 13.3364 112.341 14.9019 112.341 24.731C112.341 30.7175 109.124 33.4893 102.914 33.4893C98.1771 33.4893 93.5755 31.8808 93.5755 26.3846V20.4863H100.992V25.9825C100.992 27.8598 101.572 28.3952 102.957 28.3952C104.164 28.3952 104.923 27.8598 104.923 25.9825C104.923 18.7897 93.5732 18.6542 93.5732 8.37778C93.5732 2.61497 97.3707 0.423706 103.091 0.423706C108.094 0.423706 112.339 2.12252 112.339 7.43804V12.4418H104.923V12.4441Z" fill="#FFDE17" stroke="#262262" stroke-width="0.451806" stroke-miterlimit="10"/>
<path d="M120.203 32.8625H114.26V1.05066H125.162L128.288 23.6592H128.379L131.505 1.05066H142.184V32.8625H135.481V5.69752H135.391L131.101 32.8625H124.577L120.287 5.69752H120.199V32.8625H120.203Z" fill="#FFDE17" stroke="#262262" stroke-width="0.451806" stroke-miterlimit="10"/>
<path d="M144.016 32.8626V1.05078H159.387V5.87612H151.433V12.8452H159.118V17.6706H151.433V28.0373H159.387V32.8626H144.016Z" fill="#FFDE17" stroke="#262262" stroke-width="0.451806" stroke-miterlimit="10"/>
</svg>
