<svg version="1.2" xmlns="http://www.w3.org/2000/svg" viewBox="0 0 433 348" width="433" height="348">
	<title>logo</title>
	<style>
		.s0 { fill: #c0232f } 
		.s1 { fill: #3c2213 } 
		.s2 { fill: #fdf9f9 } 
		.s3 { fill: #fefdfd } 
		.s4 { fill: #fcf7f7 } 
		.s5 { fill: #e7a267 } 
		.s6 { fill: #e7a368 } 
		.s7 { fill: #fcf4f5 } 
		.s8 { fill: #fcf6f6 } 
		.s9 { fill: #fbf4f4 } 
		.s10 { fill: #e48f34 } 
		.s11 { fill: #eea819 } 
		.s12 { fill: #c02534 } 
		.s13 { fill: #d15f60 } 
		.s14 { fill: #e28b30 } 
		.s15 { fill: #efab1a } 
		.s16 { fill: #f2b519 } 
		.s17 { fill: #eca31b } 
		.s18 { fill: #d56430 } 
		.s19 { fill: #d46032 } 
		.s20 { fill: #f2b71c } 
		.s21 { fill: #e58e1d } 
		.s22 { fill: #f6c017 } 
		.s23 { fill: #eeac1b } 
		.s24 { fill: #f6c116 } 
		.s25 { fill: #ce5149 } 
		.s26 { fill: #f8c515 } 
		.s27 { fill: #eda91b } 
		.s28 { fill: #c94641 } 
		.s29 { fill: #f5bc17 } 
		.s30 { fill: #cc5046 } 
		.s31 { fill: #cb4d44 } 
		.s32 { fill: #c63837 } 
		.s33 { fill: #ce513c } 
		.s34 { fill: #cb4c44 } 
		.s35 { fill: #f3b818 } 
		.s36 { fill: #f1b21a } 
		.s37 { fill: #efac1a } 
		.s38 { fill: #ca4a42 } 
		.s39 { fill: #cc5246 } 
		.s40 { fill: #3c2211 } 
	</style>
	<path class="s0" d="m188.3 4.6c3.7 0.4 3.7 0.4 6.2 2.6 1.5 2.8 1.5 2.8 1.3 5.6-0.8 2.2-0.8 2.2-1.8 3.2q-2.5 0.1-5 0 0 1.5 0 3c-2.6 1.3-5.3 2.6-8 4q0 3.2 0.1 6.4c-0.1 2.8-0.3 5-1.1 7.6q1 0.5 2 1-1 0-2 0 0 1.5 0 3 1 0 2 0 0.5 2.5 1 5 1 0 2 0c0 12.2 0 24.4 0 37q3 0 6 0c0-2.6 0-5.3 0-8 2.3 0 4.6 0 7 0 0-5.3 0-10.6 0-16q2.5 0 5 0c0 4.3 0 8.6 0 13q1.5 0 3 0c0.3-3.3 0.7-6.6 1-10q2 0 4 0 0-2.5 0-5 0.5 0 1 0 0 2.5 0 5c3 0 5.9 0 9 0q0-3 0.1-5.9c0-1.7 0-1.7 0-3.4 0.2-2.6 0.2-2.6-1.1-3.7q-0.1-2.5 0-5 1.5-0.5 3-1c1.1-1.9 1.1-1.9 2-4 1-1 1-1 2-2 2.6 0.4 2.6 0.4 5 1q0 2.5 0 5-1.5 0-3 0-0.5 1.5-1 3c-2.1 0.7-2.1 0.7-4 1q0.7 1.2 1.5 2.4c1.8 4.4 1.8 7.8 1.7 12.5q0 1.1-0.1 2.4 0 2.8-0.1 5.7 0.9 0.2 1.8 0.4c3.2 0.9 5.5 2.7 8.2 4.6 1-3.6 1.5-7.3 2-11q2 0 4 0c0.3 2.6 0.7 5.3 1 8 0.3-12.9 0.7-25.7 1-39q-1.5-0.5-3-1 0.5-1.5 1-3c2.8-0.9 4.6-1.2 7.5-1.2q1.2 0 2.3 0c2.2 0.2 2.2 0.2 5.2 2.2q-0.5 1.5-1 3-1 0-2 0c0 13.9 0 27.7 0 42q3 0 6 0c0-5.9 0-11.9 0-18q2 0 4 0c1.4-3.8 2.2-6.9 2-11q3 0 6 0 0.2 1.2 0.4 2.4 0.3 1.5 0.5 3 0.3 1.5 0.6 3.1c0.2 2.4 0.2 2.4 1.5 3.5 0.1 2.7 0 5.3 0 8q2.5 0 5 0c0-6.3 0-12.5 0-19q3 0 6 0c0 5.3 0 10.6 0 16q2 0 4 0c0.3-4.3 0.7-8.6 1-13q2 0 4 0 0-2.5 0-5 1 0 2 0 0 2.5 0 5c2.9-0.3 2.9-0.3 6-1q1-1.5 2-3 0 2 0 4 1.5 0 3 0 0-1.1 0-2.3c0-1.5 0-1.5-0.1-3q0-1.5 0-3c0.1-2.7 0.1-2.7 1.1-5.7q-1.5-0.5-3-1 0.5-3 1-6 1.5-0.5 3-1 0.5-1.5 1-3 1 0 2 0 1-2 2-4c4.9 0.9 4.9 0.9 6 2q0.1 2.5 0 5-2 0-4 0-0.5 1.5-1 3c-2.1 1.7-2.1 1.7-4 3q0.5 1.1 1 2.3c1.2 4.3 1.1 8 1 12.5 0 3 0.4 5.9 0.8 8.9 0.4 4.5 0.3 8.9 0.3 13.3q0 1.4-0.1 2.9 0 3.6 0 7.1 1.5 0 3 0c0 3 0 5.9 0 9 3.5-0.5 3.5-0.5 7-1q-3 0-6 0 0.5-3 1-6 2.5 0 5 0c0-5.3 0-10.6 0-16q1 0 2 0 0-2.5 0-5 0.5 0 1 0c0.3-3 0.7-5.9 1-9q2.5 0.5 5 1c0.7 4.3 1.3 8.6 2 13 0-16.8 0-33.7 0-51q-1 0-2 0-0.5-2-1-4c2 0.5 2 0.5 4 1q0-1 0-2 2.7 0 5.3-0.1 1.5 0 3 0c2.7 0.1 2.7 0.1 5.7 1.1q0 2 0 4-1 0-2 0c0 16.5 0 33 0 50 2.3 0 4.6 0 7 0-0.3-6.9-0.7-13.9-1-21q3 0 6 0 0.2-1.6 0.4-3.2c1.3-8.5 1.3-8.5 3.6-10.8 2.6 0.4 2.6 0.4 5 1q-0.5 2.5-1 5 1 0.5 2 1-1 0-2 0 0 1.5 0 3 1 0 2 0 0.5 2.5 1 5 1 0 2 0c0 19.5 0 38.9 0 59 2.3 0.3 4.6 0.7 7 1 3.8 2.2 5.9 4.7 7.5 8.8 1 4.6 0.7 9.5 0.5 14.2q0.8-0.1 1.7-0.2c5.3-0.3 8.5 0.3 12.8 3.4 4.3 5.1 4.8 10 4.3 16.5-1.4 17.8-1.4 17.8 5.4 33.5 3.9 4.1 8.3 7.5 12.8 10.9 3.7 3.5 4.9 7.3 5.1 12.4-1.8 7.5-5.9 12.4-12.4 16.7-4.3 3-7.6 5.9-9.7 10.8-1.2 7.5-1.2 15-1 22.6q0 1.1 0 2.3 0.1 2.2 0.2 4.3c0.1 5.1-0.9 8.3-3.2 12.8-3.9 3.6-6.3 5.1-11.6 5.1q-1.2-0.1-2.5-0.1c-0.9 0-0.9 0-1.9 0q0.1 1.2 0.1 2.3c0.3 6.8 0.2 12.3-4.1 17.7-4.9 3.9-8.6 5.1-14.8 5.1q-1.7 0-3.5 0-1.9 0-3.9 0-1.9 0-4 0-5.2 0-10.4 0-5.3 0-10.6-0.1-10.4 0-20.8 0-0.4 1.4-0.9 2.9c-1.3 3.8-2.7 4.9-6.1 7.1-5.8 2.7-11.3 2-17.5 1.7-27.7-2.4-27.7-2.4-51.8 8-2.7 3.3-5.2 6.6-7.4 10.3-1.7 2.6-3.4 3.9-6.3 5-2.7 0.4-2.7 0.4-5.4 0.4-1.4 0.1-1.4 0.1-2.8 0.1-5.7-1-8.9-4.4-12.4-8.8-8.5-10.3-8.5-10.3-20.6-15.2-6.8-0.6-13.6-0.3-20.4 0.1q-5.3 0.1-10.5 0.2-3.3 0.1-6.5 0.2c-6.6 0.3-12.8 0.2-18-4.4-2.3-2.6-3.4-4-3.4-7.6q-1.1 0-2.2 0-10.5 0.1-20.9 0.2-5.4 0-10.7 0-5.2 0.1-10.4 0.1-2.9 0-5.9 0c-13 0-13 0-18.6-4.8-3.8-5-4.4-8-4.4-14.2q0.1-1.7 0.1-3.6 0-1.3 0-2.7-0.9 0.1-1.8 0.1c-5.6 0.3-8.7-0.3-13.2-4.1-2.9-3.4-4-5.8-3.9-10.3q0.1-1 0.1-2c1.8-19.8 1.8-19.8-5.6-37.3-4.2-4.3-8.7-8-13.6-11.5-3-2.8-3.8-6.1-4.2-10.2 0.5-6.7 3.3-10.2 8.2-14.7q1.8-1.2 3.5-2.3c5-3.6 9.6-7.3 10.9-13.6 0.9-7.1 0.9-14.3 0.7-21.5q0-1.1-0.1-2.3 0-2.3-0.1-4.5c-0.2-4.7 0.6-7.8 3.1-11.8 4-3.6 6.3-5.1 11.6-5.1q1.2 0.1 2.5 0.1 0.9 0 1.9 0-0.1-1.3-0.1-2.6c-0.3-11.9-0.3-11.9 3.1-16.4 3.5-3.4 5-4 10-5 0-9.6 0-19.1 0-29 4.9 0 9.9 0 15 0 0-3.3 0-6.6 0-10 3 0 5.9 0 9 0 0-6.3 0-12.5 0-19q2.5 0 5 0c0 5.3 0 10.6 0 16q2 0 4 0c0.3-4.3 0.7-8.6 1-13q2 0 4 0 0-2.5 0-5 1 0 2 0 0 2.5 0 5 3 0 6 0 0.5-2 1-4c0.5 2 0.5 2 1 4q1.5 0 3 0 0-1.1 0-2.3 0-1.5-0.1-3 0-1.5 0-3c0.1-2.7 0.1-2.7 1.1-5.7q-1 0-2 0c-0.8-2.1-0.8-2.1-1-5 1.4-2.4 3-4 5-6q1 0 2 0 1-2 2-4c4.9 0.9 4.9 0.9 6 2q0.1 2.5 0 5-2 0-4 0c-0.4 0.9-0.4 0.9-0.8 1.9-1.2 2.1-1.2 2.1-4.2 4.1q0.5 1.2 1 2.4c1.2 4.3 1.5 8.2 1.6 12.7 0.1 1.2 0.1 1.2 0.1 2.6 0.4 9.7 0.4 19.5 0.3 29.3q1.5 0 3 0c0 2.6 0 5.3 0 8 1-2 1.5-3.8 2-6q2.5 0 5 0c0-5.3 0-10.6 0-16q1 0 2 0 0-2.5 0-5 0.5 0 1 0c0.3-3 0.7-5.9 1-9q2.5 0.5 5 1 0.2 1.3 0.4 2.6c0.3 1.6 0.3 1.6 0.5 3.3q0.3 1.7 0.6 3.4c0.2 2.6 0.2 2.6 1.5 3.7 0-16.8 0-33.7 0-51q-1.5 0-3 0-0.5-2-1-4c3.2-1 6.2-1.1 9.6-1.1q1.4 0 2.8 0c2.6 0.1 2.6 0.1 5.6 1.1q0 2 0 4-1 0-2 0c0 16.5 0 33 0 50 2.3 0 4.6 0 7 0 0-6.9 0-13.9 0-21q2.5 0 5 0 0.2-1.6 0.4-3.2c0.6-4 1.4-8 2.3-12 0.1-1.4 0.1-1.4 0.3-2.8-1-1-1-1-2-2-0.4-2.9-0.4-2.9 0-6 1.9-2.4 1.9-2.4 4-4q1 0 2 0 0-2 0-4 2 0 4 0 0.2-1.2 0.4-2.4c0.9-3.8 0.9-3.5 4.9-4zm-8.3 37.4c1 2 1 2 1 2zm184 1c1 3 1 3 1 3zm-245 17c0 4.3 0 8.6 0 13q0.5 0 1 0c0-4.3 0-8.6 0-13q-0.5 0-1 0zm190 0c0 3.6 0 7.3 0 11q0.5 0 1 0c0-3.6 0-7.3 0-11q-0.5 0-1 0zm-200 16c0 5.6 0 11.2 0 17q1-0.5 2-1c-0.3-5.3-0.7-10.6-1-16q-0.5 0-1 0zm190 0c1 4 1 4 1 4zm0 10c1 4 1 4 1 4zm9 3q0 0.5 0 1c3.3 0 6.6 0 10 0q0-0.5 0-1c-3.3 0-6.6 0-10 0zm31 1c0 4.9 0 9.9 0 15q0.5 0 1 0c0-4.9 0-9.9 0-15q-0.5 0-1 0zm-239 9q0 3 0 6 1 0 2 0 0-3 0-6-1 0-2 0z"/>
	<path class="s1" d="m188.3 4.6c3.7 0.4 3.7 0.4 6.2 2.6 1.5 2.8 1.5 2.8 1.3 5.6-0.8 2.2-0.8 2.2-1.8 3.2q-2.5 0.1-5 0 0 1.5 0 3c-2.6 1.3-5.3 2.6-8 4q0 3.2 0.1 6.4c-0.1 2.8-0.3 5-1.1 7.6q1 0.5 2 1-1 0-2 0 0 1.5 0 3 1 0 2 0 0.5 2.5 1 5 1 0 2 0c0 12.2 0 24.4 0 37q3 0 6 0c0-2.6 0-5.3 0-8 2.3 0 4.6 0 7 0 0-5.3 0-10.6 0-16q2.5 0 5 0c0 4.3 0 8.6 0 13q1.5 0 3 0c0.3-3.3 0.7-6.6 1-10q2 0 4 0 0-2.5 0-5 0.5 0 1 0 0 2.5 0 5c3 0 5.9 0 9 0q0-3 0.1-5.9c0-1.7 0-1.7 0-3.4 0.2-2.6 0.2-2.6-1.1-3.7q-0.1-2.5 0-5 1.5-0.5 3-1c1.1-1.9 1.1-1.9 2-4 1-1 1-1 2-2 2.6 0.4 2.6 0.4 5 1q0 2.5 0 5-1.5 0-3 0-0.5 1.5-1 3c-2.1 0.7-2.1 0.7-4 1q0.7 1.2 1.5 2.4c1.8 4.4 1.8 7.8 1.7 12.5q0 1.1-0.1 2.4 0 2.8-0.1 5.7 0.9 0.2 1.8 0.4c3.2 0.9 5.5 2.7 8.2 4.6 1-3.6 1.5-7.3 2-11q2 0 4 0c0.3 2.6 0.7 5.3 1 8 0.3-12.9 0.7-25.7 1-39q-1.5-0.5-3-1 0.5-1.5 1-3c2.8-0.9 4.6-1.2 7.5-1.2q1.2 0 2.3 0c2.2 0.2 2.2 0.2 5.2 2.2q-0.5 1.5-1 3-1 0-2 0c0 13.9 0 27.7 0 42q3 0 6 0c0-5.9 0-11.9 0-18q2 0 4 0c1.4-3.8 2.2-6.9 2-11q3 0 6 0 0.2 1.2 0.4 2.4 0.3 1.5 0.5 3 0.3 1.5 0.6 3.1c0.2 2.4 0.2 2.4 1.5 3.5 0.1 2.7 0 5.3 0 8q2.5 0 5 0c0-6.3 0-12.5 0-19q3 0 6 0c0 5.3 0 10.6 0 16q2 0 4 0c0.3-4.3 0.7-8.6 1-13q2 0 4 0 0-2.5 0-5 1 0 2 0 0 2.5 0 5c2.9-0.3 2.9-0.3 6-1q1-1.5 2-3 0 2 0 4 1.5 0 3 0 0-1.1 0-2.3c0-1.5 0-1.5-0.1-3q0-1.5 0-3c0.1-2.7 0.1-2.7 1.1-5.7q-1.5-0.5-3-1 0.5-3 1-6 1.5-0.5 3-1 0.5-1.5 1-3 1 0 2 0 1-2 2-4c4.9 0.9 4.9 0.9 6 2q0.1 2.5 0 5-2 0-4 0-0.5 1.5-1 3c-2.1 1.7-2.1 1.7-4 3q0.5 1.1 1 2.3c1.2 4.3 1.1 8 1 12.5 0 3 0.4 5.9 0.8 8.9 0.4 4.5 0.3 8.9 0.3 13.3q0 1.4-0.1 2.9 0 3.6 0 7.1 1.5 0 3 0c0 3 0 5.9 0 9 3.5-0.5 3.5-0.5 7-1q-3 0-6 0 0.5-3 1-6 2.5 0 5 0c0-5.3 0-10.6 0-16q1 0 2 0 0-2.5 0-5 0.5 0 1 0c0.3-3 0.7-5.9 1-9q2.5 0.5 5 1c0.7 4.3 1.3 8.6 2 13 0-16.8 0-33.7 0-51q-1 0-2 0-0.5-2-1-4c2 0.5 2 0.5 4 1q0-1 0-2 2.7 0 5.3-0.1 1.5 0 3 0c2.7 0.1 2.7 0.1 5.7 1.1q0 2 0 4-1 0-2 0c0 16.5 0 33 0 50 2.3 0 4.6 0 7 0-0.3-6.9-0.7-13.9-1-21q3 0 6 0 0.2-1.6 0.4-3.2c1.3-8.5 1.3-8.5 3.6-10.8 2.6 0.4 2.6 0.4 5 1q-0.5 2.5-1 5 1 0.5 2 1-1 0-2 0 0 1.5 0 3 1 0 2 0 0.5 2.5 1 5 1 0 2 0c0 19.5 0 38.9 0 59 2.3 0.3 4.6 0.7 7 1 3.8 2.2 5.9 4.7 7.5 8.8 1 4.6 0.7 9.5 0.5 14.2q0.8-0.1 1.7-0.2c5.3-0.3 8.5 0.3 12.8 3.4 4.3 5.1 4.8 10 4.3 16.5-1.4 17.8-1.4 17.8 5.4 33.5 3.9 4.1 8.3 7.5 12.8 10.9 3.7 3.5 4.9 7.3 5.1 12.4-1.8 7.5-5.9 12.4-12.4 16.7-4.3 3-7.6 5.9-9.7 10.8-1.2 7.5-1.2 15-1 22.6q0 1.1 0 2.3 0.1 2.2 0.2 4.3c0.1 5.1-0.9 8.3-3.2 12.8-3.9 3.6-6.3 5.1-11.6 5.1q-1.2-0.1-2.5-0.1c-0.9 0-0.9 0-1.9 0q0.1 1.2 0.1 2.3c0.3 6.8 0.2 12.3-4.1 17.7-4.9 3.9-8.6 5.1-14.8 5.1q-1.7 0-3.5 0-1.9 0-3.9 0-1.9 0-4 0-5.2 0-10.4 0-5.3 0-10.6-0.1-10.4 0-20.8 0-0.4 1.4-0.9 2.9c-1.3 3.8-2.7 4.9-6.1 7.1-5.8 2.7-11.3 2-17.5 1.7-27.7-2.4-27.7-2.4-51.8 8-2.7 3.3-5.2 6.6-7.4 10.3-1.7 2.6-3.4 3.9-6.3 5-2.7 0.4-2.7 0.4-5.4 0.4-1.4 0.1-1.4 0.1-2.8 0.1-5.7-1-8.9-4.4-12.4-8.8-8.5-10.3-8.5-10.3-20.6-15.2-6.8-0.6-13.6-0.3-20.4 0.1q-5.3 0.1-10.5 0.2-3.3 0.1-6.5 0.2c-6.6 0.3-12.8 0.2-18-4.4-2.3-2.6-3.4-4-3.4-7.6q-1.1 0-2.2 0-10.5 0.1-20.9 0.2-5.4 0-10.7 0-5.2 0.1-10.4 0.1-2.9 0-5.9 0c-13 0-13 0-18.6-4.8-3.8-5-4.4-8-4.4-14.2q0.1-1.7 0.1-3.6 0-1.3 0-2.7-0.9 0.1-1.8 0.1c-5.6 0.3-8.7-0.3-13.2-4.1-2.9-3.4-4-5.8-3.9-10.3q0.1-1 0.1-2c1.8-19.8 1.8-19.8-5.6-37.3-4.2-4.3-8.7-8-13.6-11.5-3-2.8-3.8-6.1-4.2-10.2 0.5-6.7 3.3-10.2 8.2-14.7q1.8-1.2 3.5-2.3c5-3.6 9.6-7.3 10.9-13.6 0.9-7.1 0.9-14.3 0.7-21.5q0-1.1-0.1-2.3 0-2.3-0.1-4.5c-0.2-4.7 0.6-7.8 3.1-11.8 4-3.6 6.3-5.1 11.6-5.1q1.2 0.1 2.5 0.1 0.9 0 1.9 0-0.1-1.3-0.1-2.6c-0.3-11.9-0.3-11.9 3.1-16.4 3.5-3.4 5-4 10-5 0-9.6 0-19.1 0-29 4.9 0 9.9 0 15 0 0-3.3 0-6.6 0-10 3 0 5.9 0 9 0 0-6.3 0-12.5 0-19q2.5 0 5 0c0 5.3 0 10.6 0 16q2 0 4 0c0.3-4.3 0.7-8.6 1-13q2 0 4 0 0-2.5 0-5 1 0 2 0 0 2.5 0 5 3 0 6 0 0.5-2 1-4c0.5 2 0.5 2 1 4q1.5 0 3 0 0-1.1 0-2.3 0-1.5-0.1-3 0-1.5 0-3c0.1-2.7 0.1-2.7 1.1-5.7q-1 0-2 0c-0.8-2.1-0.8-2.1-1-5 1.4-2.4 3-4 5-6q1 0 2 0 1-2 2-4c4.9 0.9 4.9 0.9 6 2q0.1 2.5 0 5-2 0-4 0c-0.4 0.9-0.4 0.9-0.8 1.9-1.2 2.1-1.2 2.1-4.2 4.1q0.5 1.2 1 2.4c1.2 4.3 1.5 8.2 1.6 12.7 0.1 1.2 0.1 1.2 0.1 2.6 0.4 9.7 0.4 19.5 0.3 29.3q1.5 0 3 0c0 2.6 0 5.3 0 8 1-2 1.5-3.8 2-6q2.5 0 5 0c0-5.3 0-10.6 0-16q1 0 2 0 0-2.5 0-5 0.5 0 1 0c0.3-3 0.7-5.9 1-9q2.5 0.5 5 1 0.2 1.3 0.4 2.6c0.3 1.6 0.3 1.6 0.5 3.3q0.3 1.7 0.6 3.4c0.2 2.6 0.2 2.6 1.5 3.7 0-16.8 0-33.7 0-51q-1.5 0-3 0-0.5-2-1-4c3.2-1 6.2-1.1 9.6-1.1q1.4 0 2.8 0c2.6 0.1 2.6 0.1 5.6 1.1q0 2 0 4-1 0-2 0c0 16.5 0 33 0 50 2.3 0 4.6 0 7 0 0-6.9 0-13.9 0-21q2.5 0 5 0 0.2-1.6 0.4-3.2c0.6-4 1.4-8 2.3-12 0.1-1.4 0.1-1.4 0.3-2.8-1-1-1-1-2-2-0.4-2.9-0.4-2.9 0-6 1.9-2.4 1.9-2.4 4-4q1 0 2 0 0-2 0-4 2 0 4 0 0.2-1.2 0.4-2.4c0.9-3.8 0.9-3.5 4.9-4zm-8.3 37.4c1 2 1 2 1 2zm184 1c1 3 1 3 1 3zm-245 17c0 4.3 0 8.6 0 13q0.5 0 1 0c0-4.3 0-8.6 0-13q-0.5 0-1 0zm190 0c0 3.6 0 7.3 0 11q0.5 0 1 0c0-3.6 0-7.3 0-11q-0.5 0-1 0zm-95 23q0 1 0 2-1 0-2 0 0 1 0 2-1 0-2 0 0 1 0 2-1 0.4-1.9 0.8c-2.4 1.1-2.4 1.1-3.1 4.2-2.1 1.2-2.1 1.2-4 2q0 1 0 2-1 0-2 0 0 1 0 2c-3.1 1-5.3 1.1-8.5 1.2q-1.7 0-3.5 0-1.8 0-3.7 0-3.9 0.1-7.7 0.1-6.1 0.1-12.3 0.2-5.9 0-11.7 0.1-1.9 0-3.8 0-1.6 0.1-3.4 0.1c-1.5 0-1.5 0-3 0-2.6 0.1-2.6 0.1-4.4 2.3q-0.5 1.7-1 3.5c-1 3.5-1 3.5-3 5.5-2.7 0.3-2.7 0.3-6.1 0.3q-2 0-3.9 0c-1.1 0-1.1 0-2.1 0q-3.3 0-6.5 0-9.2 0.1-18.4 0.1-5.7 0-11.3 0-2.2 0.1-4.3 0.1-3-0.1-6 0-1.7 0-3.5 0c-3.5 0.6-4.7 1.7-6.9 4.5-0.6 2-0.6 2-0.5 4q-0.1 1.2-0.1 2.3 0 1.1 0 2.3c-0.2 8.2-0.2 8.2-2.4 10.4-3 0.3-6 0.4-9.1 0.5-3.7 0.6-4.7 1.5-6.9 4.5-0.2 2.8-0.1 5.2 0.1 8q0.2 2.4 0.3 4.8 0 1.3 0.1 2.5c0.7 21.7 0.7 21.7-6.2 29.6-3.6 3.8-7.6 7-11.7 10.2-3.3 2.5-4.4 3.5-5.9 7.4 1.8 4.8 4.7 6.6 8.7 9.7 7.8 6.2 13.7 11.7 14.9 21.9 0.6 8.4 0.4 16.8-0.3 25.2-0.2 3.2-0.2 5.3 1.3 8.2 2.6 2.3 4.8 2 8.3 2.1 6.2 0.2 6.2 0.2 8.4 2.4 0.3 3.6 0.4 7.1 0.4 10.7q0 1.1 0.1 2.3 0 1 0 2c0.7 3 2.2 4.1 4.5 6 3 0.6 3 0.6 6.3 0.5q1.9 0 3.8 0 1 0 2.1 0 3.1 0 6.3 0 5.6 0.1 11.2 0.1 9 0 17.9 0 3.2 0 6.3 0 1.9 0 3.8 0 1.7 0 3.4 0c3.3 0.4 4.6 1.1 6.9 3.4 1.2 3.6 1.2 3.6 2 7 1 1.3 1 1.3 3.1 1q1.4-0.1 2.9-0.1c51-2.4 51-2.4 62.1 7.5 3.9 4 7.1 8.7 10.2 13.5 1.8 2.2 2.7 2.9 5.5 3.4 3.2-0.3 4.4-0.5 6.7-2.7q0.9-0.9 1.7-1.7 3.7-3.9 7.2-8c8.9-10.4 8.9-10.4 14.3-11.4 1.5 0 1.5 0 3.1 0q1.6 0 3.4 0c1.8 0 1.8 0 3.7 0 1.8 0 1.8 0 3.7 0q5-0.1 10-0.1 7 0 14 0 3.8 0 7.5 0c1.7 0 1.7 0 3.4 0q1.5 0 3 0c2.5-0.2 2.5-0.2 4.3-1.7 1.7-2.4 2.3-4.9 3.2-7.7 2.7-2.7 4.2-2.3 8.1-2.3q1.9 0 3.8 0c1 0 1 0 2.1 0q3.2 0 6.4 0 9.1-0.1 18.1-0.2 5.6 0 11.2 0 2.1-0.1 4.2-0.1 3 0 5.9 0 1.7 0 3.4 0c2.8-0.2 2.8-0.2 4.7-1.7 2-3 1.6-6.7 1.6-10.2 0.1-8 0.1-8 1.8-10.2 3.1-2.4 7.1-1.8 10.9-1.9 2.7-0.2 2.7-0.2 4.5-1.4 2.1-3.1 1.6-6.5 1.6-10.1q0-2.5 0-4.9 0-3.9-0.1-7.8c-0.2-16.2-0.2-16.2 3.9-20.9q1.9-1.7 3.9-3.3 2-1.9 4-3.8 3-2.9 6-5.6 1-1 2-1.9 0.8-0.8 1.7-1.7c2-3.1 1.8-5.4 1.3-9-1.9-2.8-1.9-2.8-4.6-5.2q-1.4-1.4-2.8-2.8-1.5-1.4-3-2.8-3-2.8-5.9-5.7-1.3-1.2-2.7-2.5c-3.7-3.7-3.2-7.2-3.2-12.2q-0.1-2.5-0.1-5-0.1-3.9-0.1-7.9 0-3.8-0.1-7.6c0-1.2 0-1.2 0-2.4-0.1-4.2-0.1-4.2-1.9-7.9-2.5-1.5-4.7-1.4-7.6-1.5-5.6-0.2-5.6-0.2-7.7-1.8-2.6-3.3-1.8-8.4-1.8-12.5-0.1-4.2-0.1-4.2-1.6-7.9-2.7-1.9-4.8-1.7-8.1-1.7q-1.9 0-3.8 0c-1 0-1 0-2.1 0q-3.2 0-6.4 0-6.7-0.1-13.5-0.1-7.8 0-15.7-0.1-3.1 0-6.3 0-1.9 0-3.8 0-1.7 0-3.4 0c-2.8-0.4-2.8-0.4-4.6-1.7-1.7-2.4-2.3-5-3.2-7.7-1.8-2.2-1.8-2.2-4.4-2.2-1.4 0-1.4 0-2.9 0q-1.7 0-3.4 0c-1.8 0-1.8 0-3.7 0q-3.8 0-7.6 0-6.1 0-12.2 0-5.8 0.1-11.6 0-1.8 0.1-3.7 0.1c-5.7-0.1-9.6-0.3-14.1-4.2q-1.7-1.8-3.4-3.7-1.1-1.1-2.3-2.3-0.9-0.9-1.8-1.9-1-1-2-2.1-2.1-2.2-4.2-4.4-1-1-2-2-0.9-1-1.8-1.9c-5.3-3.8-9-0.2-12.9 3.6zm85-7c1 4 1 4 1 4zm-190 0c0 5.6 0 11.2 0 17q1-0.5 2-1c-0.3-5.3-0.7-10.6-1-16q-0.5 0-1 0zm190 10c1 4 1 4 1 4zm9 3q0 0.5 0 1c3.3 0 6.6 0 10 0q0-0.5 0-1c-3.3 0-6.6 0-10 0zm31 1c0 4.9 0 9.9 0 15q0.5 0 1 0c0-4.9 0-9.9 0-15q-0.5 0-1 0zm-239 9q0 3 0 6 1 0 2 0 0-3 0-6-1 0-2 0z"/>
	<path class="s2" d="m77 166c15 0 15 0 18.2 3 1 2 1 2 1.9 4.2q1.2 2.3 2.3 4.6 0.6 1.3 1.2 2.5c2.6 5 5.6 9.6 8.5 14.3q1.7 2.7 3.4 5.4 1.3 2 2.5 4c2.9-3.5 5.3-7 7.5-11 1-1.7 1-1.7 2-3.4q1-1.8 2-3.5 2-3.5 4-7 0.8-1.5 1.7-3.1c1.8-3.1 3.8-6 5.8-9 4.9 0 9.9 0 15 0 0 21.1 0 42.2 0 64-5.3 0-10.6 0-16 0-0.3-11.2-0.7-22.4-1-34-5.3 9.2-5.3 9.2-10.5 18.4q-1 1.7-2 3.5-0.5 0.9-1 1.8c-1.4 2.4-2.7 4.1-5.4 4.8-2.2 0.2-4 0.1-6.1-0.5-2.1-2-2.1-2-3.7-4.9q-0.9-1.5-1.8-3-0.9-1.6-1.8-3.3-0.9-1.6-1.9-3.2-1.6-2.9-3.3-5.9c-1.4-2.6-3-5.2-4.5-7.7-0.3 11.6-0.7 23.1-1 35-5.3 0-10.6 0-16 0 0-21.8 0-43.6 0-66z"/>
	<path class="s3" d="m229 167c4.9 0 9.9 0 15 0 3.2 3.3 4.5 5 6.3 9q1.4 2.7 2.9 5.5 0.7 1.4 1.4 2.8c2.1 4.1 4.6 7.9 7.2 11.8 4.2 6.6 4.2 6.6 4.2 8.9q1 0 2 0 0.3-1.2 0.6-2.4c1.8-4.8 4.4-8.9 7.1-13.3q0.8-1.3 1.6-2.7c10.8-17.7 10.8-17.7 12.7-19.6 4.6 0 9.2 0 14 0 0 21.1 0 42.2 0 64-4.9 0-9.9 0-15 0-0.5-17.3-0.5-17.3-1-35-2.1 3.5-4.1 7-6.2 10.6q-1 1.6-2 3.2-4.5 7.6-8.8 15.2c-3.1 0.5-5 0.7-8 0-2.7-2.5-4.2-5.8-6-9q-2.1-3.4-4.2-6.8-3.4-5.6-6.8-11.2c-0.3 10.9-0.7 21.8-1 33-5.3 0-10.6 0-16 0 0-21.1 0-42.2 0-64z"/>
	<path class="s2" d="m319 167c16.8 0 33.7 0 51 0 0 4.3 0 8.6 0 13-11.2 0-22.4 0-34 0 0 4 0 7.9 0 12 9.9 0 19.8 0 30 0 0 4.3 0 8.6 0 13-9.9 0-19.8 0-30 0 0 4.3 0 8.6 0 13 11.6 0 23.1 0 35 0 0 4.3 0 8.6 0 13-17.2 0-34.3 0-52 0 0-21.1 0-42.2 0-64z"/>
	<path class="s2" d="m214 169c1.1 4 0.9 6.1-0.9 9.8-0.6 1.2-0.6 1.2-1.2 2.4q-0.4 0.9-0.9 1.8-1-0.3-2-0.6-1.4-0.4-2.8-0.8-1.3-0.4-2.6-0.8c-6.3-1.9-12.3-3.1-18.6-0.6-2.4 2.2-2.7 3.6-3 6.8 4.3 4.1 10.1 4.7 15.7 6 8.6 2.1 15.1 4.6 20.3 12 1.8 5.3 1.7 10-0.5 15.1-3.4 6-8.7 9.5-15.1 11.8-11.9 3-25.8 2-36.6-4.1q-1.4-0.9-2.8-1.8c1.7-4 3.3-7.9 5-12 3.5 0.9 6.8 1.9 10.2 3.1 8.7 2.6 14.7 3.1 22.8-1.1-0.5-3-0.5-3-1-6q-2.6-0.8-5.2-1.6-2.2-0.7-4.4-1.4-6-1.9-12-3.6c-5.6-1.7-9.2-3.8-12.8-8.5-2.3-4.5-2.5-9-1.6-13.9 2.8-6.6 7.1-10.6 13.4-13.7 12.6-4.6 24.2-1.8 36.6 1.7z"/>
	<path class="s4" d="m203 242c4.1 2 6.6 4.2 9 8 0.9 5.2 0.6 9.7-1.6 14.5-4.1 4.2-8.2 5.6-14 5.9-5.2-0.2-7.9-2-11.7-5.4-3.1-3.6-3-7.2-3-11.7 0.5-3.6 1.9-5.6 4.3-8.3 5.4-3.9 10.5-3.8 17-3z"/>
	<path class="s2" d="m192 127c2.3 0 4.6 0 7 0 1.9 2.2 3.1 3.8 4.4 6.4q0.6 0.9 1.1 1.8c2.5 4.4 2.5 4.4 2.5 6.8q1 0 2 0 0.4-1.1 0.8-2.2c1.2-2.8 2.4-5.4 3.9-8.1q0.7-1.3 1.4-2.7 0.9-1 1.9-2c2.3 0 4.6 0 7 0 0 8.9 0 17.8 0 27-2.3 0-4.6 0-7 0-0.3-4-0.7-7.9-1-12-3 4.9-3 4.9-6 10-5-1-5-1-6.6-3.1q-1.7-3.4-3.4-6.9c-0.3 4-0.7 7.9-1 12-2.3 0-4.6 0-7 0 0-8.9 0-17.8 0-27z"/>
	<path class="s5" d="m261 136c30.4 0 60.7 0 92 0q-0.5 3-1 6c-30 0-60.1 0-91 0q0-3 0-6z"/>
	<path class="s6" d="m92 136c30 0 60.1 0 91 0q0 3 0 6c-30 0-60.1 0-91 0q0-3 0-6z"/>
	<path class="s2" d="m152 242c2.3 0 4.6 0 7 0 0 3.6 0 7.3 0 11 3.6 0 7.3 0 11 0 0-3.6 0-7.3 0-11 2.6 0 5.3 0 8 0 0 9.2 0 18.5 0 28-2.6 0-5.3 0-8 0 0-3.6 0-7.3 0-11-3.6 0-7.3 0-11 0 0 3.3 0 6.6 0 10-2.3 0-4.6 0-7 0 0-8.9 0-17.8 0-27z"/>
	<path class="s7" d="m216 242c2.6 0 5.3 0 8 0q0.1 1.9 0.1 3.8 0.2 2.5 0.3 5 0 1.3 0.1 2.5 0 1.2 0.1 2.5 0 1.1 0.1 2.2c0.2 2.3 0.2 2.3 2.3 5q3-0.5 6-1c0.3-6.6 0.7-13.2 1-20 2.6 0 5.3 0 8 0q0.2 5.1 0.3 10.1 0.1 1.4 0.1 2.9c0.2 8 0.2 8-2.7 11.6-3.6 3.2-3.6 3.2-6.7 3.4-1.1 0.1-1.1 0.1-2.2 0.2-4.7 0.1-8 0-11.8-3.2-3.9-4.7-3.3-9.5-3.2-15.3q0-1.4 0.1-2.8 0-3.5 0.1-6.9z"/>
	<path class="s2" d="m273 242c6.9 0 13.9 0 21 0q0 3 0 6c-4.3 0-8.6 0-13 0q0 2.5 0 5c4 0 7.9 0 12 0q0 3 0 6c-4.3 0-8.6 0-13 0q0 2.5 0 5c4.9 0 9.9 0 15 0q0 2.5 0 5c-7.3 0-14.5 0-22 0 0-8.9 0-17.8 0-27z"/>
	<path class="s8" d="m265 242q1.5 0.5 3 1-0.5 2.5-1 5c-4 1.3-7.9 1.1-12 1q0 1 0 2 1 0.3 2 0.5c9.6 2.6 9.6 2.6 12 6.5 0.6 3.4 0.6 3.4 0 7-2.7 3.5-4.3 4.8-8.6 5.4-5.2 0.1-9.6-0.3-14.4-2.4q0.5-3 1-6 1 0.2 2 0.5c3.7 0.6 7.2 0.6 11 0.5q0.5-1.5 1-3-1-0.1-2-0.3c-4.5-0.7-7.4-1.3-11.1-4-1.9-2.7-1.9-2.7-2.5-5.7 0.6-3 0.6-3 2.2-5.9 5.4-3.4 11.2-2.6 17.4-2.1z"/>
	<path class="s9" d="m226 127c3 0 5.9 0 9 0 1.7 3 3.3 5.9 5 9 3.1-2.8 3.1-2.8 4.8-6.2q1.1-1.4 2.2-2.8c3.8-0.4 3.8-0.4 7 0-1.4 3.9-3.3 7.1-5.6 10.6-3.4 5.8-4.5 10.7-4.4 17.4-2.6 0-5.3 0-8 0q0-1 0.1-2.1c-0.1-9-3.4-14.6-8.2-21.9-1.9-3-1.9-3-1.9-4z"/>
	<path class="s10" d="m304 167q2 0.5 4 1c0 21.8 0 43.6 0 66-5.3 0-10.6 0-16 0q0-1 0-2-1.5-0.5-3-1c4.9 0 9.9 0 15 0 0-21.1 0-42.2 0-64z"/>
	<path class="s11" d="m154 168q1.5 0 3 0c0 21.8 0 43.6 0 66-5.3 0-10.6 0-16 0q0-0.5 0-1c4.3 0 8.6 0 13 0 0-21.4 0-42.9 0-65z"/>
	<path class="s12" d="m200 248c2.4 1.5 2.4 1.5 4 4 0.6 2.8 0.7 5.2 0 8-2.1 2.6-2.1 2.6-5 4-3.2-0.1-5.1-0.5-7.9-2.1-1.8-3.1-1.7-6.4-1.1-9.9 2.7-4.1 5.2-4.8 10-4z"/>
	<path class="s13" d="m288 195q0.5 0 1 0c0 11.9 0 23.8 0 36q-0.5 0-1 0c-0.5-12.4-0.5-12.4-1-25-3.9 6.5-3.9 6.5-7.8 13.1q-0.7 1.2-1.5 2.4-0.7 1.3-1.5 2.6c-1.2 1.9-1.2 1.9-2.2 2.9-2.7 0.1-5.3 0-8 0q0-0.5 0-1 2.5 0 5 0 0.1-1 0.3-2.1c0.8-3.4 2.2-5.8 4-8.8q1-1.7 2.1-3.4 1-1.7 2.1-3.4 1.1-1.8 2.1-3.6c5.2-8.5 5.2-8.5 6.4-9.7z"/>
	<path class="s14" d="m93 196c2.5 2.4 3.9 3.7 5 7q0 3.5-0.1 7.1-0.1 1-0.1 2-0.1 3.3-0.2 6.6-0.1 2.2-0.2 4.4-0.2 5.5-0.4 10.9c-5.3 0-10.6 0-16 0q0-0.5 0-1c4.3 0 8.6 0 13 0q-0.5-1-1-2-0.1-3.9-0.1-7.9 0-1.1 0-2.3 0-3.7 0-7.4 0-2.5 0.1-5.1 0-6.1 0-12.3z"/>
	<path class="s15" d="m136 248c2.6 2.1 3.7 3.7 4.4 6.9 0.3 4.2-0.1 5.7-2.8 9-3.4 2.8-5.7 3.6-10.2 3.6-6.1-1.2-11.4-5.8-16-9.7-3-2.2-4.8-2.1-8.4-1.8q-0.5 2.5-1 5 2.5 0 5 0-0.5 1-1 2-2.5-0.5-5-1c-1.3-5.4-1.3-5.4 0-7.9 3.2-1.7 5.5-0.9 9-0.1 2.4 1.3 4.6 2.8 6.8 4.5q1.7 1.2 3.4 2.5c1.4 1 1.4 1 2.8 2 3.5 1.7 7.2 1.6 11 1 2.8-1.9 2.8-1.9 4-5 0.1-3.7 0.1-3.7-1-7-2.8-2.4-2.8-2.4-6.2-1.6q-1.4 0.3-2.8 0.6 0 2.5 0 5 2.5 0 5 0-0.5 1.5-1 3c-4.8-0.8-4.8-0.8-7-3-0.4-2.4-0.4-2.4 0-5 3.1-3.6 6.4-3.7 11-3z"/>
	<path class="s16" d="m219 204c3.1 2.8 3.9 4.9 4.3 9.1-0.4 5.8-2 10.5-6 14.7-9.7 7.9-20.5 7.6-32.3 7.2q0-0.5 0-1 1.8-0.1 3.6-0.3c15.2-1.2 15.2-1.2 27.5-9.8 3-4.6 3-8.1 3-13.6q-0.1-1.8-0.1-3.6 0-1.3 0-2.7z"/>
	<path class="s17" d="m246 201c3 3 3 3 3.3 6.1q0 1.8 0 3.8 0 0.9 0 2-0.1 3.1-0.1 6.3 0 2.1-0.1 4.3 0 5.2-0.1 10.5c-5.6 0-11.2 0-17 0q0-0.5 0-1c4.6 0 9.2 0 14 0 0-10.6 0-21.1 0-32z"/>
	<path class="s18" d="m246 168c2.9 2.7 5 5.4 7 8.9 0.8 1.4 0.8 1.4 1.7 2.8q0.8 1.5 1.7 3c4 6.9 8.1 13.7 12.6 20.3q-0.5 1-1 2-1 0-2 0c-1.2-1.6-1.2-1.6-2.5-3.9q-0.7-1.2-1.5-2.5-0.8-1.3-1.6-2.7c-4.4-7.6-9-15-14-22.2q-0.7-1.4-1.4-2.7 0.5-1.5 1-3z"/>
	<path class="s19" d="m94 168q1 0 2 0c1.5 2.1 1.5 2.1 3.3 5.1q0.9 1.6 1.9 3.3 1 1.7 2.1 3.5 0.9 1.6 1.9 3.3 2 3.3 3.9 6.6 3.9 6.6 7.9 13.2-1 1-2 2c-6.2-9.5-12.2-19.2-18-29q-0.9-1.4-1.8-2.7c-1.2-2.3-1.2-2.3-1.2-5.3z"/>
	<path class="s20" d="m371 168q1.5 0 3 0c0 4.6 0 9.2 0 14-11.2 0-22.4 0-34 0 0 3 0 5.9 0 9q-1 0-2 0c0-3.3 0-6.6 0-10 10.9 0 21.8 0 33 0 0-4.3 0-8.6 0-13z"/>
	<path class="s21" d="m372 220q1.5 0 3 0c0 4.6 0 9.2 0 14-17.2 0-34.3 0-52 0q0-0.5 0-1c16.2 0 32.3 0 49 0 0-4.3 0-8.6 0-13z"/>
	<path class="s22" d="m135 200q0.5 0 1 0c0.7 6-1.6 9.3-4.8 14.1q-1.4 2-2.7 4.1-0.7 1-1.3 2c-1.3 2-1.3 2-2.8 4.8-1.4 2-1.4 2-3.4 2.5q-3-0.3-6-0.5 0-0.5 0-1 1.1-0.1 2.3-0.2c3.6-1.1 4.2-2.4 6-5.6q0.8-1.5 1.7-3 0.8-1.5 1.7-3.1 1.7-3 3.4-6c0.8-1.4 0.8-1.4 1.6-2.8q1.5-2.7 3.3-5.3z"/>
	<path class="s23" d="m367 194q1.5 0 3 0c0 4.3 0 8.6 0 13-9.9 0-19.8 0-30 0 0 3.3 0 6.6 0 10q-1 0-2 0c0-3.6 0-7.3 0-11 9.6 0 19.1 0 29 0 0-4 0-7.9 0-12z"/>
	<path class="s24" d="m286 201q0.5 0 1 0c-0.4 6.6-3 10.9-6.5 16.4-0.8 1.2-0.8 1.2-1.6 2.5-3.7 5.9-3.7 5.9-4.9 7.1-2.7 0.1-5.3 0-8 0q0-0.5 0-1 3 0 6 0 0.4-1.1 0.8-2.2c1.2-2.7 2.5-5.1 4-7.7q0.8-1.3 1.6-2.6 0.8-1.4 1.7-2.8 0.8-1.4 1.6-2.8c0.8-1.4 0.8-1.4 1.6-2.7q0.8-1.2 1.5-2.4 0.6-0.9 1.2-1.8z"/>
	<path class="s25" d="m192.4 177.8q1.2 0 2.3 0c2.5 0.2 4.1 1 6.3 2.2-2 2-5.8 1.4-8.6 1.6-2.7 0.3-2.7 0.3-5.4 2.4-1.2 3.1-1.2 3.1-2 6q-2-1.5-4-3c0.5-3.7 1-5.7 4-8 2.8-0.9 4.6-1.2 7.4-1.2z"/>
	<path class="s26" d="m286 201q0.5 0 1 0c-0.4 5.8-2 10.6-6 15q-1.5 0-3 0c1.4-3.7 3-7 5.1-10.3q0.7-1.3 1.6-2.7 0.6-1 1.3-2z"/>
	<path class="s27" d="m371 168q1.5 0 3 0c0 4.6 0 9.2 0 14q-1.5 0-3 0c0-4.6 0-9.2 0-14z"/>
	<path class="s28" d="m211 94q0 1.5 0 3-1 0-2 0-0.5 1.5-1 3-1 0-2 0-0.5 1.5-1 3-1 0-2 0 0 1 0 2-1.5 0-3 0 0-1.5 0-3 1 0 2 0 0.5-1.5 1-3 1 0 2 0 0-1 0-2c3.5-3 3.5-3 6-3z"/>
	<path class="s24" d="m217 171q1 0.5 2 1c-0.6 4.8-2 8.6-4 13q-1.5 0-3 0c1.5-4.7 3.1-9.4 5-14z"/>
	<path class="s29" d="m194 180q-0.9 0.4-1.8 0.8c-3.6 2-5.9 3.7-8.2 7.2q-0.5-2.5-1-5c3.8-2.7 6.3-3.3 11-3z"/>
	<path class="s30" d="m218 85q1.5 0 3 0 0 1.5 0 3c-5.2 5-5.2 5-9 5q0-1 0-2 1.5 0 3 0 0-1.5 0-3 1.5 0 3 0 0-1.5 0-3z"/>
	<path class="s31" d="m234 311q1.5 0 3 0 0 1.5 0 3-1 0-2 0-0.5 1.5-1 3-1.5 0-3 0 0.5-1.5 1-3 1 0 2 0 0-1.5 0-3z"/>
	<path class="s32" d="m287 197q0.5 0 1 0c0 2.6 0 5.3 0 8q-1-1.5-2-3-1.5 1.5-3 3c1.8-5.8 1.8-5.8 4-8z"/>
	<path class="s33" d="m263 198c4.9 2.8 4.9 2.8 6 5q-0.5 1-1 2-1 0-2 0c-3-4.4-3-4.4-3-7z"/>
	<path class="s34" d="m403 190q1.5 0 3 0 0 1.5 0 3 1.5 0.5 3 1 0 1 0 2-2-0.5-4-1 0-1 0-2-1 0-2 0 0-1.5 0-3z"/>
	<path class="s35" d="m211 231c-2.4 2.4-3.3 2.3-6.6 2.6q-1.2 0.1-2.5 0.3-0.9 0-1.9 0.1c6.7-4.4 6.7-4.4 11-3z"/>
	<path class="s36" d="m275 222q0.5 1.5 1 3c-2 2-2 2-3.9 2.2q-3.1-0.1-6.1-0.2 0-0.5 0-1 3 0 6 0 0-1 0-2 1.5-1 3-2z"/>
	<path class="s37" d="m135 200q0.5 0 1 0 0 3 0 6-2 0.5-4 1c1.9-5.9 1.9-5.9 3-7z"/>
	<path class="s38" d="m371 119q1.5 0 3 0c2 3 2 3 2 6q-1.5-0.5-3-1 0-1 0-2-1 0-2 0 0-1.5 0-3z"/>
	<path class="s39" d="m312 288q0 1.5 0 3-1.5 0-3 0 0 1 0 2-1.5 0-3 0 0-1.5 0-3c3.8-2 3.8-2 6-2z"/>
	<path class="s34" d="m372 285q1.5 0 3 0 0 1.5 0 3-1 0-2 0 0 1 0 2-1.5 0-3 0 0-1.5 0-3 1 0 2 0 0-1 0-2z"/>
	<path class="s40" d="m217 58q1 0 2 0 0 1.5 0 3-1 0-2 0 0-1.5 0-3z"/>
</svg>