<?xml version="1.0" encoding="UTF-8"?>
<svg id="Layer_1" data-name="Layer 1" xmlns="http://www.w3.org/2000/svg" xmlns:xlink="http://www.w3.org/1999/xlink" viewBox="0 0 500 500">
  <defs>
    <style>
      .cls-1 {
        fill: #ee4027;
      }

      .cls-2 {
        fill: url(#linear-gradient);
      }
    </style>
    <linearGradient id="linear-gradient" x1="159.88" y1="147.8" x2="328.39" y2="579.18" gradientUnits="userSpaceOnUse">
      <stop offset="0" stop-color="#df3314"/>
      <stop offset=".11" stop-color="#df3719"/>
      <stop offset=".24" stop-color="#e14328"/>
      <stop offset=".38" stop-color="#e35841"/>
      <stop offset=".53" stop-color="#e77563"/>
      <stop offset=".69" stop-color="#eb9b90"/>
      <stop offset=".85" stop-color="#f1c8c6"/>
      <stop offset="1" stop-color="#f7f6fd"/>
    </linearGradient>
  </defs>
  <g id="salkes">
    <polygon class="cls-1" points="495.76 4.24 495.76 4.24 459.22 4.24 361.33 4.24 361.33 40.95 459.22 40.95 459.22 129.67 495.76 129.67 495.76 40.95 495.76 40.95 495.76 4.24"/>
    <g>
      <g>
        <path class="cls-1" d="M163.14,416.46c0-43.96-35.64-79.6-79.6-79.6S3.94,372.5,3.94,416.46s35.64,79.6,79.6,79.6c43.94-.05,79.55-35.66,79.6-79.6ZM95.5,392.04c1.19,2.12,2.01,4.44,2.45,6.97h10.19l-2.51,8.87h-7.62c-.36,2.26-1.03,4.38-2,6.35-1.56,3.16-4.03,5.73-7.43,7.72-3.4,1.99-7.86,3.15-13.39,3.48l-.32.07,23.48,28.76v.61h-13.1l-25.71-31.2-.07-7h12.74c3.18,0,5.88-.49,8.08-1.47,2.2-.98,3.88-2.41,5.03-4.29.56-.91.97-1.93,1.26-3.03h-28.01l2.51-8.87h25.18c-.59-1.76-1.53-3.28-2.82-4.56-2.39-2.37-6.14-3.55-11.24-3.55h-13.64l2.62-9.55h46.99l-2.55,8.94-11.32-.06c.43.58.84,1.19,1.2,1.82Z"/>
        <path class="cls-1" d="M459.83,445.41H172.98c-1.57,4.99-3.58,9.84-6.01,14.47-7.73,14.8-19.24,27.28-33.36,36.18h326.21c3.99-.01,7.22-3.24,7.24-7.24v-36.18c-.01-3.99-3.24-7.22-7.24-7.24Z"/>
        <path class="cls-1" d="M119.72,329.63v-65.13c-.01-3.99-3.24-7.22-7.24-7.24h-57.89c-3.99.01-7.22,3.24-7.24,7.24v65.13c23.16-9.65,49.21-9.65,72.36,0Z"/>
        <path class="cls-1" d="M177.61,416.46c0,4.84-.36,9.68-1.09,14.47h44.5v-202.62c-.01-3.99-3.24-7.22-7.24-7.24h-57.89c-3.99.01-7.22,3.24-7.24,7.24v120.34c18.5,17.7,28.96,42.2,28.95,67.8Z"/>
        <path class="cls-1" d="M322.34,184.9c-.01-3.99-3.24-7.22-7.24-7.24h-57.89c-3.99.01-7.22,3.24-7.24,7.24v246.03h72.36v-246.03Z"/>
        <path class="cls-1" d="M423.65,141.48c-.01-3.99-3.24-7.22-7.24-7.24h-57.89c-3.99.01-7.22,3.24-7.24,7.24v289.45h72.36V141.48Z"/>
      </g>
      <g>
        <path class="cls-2" d="M163.14,416.46c0-43.96-35.64-79.6-79.6-79.6S3.94,372.5,3.94,416.46s35.64,79.6,79.6,79.6c43.94-.05,79.55-35.66,79.6-79.6ZM95.5,392.04c1.19,2.12,2.01,4.44,2.45,6.97h10.19l-2.51,8.87h-7.62c-.36,2.26-1.03,4.38-2,6.35-1.56,3.16-4.03,5.73-7.43,7.72-3.4,1.99-7.86,3.15-13.39,3.48l-.32.07,23.48,28.76v.61h-13.1l-25.71-31.2-.07-7h12.74c3.18,0,5.88-.49,8.08-1.47,2.2-.98,3.88-2.41,5.03-4.29.56-.91.97-1.93,1.26-3.03h-28.01l2.51-8.87h25.18c-.59-1.76-1.53-3.28-2.82-4.56-2.39-2.37-6.14-3.55-11.24-3.55h-13.64l2.62-9.55h46.99l-2.55,8.94-11.32-.06c.43.58.84,1.19,1.2,1.82Z"/>
        <path class="cls-2" d="M459.83,445.41H172.98c-1.57,4.99-3.58,9.84-6.01,14.47-7.73,14.8-19.24,27.28-33.36,36.18h326.21c3.99-.01,7.22-3.24,7.24-7.24v-36.18c-.01-3.99-3.24-7.22-7.24-7.24Z"/>
        <path class="cls-2" d="M119.72,329.63v-65.13c-.01-3.99-3.24-7.22-7.24-7.24h-57.89c-3.99.01-7.22,3.24-7.24,7.24v65.13c23.16-9.65,49.21-9.65,72.36,0Z"/>
        <path class="cls-2" d="M177.61,416.46c0,4.84-.36,9.68-1.09,14.47h44.5v-202.62c-.01-3.99-3.24-7.22-7.24-7.24h-57.89c-3.99.01-7.22,3.24-7.24,7.24v120.34c18.5,17.7,28.96,42.2,28.95,67.8Z"/>
        <path class="cls-2" d="M322.34,184.9c-.01-3.99-3.24-7.22-7.24-7.24h-57.89c-3.99.01-7.22,3.24-7.24,7.24v246.03h72.36v-246.03Z"/>
        <path class="cls-2" d="M423.65,141.48c-.01-3.99-3.24-7.22-7.24-7.24h-57.89c-3.99.01-7.22,3.24-7.24,7.24v289.45h72.36V141.48Z"/>
      </g>
    </g>
  </g>
</svg>