<svg width="55" height="52" viewBox="0 0 55 52" fill="none" xmlns="http://www.w3.org/2000/svg">
<path d="M43.2552 0.519958C37.2181 0.519958 32.3228 5.41521 32.3228 11.4523C32.3228 17.4894 37.2181 22.3846 43.2552 22.3846C49.2922 22.3846 54.1875 17.4894 54.1875 11.4523C54.1875 5.41521 49.2922 0.519958 43.2552 0.519958ZM46.6921 12.7295L43.0969 15.2705C42.0618 16.0006 40.6341 15.261 40.6341 13.9952V8.91318C40.6341 7.64743 42.0618 6.9059 43.0969 7.6379L46.6921 10.1789C47.5728 10.8004 47.5728 12.1061 46.6921 12.7295Z" fill="#E94623"/>
<path d="M34.2024 47.7625H28.945V44.0053H17.5437V47.7644H12.2862C11.3388 47.7644 10.5706 48.5327 10.5706 49.4801C10.5706 50.4275 11.3388 51.1957 12.2862 51.1957H34.2024C35.1498 51.1957 35.918 50.4275 35.918 49.4801C35.918 48.5327 35.1498 47.7625 34.2024 47.7625Z" fill="#E94623"/>
<path d="M43.2552 25.8159C35.3347 25.8159 28.8916 19.3728 28.8916 11.4523C28.8916 10.3753 29.0212 9.32873 29.2461 8.31842H5.61625C2.96656 8.32033 0.8125 10.4744 0.8125 13.1241V35.7703C0.8125 38.42 2.96656 40.5741 5.61625 40.5741H40.8819C43.5316 40.5741 45.6856 38.42 45.6856 35.7703V25.5948C44.8945 25.7301 44.0863 25.8159 43.2552 25.8159ZM31.5012 32.8423C31.1981 33.3837 30.6262 33.7192 30.0048 33.7192H16.5486C15.9272 33.7192 15.3553 33.3837 15.0503 32.8423C14.7472 32.299 14.7605 31.6357 15.0865 31.1057C16.0167 29.5922 17.6981 28.4351 19.7244 27.8003C18.2185 26.7004 17.2272 24.9333 17.2272 22.9241C17.2272 19.5825 19.936 16.8756 23.2758 16.8756C26.6155 16.8756 29.3243 19.5844 29.3243 22.9241C29.3243 24.9333 28.3349 26.6985 26.8271 27.8003C28.8553 28.4351 30.5367 29.5922 31.465 31.1057C31.791 31.6376 31.8043 32.3009 31.5012 32.8423Z" fill="#E94623"/>
</svg>
